<svg width="76" height="10" viewBox="0 0 76 10" fill="none" xmlns="http://www.w3.org/2000/svg">
<path d="M75.1069 0.936449C71.0723 1.15875 67.0401 1.42708 63.0085 1.71563C63.6626 1.26373 63.3521 -0.0549248 62.3974 0.00177316C46.8504 0.925782 31.3051 1.86551 15.7593 2.80973C11.3175 3.07974 6.87579 3.34808 2.43404 3.61697C1.7723 3.65683 1.76356 4.64708 2.43404 4.61677C16.004 4.00263 29.5739 3.39748 43.1432 2.77436C39.8298 3.24759 36.5152 3.71521 33.1989 4.17329C27.8875 4.66617 22.5789 5.18655 17.2744 5.74174C11.8203 6.31265 6.36842 6.90939 0.920063 7.52745C-0.271783 7.66274 -0.341103 9.3328 0.920063 9.36817C8.92628 9.5944 16.9156 8.24376 24.8228 7.2041C28.5236 6.7174 32.222 6.21834 35.9199 5.71143C43.502 5.02207 51.0906 4.39222 58.6844 3.83815C64.1566 3.43902 69.6323 3.09995 75.1058 2.72496C76.2894 2.64468 76.3063 0.870207 75.1069 0.936449Z" fill="#E5594D"/>
</svg>
