<?xml version="1.0" standalone="no"?>
<!DOCTYPE svg PUBLIC "-//W3C//DTD SVG 1.1//EN" "http://www.w3.org/Graphics/SVG/1.1/DTD/svg11.dtd" >
<svg xmlns="http://www.w3.org/2000/svg" xmlns:xlink="http://www.w3.org/1999/xlink" version="1.1">
<metadata>
Created by FontForge 20170731 at Fri Dec 18 06:00:29 2020
 By Aleksey,,,
Copyright 2006, 2009 for TeX Gyre extensions by B. Jackowski and J.M. Nowacki (on behalf of TeX users groups). This work is released under the GUST Font License --  see http://tug.org/fonts/licenses/GUST-FONT-LICENSE.txt for details.
</metadata>
<defs>
<font id="TeXGyreHerosCondensed-Regular" horiz-adv-x="933" >
  <font-face 
    font-family="TeXGyreHerosCn"
    font-weight="400"
    font-stretch="condensed"
    units-per-em="2048"
    panose-1="0 0 5 6 0 0 0 0 0 0"
    ascent="1638"
    descent="-410"
    x-height="1071"
    cap-height="1470"
    bbox="-893 -578 2271 2230"
    underline-thickness="102"
    underline-position="-255"
    unicode-range="U+0020-FB04"
  />
<missing-glyph horiz-adv-x="573" 
 />
    <glyph glyph-name="I_J" unicode="IJ" horiz-adv-x="1218" 
d="M274 0h-161v1470h161v-1470zM1106 397q0 -209 -91.5 -322.5t-258.5 -113.5q-155 0 -247.5 100t-92.5 267v145h153v-102q0 -123 45 -181.5t140 -58.5q188 0 188 254v1085h164v-1073z" />
    <glyph glyph-name="i_j" unicode="ij" horiz-adv-x="745" 
d="M260 0h-147v1071h147v-1071zM274 1243h-176v197h176v-197zM633 -158q0 -140 -53.5 -206t-165.5 -66q-30 0 -68 6v156h31q69 0 88.5 23.5t19.5 107.5v1208h148v-1229zM647 1243h-176v197h176v-197z" />
    <glyph glyph-name="f_k" unicode="fk" horiz-adv-x="1310" 
d="M440 922h-147v-922h-148v922h-122v149h122v184q0 115 57.5 175.5t166.5 60.5q26 0 71 -4v-162q-50 4 -61 4q-45 0 -65.5 -29.5t-20.5 -95.5v-133h147v-149zM1313 0h-191l-272 541l-123 -135v-406h-147v1470h147v-852l379 453h186l-336 -399z" />
    <glyph glyph-name="f_f" unicode="ff" horiz-adv-x="897" 
d="M874 922h-147v-922h-147v922h-287v-922h-148v922h-122v149h122v184q0 115 57.5 175.5t166.5 60.5q26 0 71 -4v-162q-50 4 -61 4q-45 0 -65.5 -29.5t-20.5 -95.5v-133h287v184q0 115 57 175.5t166 60.5q26 0 71 -4v-162q-50 4 -61 4q-45 0 -65.5 -29.5t-20.5 -95.5v-133
h147v-149z" />
    <glyph glyph-name="f_i" unicode="fi" horiz-adv-x="839" 
d="M440 922h-147v-922h-148v922h-122v149h122v184q0 115 57.5 175.5t166.5 60.5q26 0 71 -4v-162q-50 4 -61 4q-45 0 -65.5 -29.5t-20.5 -95.5v-133h147v-149zM727 0h-147v1071h147v-1071zM741 1243h-176v197h176v-197z" />
    <glyph glyph-name="f_l" unicode="fl" horiz-adv-x="839" 
d="M440 922h-147v-922h-148v922h-122v149h122v184q0 115 57.5 175.5t166.5 60.5q26 0 71 -4v-162q-50 4 -61 4q-45 0 -65.5 -29.5t-20.5 -95.5v-133h147v-149zM727 0h-147v1470h147v-1470z" />
    <glyph glyph-name="f_f_i" unicode="&#xfb00;i" horiz-adv-x="1273" 
d="M874 922h-147v-922h-147v922h-287v-922h-148v922h-122v149h122v184q0 115 57.5 175.5t166.5 60.5q26 0 71 -4v-162q-50 4 -61 4q-45 0 -65.5 -29.5t-20.5 -95.5v-133h287v184q0 115 57 175.5t166 60.5q26 0 71 -4v-162q-50 4 -61 4q-45 0 -65.5 -29.5t-20.5 -95.5v-133
h147v-149zM1161 0h-147v1071h147v-1071zM1176 1243h-177v197h177v-197z" />
    <glyph glyph-name="f_f_l" unicode="ffl" horiz-adv-x="1273" 
d="M874 922h-147v-922h-147v922h-287v-922h-148v922h-122v149h122v184q0 115 57.5 175.5t166.5 60.5q26 0 71 -4v-162q-50 4 -61 4q-45 0 -65.5 -29.5t-20.5 -95.5v-133h287v184q0 115 57 175.5t166 60.5q26 0 71 -4v-162q-50 4 -61 4q-45 0 -65.5 -29.5t-20.5 -95.5v-133
h147v-149zM1161 0h-147v1470h147v-1470z" />
    <glyph glyph-name=".notdef" horiz-adv-x="573" 
 />
    <glyph glyph-name=".null" horiz-adv-x="0" 
 />
    <glyph glyph-name="nonmarkingreturn" horiz-adv-x="682" 
 />
    <glyph glyph-name="space" unicode=" " horiz-adv-x="466" 
 />
    <glyph glyph-name="exclam" unicode="!" horiz-adv-x="466" 
d="M313 0h-161v209h161v-209zM313 985l-41 -635h-79l-41 635v485h161v-485z" />
    <glyph glyph-name="quotedbl" unicode="&#x22;" horiz-adv-x="595" 
d="M240 948h-123v522h123v-522zM479 948h-123v522h123v-522z" />
    <glyph glyph-name="numbersign" unicode="#" 
d="M889 979l-15 -129h-174l-32 -291h172l-15 -129h-174l-47 -430h-112l49 430h-209l-49 -430h-111l47 430h-172l14 129h175l30 291h-172l15 129h174l49 430h112l-49 -430h209l47 430h113l-47 -430h172zM588 850h-209l-33 -291h211z" />
    <glyph glyph-name="dollar" unicode="$" 
d="M874 403q0 -197 -95 -314.5t-275 -127.5v-197h-78v197q-190 13 -280.5 129t-92.5 346h148q9 -169 54 -234t171 -91v542q-198 61 -273 148t-75 248q0 169 92 282t256 125v131h78v-131q166 -19 248.5 -113.5t91.5 -275.5h-142q-12 108 -56 161.5t-142 78.5v-490
q124 -44 192 -78.5t110.5 -83t55 -104t12.5 -148.5zM426 838v469q-95 -6 -148 -69t-53 -169q0 -92 49 -148.5t152 -82.5zM727 367q0 80 -36.5 143t-96.5 86l-90 35v-520q109 6 166 75t57 181z" />
    <glyph glyph-name="percent" unicode="%" horiz-adv-x="1492" 
d="M573 1038q0 -180 -67 -280.5t-187 -100.5q-121 0 -187 100t-66 283t66.5 283t189.5 100q118 0 184.5 -101.5t66.5 -283.5zM457 1040q0 134 -34.5 204.5t-100.5 70.5q-140 0 -140 -275q0 -274 137 -274q138 0 138 274zM1124 1440l-665 -1479h-90l661 1479h94zM1427 369
q0 -182 -66.5 -282.5t-186.5 -100.5q-121 0 -187.5 100t-66.5 283q0 184 66.5 283.5t189.5 99.5q118 0 184.5 -101.5t66.5 -281.5zM1311 369q0 134 -34.5 204t-100.5 70q-140 0 -140 -274q0 -135 35 -205t103 -70q137 0 137 275z" />
    <glyph glyph-name="ampersand" unicode="&#x26;" horiz-adv-x="1120" 
d="M1083 0h-190l-113 168q-83 -110 -161 -154.5t-187 -44.5q-167 0 -262.5 108.5t-95.5 299.5q0 143 56 234t216 206q-77 118 -102 180.5t-25 141.5q0 148 79.5 239.5t207.5 91.5q120 0 194 -84t74 -221q0 -114 -47.5 -198t-169.5 -185l221 -319q19 63 27.5 103.5
t21.5 125.5h140q-14 -176 -99 -375zM700 289l-272 405q-124 -97 -165.5 -160.5t-41.5 -158.5q0 -107 64 -177.5t161 -70.5q146 0 254 162zM631 1155q0 72 -36 115t-97 43t-98.5 -42.5t-37.5 -113.5q0 -110 119 -258q83 71 116.5 127.5t33.5 128.5z" />
    <glyph glyph-name="quotesingle" unicode="'" horiz-adv-x="321" 
d="M221 948h-123v522h123v-522z" />
    <glyph glyph-name="parenleft" unicode="(" horiz-adv-x="559" 
d="M502 -424h-99q-168 313 -228 513t-60 448q0 251 62.5 465.5t219.5 498.5h103q-134 -309 -181 -510t-47 -471q0 -234 45.5 -419.5t184.5 -524.5z" />
    <glyph glyph-name="parenright" unicode=")" horiz-adv-x="559" 
d="M444 541q0 -249 -63 -464.5t-219 -500.5h-103q134 311 181 511t47 470q0 235 -45.5 421.5t-184.5 522.5h99q169 -315 228.5 -513.5t59.5 -446.5z" />
    <glyph glyph-name="asterisk" unicode="*" horiz-adv-x="653" 
d="M586 1210l-183 -69l113 -189l-82 -69l-108 192l-111 -192l-82 69l113 189l-180 69l32 113l176 -78v225h101v-225l176 78z" />
    <glyph glyph-name="plus" unicode="+" horiz-adv-x="980" 
d="M868 453h-317v-318h-119v318h-319v118h319v320h119v-320h317v-118z" />
    <glyph glyph-name="comma" unicode="," horiz-adv-x="466" 
d="M322 16q0 -276 -177 -317v94q88 12 91 207h-91v219h177v-203z" />
    <glyph glyph-name="hyphen" unicode="-" horiz-adv-x="559" 
d="M485 475h-411v184h411v-184z" />
    <glyph glyph-name="period" unicode="." horiz-adv-x="466" 
d="M322 0h-177v219h177v-219z" />
    <glyph glyph-name="slash" unicode="/" horiz-adv-x="466" 
d="M496 1509l-412 -1548h-113l414 1548h111z" />
    <glyph glyph-name="zero" unicode="0" 
d="M872 698q0 -352 -106 -544.5t-299 -192.5q-194 0 -300 193.5t-106 547.5t106.5 546t303.5 192q190 0 295.5 -195t105.5 -547zM715 702q0 281 -63 429.5t-183 148.5q-123 0 -186.5 -147t-63.5 -431q0 -285 63 -433t185 -148t185 148t63 433z" />
    <glyph glyph-name="one" unicode="1" 
d="M602 0h-158v1022h-274v143q164 12 223 63.5t94 211.5h115v-1440z" />
    <glyph glyph-name="two" unicode="2" 
d="M852 0h-809q9 202 73.5 338t202.5 233l158 111q100 70 146.5 121t58.5 93t12 116q0 122 -63.5 195t-169.5 73q-119 0 -179.5 -86t-60.5 -270h-147q0 258 104 387t295 129q170 0 274.5 -119t104.5 -313q0 -79 -11 -133t-45 -111.5t-96 -112.5t-163 -123l-123 -82
q-90 -60 -143 -131.5t-62 -144.5h643v-170z" />
    <glyph glyph-name="three" unicode="3" 
d="M877 424q0 -210 -114.5 -336.5t-303.5 -126.5q-89 0 -155.5 23.5t-119 78t-84.5 148.5t-43 229h154q9 -177 68 -248t178 -71q118 0 190 77t72 205q0 123 -68 193t-188 70h-21q-20 -2 -65 -2v155q58 -4 74 -4q107 0 167 61t60 171q0 107 -58.5 170t-158.5 63
q-111 0 -165.5 -73t-64.5 -238h-145q9 240 103.5 355.5t273.5 115.5q167 0 267.5 -104t100.5 -277q0 -223 -155 -297q107 -50 154 -128t47 -210z" />
    <glyph glyph-name="four" unicode="4" 
d="M879 350h-174v-350h-148v350h-516v178l541 912h123v-932h174v-158zM557 508v657l-381 -657h381z" />
    <glyph glyph-name="five" unicode="5" 
d="M862 463q0 -142 -47 -254t-144.5 -180t-232.5 -68q-168 0 -263.5 96.5t-121.5 300.5h154q13 -120 75.5 -179.5t166.5 -59.5q114 0 185 92t71 238q0 141 -72 229t-189 88q-66 0 -117.5 -32.5t-101.5 -104.5l-129 8l90 772h611v-178h-500l-51 -395q56 48 109 69t118 21
q167 0 278 -132t111 -331z" />
    <glyph glyph-name="six" unicode="6" 
d="M870 457q0 -135 -47.5 -247t-138.5 -180.5t-209 -68.5q-198 0 -305 181t-107 517q0 365 116 573t319 208q147 0 237.5 -99t110.5 -284h-146q-20 117 -67.5 170t-132.5 53q-123 0 -198 -137.5t-87 -409.5q50 95 118 140t163 45q166 0 270 -128.5t104 -332.5zM717 446
q0 141 -64 226.5t-170 85.5q-114 0 -179.5 -84.5t-65.5 -229.5q0 -142 68 -231.5t177 -89.5q104 0 169 89t65 234z" />
    <glyph glyph-name="seven" unicode="7" 
d="M879 1249q-376 -511 -486 -1249h-164q38 306 164 626t320 605h-652v178h818v-160z" />
    <glyph glyph-name="eight" unicode="8" 
d="M868 412q0 -201 -109 -326t-284 -125q-186 0 -299 120t-113 318q0 138 45.5 221t155.5 144q-83 44 -121.5 111.5t-38.5 168.5q0 177 99.5 286.5t259.5 109.5q161 0 261.5 -104t100.5 -273q0 -106 -35 -175.5t-114 -121.5q101 -61 146.5 -146.5t45.5 -207.5zM711 391
q0 132 -65 208.5t-179 76.5q-110 0 -178 -75t-68 -198q0 -130 68 -206t184 -76q115 0 176.5 69.5t61.5 200.5zM672 1061q0 98 -58 158.5t-153 60.5t-149 -59.5t-54 -163.5q0 -98 58.5 -162t146.5 -64q91 0 150 65t59 165z" />
    <glyph glyph-name="nine" unicode="9" 
d="M862 776q0 -376 -113.5 -595.5t-320.5 -219.5q-154 0 -244.5 101.5t-99.5 283.5h147q21 -235 199 -235q46 0 79 12t66 47t57.5 96t46 160.5t38.5 239.5q-81 -185 -279 -185q-166 0 -267 128t-101 337q0 222 106 358t279 136q198 0 302.5 -170t104.5 -494zM688 965
q0 146 -61.5 230.5t-167.5 84.5q-110 0 -173 -88.5t-63 -245.5q0 -149 60 -227t174 -78q109 0 170 85.5t61 238.5z" />
    <glyph glyph-name="colon" unicode=":" horiz-adv-x="466" 
d="M322 0h-177v219h177v-219zM322 838h-177v219h177v-219z" />
    <glyph glyph-name="semicolon" unicode=";" horiz-adv-x="466" 
d="M322 16q0 -276 -177 -317v94q88 12 91 207h-91v219h177v-203zM322 838h-177v219h177v-219z" />
    <glyph glyph-name="less" unicode="&#x3c;" horiz-adv-x="980" 
d="M756 -133l-574 604v82l574 604v-172l-449 -473l449 -473v-172z" />
    <glyph glyph-name="equal" unicode="=" horiz-adv-x="980" 
d="M868 637h-755v119h755v-119zM868 268h-755v119h755v-119z" />
    <glyph glyph-name="greater" unicode="&#x3e;" horiz-adv-x="980" 
d="M756 471l-574 -604v172l449 473l-449 473v172l574 -604v-82z" />
    <glyph glyph-name="question" unicode="?" 
d="M825 1090q0 -95 -30.5 -162t-126.5 -178q-96 -109 -121 -174t-25 -201h-147q0 159 27.5 235.5t129.5 204.5q91 113 113.5 157.5t22.5 114.5q0 114 -55 179t-150 65q-221 0 -221 -321h-148q0 133 19.5 203.5t68.5 134.5q52 67 127.5 104t159.5 37q157 0 256.5 -111
t99.5 -288zM535 0h-164v209h164v-209z" />
    <glyph glyph-name="at" unicode="@" horiz-adv-x="1703" 
d="M1458 868q0 -143 -58 -280t-152.5 -223t-194.5 -86q-46 0 -73 33.5t-30 97.5q-57 -69 -106.5 -100t-104.5 -31q-103 0 -172 96t-69 241q0 147 52.5 275t142 204t192.5 76q68 0 112.5 -36.5t81.5 -122.5l33 127h115l-80 -336q-72 -301 -72 -336q0 -55 35 -55
q58 0 114 65.5t91 170t35 212.5q0 224 -133 373t-334 149q-144 0 -261 -85t-184 -234.5t-67 -333.5q0 -178 68 -325.5t187.5 -231.5t264.5 -84q238 0 409 234h113q-194 -361 -526 -361q-175 0 -322 103t-232 281.5t-85 391.5q0 158 50 301t135 246t202.5 164t247.5 61
q158 0 290.5 -85t208.5 -232.5t76 -323.5zM1026 831q0 79 -41 136t-98 57q-63 0 -121.5 -58t-94.5 -152.5t-36 -195.5q0 -83 39.5 -137.5t99.5 -54.5q57 0 115.5 58.5t97.5 154t39 192.5z" />
    <glyph glyph-name="A" unicode="A" horiz-adv-x="1120" 
d="M1098 0h-178l-119 428h-484l-127 -428h-167l452 1470h187zM741 606l-180 651l-194 -651h374z" />
    <glyph glyph-name="B" unicode="B" horiz-adv-x="1120" 
d="M1053 438q0 -198 -112 -318t-296 -120h-520v1470h530q154 0 247 -101.5t93 -268.5q0 -106 -38 -179.5t-121 -127.5q118 -58 167.5 -139t49.5 -216zM831 1081q0 113 -60 166t-187 53h-295v-452h293q128 0 188.5 56.5t60.5 176.5zM889 438q0 250 -281 250h-319v-518h348
q120 0 186 70t66 198z" />
    <glyph glyph-name="C" unicode="C" horiz-adv-x="1212" 
d="M1143 541q-30 -172 -69.5 -266t-108.5 -166q-142 -148 -349 -148q-249 0 -395.5 208.5t-146.5 563.5q0 356 152.5 566t410.5 210q200 0 332 -126.5t161 -354.5h-157q-36 158 -119 230.5t-213 72.5q-187 0 -293 -160.5t-106 -443.5q0 -280 102 -434t287 -154
q137 0 224.5 95t129.5 307h158z" />
    <glyph glyph-name="D" unicode="D" horiz-adv-x="1212" 
d="M1133 752q0 -158 -33 -294t-96.5 -238.5t-162.5 -161t-223 -58.5h-483v1470h490q232 0 370 -195.5t138 -522.5zM965 735q0 273 -93.5 419t-267.5 146h-305v-1130h315q163 0 257 151.5t94 413.5z" />
    <glyph glyph-name="E" unicode="E" horiz-adv-x="1120" 
d="M1034 0h-889v1470h877v-178h-713v-448h658v-178h-658v-488h725v-178z" />
    <glyph glyph-name="F" unicode="F" horiz-adv-x="1026" 
d="M979 1292h-670v-448h590v-178h-590v-666h-164v1470h834v-178z" />
    <glyph glyph-name="G" unicode="G" horiz-adv-x="1306" 
d="M1182 0h-107l-37 190q-85 -123 -183.5 -176t-223.5 -53q-128 0 -234 61.5t-174.5 166t-105.5 240.5t-37 288q0 234 71 414t200.5 279t297.5 99q200 0 339.5 -129t172.5 -356h-157q-73 307 -353 307q-186 0 -294.5 -164t-108.5 -444q0 -289 104 -440.5t303 -151.5
q79 0 145 28t118 85t81 152t29 220h-375v170h529v-786z" />
    <glyph glyph-name="H" unicode="H" horiz-adv-x="1212" 
d="M1085 0h-163v684h-629v-684h-164v1470h164v-608h629v608h163v-1470z" />
    <glyph glyph-name="I" unicode="I" horiz-adv-x="466" 
d="M315 0h-161v1470h161v-1470z" />
    <glyph glyph-name="J" unicode="J" horiz-adv-x="839" 
d="M719 397q0 -209 -91.5 -322.5t-258.5 -113.5q-155 0 -247.5 100t-92.5 267v145h153v-102q0 -123 45 -181.5t140 -58.5q188 0 188 254v1085h164v-1073z" />
    <glyph glyph-name="K" unicode="K" horiz-adv-x="1120" 
d="M1114 0h-211l-422 737l-190 -221v-516h-164v1470h164v-712l586 712h225l-504 -593z" />
    <glyph glyph-name="L" unicode="L" 
d="M901 0h-774v1470h164v-1292h610v-178z" />
    <glyph glyph-name="M" unicode="M" horiz-adv-x="1398" 
d="M1278 0h-154v868v379l-344 -1247h-159l-340 1245v-282v-963h-158v1470h233l346 -1249l345 1249h231v-1470z" />
    <glyph glyph-name="N" unicode="N" horiz-adv-x="1212" 
d="M1085 0h-182l-618 1194v-1194h-158v1470h192l609 -1194v1194h157v-1470z" />
    <glyph glyph-name="O" unicode="O" horiz-adv-x="1306" 
d="M1241 733q0 -158 -38.5 -296.5t-111 -245t-185.5 -168.5t-253 -62t-253 62t-185 168.5t-110.5 245t-38.5 296.5q0 219 67 392.5t204 278.5t325 105q167 0 299 -97t206 -274.5t74 -404.5zM1073 735q0 266 -115 431t-299 165q-195 0 -310.5 -162t-115.5 -436
q0 -267 115.5 -430.5t304.5 -163.5t304.5 164t115.5 432z" />
    <glyph glyph-name="P" unicode="P" horiz-adv-x="1120" 
d="M1044 1055q0 -197 -97.5 -315.5t-260.5 -118.5h-377v-621h-164v1470h541q161 0 259.5 -114t98.5 -301zM877 1049q0 127 -59 189t-181 62h-328v-509h322q246 0 246 258z" />
    <glyph glyph-name="Q" unicode="Q" horiz-adv-x="1306" 
d="M1241 737q0 -166 -39 -304.5t-135 -272.5l164 -156l-82 -119l-184 174q-73 -52 -146 -75t-166 -23q-112 0 -207.5 40t-165 111.5t-118 168.5t-72.5 212t-24 242t24 242t72.5 212t118 168.5t165 111.5t207.5 40q140 0 253 -62t185.5 -168.5t111 -245t38.5 -296.5z
M1073 735q0 268 -115.5 432t-304.5 164t-304.5 -164t-115.5 -432t115.5 -432t304.5 -164q92 0 178 45l-126 119l83 123l152 -145q71 97 102 203t31 251z" />
    <glyph glyph-name="R" unicode="R" horiz-adv-x="1212" 
d="M1149 0h-201q-26 110 -26 369q0 139 -51.5 200.5t-163.5 61.5h-396v-631h-164v1470h560q192 0 293.5 -102t101.5 -295q0 -125 -37 -202.5t-131 -147.5q78 -37 107.5 -94t37.5 -183l8 -266q1 -67 13 -93.5t49 -53.5v-33zM934 1057q0 243 -217 243h-406v-499h377
q126 0 186 62.5t60 193.5z" />
    <glyph glyph-name="S" unicode="S" horiz-adv-x="1120" 
d="M1040 403q0 -206 -127 -324t-348 -118q-222 0 -352.5 127t-130.5 387h154q0 -170 88 -257t249 -87q147 0 228.5 66.5t81.5 187.5q0 105 -54 159t-202 95l-248 70q-256 71 -256 352q0 200 113 324t317 124q218 0 336.5 -116t118.5 -353h-154q0 146 -81.5 222.5
t-219.5 76.5q-129 0 -200.5 -67t-71.5 -187q0 -78 34.5 -124t106.5 -66l344 -96q135 -38 204.5 -138.5t69.5 -257.5z" />
    <glyph glyph-name="T" unicode="T" horiz-adv-x="1026" 
d="M1004 1292h-408v-1292h-164v1292h-409v178h981v-178z" />
    <glyph glyph-name="U" unicode="U" horiz-adv-x="1212" 
d="M1081 516q0 -254 -131 -404.5t-352 -150.5q-214 0 -339.5 142.5t-125.5 385.5v981h164v-925q0 -195 79.5 -300.5t227.5 -105.5q149 0 231.5 105t82.5 297v929h163v-954z" />
    <glyph glyph-name="V" unicode="V" horiz-adv-x="1120" 
d="M1087 1470l-440 -1470h-174l-440 1470h182l346 -1259l342 1259h184z" />
    <glyph glyph-name="W" unicode="W" horiz-adv-x="1585" 
d="M1559 1470l-318 -1470h-172l-276 1227l-281 -1227h-172l-313 1470h176l227 -1204l272 1204h179l272 -1204l225 1204h181z" />
    <glyph glyph-name="X" unicode="X" horiz-adv-x="1120" 
d="M1087 0h-200l-324 604l-334 -604h-196l430 754l-404 716h205l305 -563l305 563h195l-403 -716z" />
    <glyph glyph-name="Y" unicode="Y" horiz-adv-x="1120" 
d="M1096 1470l-455 -878v-592h-164v592l-454 878h190l346 -706l346 706h191z" />
    <glyph glyph-name="Z" unicode="Z" horiz-adv-x="1026" 
d="M987 0h-948v168l739 1124h-684v178h893v-174l-741 -1118h741v-178z" />
    <glyph glyph-name="bracketleft" unicode="[" horiz-adv-x="466" 
d="M420 -401h-314v1880h314v-148h-180v-1585h180v-147z" />
    <glyph glyph-name="backslash" unicode="\" horiz-adv-x="466" 
d="M496 -39h-113l-412 1548h111z" />
    <glyph glyph-name="bracketright" unicode="]" horiz-adv-x="466" 
d="M360 -401h-313v147h180v1585h-180v148h313v-1880z" />
    <glyph glyph-name="asciicircum" unicode="^" horiz-adv-x="788" 
d="M811 541h-129l-287 704l-286 -704h-132l357 868h121z" />
    <glyph glyph-name="underscore" unicode="_" 
d="M934 -256h-934v102h934v-102z" />
    <glyph glyph-name="grave" unicode="`" horiz-adv-x="559" 
d="M336 1196h-113l-219 289h182z" />
    <glyph glyph-name="a" unicode="a" 
d="M891 0q-59 -20 -86 -20q-75 0 -109.5 37.5t-42.5 125.5q-72 -92 -144.5 -133t-166.5 -41q-127 0 -204 86.5t-77 227.5q0 139 69.5 225t197.5 106l243 37q41 6 59.5 35t18.5 88q0 88 -51.5 133t-151.5 45q-101 0 -153.5 -49t-52.5 -158h-136q0 357 353 357
q157 0 246.5 -80t89.5 -219v-617q0 -63 47 -63q10 0 51 8v-131zM645 371v176q-23 -21 -67.5 -33t-174.5 -35q-101 -17 -144.5 -58.5t-43.5 -121.5q0 -86 41.5 -133t116.5 -47q110 0 191 75.5t81 176.5z" />
    <glyph glyph-name="b" unicode="b" 
d="M868 561q0 -268 -105 -430t-278 -162q-86 0 -143 39t-104 131v-139h-140v1470h148v-538q57 91 118 130.5t144 39.5q161 0 260.5 -149t99.5 -392zM715 549q0 393 -234 393q-118 0 -179.5 -110t-61.5 -322q0 -183 65 -283t174 -100q112 0 174 111t62 311z" />
    <glyph glyph-name="c" unicode="c" horiz-adv-x="839" 
d="M801 379q-53 -410 -357 -410q-180 0 -286.5 148t-106.5 399q0 268 112.5 427t303.5 159q294 0 334 -391h-144q-19 121 -67.5 176t-136.5 55q-115 0 -179.5 -108.5t-64.5 -303.5q0 -194 60.5 -298.5t172.5 -104.5q168 0 215 252h144z" />
    <glyph glyph-name="d" unicode="d" 
d="M838 0h-140v154q-47 -100 -106 -142.5t-148 -42.5q-175 0 -280 161.5t-105 430.5q0 243 100 392t263 149q91 0 153 -45t115 -148v561h148v-1470zM688 508q0 211 -60.5 322.5t-174.5 111.5q-240 0 -240 -391q0 -201 61.5 -312.5t171.5 -111.5q112 0 177 100t65 281z" />
    <glyph glyph-name="e" unicode="e" 
d="M866 477h-641q6 -184 69.5 -267t180.5 -83q89 0 155.5 59t76.5 150h147q-29 -173 -130 -270t-253 -97q-187 0 -295 146.5t-108 400.5q0 269 112.5 427.5t302.5 158.5q118 0 198.5 -60t129 -200.5t55.5 -364.5zM713 621q-23 321 -236 321q-106 0 -176 -88.5t-76 -232.5
h488z" />
    <glyph glyph-name="f" unicode="f" horiz-adv-x="466" 
d="M440 922h-147v-922h-148v922h-122v149h122v184q0 115 57.5 175.5t166.5 60.5q26 0 71 -4v-162q-50 4 -61 4q-45 0 -65.5 -29.5t-20.5 -95.5v-133h147v-149z" />
    <glyph glyph-name="g" unicode="g" 
d="M838 88q0 -281 -100.5 -410t-305.5 -129q-145 0 -227.5 73.5t-110.5 246.5h148q20 -91 65.5 -130.5t130.5 -39.5q134 0 193 82.5t59 294.5v43q-43 -78 -100 -114t-139 -36q-173 0 -278 162.5t-105 429.5q0 243 99.5 392t262.5 149q89 0 148.5 -42t119.5 -147v158h140
v-983zM696 506q0 212 -60.5 324t-174.5 112q-240 0 -240 -391q0 -201 62 -312.5t172 -111.5q114 0 177.5 100.5t63.5 278.5z" />
    <glyph glyph-name="h" unicode="h" 
d="M825 0h-147v700q0 128 -40.5 185t-131.5 57q-120 0 -185 -93.5t-65 -264.5v-584h-147v1470h147v-546q64 100 124 139t148 39q140 0 218.5 -98t78.5 -275v-729z" />
    <glyph glyph-name="i" unicode="i" horiz-adv-x="372" 
d="M260 0h-147v1071h147v-1071zM274 1243h-176v197h176v-197z" />
    <glyph glyph-name="j" unicode="j" horiz-adv-x="372" 
d="M260 -158q0 -140 -53.5 -206t-165.5 -66q-31 0 -68 6v156h31q69 0 89 23.5t20 107.5v1208h147v-1229zM274 1243h-176v197h176v-197z" />
    <glyph glyph-name="k" unicode="k" horiz-adv-x="839" 
d="M842 0h-191l-272 541l-123 -135v-406h-147v1470h147v-852l379 453h186l-336 -399z" />
    <glyph glyph-name="l" unicode="l" horiz-adv-x="372" 
d="M260 0h-147v1470h147v-1470z" />
    <glyph glyph-name="m" unicode="m" horiz-adv-x="1398" 
d="M1292 0h-147v692q0 250 -160 250q-89 0 -150 -83.5t-61 -205.5v-653h-147v741q0 95 -36.5 148t-101.5 53q-106 0 -169.5 -97.5t-63.5 -260.5v-584h-147v1071h139v-158q57 100 121 144.5t151 44.5q82 0 136.5 -40.5t95.5 -133.5q75 102 129.5 138t134.5 36q128 0 202 -97
t74 -264v-741z" />
    <glyph glyph-name="n" unicode="n" 
d="M825 0h-147v659q0 148 -43 215.5t-137 67.5q-113 0 -177.5 -95.5t-64.5 -262.5v-584h-147v1071h139v-158q57 100 123 144.5t157 44.5q140 0 218.5 -98t78.5 -275v-729z" />
    <glyph glyph-name="o" unicode="o" 
d="M874 537q0 -251 -113 -408.5t-294 -157.5q-180 0 -294 158t-114 408q0 254 114 409.5t300 155.5q177 0 289 -158.5t112 -406.5zM721 537q0 184 -68.5 295.5t-181.5 111.5q-120 0 -189 -109.5t-69 -297.5q0 -186 69 -297t185 -111t185 111t69 297z" />
    <glyph glyph-name="p" unicode="p" 
d="M868 561q0 -267 -105 -429.5t-278 -162.5q-81 0 -138 36t-101 114v-543h-148v1495h140v-158q58 104 118.5 146.5t149.5 42.5q163 0 262.5 -149t99.5 -392zM715 555q0 189 -60 288t-174 99q-241 0 -241 -440q0 -174 64 -274.5t175 -100.5q112 0 174 112.5t62 315.5z" />
    <glyph glyph-name="q" unicode="q" 
d="M829 -424h-147v543q-44 -78 -101.5 -114t-138.5 -36q-173 0 -278 162.5t-105 429.5q0 243 100 392t263 149q89 0 148.5 -42t119.5 -147v158h139v-1495zM688 502q0 215 -60 327.5t-175 112.5q-240 0 -240 -389q0 -201 61.5 -313.5t171.5 -112.5q114 0 178 100t64 275z" />
    <glyph glyph-name="r" unicode="r" horiz-adv-x="559" 
d="M557 911h-55q-98 0 -162 -81t-64 -205v-625h-147v1071h139v-182q58 115 115.5 164t134.5 49q18 0 39 -6v-185z" />
    <glyph glyph-name="s" unicode="s" horiz-adv-x="839" 
d="M778 322q0 -161 -98.5 -257t-265.5 -96q-172 0 -261.5 90.5t-99.5 284.5h144q8 -114 61.5 -165.5t165.5 -51.5q97 0 152 45t55 123q0 60 -36 91.5t-138 62.5l-172 51q-203 61 -203 264q0 154 92 246t244 92q151 0 237 -87.5t95 -248.5h-144q-5 91 -53 134.5t-145 43.5
q-85 0 -134 -40.5t-49 -110.5q0 -57 31 -85t127 -57l149 -45q133 -40 189.5 -105.5t56.5 -178.5z" />
    <glyph glyph-name="t" unicode="t" horiz-adv-x="466" 
d="M432 922h-143v-697q0 -45 20.5 -64.5t69.5 -19.5h51v-141q-33 -4 -58 -7t-33 -4.5t-14 -2t-12 -0.5q-88 0 -130 56t-42 173v707h-118v149h118v299h148v-299h143v-149z" />
    <glyph glyph-name="u" unicode="u" 
d="M821 0h-139v166q-59 -110 -120 -153.5t-159 -43.5q-135 0 -211.5 88t-76.5 244v770h147v-711q0 -233 170 -233q110 0 176 96t66 258v590h147v-1071z" />
    <glyph glyph-name="v" unicode="v" horiz-adv-x="839" 
d="M825 1071l-333 -1071h-158l-320 1071h170l230 -878l250 878h161z" />
    <glyph glyph-name="w" unicode="w" horiz-adv-x="1212" 
d="M1190 1071l-256 -1071h-152l-180 838l-174 -838h-152l-253 1071h161l170 -850l170 850h166l172 -850l180 850h148z" />
    <glyph glyph-name="x" unicode="x" horiz-adv-x="839" 
d="M823 0h-188l-219 403l-211 -403h-187l310 551l-295 520h190l203 -377l205 377h180l-297 -520z" />
    <glyph glyph-name="y" unicode="y" horiz-adv-x="839" 
d="M821 1071l-317 -1051q-36 -116 -58 -182t-48 -124t-44 -83t-48.5 -43.5t-58.5 -22t-77 -3.5q-27 0 -59 12l-13 4v164q44 -18 90 -18t68 26.5t51 110.5l37 110l-326 1100h166l236 -878l237 878h164z" />
    <glyph glyph-name="z" unicode="z" horiz-adv-x="839" 
d="M788 0h-737v141l531 781h-490v149h682v-147l-526 -774h540v-150z" />
    <glyph glyph-name="braceleft" unicode="{" horiz-adv-x="561" 
d="M489 -401h-112q-73 0 -122.5 75.5t-49.5 188.5v350q0 108 -34 182t-101 84v123q69 10 102 82t33 178v352q0 113 49.5 189t122.5 76h112v-133h-73q-78 0 -78 -168v-349q0 -98 -43 -178.5t-109 -109.5q70 -34 111 -113t41 -182v-346q0 -168 78 -168h73v-133z" />
    <glyph glyph-name="bar" unicode="|" horiz-adv-x="436" 
d="M279 -401h-119v1880h119v-1880z" />
    <glyph glyph-name="braceright" unicode="}" horiz-adv-x="561" 
d="M489 479q-68 -11 -101.5 -84t-33.5 -182v-350q0 -113 -49.5 -188.5t-122.5 -75.5h-112v133h73q78 0 78 168v346q0 103 41 182t111 113q-66 29 -109 109.5t-43 178.5v349q0 168 -78 168h-73v133h112q73 0 122.5 -76t49.5 -189v-352q0 -107 33 -178.5t102 -81.5v-123z" />
    <glyph glyph-name="asciitilde" unicode="~" horiz-adv-x="980" 
d="M879 547q-53 -94 -101.5 -135t-109.5 -41q-69 0 -170 67q-110 72 -191 72q-40 0 -68.5 -23t-56.5 -77l-80 73q43 93 92 134.5t115 41.5q43 0 88.5 -17.5t149.5 -74.5q83 -47 127 -47q31 0 59.5 24.5t61.5 80.5z" />
    <glyph glyph-name="uni00A0" unicode="&#xa0;" horiz-adv-x="466" 
 />
    <glyph glyph-name="exclamdown" unicode="&#xa1;" horiz-adv-x="466" 
d="M315 862h-161v209h161v-209zM315 -399h-161v485l41 635h79l41 -635v-485z" />
    <glyph glyph-name="cent" unicode="&#xa2;" 
d="M862 375q-29 -201 -126 -307.5t-249 -106.5q-35 0 -106 14l-51 -211h-70l57 234q-121 82 -176 204.5t-55 311.5q0 275 110 431.5t302 156.5q43 0 73 -12l43 186h66l-41 -205q91 -37 148 -132.5t69 -231.5h-139q-17 90 -43 137.5t-70 70.5l-186 -790q27 -6 57 -6
q103 0 158 57.5t86 198.5h143zM539 940q-20 4 -37 4q-128 0 -198.5 -112t-70.5 -316q0 -248 123 -356z" />
    <glyph glyph-name="sterling" unicode="&#xa3;" 
d="M905 66q-60 -54 -108 -76.5t-103 -22.5q-27 0 -173.5 46t-176.5 46q-86 0 -201 -82l-82 142q205 179 205 379q0 56 -30 151h-181v129h117q-45 110 -59.5 165t-14.5 114q0 183 112.5 298t291.5 115q177 0 274.5 -121.5t97.5 -314.5v-30h-147v18q0 129 -65 210t-170 81
q-98 0 -167 -74.5t-69 -181.5q0 -50 18.5 -111t67.5 -168h281v-129h-232q15 -77 15 -131q0 -105 -50 -200t-161 -193q128 84 229 84q30 0 148 -36t135 -36q68 0 129 64z" />
    <glyph glyph-name="currency" unicode="&#xa4;" 
d="M803 289l-84 -84l-66 63q-80 -55 -182 -55t-182 55l-66 -63l-84 84l66 63q-58 83 -58 185q0 99 58 182l-66 63l84 84l66 -63q83 57 182 57t182 -57l66 63l84 -84l-66 -63q58 -83 58 -182q0 -102 -58 -185zM676 537q0 85 -60 144.5t-145 59.5t-145 -59.5t-60 -144.5
q0 -86 60 -145.5t145 -59.5t145 59.5t60 145.5z" />
    <glyph glyph-name="yen" unicode="&#xa5;" 
d="M928 1409l-326 -623h262v-116h-325v-174h325v-117h-325v-379h-148v379h-321v117h321v174h-321v116h258l-324 623h168l293 -604l295 604h168z" />
    <glyph glyph-name="brokenbar" unicode="&#xa6;" horiz-adv-x="436" 
d="M279 727h-119v752h119v-752zM279 -401h-119v751h119v-751z" />
    <glyph glyph-name="section" unicode="&#xa7;" 
d="M860 500q0 -104 -39.5 -178.5t-134.5 -149.5q50 -66 69 -116.5t19 -116.5q0 -141 -90.5 -235.5t-226.5 -94.5q-148 0 -229.5 96.5t-88.5 288.5h148q3 -117 43.5 -172t122.5 -55q80 0 127 44.5t47 120.5q0 50 -20.5 86.5t-71.5 77.5l-355 287q-108 88 -108 258
q0 106 37 176t131 139q-46 63 -62 105.5t-16 99.5q0 154 85 251t220 97q290 0 305 -374h-141q-7 114 -46.5 165.5t-117.5 51.5q-69 0 -113.5 -45t-44.5 -117q0 -54 28.5 -97t94.5 -89l246 -177q97 -70 139.5 -147t42.5 -180zM721 459q0 119 -105 198l-292 220
q-60 -42 -86.5 -88t-26.5 -113q0 -111 76 -172l317 -250q66 54 91.5 98.5t25.5 106.5z" />
    <glyph glyph-name="dieresis" unicode="&#xa8;" horiz-adv-x="559" 
d="M205 1243h-180v197h180v-197zM535 1243h-181v197h181v-197z" />
    <glyph glyph-name="copyright" unicode="&#xa9;" horiz-adv-x="1236" 
d="M1196 674q0 -139 -42.5 -268t-116.5 -227.5t-183.5 -158t-235.5 -59.5q-167 0 -301 101t-205 263.5t-71 348.5t71 348t205 263t301 101q126 0 235.5 -59t183.5 -157.5t116.5 -227.5t42.5 -268zM1114 674q0 122 -35.5 236t-99 201.5t-157.5 140.5t-204 53q-145 0 -260 -90
t-175 -233.5t-60 -307.5t60 -307.5t175 -233.5t260 -90q110 0 204 53t157.5 140.5t99 201.5t35.5 236zM940 580q-18 -97 -42.5 -150t-66.5 -94q-86 -80 -208 -80q-148 0 -236 113t-88 305q0 193 91 306.5t245 113.5q123 0 202.5 -71.5t94.5 -199.5h-107q-38 160 -188 160
q-106 0 -165.5 -83.5t-59.5 -229.5q0 -145 57.5 -224t161.5 -79q79 0 128 49.5t72 163.5h109z" />
    <glyph glyph-name="ordfeminine" unicode="&#xaa;" horiz-adv-x="620" 
d="M582 840l-13 -4q-31 -7 -43 -7q-51 0 -72 23t-26 82q-47 -55 -95 -80t-108 -25q-83 0 -133.5 52.5t-50.5 138.5t48.5 139.5t139.5 65.5l148 20q41 6 41 72q0 41 -33 63.5t-94 22.5t-92 -26t-37 -83h-92q8 111 63.5 163t167.5 52q102 0 160.5 -48t58.5 -132v-364
q0 -39 31 -39q3 0 7 0.5t11 1.5t13 2v-90zM418 1087v80q-17 -20 -154 -41q-64 -10 -90.5 -31t-26.5 -61q0 -47 25 -72.5t72 -25.5q75 0 124.5 43t49.5 108zM557 623h-498v98h498v-98z" />
    <glyph glyph-name="guillemotleft" unicode="&#xab;" 
d="M426 221l-262 252v189l262 251v-180l-176 -166l176 -166v-180zM770 221l-262 252v189l262 251v-180l-176 -166l176 -166v-180z" />
    <glyph glyph-name="logicalnot" unicode="&#xac;" horiz-adv-x="980" 
d="M868 756v-428h-118v309h-637v119h755z" />
    <glyph glyph-name="uni00AD" unicode="&#xad;" horiz-adv-x="559" 
d="M485 475h-411v184h411v-184z" />
    <glyph glyph-name="registered" unicode="&#xae;" horiz-adv-x="1236" 
d="M1196 674q0 -139 -42.5 -268t-116.5 -227.5t-183.5 -158t-235.5 -59.5q-167 0 -301 101t-205 263.5t-71 348.5t71 348t205 263t301 101q126 0 235.5 -59t183.5 -157.5t116.5 -227.5t42.5 -268zM1114 674q0 122 -35.5 236t-99 201.5t-157.5 140.5t-204 53q-145 0 -260 -90
t-175 -233.5t-60 -307.5t60 -307.5t175 -233.5t260 -90q110 0 204 53t157.5 140.5t99 201.5t35.5 236zM918 305v-29h-130q-18 49 -18 203q0 70 -28.5 101.5t-90.5 31.5h-223v-336h-111v797h334q117 0 178.5 -56.5t61.5 -162.5q0 -64 -20 -105.5t-70 -78.5q40 -20 56.5 -52
t19.5 -96l6 -141q0 -35 6.5 -48.5t28.5 -27.5zM778 846q0 121 -121 121h-229v-250h213q137 0 137 129z" />
    <glyph glyph-name="macron" unicode="&#xaf;" horiz-adv-x="559" 
d="M543 1284h-527v117h527v-117z" />
    <glyph glyph-name="degree" unicode="&#xb0;" horiz-adv-x="671" 
d="M582 1141q0 -127 -71 -213t-175 -86t-175 86t-71 213q0 129 71.5 214t178.5 85q101 0 171.5 -86.5t70.5 -212.5zM500 1141q0 82 -50 146.5t-114 64.5q-65 0 -114.5 -64t-49.5 -147t49.5 -147t114.5 -64t114.5 64t49.5 147z" />
    <glyph glyph-name="plusminus" unicode="&#xb1;" horiz-adv-x="980" 
d="M868 571h-317v-317h-119v317h-319v119h319v320h119v-320h317v-119zM868 0h-755v119h755v-119z" />
    <glyph glyph-name="two.superior" unicode="&#xb2;" horiz-adv-x="559" 
d="M543 573h-537q6 122 47 204.5t127 140.5l103 67q94 62 117.5 97.5t25.5 111.5q0 71 -37 110t-104 39q-74 0 -110 -50.5t-42 -162.5h-102q12 332 262 332q110 0 180 -78t70 -202q0 -96 -43 -158.5t-158 -132.5l-76 -47q-86 -52 -133 -144h410v-127z" />
    <glyph glyph-name="three.superior" unicode="&#xb3;" horiz-adv-x="559" 
d="M545 852q0 -135 -76 -217t-201 -82q-114 0 -180.5 70t-79.5 239h115q6 -104 39 -147t108 -43t116.5 44t41.5 124q0 78 -40 111.5t-132 33.5h-39v107h45q67 0 103 34t36 99q0 57 -34.5 87.5t-98.5 30.5q-68 0 -100.5 -38t-38.5 -125h-102q12 282 252 282q109 0 174 -62.5
t65 -166.5q0 -135 -104 -178q71 -28 101 -74.5t30 -128.5z" />
    <glyph glyph-name="acute" unicode="&#xb4;" horiz-adv-x="559" 
d="M555 1485l-219 -289h-113l150 289h182z" />
    <glyph glyph-name="uni00B5" unicode="&#xb5;" 
d="M821 0h-139v166q-57 -109 -118 -153t-156 -44q-52 0 -85 17t-61 57v-467h-147v1495h147v-711q0 -233 170 -233q110 0 176 96t66 258v590h147v-1071z" />
    <glyph glyph-name="paragraph" unicode="&#xb6;" horiz-adv-x="901" 
d="M836 -354h-123v1702h-199v-1702h-123v1059q-174 9 -267 113.5t-93 273.5q0 182 101 280t288 98h416v-1824z" />
    <glyph glyph-name="periodcentered" unicode="&#xb7;" horiz-adv-x="466" 
d="M322 512q0 -37 -26 -62.5t-63 -25.5t-62.5 25.5t-25.5 62.5t25.5 62.5t62.5 25.5t63 -25.5t26 -62.5z" />
    <glyph glyph-name="cedilla" unicode="&#xb8;" horiz-adv-x="559" 
d="M434 -283q0 -83 -54 -135.5t-142 -52.5q-72 0 -162 45l28 82q58 -31 107 -31q45 0 70.5 23t25.5 63q0 36 -24 64t-58 28q-21 0 -63 -18l-29 39l107 180h96l-66 -123h25q62 0 100.5 -47t38.5 -117z" />
    <glyph glyph-name="one.superior" unicode="&#xb9;" horiz-adv-x="559" 
d="M373 575h-119v607h-182v94q107 8 146 38.5t61 125.5h94v-865z" />
    <glyph glyph-name="ordmasculine" unicode="&#xba;" horiz-adv-x="612" 
d="M573 1169q0 -161 -70 -250.5t-196 -89.5t-196 89t-70 249q0 165 70 253.5t200 88.5q123 0 192.5 -90t69.5 -250zM461 1169q0 110 -40.5 172t-111.5 62q-75 0 -115 -60.5t-40 -173.5q0 -111 40 -172t113 -61t113.5 61.5t40.5 171.5zM555 623h-498v98h498v-98z" />
    <glyph glyph-name="guillemotright" unicode="&#xbb;" 
d="M426 473l-262 -252v180l176 166l-176 166v180l262 -251v-189zM770 473l-262 -252v180l176 166l-176 166v180l262 -251v-189z" />
    <glyph glyph-name="onequarter" unicode="&#xbc;" horiz-adv-x="1400" 
d="M1270 193h-113v-193h-106v193h-346v122l346 549h106v-553h113v-118zM1098 1440l-744 -1491h-96l743 1491h97zM420 575h-115v613h-182v88q107 8 146 38.5t61 125.5h90v-865zM1051 311v389l-242 -389h242z" />
    <glyph glyph-name="onehalf" unicode="&#xbd;" horiz-adv-x="1400" 
d="M1036 1440l-743 -1491h-94l741 1491h96zM373 575h-119v607h-182v94q107 8 146 38.5t61 125.5h94v-865zM1298 0h-536q6 122 47.5 203t128.5 139l100 68q96 65 120 99.5t24 108.5q0 71 -37.5 110.5t-104.5 39.5q-72 0 -108.5 -51.5t-42.5 -161.5h-101q3 166 71 249t190 83
q112 0 180.5 -78t68.5 -203q0 -96 -42.5 -157.5t-157.5 -131.5l-76 -47q-92 -60 -133 -143h409v-127z" />
    <glyph glyph-name="threequarters" unicode="&#xbe;" horiz-adv-x="1400" 
d="M1360 193h-113v-193h-106v193h-346v122l346 549h106v-553h113v-118zM1196 1440l-743 -1491h-97l744 1491h96zM614 850q0 -134 -76 -215.5t-200 -81.5q-115 0 -180.5 68.5t-81.5 240.5h114q6 -104 40.5 -147t109.5 -43t116.5 44t41.5 124q0 78 -40 111.5t-134 33.5h-39
v107h45q67 0 103 34t36 99q0 57 -34 87.5t-97 30.5q-69 0 -102 -38t-39 -125h-103q12 282 252 282q109 0 174.5 -62.5t65.5 -166.5q0 -135 -105 -178q72 -29 102.5 -76t30.5 -129zM1141 311v389l-242 -389h242z" />
    <glyph glyph-name="questiondown" unicode="&#xbf;" 
d="M840 61q0 -133 -19.5 -203t-68.5 -134q-52 -67 -128 -104.5t-159 -37.5q-157 0 -256.5 111.5t-99.5 288.5q0 95 30.5 162t126.5 178q96 110 121 174t25 200h147q0 -111 -12.5 -174.5t-43 -119.5t-102.5 -146q-91 -113 -113 -157.5t-22 -114.5q0 -114 55 -179t150 -65
q221 0 221 321h148zM563 862h-164v209h164v-209z" />
    <glyph glyph-name="Agrave" unicode="&#xc0;" horiz-adv-x="1120" 
d="M1098 0h-178l-119 428h-484l-127 -428h-167l452 1470h187zM741 606l-180 651l-194 -651h374zM633 1595h-123l-219 248h192z" />
    <glyph glyph-name="Aacute" unicode="&#xc1;" horiz-adv-x="1120" 
d="M1098 0h-178l-119 428h-484l-127 -428h-167l452 1470h187zM741 606l-180 651l-194 -651h374zM850 1843l-219 -248h-123l149 248h193z" />
    <glyph glyph-name="Acircumflex" unicode="&#xc2;" horiz-adv-x="1120" 
d="M1098 0h-178l-119 428h-484l-127 -428h-167l452 1470h187zM741 606l-180 651l-194 -651h374zM844 1597h-135l-142 150l-141 -150h-133l196 248h158z" />
    <glyph glyph-name="Atilde" unicode="&#xc3;" horiz-adv-x="1120" 
d="M1098 0h-178l-119 428h-484l-127 -428h-167l452 1470h187zM741 606l-180 651l-194 -651h374zM856 1839q-30 -223 -170 -223q-31 0 -96 26l-43 19q-69 31 -105 31q-29 0 -46 -20t-31 -70h-80q15 113 57.5 166t116.5 53q43 0 114 -31l37 -18q56 -27 84 -27q33 0 51 21.5
t27 72.5h84z" />
    <glyph glyph-name="Adieresis" unicode="&#xc4;" horiz-adv-x="1120" 
d="M1098 0h-178l-119 428h-484l-127 -428h-167l452 1470h187zM741 606l-180 651l-194 -651h374zM496 1622h-181v197h181v-197zM825 1622h-180v197h180v-197z" />
    <glyph glyph-name="Aring" unicode="&#xc5;" horiz-adv-x="1120" 
d="M1098 0h-178l-119 428h-484l-127 -428h-167l452 1470h187zM741 606l-180 651l-194 -651h374zM778 1757q0 -72 -59 -120t-148 -48q-91 0 -150 48.5t-59 123.5q0 72 60 120t149 48t148 -48.5t59 -123.5zM688 1757q0 41 -34.5 69.5t-82.5 28.5q-47 0 -82.5 -28t-35.5 -66
q0 -41 34 -69.5t84 -28.5q47 0 82 28t35 66z" />
    <glyph glyph-name="AE" unicode="&#xc6;" horiz-adv-x="1679" 
d="M1597 0h-829v428h-444l-134 -428h-176l490 1470h1081v-178h-653v-448h596v-178h-596v-488h665v-178zM768 606v686h-164l-223 -686h387z" />
    <glyph glyph-name="Ccedilla" unicode="&#xc7;" horiz-adv-x="1212" 
d="M1143 541q-30 -172 -69.5 -266t-108.5 -166q-116 -122 -281 -144l-45 -84h25q62 0 100.5 -47t38.5 -117q0 -83 -54.5 -135.5t-142.5 -52.5q-72 0 -162 45l29 82q58 -31 107 -31q45 0 70.5 23t25.5 63q0 36 -24 64t-58 28q-22 0 -64 -18l-28 39l82 137
q-235 15 -372.5 222.5t-137.5 549.5q0 356 152.5 566t410.5 210q200 0 332 -126.5t161 -354.5h-157q-36 158 -119 230.5t-213 72.5q-187 0 -293 -160.5t-106 -443.5q0 -280 102 -434t287 -154q137 0 224.5 95t129.5 307h158z" />
    <glyph glyph-name="Egrave" unicode="&#xc8;" horiz-adv-x="1120" 
d="M1034 0h-889v1470h877v-178h-713v-448h658v-178h-658v-488h725v-178zM647 1595h-123l-219 248h193z" />
    <glyph glyph-name="Eacute" unicode="&#xc9;" horiz-adv-x="1120" 
d="M1034 0h-889v1470h877v-178h-713v-448h658v-178h-658v-488h725v-178zM864 1843l-219 -248h-123l150 248h192z" />
    <glyph glyph-name="Ecircumflex" unicode="&#xca;" horiz-adv-x="1120" 
d="M1034 0h-889v1470h877v-178h-713v-448h658v-178h-658v-488h725v-178zM858 1597h-135l-141 150l-142 -150h-133l197 248h158z" />
    <glyph glyph-name="Edieresis" unicode="&#xcb;" horiz-adv-x="1120" 
d="M1034 0h-889v1470h877v-178h-713v-448h658v-178h-658v-488h725v-178zM510 1622h-180v197h180v-197zM840 1622h-181v197h181v-197z" />
    <glyph glyph-name="Igrave" unicode="&#xcc;" horiz-adv-x="466" 
d="M315 0h-161v1470h161v-1470zM315 1595h-122l-220 248h193z" />
    <glyph glyph-name="Iacute" unicode="&#xcd;" horiz-adv-x="466" 
d="M315 0h-161v1470h161v-1470zM498 1843l-219 -248h-123l149 248h193z" />
    <glyph glyph-name="Icircumflex" unicode="&#xce;" horiz-adv-x="466" 
d="M315 0h-161v1470h161v-1470zM510 1597h-135l-142 150l-141 -150h-133l197 248h157z" />
    <glyph glyph-name="Idieresis" unicode="&#xcf;" horiz-adv-x="466" 
d="M315 0h-161v1470h161v-1470zM162 1622h-180v197h180v-197zM492 1622h-181v197h181v-197z" />
    <glyph glyph-name="Eth" unicode="&#xd0;" horiz-adv-x="1212" 
d="M1133 762q0 -347 -137.5 -554.5t-377.5 -207.5h-483v666h-135v178h135v626h492q151 0 266 -87.5t177.5 -248.5t62.5 -372zM965 735q0 273 -93.5 419t-267.5 146h-305v-456h324v-178h-324v-496h317q161 0 255 151.5t94 413.5z" />
    <glyph glyph-name="Ntilde" unicode="&#xd1;" horiz-adv-x="1212" 
d="M1085 0h-182l-618 1194v-1194h-158v1470h192l609 -1194v1194h157v-1470zM893 1839q-30 -223 -170 -223q-31 0 -96 26l-43 19q-69 31 -105 31q-29 0 -47 -20.5t-31 -69.5h-79q15 113 57.5 166t116.5 53q43 0 114 -31l37 -18q56 -27 84 -27q33 0 51 21.5t27 72.5h84z" />
    <glyph glyph-name="Ograve" unicode="&#xd2;" horiz-adv-x="1306" 
d="M1241 733q0 -158 -38.5 -296.5t-111 -245t-185.5 -168.5t-253 -62t-253 62t-185 168.5t-110.5 245t-38.5 296.5q0 219 67 392.5t204 278.5t325 105q167 0 299 -97t206 -274.5t74 -404.5zM1073 735q0 266 -115 431t-299 165q-195 0 -310.5 -162t-115.5 -436
q0 -267 115.5 -430.5t304.5 -163.5t304.5 164t115.5 432zM725 1595h-123l-219 248h192z" />
    <glyph glyph-name="Oacute" unicode="&#xd3;" horiz-adv-x="1306" 
d="M1241 733q0 -158 -38.5 -296.5t-111 -245t-185.5 -168.5t-253 -62t-253 62t-185 168.5t-110.5 245t-38.5 296.5q0 219 67 392.5t204 278.5t325 105q167 0 299 -97t206 -274.5t74 -404.5zM1073 735q0 266 -115 431t-299 165q-195 0 -310.5 -162t-115.5 -436
q0 -267 115.5 -430.5t304.5 -163.5t304.5 164t115.5 432zM942 1843l-219 -248h-123l150 248h192z" />
    <glyph glyph-name="Ocircumflex" unicode="&#xd4;" horiz-adv-x="1306" 
d="M1241 733q0 -158 -38.5 -296.5t-111 -245t-185.5 -168.5t-253 -62t-253 62t-185 168.5t-110.5 245t-38.5 296.5q0 219 67 392.5t204 278.5t325 105q167 0 299 -97t206 -274.5t74 -404.5zM1073 735q0 266 -115 431t-299 165q-195 0 -310.5 -162t-115.5 -436
q0 -267 115.5 -430.5t304.5 -163.5t304.5 164t115.5 432zM936 1597h-135l-142 150l-141 -150h-133l197 248h157z" />
    <glyph glyph-name="Otilde" unicode="&#xd5;" horiz-adv-x="1306" 
d="M1241 733q0 -158 -38.5 -296.5t-111 -245t-185.5 -168.5t-253 -62t-253 62t-185 168.5t-110.5 245t-38.5 296.5q0 219 67 392.5t204 278.5t325 105q167 0 299 -97t206 -274.5t74 -404.5zM1073 735q0 266 -115 431t-299 165q-195 0 -310.5 -162t-115.5 -436
q0 -267 115.5 -430.5t304.5 -163.5t304.5 164t115.5 432zM948 1839q-30 -223 -170 -223q-31 0 -96 26l-43 19q-69 31 -104 31q-29 0 -47 -20.5t-31 -69.5h-80q15 113 57.5 166t116.5 53q44 0 115 -31l36 -18q56 -27 84 -27q33 0 51 21.5t27 72.5h84z" />
    <glyph glyph-name="Odieresis" unicode="&#xd6;" horiz-adv-x="1306" 
d="M1241 733q0 -158 -38.5 -296.5t-111 -245t-185.5 -168.5t-253 -62t-253 62t-185 168.5t-110.5 245t-38.5 296.5q0 219 67 392.5t204 278.5t325 105q167 0 299 -97t206 -274.5t74 -404.5zM1073 735q0 266 -115 431t-299 165q-195 0 -310.5 -162t-115.5 -436
q0 -267 115.5 -430.5t304.5 -163.5t304.5 164t115.5 432zM588 1622h-180v197h180v-197zM918 1622h-181v197h181v-197z" />
    <glyph glyph-name="multiply" unicode="&#xd7;" horiz-adv-x="980" 
d="M801 289l-84 -84l-225 223l-226 -225l-84 84l226 227l-226 225l84 84l226 -225l225 223l84 -84l-226 -223z" />
    <glyph glyph-name="Oslash" unicode="&#xd8;" horiz-adv-x="1306" 
d="M1243 1448l-139 -186q72 -128 104.5 -252.5t32.5 -276.5q0 -126 -24 -240t-73 -211.5t-118.5 -168.5t-165.5 -111.5t-209 -40.5q-122 0 -213.5 41.5t-179.5 136.5l-135 -178l-53 57l139 185q-76 130 -109.5 255t-33.5 279q0 158 38.5 296.5t110.5 245t185.5 168.5
t254.5 62q125 0 218.5 -42.5t181.5 -139.5l137 182zM1073 735q0 114 -19 201t-63 176l-626 -829q65 -76 132 -110t154 -34q190 0 306 163.5t116 432.5zM948 1184q-66 78 -135 112.5t-158 34.5q-190 0 -306 -163.5t-116 -432.5q0 -112 20 -201.5t66 -183.5z" />
    <glyph glyph-name="Ugrave" unicode="&#xd9;" horiz-adv-x="1212" 
d="M1081 516q0 -254 -131 -404.5t-352 -150.5q-214 0 -339.5 142.5t-125.5 385.5v981h164v-925q0 -195 79.5 -300.5t227.5 -105.5q149 0 231.5 105t82.5 297v929h163v-954zM672 1595h-123l-219 248h192z" />
    <glyph glyph-name="Uacute" unicode="&#xda;" horiz-adv-x="1212" 
d="M1081 516q0 -254 -131 -404.5t-352 -150.5q-214 0 -339.5 142.5t-125.5 385.5v981h164v-925q0 -195 79.5 -300.5t227.5 -105.5q149 0 231.5 105t82.5 297v929h163v-954zM889 1843l-219 -248h-123l149 248h193z" />
    <glyph glyph-name="Ucircumflex" unicode="&#xdb;" horiz-adv-x="1212" 
d="M1081 516q0 -254 -131 -404.5t-352 -150.5q-214 0 -339.5 142.5t-125.5 385.5v981h164v-925q0 -195 79.5 -300.5t227.5 -105.5q149 0 231.5 105t82.5 297v929h163v-954zM883 1597h-135l-142 150l-141 -150h-133l196 248h158z" />
    <glyph glyph-name="Udieresis" unicode="&#xdc;" horiz-adv-x="1212" 
d="M1081 516q0 -254 -131 -404.5t-352 -150.5q-214 0 -339.5 142.5t-125.5 385.5v981h164v-925q0 -195 79.5 -300.5t227.5 -105.5q149 0 231.5 105t82.5 297v929h163v-954zM535 1622h-181v197h181v-197zM864 1622h-180v197h180v-197z" />
    <glyph glyph-name="Yacute" unicode="&#xdd;" horiz-adv-x="1120" 
d="M1096 1470l-455 -878v-592h-164v592l-454 878h190l346 -706l346 706h191zM840 1843l-219 -248h-123l149 248h193z" />
    <glyph glyph-name="Thorn" unicode="&#xde;" horiz-adv-x="1120" 
d="M1044 811q0 -197 -97.5 -315.5t-260.5 -118.5h-377v-377h-164v1470h164v-243h377q161 0 259.5 -114.5t98.5 -301.5zM877 805q0 128 -59.5 190t-180.5 62h-328v-510h322q246 0 246 258z" />
    <glyph glyph-name="germandbls" unicode="&#xdf;" horiz-adv-x="1026" 
d="M958 457q0 -100 -27 -187t-78 -155t-132.5 -107t-183.5 -39q-41 0 -84 13l-7 2v153q40 -8 72 -8q141 0 214 78.5t73 230.5q0 146 -70.5 216.5t-216.5 70.5q-36 0 -63 -8v162q25 -5 47 -5q120 0 186 60t66 168q0 107 -68 169t-186 62q-126 0 -183 -68.5t-57 -220.5v-1044
h-147v1090q0 189 104 295t289 106q181 0 288 -101t107 -272q0 -100 -32.5 -171t-104.5 -128q94 -40 144 -133.5t50 -228.5z" />
    <glyph glyph-name="agrave" unicode="&#xe0;" 
d="M891 0q-59 -20 -86 -20q-75 0 -109.5 37.5t-42.5 125.5q-72 -92 -144.5 -133t-166.5 -41q-127 0 -204 86.5t-77 227.5q0 139 69.5 225t197.5 106l243 37q41 6 59.5 35t18.5 88q0 88 -51.5 133t-151.5 45q-101 0 -153.5 -49t-52.5 -158h-136q0 357 353 357
q157 0 246.5 -80t89.5 -219v-617q0 -63 47 -63q10 0 51 8v-131zM645 371v176q-23 -21 -67.5 -33t-174.5 -35q-101 -17 -144.5 -58.5t-43.5 -121.5q0 -86 41.5 -133t116.5 -47q110 0 191 75.5t81 176.5zM514 1196h-113l-219 289h183z" />
    <glyph glyph-name="aacute" unicode="&#xe1;" 
d="M891 0q-59 -20 -86 -20q-75 0 -109.5 37.5t-42.5 125.5q-72 -92 -144.5 -133t-166.5 -41q-127 0 -204 86.5t-77 227.5q0 139 69.5 225t197.5 106l243 37q41 6 59.5 35t18.5 88q0 88 -51.5 133t-151.5 45q-101 0 -153.5 -49t-52.5 -158h-136q0 357 353 357
q157 0 246.5 -80t89.5 -219v-617q0 -63 47 -63q10 0 51 8v-131zM645 371v176q-23 -21 -67.5 -33t-174.5 -35q-101 -17 -144.5 -58.5t-43.5 -121.5q0 -86 41.5 -133t116.5 -47q110 0 191 75.5t81 176.5zM731 1485l-219 -289h-113l150 289h182z" />
    <glyph glyph-name="acircumflex" unicode="&#xe2;" 
d="M891 0q-59 -20 -86 -20q-75 0 -109.5 37.5t-42.5 125.5q-72 -92 -144.5 -133t-166.5 -41q-127 0 -204 86.5t-77 227.5q0 139 69.5 225t197.5 106l243 37q41 6 59.5 35t18.5 88q0 88 -51.5 133t-151.5 45q-101 0 -153.5 -49t-52.5 -158h-136q0 357 353 357
q157 0 246.5 -80t89.5 -219v-617q0 -63 47 -63q10 0 51 8v-131zM645 371v176q-23 -21 -67.5 -33t-174.5 -35q-101 -17 -144.5 -58.5t-43.5 -121.5q0 -86 41.5 -133t116.5 -47q110 0 191 75.5t81 176.5zM700 1198h-135l-110 191l-111 -191h-133l166 289h158z" />
    <glyph glyph-name="atilde" unicode="&#xe3;" 
d="M891 0q-59 -20 -86 -20q-75 0 -109.5 37.5t-42.5 125.5q-72 -92 -144.5 -133t-166.5 -41q-127 0 -204 86.5t-77 227.5q0 139 69.5 225t197.5 106l243 37q41 6 59.5 35t18.5 88q0 88 -51.5 133t-151.5 45q-101 0 -153.5 -49t-52.5 -158h-136q0 357 353 357
q157 0 246.5 -80t89.5 -219v-617q0 -63 47 -63q10 0 51 8v-131zM645 371v176q-23 -21 -67.5 -33t-174.5 -35q-101 -17 -144.5 -58.5t-43.5 -121.5q0 -86 41.5 -133t116.5 -47q110 0 191 75.5t81 176.5zM741 1460q-30 -223 -170 -223q-29 0 -96 27l-43 18q-69 31 -104 31
q-29 0 -47 -20.5t-31 -69.5h-80q15 113 57.5 166t116.5 53q44 0 115 -31l37 -18q56 -27 84 -27q32 0 50 21.5t27 72.5h84z" />
    <glyph glyph-name="adieresis" unicode="&#xe4;" 
d="M891 0q-59 -20 -86 -20q-75 0 -109.5 37.5t-42.5 125.5q-72 -92 -144.5 -133t-166.5 -41q-127 0 -204 86.5t-77 227.5q0 139 69.5 225t197.5 106l243 37q41 6 59.5 35t18.5 88q0 88 -51.5 133t-151.5 45q-101 0 -153.5 -49t-52.5 -158h-136q0 357 353 357
q157 0 246.5 -80t89.5 -219v-617q0 -63 47 -63q10 0 51 8v-131zM645 371v176q-23 -21 -67.5 -33t-174.5 -35q-101 -17 -144.5 -58.5t-43.5 -121.5q0 -86 41.5 -133t116.5 -47q110 0 191 75.5t81 176.5zM381 1243h-180v197h180v-197zM711 1243h-181v197h181v-197z" />
    <glyph glyph-name="aring" unicode="&#xe5;" 
d="M891 0q-59 -20 -86 -20q-75 0 -109.5 37.5t-42.5 125.5q-72 -92 -144.5 -133t-166.5 -41q-127 0 -204 86.5t-77 227.5q0 139 69.5 225t197.5 106l243 37q41 6 59.5 35t18.5 88q0 88 -51.5 133t-151.5 45q-101 0 -153.5 -49t-52.5 -158h-136q0 357 353 357
q157 0 246.5 -80t89.5 -219v-617q0 -63 47 -63q10 0 51 8v-131zM645 371v176q-23 -21 -67.5 -33t-174.5 -35q-101 -17 -144.5 -58.5t-43.5 -121.5q0 -86 41.5 -133t116.5 -47q110 0 191 75.5t81 176.5zM664 1339q0 -72 -59 -120t-148 -48q-91 0 -150 48.5t-59 123.5
q0 72 60 120t149 48t148 -48.5t59 -123.5zM573 1339q0 41 -34.5 70t-81.5 29t-83 -28.5t-36 -66.5q0 -41 34.5 -69.5t84.5 -28.5q47 0 81.5 28t34.5 66z" />
    <glyph glyph-name="ae" unicode="&#xe6;" horiz-adv-x="1492" 
d="M1423 477h-643q11 -350 250 -350q89 0 155.5 59t78.5 150h147q-27 -168 -127.5 -267.5t-259.5 -99.5q-118 0 -195.5 52.5t-134.5 171.5q-70 -119 -151.5 -171.5t-192.5 -52.5q-132 0 -210.5 85t-78.5 229q0 139 69.5 225t197.5 106l243 37q41 6 59.5 35t18.5 88
q0 88 -51.5 133t-151.5 45q-97 0 -143 -46.5t-63 -160.5h-136q10 188 98.5 272.5t264.5 84.5q99 0 158.5 -31.5t126.5 -120.5q72 86 134 119t154 33q118 0 197.5 -58.5t128 -199t57.5 -367.5zM1270 621q-23 321 -238 321q-106 0 -175.5 -88t-76.5 -233h490zM645 371v176
q-21 -21 -65.5 -33t-176.5 -35q-100 -17 -144 -59.5t-44 -120.5q0 -86 41.5 -133t116.5 -47q110 0 191 75.5t81 176.5z" />
    <glyph glyph-name="ccedilla" unicode="&#xe7;" horiz-adv-x="839" 
d="M801 379q-46 -365 -297 -406l-49 -92h24q62 0 100.5 -47t38.5 -117q0 -83 -54 -135.5t-142 -52.5q-72 0 -162 45l29 82q58 -31 106 -31q46 0 71.5 23t25.5 63q0 36 -24 64t-58 28q-22 0 -64 -18l-29 39l89 147q-163 17 -259 163.5t-96 381.5q0 268 112.5 427t303.5 159
q294 0 334 -391h-144q-19 121 -67.5 176t-136.5 55q-115 0 -179.5 -108.5t-64.5 -303.5q0 -194 60.5 -298.5t172.5 -104.5q168 0 215 252h144z" />
    <glyph glyph-name="egrave" unicode="&#xe8;" 
d="M866 477h-641q6 -184 69.5 -267t180.5 -83q89 0 155.5 59t76.5 150h147q-29 -173 -130 -270t-253 -97q-187 0 -295 146.5t-108 400.5q0 269 112.5 427.5t302.5 158.5q118 0 198.5 -60t129 -200.5t55.5 -364.5zM713 621q-23 321 -236 321q-106 0 -176 -88.5t-76 -232.5
h488zM524 1196h-112l-219 289h182z" />
    <glyph glyph-name="eacute" unicode="&#xe9;" 
d="M866 477h-641q6 -184 69.5 -267t180.5 -83q89 0 155.5 59t76.5 150h147q-29 -173 -130 -270t-253 -97q-187 0 -295 146.5t-108 400.5q0 269 112.5 427.5t302.5 158.5q118 0 198.5 -60t129 -200.5t55.5 -364.5zM713 621q-23 321 -236 321q-106 0 -176 -88.5t-76 -232.5
h488zM741 1485l-219 -289h-112l149 289h182z" />
    <glyph glyph-name="ecircumflex" unicode="&#xea;" 
d="M866 477h-641q6 -184 69.5 -267t180.5 -83q89 0 155.5 59t76.5 150h147q-29 -173 -130 -270t-253 -97q-187 0 -295 146.5t-108 400.5q0 269 112.5 427.5t302.5 158.5q118 0 198.5 -60t129 -200.5t55.5 -364.5zM713 621q-23 321 -236 321q-106 0 -176 -88.5t-76 -232.5
h488zM711 1198h-136l-110 191l-111 -191h-133l166 289h158z" />
    <glyph glyph-name="edieresis" unicode="&#xeb;" 
d="M866 477h-641q6 -184 69.5 -267t180.5 -83q89 0 155.5 59t76.5 150h147q-29 -173 -130 -270t-253 -97q-187 0 -295 146.5t-108 400.5q0 269 112.5 427.5t302.5 158.5q118 0 198.5 -60t129 -200.5t55.5 -364.5zM713 621q-23 321 -236 321q-106 0 -176 -88.5t-76 -232.5
h488zM391 1243h-180v197h180v-197zM721 1243h-180v197h180v-197z" />
    <glyph glyph-name="igrave" unicode="&#xec;" horiz-adv-x="466" 
d="M307 0h-147v1071h147v-1071zM307 1196h-112l-220 289h183z" />
    <glyph glyph-name="iacute" unicode="&#xed;" horiz-adv-x="466" 
d="M307 0h-147v1071h147v-1071zM492 1485l-220 -289h-112l149 289h183z" />
    <glyph glyph-name="icircumflex" unicode="&#xee;" horiz-adv-x="466" 
d="M307 0h-147v1071h147v-1071zM477 1198h-135l-111 191l-110 -191h-133l166 289h157z" />
    <glyph glyph-name="idieresis" unicode="&#xef;" horiz-adv-x="466" 
d="M307 0h-147v1071h147v-1071zM158 1243h-181v197h181v-197zM487 1243h-180v197h180v-197z" />
    <glyph glyph-name="eth" unicode="&#xf0;" 
d="M877 594q0 -286 -110 -455.5t-296 -169.5q-181 0 -296.5 153.5t-115.5 395.5q0 239 110.5 396t279.5 157q70 0 120 -27t107 -96q-32 91 -77 162t-116 143l-207 -127l-71 86l198 117q-69 64 -149 107l125 73q85 -43 151 -104l179 104l79 -82l-180 -104
q145 -180 207 -351.5t62 -377.5zM723 520q0 171 -71.5 282t-180.5 111q-116 0 -187 -111t-71 -282t70 -282t184 -111q115 0 185.5 111.5t70.5 281.5z" />
    <glyph glyph-name="ntilde" unicode="&#xf1;" 
d="M825 0h-147v659q0 148 -43 215.5t-137 67.5q-113 0 -177.5 -95.5t-64.5 -262.5v-584h-147v1071h139v-158q57 100 123 144.5t157 44.5q140 0 218.5 -98t78.5 -275v-729zM752 1460q-30 -223 -170 -223q-30 0 -97 27l-43 18q-69 31 -104 31q-29 0 -47 -20.5t-31 -69.5h-80
q15 113 57.5 166t116.5 53q44 0 115 -31l37 -18q56 -27 84 -27q33 0 51 21.5t27 72.5h84z" />
    <glyph glyph-name="ograve" unicode="&#xf2;" 
d="M874 537q0 -251 -113 -408.5t-294 -157.5q-180 0 -294 158t-114 408q0 254 114 409.5t300 155.5q177 0 289 -158.5t112 -406.5zM721 537q0 184 -68.5 295.5t-181.5 111.5q-120 0 -189 -109.5t-69 -297.5q0 -186 69 -297t185 -111t185 111t69 297zM524 1196h-112l-219 289
h182z" />
    <glyph glyph-name="oacute" unicode="&#xf3;" 
d="M874 537q0 -251 -113 -408.5t-294 -157.5q-180 0 -294 158t-114 408q0 254 114 409.5t300 155.5q177 0 289 -158.5t112 -406.5zM721 537q0 184 -68.5 295.5t-181.5 111.5q-120 0 -189 -109.5t-69 -297.5q0 -186 69 -297t185 -111t185 111t69 297zM741 1485l-219 -289
h-112l149 289h182z" />
    <glyph glyph-name="ocircumflex" unicode="&#xf4;" 
d="M874 537q0 -251 -113 -408.5t-294 -157.5q-180 0 -294 158t-114 408q0 254 114 409.5t300 155.5q177 0 289 -158.5t112 -406.5zM721 537q0 184 -68.5 295.5t-181.5 111.5q-120 0 -189 -109.5t-69 -297.5q0 -186 69 -297t185 -111t185 111t69 297zM711 1198h-136l-110 191
l-111 -191h-133l166 289h158z" />
    <glyph glyph-name="otilde" unicode="&#xf5;" 
d="M874 537q0 -251 -113 -408.5t-294 -157.5q-180 0 -294 158t-114 408q0 254 114 409.5t300 155.5q177 0 289 -158.5t112 -406.5zM721 537q0 184 -68.5 295.5t-181.5 111.5q-120 0 -189 -109.5t-69 -297.5q0 -186 69 -297t185 -111t185 111t69 297zM752 1460
q-30 -223 -170 -223q-30 0 -97 27l-43 18q-69 31 -104 31q-29 0 -47 -20.5t-31 -69.5h-80q15 113 57.5 166t116.5 53q44 0 115 -31l37 -18q56 -27 84 -27q33 0 51 21.5t27 72.5h84z" />
    <glyph glyph-name="odieresis" unicode="&#xf6;" 
d="M874 537q0 -251 -113 -408.5t-294 -157.5q-180 0 -294 158t-114 408q0 254 114 409.5t300 155.5q177 0 289 -158.5t112 -406.5zM721 537q0 184 -68.5 295.5t-181.5 111.5q-120 0 -189 -109.5t-69 -297.5q0 -186 69 -297t185 -111t185 111t69 297zM391 1243h-180v197h180
v-197zM721 1243h-180v197h180v-197z" />
    <glyph glyph-name="divide" unicode="&#xf7;" horiz-adv-x="980" 
d="M868 453h-755v118h755v-118zM580 881q0 -36 -26 -62t-62 -26q-37 0 -63 25.5t-26 62.5q0 35 26.5 61.5t62.5 26.5q35 0 61.5 -26.5t26.5 -61.5zM580 145q0 -36 -26 -62t-62 -26q-37 0 -63 25.5t-26 62.5q0 35 26.5 61.5t62.5 26.5q35 0 61.5 -26.5t26.5 -61.5z" />
    <glyph glyph-name="oslash" unicode="&#xf8;" 
d="M901 1063l-117 -160q48 -90 69 -176t21 -192q0 -250 -113.5 -407t-295.5 -157q-79 0 -141.5 29t-122.5 94l-103 -139l-51 53l107 148q-95 174 -95 381q0 252 113.5 408.5t296.5 156.5q83 0 146.5 -31t125.5 -102l109 147zM649 840q-38 55 -80.5 79.5t-101.5 24.5
q-116 0 -185 -110.5t-69 -296.5q0 -128 41 -244zM721 537q0 120 -37 227l-391 -543q69 -92 172 -92q117 0 186.5 111t69.5 297z" />
    <glyph glyph-name="ugrave" unicode="&#xf9;" 
d="M821 0h-139v166q-59 -110 -120 -153.5t-159 -43.5q-135 0 -211.5 88t-76.5 244v770h147v-711q0 -233 170 -233q110 0 176 96t66 258v590h147v-1071zM524 1196h-112l-219 289h182z" />
    <glyph glyph-name="uacute" unicode="&#xfa;" 
d="M821 0h-139v166q-59 -110 -120 -153.5t-159 -43.5q-135 0 -211.5 88t-76.5 244v770h147v-711q0 -233 170 -233q110 0 176 96t66 258v590h147v-1071zM741 1485l-219 -289h-112l149 289h182z" />
    <glyph glyph-name="ucircumflex" unicode="&#xfb;" 
d="M821 0h-139v166q-59 -110 -120 -153.5t-159 -43.5q-135 0 -211.5 88t-76.5 244v770h147v-711q0 -233 170 -233q110 0 176 96t66 258v590h147v-1071zM711 1198h-136l-110 191l-111 -191h-133l166 289h158z" />
    <glyph glyph-name="udieresis" unicode="&#xfc;" 
d="M821 0h-139v166q-59 -110 -120 -153.5t-159 -43.5q-135 0 -211.5 88t-76.5 244v770h147v-711q0 -233 170 -233q110 0 176 96t66 258v590h147v-1071zM391 1243h-180v197h180v-197zM721 1243h-180v197h180v-197z" />
    <glyph glyph-name="yacute" unicode="&#xfd;" horiz-adv-x="839" 
d="M821 1071l-317 -1051q-36 -116 -58 -182t-48 -124t-44 -83t-48.5 -43.5t-58.5 -22t-77 -3.5q-27 0 -59 12l-13 4v164q44 -18 90 -18t68 26.5t51 110.5l37 110l-326 1100h166l236 -878l237 878h164zM694 1485l-219 -289h-113l150 289h182z" />
    <glyph glyph-name="thorn" unicode="&#xfe;" 
d="M868 561q0 -267 -105 -429.5t-278 -162.5q-81 0 -138 36t-101 114v-543h-148v1894h148v-552q54 100 112.5 142t145.5 42q164 0 264 -148.5t100 -392.5zM715 555q0 189 -60 288t-174 99q-241 0 -241 -442q0 -173 64.5 -273t174.5 -100q112 0 174 112.5t62 315.5z" />
    <glyph glyph-name="ydieresis" unicode="&#xff;" horiz-adv-x="839" 
d="M821 1071l-317 -1051q-36 -116 -58 -182t-48 -124t-44 -83t-48.5 -43.5t-58.5 -22t-77 -3.5q-27 0 -59 12l-13 4v164q44 -18 90 -18t68 26.5t51 110.5l37 110l-326 1100h166l236 -878l237 878h164zM344 1243h-180v197h180v-197zM674 1243h-180v197h180v-197z" />
    <glyph glyph-name="Amacron" unicode="&#x100;" horiz-adv-x="1120" 
d="M1098 0h-178l-119 428h-484l-127 -428h-167l452 1470h187zM741 606l-180 651l-194 -651h374zM834 1663h-527v117h527v-117z" />
    <glyph glyph-name="amacron" unicode="&#x101;" 
d="M891 0q-59 -20 -86 -20q-75 0 -109.5 37.5t-42.5 125.5q-72 -92 -144.5 -133t-166.5 -41q-127 0 -204 86.5t-77 227.5q0 139 69.5 225t197.5 106l243 37q41 6 59.5 35t18.5 88q0 88 -51.5 133t-151.5 45q-101 0 -153.5 -49t-52.5 -158h-136q0 357 353 357
q157 0 246.5 -80t89.5 -219v-617q0 -63 47 -63q10 0 51 8v-131zM645 371v176q-23 -21 -67.5 -33t-174.5 -35q-101 -17 -144.5 -58.5t-43.5 -121.5q0 -86 41.5 -133t116.5 -47q110 0 191 75.5t81 176.5zM719 1284h-526v117h526v-117z" />
    <glyph glyph-name="Abreve" unicode="&#x102;" horiz-adv-x="1120" 
d="M1098 0h-178l-119 428h-484l-127 -428h-167l452 1470h187zM741 606l-180 651l-194 -651h374zM848 1839q-35 -119 -102 -178t-183 -59q-112 0 -176 59t-96 178h82l4 -14q40 -52 84.5 -79.5t111.5 -27.5q72 0 111.5 29t63.5 92h100z" />
    <glyph glyph-name="abreve" unicode="&#x103;" 
d="M891 0q-59 -20 -86 -20q-75 0 -109.5 37.5t-42.5 125.5q-72 -92 -144.5 -133t-166.5 -41q-127 0 -204 86.5t-77 227.5q0 139 69.5 225t197.5 106l243 37q41 6 59.5 35t18.5 88q0 88 -51.5 133t-151.5 45q-101 0 -153.5 -49t-52.5 -158h-136q0 357 353 357
q157 0 246.5 -80t89.5 -219v-617q0 -63 47 -63q10 0 51 8v-131zM645 371v176q-23 -21 -67.5 -33t-174.5 -35q-101 -17 -144.5 -58.5t-43.5 -121.5q0 -86 41.5 -133t116.5 -47q110 0 191 75.5t81 176.5zM715 1481q-19 -145 -81.5 -212t-182.5 -67q-116 0 -176.5 67t-75.5 212
h82l4 -15q20 -77 62 -112t114 -35q75 0 113 35.5t61 126.5h80z" />
    <glyph glyph-name="Aogonek" unicode="&#x104;" horiz-adv-x="1120" 
d="M1098 -471h-64q-102 0 -177 55.5t-75 143.5q0 79 33 136.5t111 135.5q-3 0 -34 107t-61 214l-30 107h-484l-127 -428h-167l452 1470h187l436 -1470q-47 -9 -85.5 -39.5t-58.5 -75.5q-24 -59 -24 -121q0 -49 24 -67.5t80 -18.5h64v-149zM741 606l-180 651l-194 -651h374z
" />
    <glyph glyph-name="aogonek" unicode="&#x105;" 
d="M891 -471h-64q-102 0 -177 55.5t-75 143.5q0 79 33 136.5t111 135.5q-57 32 -66 143q-72 -92 -144.5 -133t-166.5 -41q-127 0 -204 86.5t-77 227.5q0 139 69.5 225t197.5 106l243 37q41 6 59.5 35t18.5 88q0 88 -51.5 133t-151.5 45q-101 0 -153.5 -49t-52.5 -158h-136
q0 357 353 357q157 0 246.5 -80t89.5 -219v-617q0 -63 47 -63q10 0 51 8v-131q-47 -9 -85 -39.5t-58 -75.5q-25 -61 -25 -121q0 -49 24 -67.5t80 -18.5h64v-149zM645 371v176q-23 -21 -67.5 -33t-174.5 -35q-101 -17 -144.5 -58.5t-43.5 -121.5q0 -86 41.5 -133t116.5 -47
q110 0 191 75.5t81 176.5z" />
    <glyph glyph-name="Cacute" unicode="&#x106;" horiz-adv-x="1212" 
d="M1143 541q-30 -172 -69.5 -266t-108.5 -166q-142 -148 -349 -148q-249 0 -395.5 208.5t-146.5 563.5q0 356 152.5 566t410.5 210q200 0 332 -126.5t161 -354.5h-157q-36 158 -119 230.5t-213 72.5q-187 0 -293 -160.5t-106 -443.5q0 -280 102 -434t287 -154
q137 0 224.5 95t129.5 307h158zM918 1843l-220 -248h-123l150 248h193z" />
    <glyph glyph-name="cacute" unicode="&#x107;" horiz-adv-x="839" 
d="M801 379q-53 -410 -357 -410q-180 0 -286.5 148t-106.5 399q0 268 112.5 427t303.5 159q294 0 334 -391h-144q-19 121 -67.5 176t-136.5 55q-115 0 -179.5 -108.5t-64.5 -303.5q0 -194 60.5 -298.5t172.5 -104.5q168 0 215 252h144zM694 1485l-219 -289h-113l150 289h182
z" />
    <glyph glyph-name="Ccircumflex" unicode="&#x108;" horiz-adv-x="1212" 
d="M1143 541q-30 -172 -69.5 -266t-108.5 -166q-142 -148 -349 -148q-249 0 -395.5 208.5t-146.5 563.5q0 356 152.5 566t410.5 210q200 0 332 -126.5t161 -354.5h-157q-36 158 -119 230.5t-213 72.5q-187 0 -293 -160.5t-106 -443.5q0 -280 102 -434t287 -154
q137 0 224.5 95t129.5 307h158zM911 1597h-135l-141 150l-141 -150h-134l197 248h158z" />
    <glyph glyph-name="ccircumflex" unicode="&#x109;" horiz-adv-x="839" 
d="M801 379q-53 -410 -357 -410q-180 0 -286.5 148t-106.5 399q0 268 112.5 427t303.5 159q294 0 334 -391h-144q-19 121 -67.5 176t-136.5 55q-115 0 -179.5 -108.5t-64.5 -303.5q0 -194 60.5 -298.5t172.5 -104.5q168 0 215 252h144zM664 1198h-136l-110 191l-111 -191
h-133l166 289h158z" />
    <glyph glyph-name="Cdotaccent" unicode="&#x10a;" horiz-adv-x="1212" 
d="M1143 541q-30 -172 -69.5 -266t-108.5 -166q-142 -148 -349 -148q-249 0 -395.5 208.5t-146.5 563.5q0 356 152.5 566t410.5 210q200 0 332 -126.5t161 -354.5h-157q-36 158 -119 230.5t-213 72.5q-187 0 -293 -160.5t-106 -443.5q0 -280 102 -434t287 -154
q137 0 224.5 95t129.5 307h158zM727 1622h-176v197h176v-197z" />
    <glyph glyph-name="cdotaccent" unicode="&#x10b;" horiz-adv-x="839" 
d="M801 379q-53 -410 -357 -410q-180 0 -286.5 148t-106.5 399q0 268 112.5 427t303.5 159q294 0 334 -391h-144q-19 121 -67.5 176t-136.5 55q-115 0 -179.5 -108.5t-64.5 -303.5q0 -194 60.5 -298.5t172.5 -104.5q168 0 215 252h144zM508 1243h-176v197h176v-197z" />
    <glyph glyph-name="Ccaron" unicode="&#x10c;" horiz-adv-x="1212" 
d="M1143 541q-30 -172 -69.5 -266t-108.5 -166q-142 -148 -349 -148q-249 0 -395.5 208.5t-146.5 563.5q0 356 152.5 566t410.5 210q200 0 332 -126.5t161 -354.5h-157q-36 158 -119 230.5t-213 72.5q-187 0 -293 -160.5t-106 -443.5q0 -280 102 -434t287 -154
q137 0 224.5 95t129.5 307h158zM913 1845l-196 -248h-158l-197 248h136l141 -149l141 149h133z" />
    <glyph glyph-name="ccaron" unicode="&#x10d;" horiz-adv-x="839" 
d="M801 379q-53 -410 -357 -410q-180 0 -286.5 148t-106.5 399q0 268 112.5 427t303.5 159q294 0 334 -391h-144q-19 121 -67.5 176t-136.5 55q-115 0 -179.5 -108.5t-64.5 -303.5q0 -194 60.5 -298.5t172.5 -104.5q168 0 215 252h144zM664 1487l-166 -289h-158l-166 289
h135l111 -191l110 191h134z" />
    <glyph glyph-name="Dcaron" unicode="&#x10e;" horiz-adv-x="1212" 
d="M1133 752q0 -158 -33 -294t-96.5 -238.5t-162.5 -161t-223 -58.5h-483v1470h490q232 0 370 -195.5t138 -522.5zM965 735q0 273 -93.5 419t-267.5 146h-305v-1130h315q163 0 257 151.5t94 413.5zM881 1845l-197 -248h-158l-196 248h135l141 -149l142 149h133z" />
    <glyph glyph-name="dcaron" unicode="&#x10f;" 
d="M838 0h-140v154q-47 -100 -106 -142.5t-148 -42.5q-175 0 -280 161.5t-105 430.5q0 243 100 392t263 149q91 0 153 -45t115 -148v561h148v-1470zM688 508q0 211 -60.5 322.5t-174.5 111.5q-240 0 -240 -391q0 -201 61.5 -312.5t171.5 -111.5q112 0 177 100t65 281z
M1120 1280q0 -264 -168 -264v74q92 0 92 161v21h-94v198h170v-190z" />
    <glyph glyph-name="Dcroat" unicode="&#x110;" horiz-adv-x="1212" 
d="M1133 762q0 -347 -137.5 -554.5t-377.5 -207.5h-483v666h-135v178h135v626h492q151 0 266 -87.5t177.5 -248.5t62.5 -372zM965 735q0 273 -93.5 419t-267.5 146h-305v-456h324v-178h-324v-496h317q161 0 255 151.5t94 413.5z" />
    <glyph glyph-name="dcroat" unicode="&#x111;" horiz-adv-x="985" 
d="M985 1212h-147v-1212h-140v154q-47 -100 -106 -142.5t-148 -42.5q-175 0 -280 161.5t-105 430.5q0 243 100 392t263 149q91 0 153 -45t115 -148v303h-231v117h231v141h148v-141h147v-117zM688 508q0 211 -60.5 322.5t-174.5 111.5q-240 0 -240 -391q0 -201 61.5 -312.5
t171.5 -111.5q112 0 177 100t65 281z" />
    <glyph glyph-name="Emacron" unicode="&#x112;" horiz-adv-x="1120" 
d="M1034 0h-889v1470h877v-178h-713v-448h658v-178h-658v-488h725v-178zM848 1663h-526v117h526v-117z" />
    <glyph glyph-name="emacron" unicode="&#x113;" 
d="M866 477h-641q6 -184 69.5 -267t180.5 -83q89 0 155.5 59t76.5 150h147q-29 -173 -130 -270t-253 -97q-187 0 -295 146.5t-108 400.5q0 269 112.5 427.5t302.5 158.5q118 0 198.5 -60t129 -200.5t55.5 -364.5zM713 621q-23 321 -236 321q-106 0 -176 -88.5t-76 -232.5
h488zM729 1284h-526v117h526v-117z" />
    <glyph glyph-name="Ebreve" unicode="&#x114;" horiz-adv-x="1120" 
d="M1034 0h-889v1470h877v-178h-713v-448h658v-178h-658v-488h725v-178zM862 1839q-35 -119 -101.5 -178t-182.5 -59q-112 0 -176.5 59.5t-96.5 177.5h82l4 -14q40 -52 85 -79.5t112 -27.5q72 0 111 29t63 92h100z" />
    <glyph glyph-name="ebreve" unicode="&#x115;" 
d="M866 477h-641q6 -184 69.5 -267t180.5 -83q89 0 155.5 59t76.5 150h147q-29 -173 -130 -270t-253 -97q-187 0 -295 146.5t-108 400.5q0 269 112.5 427.5t302.5 158.5q118 0 198.5 -60t129 -200.5t55.5 -364.5zM713 621q-23 321 -236 321q-106 0 -176 -88.5t-76 -232.5
h488zM725 1481q-19 -145 -81.5 -212t-182.5 -67q-116 0 -176.5 67t-75.5 212h82l4 -15q20 -77 62 -112t114 -35q75 0 113 35.5t61 126.5h80z" />
    <glyph glyph-name="Edotaccent" unicode="&#x116;" horiz-adv-x="1120" 
d="M1034 0h-889v1470h877v-178h-713v-448h658v-178h-658v-488h725v-178zM674 1622h-176v197h176v-197z" />
    <glyph glyph-name="edotaccent" unicode="&#x117;" 
d="M866 477h-641q6 -184 69.5 -267t180.5 -83q89 0 155.5 59t76.5 150h147q-29 -173 -130 -270t-253 -97q-187 0 -295 146.5t-108 400.5q0 269 112.5 427.5t302.5 158.5q118 0 198.5 -60t129 -200.5t55.5 -364.5zM713 621q-23 321 -236 321q-106 0 -176 -88.5t-76 -232.5
h488zM555 1243h-176v197h176v-197z" />
    <glyph glyph-name="Eogonek" unicode="&#x118;" horiz-adv-x="1120" 
d="M1034 -471h-63q-102 0 -177 55.5t-75 143.5q0 79 33 137t110 135h-717v1470h877v-178h-713v-448h658v-178h-658v-488h725v-178q-47 -9 -85 -39.5t-58 -75.5q-25 -61 -25 -121q0 -49 24.5 -67.5t80.5 -18.5h63v-149z" />
    <glyph glyph-name="eogonek" unicode="&#x119;" 
d="M866 477h-641q6 -184 69.5 -267t180.5 -83q89 0 155.5 59t76.5 150h147q-35 -210 -172 -305q-70 -48 -113 -118t-43 -149q0 -49 24.5 -67.5t80.5 -18.5h63v-149h-63q-102 0 -177 55.5t-75 143.5q0 72 27 125.5t88 115.5h-23q-187 0 -295 146.5t-108 400.5
q0 269 112.5 427.5t302.5 158.5q118 0 198.5 -60t129 -200.5t55.5 -364.5zM713 621q-23 321 -236 321q-106 0 -176 -88.5t-76 -232.5h488z" />
    <glyph glyph-name="Ecaron" unicode="&#x11a;" horiz-adv-x="1120" 
d="M1034 0h-889v1470h877v-178h-713v-448h658v-178h-658v-488h725v-178zM860 1845l-196 -248h-158l-197 248h135l142 -149l141 149h133z" />
    <glyph glyph-name="ecaron" unicode="&#x11b;" 
d="M866 477h-641q6 -184 69.5 -267t180.5 -83q89 0 155.5 59t76.5 150h147q-29 -173 -130 -270t-253 -97q-187 0 -295 146.5t-108 400.5q0 269 112.5 427.5t302.5 158.5q118 0 198.5 -60t129 -200.5t55.5 -364.5zM713 621q-23 321 -236 321q-106 0 -176 -88.5t-76 -232.5
h488zM711 1487l-166 -289h-158l-166 289h135l111 -191l111 191h133z" />
    <glyph glyph-name="Gcircumflex" unicode="&#x11c;" horiz-adv-x="1306" 
d="M1182 0h-107l-37 190q-85 -123 -183.5 -176t-223.5 -53q-128 0 -234 61.5t-174.5 166t-105.5 240.5t-37 288q0 234 71 414t200.5 279t297.5 99q200 0 339.5 -129t172.5 -356h-157q-73 307 -353 307q-186 0 -294.5 -164t-108.5 -444q0 -289 104 -440.5t303 -151.5
q79 0 145 28t118 85t81 152t29 220h-375v170h529v-786zM924 1597h-136l-141 150l-141 -150h-133l196 248h158z" />
    <glyph glyph-name="gcircumflex" unicode="&#x11d;" 
d="M838 88q0 -281 -100.5 -410t-305.5 -129q-145 0 -227.5 73.5t-110.5 246.5h148q20 -91 65.5 -130.5t130.5 -39.5q134 0 193 82.5t59 294.5v43q-43 -78 -100 -114t-139 -36q-173 0 -278 162.5t-105 429.5q0 243 99.5 392t262.5 149q89 0 148.5 -42t119.5 -147v158h140
v-983zM696 506q0 212 -60.5 324t-174.5 112q-240 0 -240 -391q0 -201 62 -312.5t172 -111.5q114 0 177.5 100.5t63.5 278.5zM711 1198h-136l-110 191l-111 -191h-133l166 289h158z" />
    <glyph glyph-name="Gbreve" unicode="&#x11e;" horiz-adv-x="1306" 
d="M1182 0h-107l-37 190q-85 -123 -183.5 -176t-223.5 -53q-128 0 -234 61.5t-174.5 166t-105.5 240.5t-37 288q0 234 71 414t200.5 279t297.5 99q200 0 339.5 -129t172.5 -356h-157q-73 307 -353 307q-186 0 -294.5 -164t-108.5 -444q0 -289 104 -440.5t303 -151.5
q79 0 145 28t118 85t81 152t29 220h-375v170h529v-786zM928 1839q-35 -119 -102 -178t-183 -59q-112 0 -176 59t-96 178h82l4 -14q40 -52 84.5 -79.5t111.5 -27.5q72 0 111 29t63 92h101z" />
    <glyph glyph-name="gbreve" unicode="&#x11f;" 
d="M838 88q0 -281 -100.5 -410t-305.5 -129q-145 0 -227.5 73.5t-110.5 246.5h148q20 -91 65.5 -130.5t130.5 -39.5q134 0 193 82.5t59 294.5v43q-43 -78 -100 -114t-139 -36q-173 0 -278 162.5t-105 429.5q0 243 99.5 392t262.5 149q89 0 148.5 -42t119.5 -147v158h140
v-983zM696 506q0 212 -60.5 324t-174.5 112q-240 0 -240 -391q0 -201 62 -312.5t172 -111.5q114 0 177.5 100.5t63.5 278.5zM725 1481q-19 -145 -81.5 -212t-182.5 -67q-116 0 -176.5 67t-75.5 212h82l4 -15q20 -77 62 -112t114 -35q75 0 113 35.5t61 126.5h80z" />
    <glyph glyph-name="Gdotaccent" unicode="&#x120;" horiz-adv-x="1306" 
d="M1182 0h-107l-37 190q-85 -123 -183.5 -176t-223.5 -53q-128 0 -234 61.5t-174.5 166t-105.5 240.5t-37 288q0 234 71 414t200.5 279t297.5 99q200 0 339.5 -129t172.5 -356h-157q-73 307 -353 307q-186 0 -294.5 -164t-108.5 -444q0 -289 104 -440.5t303 -151.5
q79 0 145 28t118 85t81 152t29 220h-375v170h529v-786zM739 1622h-176v197h176v-197z" />
    <glyph glyph-name="gdotaccent" unicode="&#x121;" 
d="M838 88q0 -281 -100.5 -410t-305.5 -129q-145 0 -227.5 73.5t-110.5 246.5h148q20 -91 65.5 -130.5t130.5 -39.5q134 0 193 82.5t59 294.5v43q-43 -78 -100 -114t-139 -36q-173 0 -278 162.5t-105 429.5q0 243 99.5 392t262.5 149q89 0 148.5 -42t119.5 -147v158h140
v-983zM696 506q0 212 -60.5 324t-174.5 112q-240 0 -240 -391q0 -201 62 -312.5t172 -111.5q114 0 177.5 100.5t63.5 278.5zM555 1243h-176v197h176v-197z" />
    <glyph glyph-name="Gcommaaccent" unicode="&#x122;" horiz-adv-x="1306" 
d="M1182 0h-107l-37 190q-85 -123 -183.5 -176t-223.5 -53q-128 0 -234 61.5t-174.5 166t-105.5 240.5t-37 288q0 234 71 414t200.5 279t297.5 99q200 0 339.5 -129t172.5 -356h-157q-73 307 -353 307q-186 0 -294.5 -164t-108.5 -444q0 -289 104 -440.5t303 -151.5
q79 0 145 28t118 85t81 152t29 220h-375v170h529v-786zM733 -313q0 -265 -168 -265v74q92 0 92 162v20h-94v199h170v-190z" />
    <glyph glyph-name="gcommaaccent" unicode="&#x123;" 
d="M553 1184h-170v190q0 264 168 264v-73q-92 0 -92 -162v-21h94v-198zM838 88q0 -281 -100.5 -410t-305.5 -129q-145 0 -227.5 73.5t-110.5 246.5h148q20 -91 65.5 -130.5t130.5 -39.5q134 0 193 82.5t59 294.5v43q-43 -78 -100 -114t-139 -36q-173 0 -278 162.5
t-105 429.5q0 243 99.5 392t262.5 149q89 0 148.5 -42t119.5 -147v158h140v-983zM696 506q0 212 -60.5 324t-174.5 112q-240 0 -240 -391q0 -201 62 -312.5t172 -111.5q114 0 177.5 100.5t63.5 278.5z" />
    <glyph glyph-name="Hcircumflex" unicode="&#x124;" horiz-adv-x="1212" 
d="M1085 0h-163v684h-629v-684h-164v1470h164v-608h629v608h163v-1470zM883 1597h-135l-142 150l-141 -150h-133l196 248h158z" />
    <glyph glyph-name="hcircumflex" unicode="&#x125;" 
d="M825 0h-147v700q0 128 -40.5 185t-131.5 57q-120 0 -185 -93.5t-65 -264.5v-584h-147v1470h147v-546q64 100 124 139t148 39q140 0 218.5 -98t78.5 -275v-729zM741 1597h-135l-141 150l-141 -150h-134l197 248h158z" />
    <glyph glyph-name="Hbar" unicode="&#x126;" horiz-adv-x="1212" 
d="M1167 1130h-82v-1130h-163v684h-629v-684h-164v1130h-82v93h82v247h164v-247h629v247h163v-247h82v-93zM922 862v268h-629v-268h629z" />
    <glyph glyph-name="hbar" unicode="&#x127;" horiz-adv-x="1015" 
d="M903 0h-147v700q0 128 -40.5 185t-131.5 57q-120 0 -185 -93.5t-65 -264.5v-584h-148v1055l-73 -35v102l73 35v313h148v-245l211 98v-104l-211 -97v-198q64 100 124 139t148 39q140 0 218.5 -98t78.5 -275v-729z" />
    <glyph glyph-name="Itilde" unicode="&#x128;" horiz-adv-x="466" 
d="M315 0h-161v1470h161v-1470zM522 1839q-30 -223 -170 -223q-31 0 -96 26l-43 19q-69 31 -104 31q-29 0 -47 -20.5t-31 -69.5h-80q15 113 57.5 166t116.5 53q44 0 115 -31l36 -18q56 -27 84 -27q33 0 51 21.5t27 72.5h84z" />
    <glyph glyph-name="itilde" unicode="&#x129;" horiz-adv-x="466" 
d="M307 0h-147v1071h147v-1071zM518 1460q-30 -223 -170 -223q-28 0 -96 27l-43 18q-69 31 -105 31q-29 0 -46 -20t-31 -70h-80q15 113 57.5 166t116.5 53q44 0 115 -31l36 -18q56 -27 84 -27q33 0 51 21.5t27 72.5h84z" />
    <glyph glyph-name="Imacron" unicode="&#x12a;" horiz-adv-x="466" 
d="M315 0h-161v1470h161v-1470zM500 1663h-527v117h527v-117z" />
    <glyph glyph-name="imacron" unicode="&#x12b;" horiz-adv-x="466" 
d="M307 0h-147v1071h147v-1071zM496 1284h-527v117h527v-117z" />
    <glyph glyph-name="Ibreve" unicode="&#x12c;" horiz-adv-x="466" 
d="M315 0h-161v1470h161v-1470zM514 1839q-35 -119 -102 -178t-183 -59q-112 0 -176 59t-96 178h82l4 -14q40 -52 85 -79.5t112 -27.5q72 0 111 29t63 92h100z" />
    <glyph glyph-name="ibreve" unicode="&#x12d;" horiz-adv-x="466" 
d="M307 0h-147v1071h147v-1071zM492 1481q-19 -145 -82 -212t-183 -67q-116 0 -176.5 67t-75.5 212h82l4 -15q20 -77 62.5 -112t114.5 -35q75 0 113 35.5t61 126.5h80z" />
    <glyph glyph-name="Iogonek" unicode="&#x12e;" horiz-adv-x="466" 
d="M356 -471h-63q-102 0 -177 55.5t-75 143.5q0 79 33 137t110 135h-30v1470h161v-1470q-65 -39 -102 -115q-25 -61 -25 -121q0 -49 24.5 -67.5t80.5 -18.5h63v-149z" />
    <glyph glyph-name="iogonek" unicode="&#x12f;" horiz-adv-x="466" 
d="M369 -471h-64q-102 0 -177 55.5t-75 143.5q0 79 33 136.5t111 135.5h-37v1071h147v-1071q-51 -48 -82 -115q-24 -59 -24 -121q0 -49 24 -67.5t80 -18.5h64v-149zM322 1243h-177v197h177v-197z" />
    <glyph glyph-name="Idotaccent" unicode="&#x130;" horiz-adv-x="466" 
d="M315 0h-161v1470h161v-1470zM326 1622h-176v197h176v-197z" />
    <glyph glyph-name="dotlessi" unicode="&#x131;" horiz-adv-x="372" 
d="M260 0h-147v1071h147v-1071z" />
    <glyph glyph-name="Jcircumflex" unicode="&#x134;" horiz-adv-x="839" 
d="M719 397q0 -209 -91.5 -322.5t-258.5 -113.5q-155 0 -247.5 100t-92.5 267v145h153v-102q0 -123 45 -181.5t140 -58.5q188 0 188 254v1085h164v-1073zM911 1597h-135l-141 150l-141 -150h-134l197 248h158z" />
    <glyph glyph-name="jcircumflex" unicode="&#x135;" horiz-adv-x="372" 
d="M260 -158q0 -140 -53.5 -206t-165.5 -66q-31 0 -68 6v156h31q69 0 89 23.5t20 107.5v1208h147v-1229zM430 1198h-135l-111 191l-110 -191h-133l165 289h158z" />
    <glyph glyph-name="Kcommaaccent" unicode="&#x136;" horiz-adv-x="1120" 
d="M1114 0h-211l-422 737l-190 -221v-516h-164v1470h164v-712l586 712h225l-504 -593zM625 -313q0 -265 -168 -265v74q92 0 92 162v20h-94v199h170v-190z" />
    <glyph glyph-name="kcommaaccent" unicode="&#x137;" horiz-adv-x="839" 
d="M842 0h-191l-272 541l-123 -135v-406h-147v1470h147v-852l379 453h186l-336 -399zM504 -313q0 -265 -168 -265v74q92 0 92 162v20h-94v199h170v-190z" />
    <glyph glyph-name="Lacute" unicode="&#x139;" 
d="M901 0h-774v1470h164v-1292h610v-178zM471 1843l-219 -248h-123l150 248h192z" />
    <glyph glyph-name="lacute" unicode="&#x13a;" horiz-adv-x="372" 
d="M260 0h-147v1470h147v-1470zM457 1843l-219 -248h-123l149 248h193z" />
    <glyph glyph-name="Lcommaaccent" unicode="&#x13b;" 
d="M901 0h-774v1470h164v-1292h610v-178zM598 -313q0 -265 -168 -265v74q92 0 92 162v20h-94v199h170v-190z" />
    <glyph glyph-name="lcommaaccent" unicode="&#x13c;" horiz-adv-x="372" 
d="M260 0h-147v1470h147v-1470zM270 -313q0 -265 -168 -265v74q93 0 93 162v20h-95v199h170v-190z" />
    <glyph glyph-name="Lcaron" unicode="&#x13d;" 
d="M901 0h-774v1470h164v-1292h610v-178zM573 1280q0 -264 -167 -264v74q92 0 92 161v21h-95v198h170v-190z" />
    <glyph glyph-name="lcaron" unicode="&#x13e;" horiz-adv-x="372" 
d="M260 0h-147v1470h147v-1470zM543 1280q0 -264 -168 -264v74q92 0 92 161v21h-94v198h170v-190z" />
    <glyph glyph-name="Ldot" unicode="&#x13f;" 
d="M901 0h-774v1470h164v-1292h610v-178zM764 676h-176v196h176v-196z" />
    <glyph glyph-name="ldot" unicode="&#x140;" horiz-adv-x="548" 
d="M260 0h-147v1470h147v-1470zM549 676h-176v196h176v-196z" />
    <glyph glyph-name="Lslash" unicode="&#x141;" horiz-adv-x="1130" 
d="M1036 0h-774v508l-117 -133v182l117 133v780h164v-614l307 352v-180l-307 -352v-498h610v-178z" />
    <glyph glyph-name="lslash" unicode="&#x142;" horiz-adv-x="643" 
d="M535 1038l-140 -129v-909h-147v793l-139 -131v161l139 131v516h147v-399l140 131v-164z" />
    <glyph glyph-name="Nacute" unicode="&#x143;" horiz-adv-x="1212" 
d="M1085 0h-182l-618 1194v-1194h-158v1470h192l609 -1194v1194h157v-1470zM887 1843l-219 -248h-123l149 248h193z" />
    <glyph glyph-name="nacute" unicode="&#x144;" 
d="M825 0h-147v659q0 148 -43 215.5t-137 67.5q-113 0 -177.5 -95.5t-64.5 -262.5v-584h-147v1071h139v-158q57 100 123 144.5t157 44.5q140 0 218.5 -98t78.5 -275v-729zM741 1485l-219 -289h-112l149 289h182z" />
    <glyph glyph-name="Ncommaaccent" unicode="&#x145;" horiz-adv-x="1212" 
d="M1085 0h-182l-618 1194v-1194h-158v1470h192l609 -1194v1194h157v-1470zM690 -313q0 -265 -168 -265v74q92 0 92 162v20h-94v199h170v-190z" />
    <glyph glyph-name="ncommaaccent" unicode="&#x146;" 
d="M825 0h-147v659q0 148 -43 215.5t-137 67.5q-113 0 -177.5 -95.5t-64.5 -262.5v-584h-147v1071h139v-158q57 100 123 144.5t157 44.5q140 0 218.5 -98t78.5 -275v-729zM551 -313q0 -265 -168 -265v74q92 0 92 162v20h-94v199h170v-190z" />
    <glyph glyph-name="Ncaron" unicode="&#x147;" horiz-adv-x="1212" 
d="M1085 0h-182l-618 1194v-1194h-158v1470h192l609 -1194v1194h157v-1470zM883 1845l-197 -248h-158l-196 248h135l141 -149l142 149h133z" />
    <glyph glyph-name="ncaron" unicode="&#x148;" 
d="M825 0h-147v659q0 148 -43 215.5t-137 67.5q-113 0 -177.5 -95.5t-64.5 -262.5v-584h-147v1071h139v-158q57 100 123 144.5t157 44.5q140 0 218.5 -98t78.5 -275v-729zM711 1487l-166 -289h-158l-166 289h135l111 -191l111 191h133z" />
    <glyph glyph-name="Eng" unicode="&#x14a;" horiz-adv-x="1212" 
d="M1085 -76q0 -209 -91.5 -322.5t-258.5 -113.5q-155 0 -247.5 100t-92.5 267l154 43q0 -123 44.5 -181.5t139.5 -58.5q63 0 108.5 44t66 109.5t20.5 141.5l-643 1241v-1194h-158v1470h192l609 -1194v1194h157v-1546z" />
    <glyph glyph-name="eng" unicode="&#x14b;" 
d="M825 -158q0 -140 -53.5 -206t-165.5 -66q-30 0 -67 6v156h30q69 0 89 23.5t20 107.5v796q0 148 -43 215.5t-137 67.5q-113 0 -177.5 -95.5t-64.5 -262.5v-584h-147v1071h139v-158q57 100 123 144.5t157 44.5q140 0 218.5 -98t78.5 -275v-887z" />
    <glyph glyph-name="Omacron" unicode="&#x14c;" horiz-adv-x="1306" 
d="M1241 733q0 -158 -38.5 -296.5t-111 -245t-185.5 -168.5t-253 -62t-253 62t-185 168.5t-110.5 245t-38.5 296.5q0 219 67 392.5t204 278.5t325 105q167 0 299 -97t206 -274.5t74 -404.5zM1073 735q0 266 -115 431t-299 165q-195 0 -310.5 -162t-115.5 -436
q0 -267 115.5 -430.5t304.5 -163.5t304.5 164t115.5 432zM926 1663h-527v117h527v-117z" />
    <glyph glyph-name="omacron" unicode="&#x14d;" 
d="M874 537q0 -251 -113 -408.5t-294 -157.5q-180 0 -294 158t-114 408q0 254 114 409.5t300 155.5q177 0 289 -158.5t112 -406.5zM721 537q0 184 -68.5 295.5t-181.5 111.5q-120 0 -189 -109.5t-69 -297.5q0 -186 69 -297t185 -111t185 111t69 297zM729 1284h-526v117h526
v-117z" />
    <glyph glyph-name="Obreve" unicode="&#x14e;" horiz-adv-x="1306" 
d="M1241 733q0 -158 -38.5 -296.5t-111 -245t-185.5 -168.5t-253 -62t-253 62t-185 168.5t-110.5 245t-38.5 296.5q0 219 67 392.5t204 278.5t325 105q167 0 299 -97t206 -274.5t74 -404.5zM1073 735q0 266 -115 431t-299 165q-195 0 -310.5 -162t-115.5 -436
q0 -267 115.5 -430.5t304.5 -163.5t304.5 164t115.5 432zM940 1839q-35 -119 -102 -178t-183 -59q-112 0 -176 59t-96 178h82l4 -14q40 -52 85 -79.5t112 -27.5q72 0 111 29t63 92h100z" />
    <glyph glyph-name="obreve" unicode="&#x14f;" 
d="M874 537q0 -251 -113 -408.5t-294 -157.5q-180 0 -294 158t-114 408q0 254 114 409.5t300 155.5q177 0 289 -158.5t112 -406.5zM721 537q0 184 -68.5 295.5t-181.5 111.5q-120 0 -189 -109.5t-69 -297.5q0 -186 69 -297t185 -111t185 111t69 297zM725 1481
q-19 -145 -81.5 -212t-182.5 -67q-116 0 -176.5 67t-75.5 212h82l4 -15q20 -77 62 -112t114 -35q75 0 113 35.5t61 126.5h80z" />
    <glyph glyph-name="Ohungarumlaut" unicode="&#x150;" horiz-adv-x="1306" 
d="M1241 733q0 -158 -38.5 -296.5t-111 -245t-185.5 -168.5t-253 -62t-253 62t-185 168.5t-110.5 245t-38.5 296.5q0 219 67 392.5t204 278.5t325 105q167 0 299 -97t206 -274.5t74 -404.5zM1073 735q0 266 -115 431t-299 165q-195 0 -310.5 -162t-115.5 -436
q0 -267 115.5 -430.5t304.5 -163.5t304.5 164t115.5 432zM784 1886l-219 -289h-112l149 289h182zM1087 1886l-219 -289h-112l149 289h182z" />
    <glyph glyph-name="ohungarumlaut" unicode="&#x151;" 
d="M874 537q0 -251 -113 -408.5t-294 -157.5q-180 0 -294 158t-114 408q0 254 114 409.5t300 155.5q177 0 289 -158.5t112 -406.5zM721 537q0 184 -68.5 295.5t-181.5 111.5q-120 0 -189 -109.5t-69 -297.5q0 -186 69 -297t185 -111t185 111t69 297zM590 1487l-219 -289
h-113l150 289h182zM893 1487l-219 -289h-113l150 289h182z" />
    <glyph glyph-name="OE" unicode="&#x152;" horiz-adv-x="1679" 
d="M1620 0h-741v160q-75 -114 -143 -156.5t-177 -42.5q-227 0 -362.5 206t-135.5 552q0 234 62.5 413t178.5 278t269 99q110 0 179.5 -43.5t130.5 -152.5v157h735v-178h-584v-448h557v-178h-557v-488h588v-178zM868 471v537q0 149 -79.5 240t-210.5 91q-169 0 -259 -164
t-90 -473q0 -278 90.5 -424.5t260.5 -146.5q130 0 209 93t79 247z" />
    <glyph glyph-name="oe" unicode="&#x153;" horiz-adv-x="1585" 
d="M1516 477h-644q6 -181 69 -265.5t183 -84.5q89 0 154.5 59t77.5 150h147q-29 -174 -130.5 -270.5t-254.5 -96.5q-112 0 -188.5 47t-147.5 160q-50 -106 -124.5 -155.5t-184.5 -49.5q-186 0 -300 156t-114 410q0 251 113.5 408t294.5 157q109 0 189 -52.5t141 -164.5
q69 119 144 168t189 49q88 0 155 -33t118 -105.5t79.5 -194t33.5 -292.5zM1362 621q-23 321 -236 321q-108 0 -178 -88.5t-76 -232.5h490zM723 537q0 184 -69 295.5t-183 111.5q-119 0 -188.5 -110t-69.5 -297q0 -186 69 -297t185 -111q117 0 186.5 111t69.5 297z" />
    <glyph glyph-name="Racute" unicode="&#x154;" horiz-adv-x="1212" 
d="M1149 0h-201q-26 110 -26 369q0 139 -51.5 200.5t-163.5 61.5h-396v-631h-164v1470h560q192 0 293.5 -102t101.5 -295q0 -125 -37 -202.5t-131 -147.5q78 -37 107.5 -94t37.5 -183l8 -266q1 -67 13 -93.5t49 -53.5v-33zM934 1057q0 243 -217 243h-406v-499h377
q126 0 186 62.5t60 193.5zM858 1843l-219 -248h-123l150 248h192z" />
    <glyph glyph-name="racute" unicode="&#x155;" horiz-adv-x="559" 
d="M557 911h-55q-98 0 -162 -81t-64 -205v-625h-147v1071h139v-182q58 115 115.5 164t134.5 49q18 0 39 -6v-185zM551 1485l-219 -289h-113l150 289h182z" />
    <glyph glyph-name="Rcommaaccent" unicode="&#x156;" horiz-adv-x="1212" 
d="M1149 0h-201q-26 110 -26 369q0 139 -51.5 200.5t-163.5 61.5h-396v-631h-164v1470h560q192 0 293.5 -102t101.5 -295q0 -125 -37 -202.5t-131 -147.5q78 -37 107.5 -94t37.5 -183l8 -266q1 -67 13 -93.5t49 -53.5v-33zM934 1057q0 243 -217 243h-406v-499h377
q126 0 186 62.5t60 193.5zM662 -313q0 -265 -168 -265v74q92 0 92 162v20h-94v199h170v-190z" />
    <glyph glyph-name="rcommaaccent" unicode="&#x157;" horiz-adv-x="559" 
d="M557 911h-55q-98 0 -162 -81t-64 -205v-625h-147v1071h139v-182q58 115 115.5 164t134.5 49q18 0 39 -6v-185zM287 -313q0 -265 -168 -265v74q92 0 92 162v20h-94v199h170v-190z" />
    <glyph glyph-name="Rcaron" unicode="&#x158;" horiz-adv-x="1212" 
d="M1149 0h-201q-26 110 -26 369q0 139 -51.5 200.5t-163.5 61.5h-396v-631h-164v1470h560q192 0 293.5 -102t101.5 -295q0 -125 -37 -202.5t-131 -147.5q78 -37 107.5 -94t37.5 -183l8 -266q1 -67 13 -93.5t49 -53.5v-33zM934 1057q0 243 -217 243h-406v-499h377
q126 0 186 62.5t60 193.5zM854 1845l-197 -248h-157l-197 248h135l142 -149l141 149h133z" />
    <glyph glyph-name="rcaron" unicode="&#x159;" horiz-adv-x="559" 
d="M557 911h-55q-98 0 -162 -81t-64 -205v-625h-147v1071h139v-182q58 115 115.5 164t134.5 49q18 0 39 -6v-185zM520 1487l-166 -289h-157l-166 289h135l110 -191l111 191h133z" />
    <glyph glyph-name="Sacute" unicode="&#x15a;" horiz-adv-x="1120" 
d="M1040 403q0 -206 -127 -324t-348 -118q-222 0 -352.5 127t-130.5 387h154q0 -170 88 -257t249 -87q147 0 228.5 66.5t81.5 187.5q0 105 -54 159t-202 95l-248 70q-256 71 -256 352q0 200 113 324t317 124q218 0 336.5 -116t118.5 -353h-154q0 146 -81.5 222.5
t-219.5 76.5q-129 0 -200.5 -67t-71.5 -187q0 -78 34.5 -124t106.5 -66l344 -96q135 -38 204.5 -138.5t69.5 -257.5zM840 1843l-219 -248h-123l149 248h193z" />
    <glyph glyph-name="sacute" unicode="&#x15b;" horiz-adv-x="839" 
d="M778 322q0 -161 -98.5 -257t-265.5 -96q-172 0 -261.5 90.5t-99.5 284.5h144q8 -114 61.5 -165.5t165.5 -51.5q97 0 152 45t55 123q0 60 -36 91.5t-138 62.5l-172 51q-203 61 -203 264q0 154 92 246t244 92q151 0 237 -87.5t95 -248.5h-144q-5 91 -53 134.5t-145 43.5
q-85 0 -134 -40.5t-49 -110.5q0 -57 31 -85t127 -57l149 -45q133 -40 189.5 -105.5t56.5 -178.5zM690 1485l-219 -289h-113l150 289h182z" />
    <glyph glyph-name="Scircumflex" unicode="&#x15c;" horiz-adv-x="1120" 
d="M1040 403q0 -206 -127 -324t-348 -118q-222 0 -352.5 127t-130.5 387h154q0 -170 88 -257t249 -87q147 0 228.5 66.5t81.5 187.5q0 105 -54 159t-202 95l-248 70q-256 71 -256 352q0 200 113 324t317 124q218 0 336.5 -116t118.5 -353h-154q0 146 -81.5 222.5
t-219.5 76.5q-129 0 -200.5 -67t-71.5 -187q0 -78 34.5 -124t106.5 -66l344 -96q135 -38 204.5 -138.5t69.5 -257.5zM834 1597h-136l-141 150l-141 -150h-133l196 248h158z" />
    <glyph glyph-name="scircumflex" unicode="&#x15d;" horiz-adv-x="839" 
d="M778 322q0 -161 -98.5 -257t-265.5 -96q-172 0 -261.5 90.5t-99.5 284.5h144q8 -114 61.5 -165.5t165.5 -51.5q97 0 152 45t55 123q0 60 -36 91.5t-138 62.5l-172 51q-203 61 -203 264q0 154 92 246t244 92q151 0 237 -87.5t95 -248.5h-144q-5 91 -53 134.5t-145 43.5
q-85 0 -134 -40.5t-49 -110.5q0 -57 31 -85t127 -57l149 -45q133 -40 189.5 -105.5t56.5 -178.5zM659 1198h-135l-110 191l-111 -191h-133l166 289h158z" />
    <glyph glyph-name="Scedilla" unicode="&#x15e;" horiz-adv-x="1120" 
d="M1040 403q0 -192 -111 -308.5t-308 -131.5l-43 -82h24q62 0 100.5 -47t38.5 -117q0 -83 -54 -135.5t-142 -52.5q-72 0 -162 45l29 82q58 -31 106 -31q45 0 70.5 23t25.5 63q0 36 -24 64t-58 28q-21 0 -63 -18l-29 39l82 139q-204 11 -322 137.5t-118 374.5h154
q0 -170 88 -257t249 -87q147 0 228.5 66.5t81.5 187.5q0 105 -54 159t-202 95l-248 70q-256 71 -256 352q0 200 113 324t317 124q218 0 336.5 -116t118.5 -353h-154q0 146 -81.5 222.5t-219.5 76.5q-129 0 -200.5 -67t-71.5 -187q0 -78 34.5 -124t106.5 -66l344 -96
q135 -38 204.5 -138.5t69.5 -257.5z" />
    <glyph glyph-name="scedilla" unicode="&#x15f;" horiz-adv-x="839" 
d="M778 322q0 -144 -79 -236.5t-216 -112.5l-49 -92h25q62 0 100.5 -47t38.5 -117q0 -83 -54.5 -135.5t-142.5 -52.5q-71 0 -161 45l28 82q58 -31 107 -31q45 0 70.5 23t25.5 63q0 36 -24 64t-58 28q-21 0 -63 -18l-29 39l86 145q-157 8 -238.5 98.5t-91.5 276.5h144
q8 -114 61.5 -165.5t165.5 -51.5q97 0 152 45t55 123q0 60 -36 91.5t-138 62.5l-172 51q-203 61 -203 264q0 154 92 246t244 92q151 0 237 -87.5t95 -248.5h-144q-5 91 -53 134.5t-145 43.5q-85 0 -134 -40.5t-49 -110.5q0 -57 31 -85t127 -57l149 -45q133 -40 189.5 -105.5
t56.5 -178.5z" />
    <glyph glyph-name="Scaron" unicode="&#x160;" horiz-adv-x="1120" 
d="M1040 403q0 -206 -127 -324t-348 -118q-222 0 -352.5 127t-130.5 387h154q0 -170 88 -257t249 -87q147 0 228.5 66.5t81.5 187.5q0 105 -54 159t-202 95l-248 70q-256 71 -256 352q0 200 113 324t317 124q218 0 336.5 -116t118.5 -353h-154q0 146 -81.5 222.5
t-219.5 76.5q-129 0 -200.5 -67t-71.5 -187q0 -78 34.5 -124t106.5 -66l344 -96q135 -38 204.5 -138.5t69.5 -257.5zM836 1845l-197 -248h-158l-196 248h135l141 -149l141 149h134z" />
    <glyph glyph-name="scaron" unicode="&#x161;" horiz-adv-x="839" 
d="M778 322q0 -161 -98.5 -257t-265.5 -96q-172 0 -261.5 90.5t-99.5 284.5h144q8 -114 61.5 -165.5t165.5 -51.5q97 0 152 45t55 123q0 60 -36 91.5t-138 62.5l-172 51q-203 61 -203 264q0 154 92 246t244 92q151 0 237 -87.5t95 -248.5h-144q-5 91 -53 134.5t-145 43.5
q-85 0 -134 -40.5t-49 -110.5q0 -57 31 -85t127 -57l149 -45q133 -40 189.5 -105.5t56.5 -178.5zM659 1487l-165 -289h-158l-166 289h135l111 -191l110 191h133z" />
    <glyph glyph-name="Tcedilla" unicode="&#x162;" horiz-adv-x="1026" 
d="M1004 1292h-408v-1292h-37l-63 -119h24q62 0 100.5 -47t38.5 -117q0 -83 -54 -135.5t-142 -52.5q-72 0 -162 45l29 82q58 -31 106 -31q45 0 70.5 23t25.5 63q0 36 -23.5 64t-57.5 28q-22 0 -64 -18l-29 39l105 176h-31v1292h-409v178h981v-178z" />
    <glyph glyph-name="tcedilla" unicode="&#x163;" horiz-adv-x="466" 
d="M434 -283q0 -83 -54 -135.5t-142 -52.5q-72 0 -162 45l28 82q58 -31 107 -31q45 0 70.5 23t25.5 63q0 36 -24 64t-58 28q-21 0 -63 -18l-29 39l105 176q-97 43 -97 215v707h-118v149h118v299h148v-299h143v-149h-143v-697q0 -45 20.5 -64.5t69.5 -19.5h51v-141
q-57 -6 -104 -14l-56 -105h25q62 0 100.5 -47t38.5 -117z" />
    <glyph glyph-name="Tcaron" unicode="&#x164;" horiz-adv-x="1026" 
d="M1004 1292h-408v-1292h-164v1292h-409v178h981v-178zM791 1845l-197 -248h-158l-196 248h135l141 -149l141 149h134z" />
    <glyph glyph-name="tcaron" unicode="&#x165;" horiz-adv-x="466" 
d="M432 922h-143v-697q0 -45 20.5 -64.5t69.5 -19.5h51v-141q-33 -4 -58 -7t-33 -4.5t-14 -2t-12 -0.5q-88 0 -130 56t-42 173v707h-118v149h118v299h148v-299h143v-149zM516 1393q0 -265 -168 -265v74q92 0 92 162v20h-94v199h170v-190z" />
    <glyph glyph-name="Utilde" unicode="&#x168;" horiz-adv-x="1212" 
d="M1081 516q0 -254 -131 -404.5t-352 -150.5q-214 0 -339.5 142.5t-125.5 385.5v981h164v-925q0 -195 79.5 -300.5t227.5 -105.5q149 0 231.5 105t82.5 297v929h163v-954zM895 1839q-30 -223 -170 -223q-31 0 -96 26l-43 19q-69 31 -105 31q-29 0 -47 -20.5t-31 -69.5h-79
q15 113 57.5 166t116.5 53q43 0 114 -31l37 -18q56 -27 84 -27q33 0 51 21.5t27 72.5h84z" />
    <glyph glyph-name="utilde" unicode="&#x169;" 
d="M821 0h-139v166q-59 -110 -120 -153.5t-159 -43.5q-135 0 -211.5 88t-76.5 244v770h147v-711q0 -233 170 -233q110 0 176 96t66 258v590h147v-1071zM752 1460q-30 -223 -170 -223q-30 0 -97 27l-43 18q-69 31 -104 31q-29 0 -47 -20.5t-31 -69.5h-80q15 113 57.5 166
t116.5 53q44 0 115 -31l37 -18q56 -27 84 -27q33 0 51 21.5t27 72.5h84z" />
    <glyph glyph-name="Umacron" unicode="&#x16a;" horiz-adv-x="1212" 
d="M1081 516q0 -254 -131 -404.5t-352 -150.5q-214 0 -339.5 142.5t-125.5 385.5v981h164v-925q0 -195 79.5 -300.5t227.5 -105.5q149 0 231.5 105t82.5 297v929h163v-954zM872 1663h-526v117h526v-117z" />
    <glyph glyph-name="umacron" unicode="&#x16b;" 
d="M821 0h-139v166q-59 -110 -120 -153.5t-159 -43.5q-135 0 -211.5 88t-76.5 244v770h147v-711q0 -233 170 -233q110 0 176 96t66 258v590h147v-1071zM729 1284h-526v117h526v-117z" />
    <glyph glyph-name="Ubreve" unicode="&#x16c;" horiz-adv-x="1212" 
d="M1081 516q0 -254 -131 -404.5t-352 -150.5q-214 0 -339.5 142.5t-125.5 385.5v981h164v-925q0 -195 79.5 -300.5t227.5 -105.5q149 0 231.5 105t82.5 297v929h163v-954zM887 1839q-35 -119 -102 -178t-183 -59q-112 0 -176 59t-96 178h82l4 -14q40 -52 84.5 -79.5
t111.5 -27.5q72 0 111 29t63 92h101z" />
    <glyph glyph-name="ubreve" unicode="&#x16d;" 
d="M821 0h-139v166q-59 -110 -120 -153.5t-159 -43.5q-135 0 -211.5 88t-76.5 244v770h147v-711q0 -233 170 -233q110 0 176 96t66 258v590h147v-1071zM725 1481q-19 -145 -81.5 -212t-182.5 -67q-116 0 -176.5 67t-75.5 212h82l4 -15q20 -77 62 -112t114 -35q75 0 113 35.5
t61 126.5h80z" />
    <glyph glyph-name="Uring" unicode="&#x16e;" horiz-adv-x="1212" 
d="M1081 516q0 -254 -131 -404.5t-352 -150.5q-214 0 -339.5 142.5t-125.5 385.5v981h164v-925q0 -195 79.5 -300.5t227.5 -105.5q149 0 231.5 105t82.5 297v929h163v-954zM817 1757q0 -72 -59 -120t-148 -48q-91 0 -150 48.5t-59 123.5q0 72 60 120t149 48t148 -48.5
t59 -123.5zM727 1757q0 41 -34.5 69.5t-82.5 28.5q-47 0 -82.5 -28t-35.5 -66q0 -41 34 -69.5t84 -28.5q47 0 82 28t35 66z" />
    <glyph glyph-name="uring" unicode="&#x16f;" 
d="M821 0h-139v166q-59 -110 -120 -153.5t-159 -43.5q-135 0 -211.5 88t-76.5 244v770h147v-711q0 -233 170 -233q110 0 176 96t66 258v590h147v-1071zM674 1339q0 -72 -59 -120t-148 -48q-91 0 -150 48.5t-59 123.5q0 72 60 120t149 48t148 -48.5t59 -123.5zM584 1339
q0 41 -34.5 70t-82.5 29q-47 0 -83 -28.5t-36 -66.5q0 -41 34.5 -69.5t84.5 -28.5q47 0 82 28t35 66z" />
    <glyph glyph-name="Uhungarumlaut" unicode="&#x170;" horiz-adv-x="1212" 
d="M1081 516q0 -254 -131 -404.5t-352 -150.5q-214 0 -339.5 142.5t-125.5 385.5v981h164v-925q0 -195 79.5 -300.5t227.5 -105.5q149 0 231.5 105t82.5 297v929h163v-954zM731 1886l-219 -289h-113l150 289h182zM1034 1886l-219 -289h-113l150 289h182z" />
    <glyph glyph-name="uhungarumlaut" unicode="&#x171;" 
d="M821 0h-139v166q-59 -110 -120 -153.5t-159 -43.5q-135 0 -211.5 88t-76.5 244v770h147v-711q0 -233 170 -233q110 0 176 96t66 258v590h147v-1071zM590 1487l-219 -289h-113l150 289h182zM893 1487l-219 -289h-113l150 289h182z" />
    <glyph glyph-name="Uogonek" unicode="&#x172;" horiz-adv-x="1212" 
d="M1081 516q0 -197 -80.5 -334t-224.5 -190q-67 -26 -105 -89t-38 -139q0 -49 24 -67.5t80 -18.5h64v-149h-64q-102 0 -177 55.5t-75 143.5q0 68 25.5 120t81.5 113q-211 3 -335 145t-124 383v981h164v-925q0 -195 79.5 -300.5t227.5 -105.5q149 0 231.5 105t82.5 297v929
h163v-954z" />
    <glyph glyph-name="uogonek" unicode="&#x173;" 
d="M842 -471h-64q-102 0 -177 55.5t-75 143.5q0 84 42 156.5t114 115.5v166q-59 -110 -120 -153.5t-159 -43.5q-135 0 -211.5 88t-76.5 244v770h147v-711q0 -233 170 -233q110 0 176 96t66 258v590h147v-1071q-83 -30 -123 -115q-24 -59 -24 -121q0 -49 24 -67.5t80 -18.5
h64v-149z" />
    <glyph glyph-name="Wcircumflex" unicode="&#x174;" horiz-adv-x="1585" 
d="M1559 1470l-318 -1470h-172l-276 1227l-281 -1227h-172l-313 1470h176l227 -1204l272 1204h179l272 -1204l225 1204h181zM1067 1597h-135l-141 150l-142 -150h-133l197 248h157z" />
    <glyph glyph-name="wcircumflex" unicode="&#x175;" horiz-adv-x="1212" 
d="M1190 1071l-256 -1071h-152l-180 838l-174 -838h-152l-253 1071h161l170 -850l170 850h166l172 -850l180 850h148zM850 1198h-135l-111 191l-110 -191h-134l166 289h158z" />
    <glyph glyph-name="Ycircumflex" unicode="&#x176;" horiz-adv-x="1120" 
d="M1096 1470l-455 -878v-592h-164v592l-454 878h190l346 -706l346 706h191zM834 1597h-136l-141 150l-141 -150h-133l196 248h158z" />
    <glyph glyph-name="ycircumflex" unicode="&#x177;" horiz-adv-x="839" 
d="M821 1071l-317 -1051q-36 -116 -58 -182t-48 -124t-44 -83t-48.5 -43.5t-58.5 -22t-77 -3.5q-27 0 -59 12l-13 4v164q44 -18 90 -18t68 26.5t51 110.5l37 110l-326 1100h166l236 -878l237 878h164zM664 1198h-136l-110 191l-111 -191h-133l166 289h158z" />
    <glyph glyph-name="Ydieresis" unicode="&#x178;" horiz-adv-x="1120" 
d="M1096 1470l-455 -878v-592h-164v592l-454 878h190l346 -706l346 706h191zM485 1622h-180v197h180v-197zM815 1622h-180v197h180v-197z" />
    <glyph glyph-name="Zacute" unicode="&#x179;" horiz-adv-x="1026" 
d="M987 0h-948v168l739 1124h-684v178h893v-174l-741 -1118h741v-178zM821 1843l-219 -248h-123l150 248h192z" />
    <glyph glyph-name="zacute" unicode="&#x17a;" horiz-adv-x="839" 
d="M788 0h-737v141l531 781h-490v149h682v-147l-526 -774h540v-150zM694 1485l-219 -289h-113l150 289h182z" />
    <glyph glyph-name="Zdotaccent" unicode="&#x17b;" horiz-adv-x="1026" 
d="M987 0h-948v168l739 1124h-684v178h893v-174l-741 -1118h741v-178zM631 1622h-176v197h176v-197z" />
    <glyph glyph-name="zdotaccent" unicode="&#x17c;" horiz-adv-x="839" 
d="M788 0h-737v141l531 781h-490v149h682v-147l-526 -774h540v-150zM508 1243h-176v197h176v-197z" />
    <glyph glyph-name="Zcaron" unicode="&#x17d;" horiz-adv-x="1026" 
d="M987 0h-948v168l739 1124h-684v178h893v-174l-741 -1118h741v-178zM817 1845l-196 -248h-158l-197 248h135l142 -149l141 149h133z" />
    <glyph glyph-name="zcaron" unicode="&#x17e;" horiz-adv-x="839" 
d="M788 0h-737v141l531 781h-490v149h682v-147l-526 -774h540v-150zM664 1487l-166 -289h-158l-166 289h135l111 -191l110 191h134z" />
    <glyph glyph-name="longs" unicode="&#x17f;" horiz-adv-x="466" 
d="M440 1325q-50 4 -61 4q-45 0 -65.5 -29.5t-20.5 -95.5v-1204h-148v1255q0 115 57.5 175.5t166.5 60.5q26 0 71 -4v-162z" />
    <glyph glyph-name="Ereversed" unicode="&#x18e;" horiz-adv-x="1120" 
d="M1034 0h-889v178h725v488h-657v178h657v448h-712v178h876v-1470z" />
    <glyph glyph-name="florin" unicode="&#x192;" 
d="M842 1479l-25 -160l-14 6q-53 27 -82 27q-50 0 -85 -51.5t-50 -145.5l-35 -211h192v-143h-213l-100 -670q-43 -287 -127 -421t-221 -134q-54 0 -100 25l26 166q44 -31 86 -31q68 0 106 76.5t68 281.5l107 707h-182v143h206l47 254q26 139 101 225t170 86q61 0 125 -30z
" />
    <glyph glyph-name="Ohorn" unicode="&#x1a0;" horiz-adv-x="1306" 
d="M1243 1473q0 -77 -33 -142.5t-90 -97.5q121 -209 121 -500q0 -158 -38.5 -296.5t-111 -245t-185.5 -168.5t-253 -62t-253 62t-185 168.5t-110.5 245t-38.5 296.5q0 219 67 392.5t204 278.5t325 105q248 0 407 -204q40 18 63 64.5t23 103.5h-88v196h176v-196zM1073 735
q0 266 -115 431t-299 165q-195 0 -310.5 -162t-115.5 -436q0 -267 115.5 -430.5t304.5 -163.5t304.5 164t115.5 432z" />
    <glyph glyph-name="ohorn" unicode="&#x1a1;" horiz-adv-x="993" 
d="M954 1073q0 -79 -36 -146.5t-95 -97.5q51 -130 51 -292q0 -251 -113 -408.5t-294 -157.5q-180 0 -294 158t-114 408q0 254 114 409.5t300 155.5q96 0 176 -51t135 -144q39 20 60.5 65t21.5 101h-88v197h176v-197zM721 537q0 184 -68.5 295.5t-181.5 111.5
q-120 0 -189 -109.5t-69 -297.5q0 -186 69 -297t185 -111t185 111t69 297z" />
    <glyph glyph-name="Uhorn" unicode="&#x1af;" horiz-adv-x="1335" 
d="M1296 1473q0 -107 -60.5 -186t-154.5 -79v-692q0 -254 -131 -404.5t-352 -150.5q-214 0 -339.5 142.5t-125.5 385.5v981h164v-925q0 -195 79.5 -300.5t227.5 -105.5q149 0 231.5 105t82.5 297v929h163v-174q57 0 92 53t35 124h-88v196h176v-196z" />
    <glyph glyph-name="uhorn" unicode="&#x1b0;" horiz-adv-x="1075" 
d="M1036 1073q0 -107 -60.5 -185.5t-154.5 -78.5v-809h-139v166q-59 -110 -120 -153.5t-159 -43.5q-135 0 -211.5 88t-76.5 244v770h147v-711q0 -233 170 -233q110 0 176 96t66 258v590h147v-174q57 0 92 52.5t35 123.5h-88v197h176v-197z" />
    <glyph glyph-name="Acaron" unicode="&#x1cd;" horiz-adv-x="1120" 
d="M1098 0h-178l-119 428h-484l-127 -428h-167l452 1470h187zM741 606l-180 651l-194 -651h374zM846 1845l-197 -248h-157l-197 248h135l141 -149l142 149h133z" />
    <glyph glyph-name="acaron" unicode="&#x1ce;" 
d="M891 0q-59 -20 -86 -20q-75 0 -109.5 37.5t-42.5 125.5q-72 -92 -144.5 -133t-166.5 -41q-127 0 -204 86.5t-77 227.5q0 139 69.5 225t197.5 106l243 37q41 6 59.5 35t18.5 88q0 88 -51.5 133t-151.5 45q-101 0 -153.5 -49t-52.5 -158h-136q0 357 353 357
q157 0 246.5 -80t89.5 -219v-617q0 -63 47 -63q10 0 51 8v-131zM645 371v176q-23 -21 -67.5 -33t-174.5 -35q-101 -17 -144.5 -58.5t-43.5 -121.5q0 -86 41.5 -133t116.5 -47q110 0 191 75.5t81 176.5zM700 1487l-165 -289h-158l-166 289h135l111 -191l110 191h133z" />
    <glyph glyph-name="Icaron" unicode="&#x1cf;" horiz-adv-x="466" 
d="M315 0h-161v1470h161v-1470zM512 1845l-197 -248h-157l-197 248h135l142 -149l141 149h133z" />
    <glyph glyph-name="icaron" unicode="&#x1d0;" horiz-adv-x="466" 
d="M307 0h-147v1071h147v-1071zM477 1487l-166 -289h-157l-166 289h135l110 -191l111 191h133z" />
    <glyph glyph-name="Ocaron" unicode="&#x1d1;" horiz-adv-x="1306" 
d="M1241 733q0 -158 -38.5 -296.5t-111 -245t-185.5 -168.5t-253 -62t-253 62t-185 168.5t-110.5 245t-38.5 296.5q0 219 67 392.5t204 278.5t325 105q167 0 299 -97t206 -274.5t74 -404.5zM1073 735q0 266 -115 431t-299 165q-195 0 -310.5 -162t-115.5 -436
q0 -267 115.5 -430.5t304.5 -163.5t304.5 164t115.5 432zM938 1845l-197 -248h-157l-197 248h135l142 -149l141 149h133z" />
    <glyph glyph-name="ocaron" unicode="&#x1d2;" 
d="M874 537q0 -251 -113 -408.5t-294 -157.5q-180 0 -294 158t-114 408q0 254 114 409.5t300 155.5q177 0 289 -158.5t112 -406.5zM721 537q0 184 -68.5 295.5t-181.5 111.5q-120 0 -189 -109.5t-69 -297.5q0 -186 69 -297t185 -111t185 111t69 297zM711 1487l-166 -289
h-158l-166 289h135l111 -191l111 191h133z" />
    <glyph glyph-name="Ucaron" unicode="&#x1d3;" horiz-adv-x="1212" 
d="M1081 516q0 -254 -131 -404.5t-352 -150.5q-214 0 -339.5 142.5t-125.5 385.5v981h164v-925q0 -195 79.5 -300.5t227.5 -105.5q149 0 231.5 105t82.5 297v929h163v-954zM885 1845l-197 -248h-158l-196 248h135l141 -149l142 149h133z" />
    <glyph glyph-name="ucaron" unicode="&#x1d4;" 
d="M821 0h-139v166q-59 -110 -120 -153.5t-159 -43.5q-135 0 -211.5 88t-76.5 244v770h147v-711q0 -233 170 -233q110 0 176 96t66 258v590h147v-1071zM711 1487l-166 -289h-158l-166 289h135l111 -191l111 191h133z" />
    <glyph glyph-name="Udieresisacute" unicode="&#x1d7;" horiz-adv-x="1212" 
d="M1081 516q0 -254 -131 -404.5t-352 -150.5q-214 0 -339.5 142.5t-125.5 385.5v981h164v-925q0 -195 79.5 -300.5t227.5 -105.5q149 0 231.5 105t82.5 297v929h163v-954zM532 1622h-180v197h180v-197zM862 1622h-180v197h180v-197zM889 2191l-219 -247h-123l149 247h193z
" />
    <glyph glyph-name="udieresisacute" unicode="&#x1d8;" 
d="M821 0h-139v166q-59 -110 -120 -153.5t-159 -43.5q-135 0 -211.5 88t-76.5 244v770h147v-711q0 -233 170 -233q110 0 176 96t66 258v590h147v-1071zM391 1243h-180v197h180v-197zM721 1243h-180v197h180v-197zM748 1825l-220 -248h-122l149 248h193z" />
    <glyph glyph-name="Udieresiscaron" unicode="&#x1d9;" horiz-adv-x="1212" 
d="M1081 516q0 -254 -131 -404.5t-352 -150.5q-214 0 -339.5 142.5t-125.5 385.5v981h164v-925q0 -195 79.5 -300.5t227.5 -105.5q149 0 231.5 105t82.5 297v929h163v-954zM532 1622h-180v197h180v-197zM862 1622h-180v197h180v-197zM883 2193l-197 -247h-158l-196 247h135
l141 -149l142 149h133z" />
    <glyph glyph-name="udieresiscaron" unicode="&#x1da;" 
d="M821 0h-139v166q-59 -110 -120 -153.5t-159 -43.5q-135 0 -211.5 88t-76.5 244v770h147v-711q0 -233 170 -233q110 0 176 96t66 258v590h147v-1071zM391 1243h-180v197h180v-197zM721 1243h-180v197h180v-197zM743 1827l-196 -248h-158l-196 248h135l141 -150l141 150
h133z" />
    <glyph glyph-name="Udieresisgrave" unicode="&#x1db;" horiz-adv-x="1212" 
d="M1081 516q0 -254 -131 -404.5t-352 -150.5q-214 0 -339.5 142.5t-125.5 385.5v981h164v-925q0 -195 79.5 -300.5t227.5 -105.5q149 0 231.5 105t82.5 297v929h163v-954zM532 1622h-180v197h180v-197zM862 1622h-180v197h180v-197zM670 1944h-123l-219 247h192z" />
    <glyph glyph-name="udieresisgrave" unicode="&#x1dc;" 
d="M821 0h-139v166q-59 -110 -120 -153.5t-159 -43.5q-135 0 -211.5 88t-76.5 244v770h147v-711q0 -233 170 -233q110 0 176 96t66 258v590h147v-1071zM391 1243h-180v197h180v-197zM721 1243h-180v197h180v-197zM530 1577h-122l-220 248h193z" />
    <glyph glyph-name="eturned" unicode="&#x1dd;" 
d="M866 555q0 -269 -112.5 -427.5t-302.5 -158.5q-118 0 -198.5 60t-129 200.5t-55.5 364.5h641q-6 184 -69.5 267t-180.5 83q-89 0 -155.5 -59t-76.5 -150h-147q29 173 130 270t253 97q187 0 295 -146.5t108 -400.5zM709 451h-488q23 -322 236 -322q106 0 176 89t76 233z
" />
    <glyph glyph-name="Gcaron" unicode="&#x1e6;" horiz-adv-x="1306" 
d="M1182 0h-107l-37 190q-85 -123 -183.5 -176t-223.5 -53q-128 0 -234 61.5t-174.5 166t-105.5 240.5t-37 288q0 234 71 414t200.5 279t297.5 99q200 0 339.5 -129t172.5 -356h-157q-73 307 -353 307q-186 0 -294.5 -164t-108.5 -444q0 -289 104 -440.5t303 -151.5
q79 0 145 28t118 85t81 152t29 220h-375v170h529v-786zM926 1845l-197 -248h-158l-196 248h135l141 -149l142 149h133z" />
    <glyph glyph-name="gcaron" unicode="&#x1e7;" 
d="M838 88q0 -281 -100.5 -410t-305.5 -129q-145 0 -227.5 73.5t-110.5 246.5h148q20 -91 65.5 -130.5t130.5 -39.5q134 0 193 82.5t59 294.5v43q-43 -78 -100 -114t-139 -36q-173 0 -278 162.5t-105 429.5q0 243 99.5 392t262.5 149q89 0 148.5 -42t119.5 -147v158h140
v-983zM696 506q0 212 -60.5 324t-174.5 112q-240 0 -240 -391q0 -201 62 -312.5t172 -111.5q114 0 177.5 100.5t63.5 278.5zM711 1487l-166 -289h-158l-166 289h135l111 -191l111 191h133z" />
    <glyph glyph-name="Oogonek" unicode="&#x1ea;" horiz-adv-x="1306" 
d="M1241 733q0 -257 -99 -456t-280 -275q-75 -31 -122.5 -96t-47.5 -142q0 -49 24.5 -67.5t80.5 -18.5h63v-149h-63q-102 0 -177 55.5t-75 143.5q0 69 25 120.5t81 112.5q-139 1 -251.5 63t-184.5 168t-110.5 245t-38.5 296q0 219 67 392.5t204 278.5t325 105q167 0 299 -97
t206 -274.5t74 -404.5zM1073 735q0 266 -115 431t-299 165q-195 0 -310.5 -162t-115.5 -436q0 -267 115.5 -430.5t304.5 -163.5t304.5 164t115.5 432z" />
    <glyph glyph-name="oogonek" unicode="&#x1eb;" 
d="M874 537q0 -185 -64.5 -324t-176.5 -201q-67 -36 -105.5 -103.5t-38.5 -144.5q0 -49 24.5 -67.5t80.5 -18.5h63v-149h-63q-102 0 -177 55.5t-75 143.5q0 71 27 125t88 118q-175 5 -286.5 162t-111.5 404q0 254 114 409.5t300 155.5q177 0 289 -158.5t112 -406.5zM721 537
q0 184 -68.5 295.5t-181.5 111.5q-120 0 -189 -109.5t-69 -297.5q0 -186 69 -297t185 -111t185 111t69 297z" />
    <glyph glyph-name="jcaron" unicode="&#x1f0;" horiz-adv-x="372" 
d="M260 -158q0 -140 -53.5 -206t-165.5 -66q-31 0 -68 6v156h31q69 0 89 23.5t20 107.5v1208h147v-1229zM430 1487l-166 -289h-158l-165 289h135l110 -191l111 191h133z" />
    <glyph glyph-name="Gacute" unicode="&#x1f4;" horiz-adv-x="1306" 
d="M1182 0h-107l-37 190q-85 -123 -183.5 -176t-223.5 -53q-128 0 -234 61.5t-174.5 166t-105.5 240.5t-37 288q0 234 71 414t200.5 279t297.5 99q200 0 339.5 -129t172.5 -356h-157q-73 307 -353 307q-186 0 -294.5 -164t-108.5 -444q0 -289 104 -440.5t303 -151.5
q79 0 145 28t118 85t81 152t29 220h-375v170h529v-786zM930 1843l-219 -248h-123l149 248h193z" />
    <glyph glyph-name="gacute" unicode="&#x1f5;" 
d="M838 88q0 -281 -100.5 -410t-305.5 -129q-145 0 -227.5 73.5t-110.5 246.5h148q20 -91 65.5 -130.5t130.5 -39.5q134 0 193 82.5t59 294.5v43q-43 -78 -100 -114t-139 -36q-173 0 -278 162.5t-105 429.5q0 243 99.5 392t262.5 149q89 0 148.5 -42t119.5 -147v158h140
v-983zM696 506q0 212 -60.5 324t-174.5 112q-240 0 -240 -391q0 -201 62 -312.5t172 -111.5q114 0 177.5 100.5t63.5 278.5zM741 1485l-219 -289h-112l149 289h182z" />
    <glyph glyph-name="Aringacute" unicode="&#x1fa;" horiz-adv-x="1120" 
d="M1098 0h-178l-119 428h-484l-127 -428h-167l452 1470h187zM741 606l-180 651l-194 -651h374zM850 2218l-219 -248h-123l149 248h193zM778 1757q0 -72 -59 -120t-148 -48q-91 0 -150 48.5t-59 123.5q0 72 60 120t149 48t148 -48.5t59 -123.5zM688 1757q0 41 -34.5 69.5
t-82.5 28.5q-47 0 -82.5 -28t-35.5 -66q0 -41 34 -69.5t84 -28.5q47 0 82 28t35 66z" />
    <glyph glyph-name="aringacute" unicode="&#x1fb;" 
d="M891 0q-59 -20 -86 -20q-75 0 -109.5 37.5t-42.5 125.5q-72 -92 -144.5 -133t-166.5 -41q-127 0 -204 86.5t-77 227.5q0 139 69.5 225t197.5 106l243 37q41 6 59.5 35t18.5 88q0 88 -51.5 133t-151.5 45q-101 0 -153.5 -49t-52.5 -158h-136q0 357 353 357
q157 0 246.5 -80t89.5 -219v-617q0 -63 47 -63q10 0 51 8v-131zM645 371v176q-23 -21 -67.5 -33t-174.5 -35q-101 -17 -144.5 -58.5t-43.5 -121.5q0 -86 41.5 -133t116.5 -47q110 0 191 75.5t81 176.5zM737 1819l-219 -248h-123l150 248h192zM666 1358q0 -72 -59 -120
t-148 -48q-91 0 -150 48.5t-59 123.5q0 72 60 120t149 48t148 -48.5t59 -123.5zM575 1358q0 41 -34 69.5t-82 28.5t-83.5 -28t-35.5 -66q0 -41 34.5 -69.5t84.5 -28.5q47 0 81.5 28t34.5 66z" />
    <glyph glyph-name="AEacute" unicode="&#x1fc;" horiz-adv-x="1679" 
d="M1597 0h-829v428h-444l-134 -428h-176l490 1470h1081v-178h-653v-448h596v-178h-596v-488h665v-178zM768 606v686h-164l-223 -686h387zM1130 1843l-219 -248h-123l150 248h192z" />
    <glyph glyph-name="aeacute" unicode="&#x1fd;" horiz-adv-x="1492" 
d="M1423 477h-643q11 -350 250 -350q89 0 155.5 59t78.5 150h147q-27 -168 -127.5 -267.5t-259.5 -99.5q-118 0 -195.5 52.5t-134.5 171.5q-70 -119 -151.5 -171.5t-192.5 -52.5q-132 0 -210.5 85t-78.5 229q0 139 69.5 225t197.5 106l243 37q41 6 59.5 35t18.5 88
q0 88 -51.5 133t-151.5 45q-97 0 -143 -46.5t-63 -160.5h-136q10 188 98.5 272.5t264.5 84.5q99 0 158.5 -31.5t126.5 -120.5q72 86 134 119t154 33q118 0 197.5 -58.5t128 -199t57.5 -367.5zM1270 621q-23 321 -238 321q-106 0 -175.5 -88t-76.5 -233h490zM645 371v176
q-21 -21 -65.5 -33t-176.5 -35q-100 -17 -144 -59.5t-44 -120.5q0 -86 41.5 -133t116.5 -47q110 0 191 75.5t81 176.5zM1022 1485l-219 -289h-113l150 289h182z" />
    <glyph glyph-name="Oslashacute" unicode="&#x1fe;" horiz-adv-x="1306" 
d="M1243 1448l-139 -186q72 -128 104.5 -252.5t32.5 -276.5q0 -126 -24 -240t-73 -211.5t-118.5 -168.5t-165.5 -111.5t-209 -40.5q-122 0 -213.5 41.5t-179.5 136.5l-135 -178l-53 57l139 185q-76 130 -109.5 255t-33.5 279q0 158 38.5 296.5t110.5 245t185.5 168.5
t254.5 62q125 0 218.5 -42.5t181.5 -139.5l137 182zM1073 735q0 114 -19 201t-63 176l-626 -829q65 -76 132 -110t154 -34q190 0 306 163.5t116 432.5zM948 1184q-66 78 -135 112.5t-158 34.5q-190 0 -306 -163.5t-116 -432.5q0 -112 20 -201.5t66 -183.5zM934 1843
l-219 -248h-123l149 248h193z" />
    <glyph glyph-name="oslashacute" unicode="&#x1ff;" 
d="M901 1063l-117 -160q48 -90 69 -176t21 -192q0 -250 -113.5 -407t-295.5 -157q-79 0 -141.5 29t-122.5 94l-103 -139l-51 53l107 148q-95 174 -95 381q0 252 113.5 408.5t296.5 156.5q83 0 146.5 -31t125.5 -102l109 147zM649 840q-38 55 -80.5 79.5t-101.5 24.5
q-116 0 -185 -110.5t-69 -296.5q0 -128 41 -244zM721 537q0 120 -37 227l-391 -543q69 -92 172 -92q117 0 186.5 111t69.5 297zM788 1485l-219 -289h-112l149 289h182z" />
    <glyph glyph-name="Adblgrave" unicode="&#x200;" horiz-adv-x="1120" 
d="M1098 0h-178l-119 428h-484l-127 -428h-167l452 1470h187zM741 606l-180 651l-194 -651h374zM778 1597h-112l-220 289h183zM475 1597h-113l-219 289h183z" />
    <glyph glyph-name="adblgrave" unicode="&#x201;" 
d="M891 0q-59 -20 -86 -20q-75 0 -109.5 37.5t-42.5 125.5q-72 -92 -144.5 -133t-166.5 -41q-127 0 -204 86.5t-77 227.5q0 139 69.5 225t197.5 106l243 37q41 6 59.5 35t18.5 88q0 88 -51.5 133t-151.5 45q-101 0 -153.5 -49t-52.5 -158h-136q0 357 353 357
q157 0 246.5 -80t89.5 -219v-617q0 -63 47 -63q10 0 51 8v-131zM645 371v176q-23 -21 -67.5 -33t-174.5 -35q-101 -17 -144.5 -58.5t-43.5 -121.5q0 -86 41.5 -133t116.5 -47q110 0 191 75.5t81 176.5zM666 1198h-113l-219 289h182zM362 1198h-112l-219 289h182z" />
    <glyph glyph-name="Edblgrave" unicode="&#x204;" horiz-adv-x="1120" 
d="M1034 0h-889v1470h877v-178h-713v-448h658v-178h-658v-488h725v-178zM793 1597h-113l-219 289h182zM489 1597h-112l-219 289h182z" />
    <glyph glyph-name="edblgrave" unicode="&#x205;" 
d="M866 477h-641q6 -184 69.5 -267t180.5 -83q89 0 155.5 59t76.5 150h147q-29 -173 -130 -270t-253 -97q-187 0 -295 146.5t-108 400.5q0 269 112.5 427.5t302.5 158.5q118 0 198.5 -60t129 -200.5t55.5 -364.5zM713 621q-23 321 -236 321q-106 0 -176 -88.5t-76 -232.5
h488zM676 1198h-113l-219 289h182zM373 1198h-113l-219 289h182z" />
    <glyph glyph-name="Idblgrave" unicode="&#x208;" horiz-adv-x="466" 
d="M315 0h-161v1470h161v-1470zM444 1597h-112l-219 289h182zM141 1597h-112l-219 289h182z" />
    <glyph glyph-name="idblgrave" unicode="&#x209;" horiz-adv-x="466" 
d="M307 0h-147v1071h147v-1071zM442 1198h-112l-219 289h182zM139 1198h-112l-220 289h183z" />
    <glyph glyph-name="Odblgrave" unicode="&#x20c;" horiz-adv-x="1306" 
d="M1241 733q0 -158 -38.5 -296.5t-111 -245t-185.5 -168.5t-253 -62t-253 62t-185 168.5t-110.5 245t-38.5 296.5q0 219 67 392.5t204 278.5t325 105q167 0 299 -97t206 -274.5t74 -404.5zM1073 735q0 266 -115 431t-299 165q-195 0 -310.5 -162t-115.5 -436
q0 -267 115.5 -430.5t304.5 -163.5t304.5 164t115.5 432zM870 1597h-112l-219 289h182zM567 1597h-112l-219 289h182z" />
    <glyph glyph-name="odblgrave" unicode="&#x20d;" 
d="M874 537q0 -251 -113 -408.5t-294 -157.5q-180 0 -294 158t-114 408q0 254 114 409.5t300 155.5q177 0 289 -158.5t112 -406.5zM721 537q0 184 -68.5 295.5t-181.5 111.5q-120 0 -189 -109.5t-69 -297.5q0 -186 69 -297t185 -111t185 111t69 297zM676 1198h-113l-219 289
h182zM373 1198h-113l-219 289h182z" />
    <glyph glyph-name="Rdblgrave" unicode="&#x210;" horiz-adv-x="1212" 
d="M1149 0h-201q-26 110 -26 369q0 139 -51.5 200.5t-163.5 61.5h-396v-631h-164v1470h560q192 0 293.5 -102t101.5 -295q0 -125 -37 -202.5t-131 -147.5q78 -37 107.5 -94t37.5 -183l8 -266q1 -67 13 -93.5t49 -53.5v-33zM934 1057q0 243 -217 243h-406v-499h377
q126 0 186 62.5t60 193.5zM786 1597h-112l-219 289h182zM483 1597h-112l-219 289h182z" />
    <glyph glyph-name="rdblgrave" unicode="&#x211;" horiz-adv-x="559" 
d="M557 911h-55q-98 0 -162 -81t-64 -205v-625h-147v1071h139v-182q58 115 115.5 164t134.5 49q18 0 39 -6v-185zM485 1198h-112l-219 289h182zM182 1198h-112l-220 289h183z" />
    <glyph glyph-name="Udblgrave" unicode="&#x214;" horiz-adv-x="1212" 
d="M1081 516q0 -254 -131 -404.5t-352 -150.5q-214 0 -339.5 142.5t-125.5 385.5v981h164v-925q0 -195 79.5 -300.5t227.5 -105.5q149 0 231.5 105t82.5 297v929h163v-954zM817 1597h-112l-220 289h183zM514 1597h-113l-219 289h183z" />
    <glyph glyph-name="udblgrave" unicode="&#x215;" 
d="M821 0h-139v166q-59 -110 -120 -153.5t-159 -43.5q-135 0 -211.5 88t-76.5 244v770h147v-711q0 -233 170 -233q110 0 176 96t66 258v590h147v-1071zM676 1198h-113l-219 289h182zM373 1198h-113l-219 289h182z" />
    <glyph glyph-name="uni0218" unicode="&#x218;" horiz-adv-x="1120" 
d="M1040 403q0 -206 -127 -324t-348 -118q-222 0 -352.5 127t-130.5 387h154q0 -170 88 -257t249 -87q147 0 228.5 66.5t81.5 187.5q0 105 -54 159t-202 95l-248 70q-256 71 -256 352q0 200 113 324t317 124q218 0 336.5 -116t118.5 -353h-154q0 146 -81.5 222.5
t-219.5 76.5q-129 0 -200.5 -67t-71.5 -187q0 -78 34.5 -124t106.5 -66l344 -96q135 -38 204.5 -138.5t69.5 -257.5zM643 -313q0 -265 -168 -265v74q92 0 92 162v20h-94v199h170v-190z" />
    <glyph glyph-name="uni0219" unicode="&#x219;" horiz-adv-x="839" 
d="M778 322q0 -161 -98.5 -257t-265.5 -96q-172 0 -261.5 90.5t-99.5 284.5h144q8 -114 61.5 -165.5t165.5 -51.5q97 0 152 45t55 123q0 60 -36 91.5t-138 62.5l-172 51q-203 61 -203 264q0 154 92 246t244 92q151 0 237 -87.5t95 -248.5h-144q-5 91 -53 134.5t-145 43.5
q-85 0 -134 -40.5t-49 -110.5q0 -57 31 -85t127 -57l149 -45q133 -40 189.5 -105.5t56.5 -178.5zM500 -313q0 -265 -168 -265v74q92 0 92 162v20h-94v199h170v-190z" />
    <glyph glyph-name="uni021A" unicode="&#x21a;" horiz-adv-x="1026" 
d="M1004 1292h-408v-1292h-164v1292h-409v178h981v-178zM598 -313q0 -265 -168 -265v74q92 0 92 162v20h-94v199h170v-190z" />
    <glyph glyph-name="uni021B" unicode="&#x21b;" horiz-adv-x="466" 
d="M432 922h-143v-697q0 -45 20.5 -64.5t69.5 -19.5h51v-141q-33 -4 -58 -7t-33 -4.5t-14 -2t-12 -0.5q-88 0 -130 56t-42 173v707h-118v149h118v299h148v-299h143v-149zM373 -313q0 -265 -168 -265v74q92 0 92 162v20h-94v199h170v-190z" />
    <glyph glyph-name="uni0237" unicode="&#x237;" horiz-adv-x="372" 
d="M260 -158q0 -140 -53.5 -206t-165.5 -66q-31 0 -68 6v156h31q69 0 89 23.5t20 107.5v1208h147v-1229z" />
    <glyph glyph-name="ereversed" unicode="&#x258;" 
d="M866 516q0 -254 -108 -400.5t-295 -146.5q-152 0 -253 97t-130 270h147q10 -91 76.5 -150t155.5 -59q117 0 180.5 83t69.5 267h-641q7 224 55.5 364.5t129 200.5t198.5 60q190 0 302.5 -158.5t112.5 -427.5zM709 621q-6 144 -76 232.5t-176 88.5q-213 0 -236 -321h488z
" />
    <glyph glyph-name="schwa" unicode="&#x259;" 
d="M866 555q0 -269 -112.5 -427.5t-302.5 -158.5q-118 0 -198.5 60t-129 200.5t-55.5 364.5h641q-6 184 -69.5 267t-180.5 83q-89 0 -155.5 -59t-76.5 -150h-147q29 173 130 270t253 97q187 0 295 -146.5t108 -400.5zM709 451h-488q23 -322 236 -322q106 0 176 89t76 233z
" />
    <glyph glyph-name="ringhalfright" unicode="&#x2be;" horiz-adv-x="757" 
d="M645 1051q0 -187 -80 -297.5t-213 -110.5q-212 0 -239 277v2q0 6 5 11t11 5h96q13 0 17 -14q11 -73 38.5 -106.5t79.5 -33.5q71 0 109.5 68t38.5 190q0 120 -35.5 186t-103.5 66q-100 0 -127 -155q-4 -13 -17 -13h-96q-6 0 -11 5t-5 12v2q37 287 254 287
q126 0 202 -103.5t76 -277.5z" />
    <glyph glyph-name="ringhalfleft" unicode="&#x2bf;" horiz-adv-x="757" 
d="M645 930q-37 -287 -254 -287q-126 0 -202 103.5t-76 277.5q0 187 80 297.5t213 110.5q212 0 239 -277v-2q0 -6 -5 -11t-11 -5h-97q-12 0 -16 14q-11 72 -39 105.5t-80 33.5q-71 0 -109 -67.5t-38 -190.5q0 -120 35.5 -186t103.5 -66q99 0 127 156q4 12 16 12h97
q16 0 16 -16v-2z" />
    <glyph glyph-name="circumflex" unicode="&#x2c6;" horiz-adv-x="559" 
d="M524 1198h-135l-110 191l-111 -191h-133l166 289h157z" />
    <glyph glyph-name="caron" unicode="&#x2c7;" horiz-adv-x="559" 
d="M524 1487l-166 -289h-157l-166 289h135l111 -191l110 191h133z" />
    <glyph glyph-name="breve" unicode="&#x2d8;" horiz-adv-x="559" 
d="M539 1481q-19 -145 -82 -212t-183 -67q-115 0 -175.5 67t-75.5 212h81l5 -15q20 -77 62 -112t114 -35q75 0 113 35.5t61 126.5h80z" />
    <glyph glyph-name="dotaccent" unicode="&#x2d9;" horiz-adv-x="559" 
d="M369 1243h-176v197h176v-197z" />
    <glyph glyph-name="ring" unicode="&#x2da;" horiz-adv-x="559" 
d="M487 1339q0 -72 -58.5 -120t-147.5 -48q-91 0 -150 48.5t-59 123.5q0 72 60 120t149 48t147.5 -48.5t58.5 -123.5zM397 1339q0 41 -34.5 70t-81.5 29t-83 -28.5t-36 -66.5q0 -41 34.5 -69.5t84.5 -28.5q47 0 81.5 28t34.5 66z" />
    <glyph glyph-name="ogonek" unicode="&#x2db;" horiz-adv-x="559" 
d="M418 -471h-64q-102 0 -177 55.5t-75 143.5q0 79 33 136.5t111 135.5h119q-115 -96 -115 -236q0 -49 24 -67.5t80 -18.5h64v-149z" />
    <glyph glyph-name="tilde" unicode="&#x2dc;" horiz-adv-x="559" 
d="M565 1460q-30 -223 -170 -223q-28 0 -96 27l-43 18q-69 31 -104 31q-29 0 -47 -20.5t-31 -69.5h-80q15 113 57.5 166t116.5 53q44 0 115 -31l36 -18q56 -27 84 -27q33 0 51 21.5t27 72.5h84z" />
    <glyph glyph-name="hungarumlaut" unicode="&#x2dd;" horiz-adv-x="559" 
d="M403 1487l-219 -289h-112l149 289h182zM707 1487l-220 -289h-112l149 289h183z" />
    <glyph glyph-name="uni0300" unicode="&#x300;" horiz-adv-x="0" 
d="M-410 1196h-112l-219 289h182z" />
    <glyph glyph-name="uni0301" unicode="&#x301;" horiz-adv-x="0" 
d="M-190 1485l-220 -289h-112l149 289h183z" />
    <glyph glyph-name="uni0302" unicode="&#x302;" horiz-adv-x="0" 
d="M-221 1198h-135l-111 191l-111 -191h-133l166 289h158z" />
    <glyph glyph-name="uni0303" unicode="&#x303;" horiz-adv-x="0" 
d="M-180 1460q-30 -223 -170 -223q-28 0 -96 27l-43 18q-69 31 -105 31q-29 0 -47 -20.5t-31 -69.5h-80q15 113 57.5 166t116.5 53q44 0 115 -31l37 -18q56 -27 84 -27q33 0 51 21.5t27 72.5h84z" />
    <glyph glyph-name="uni0304" unicode="&#x304;" horiz-adv-x="0" 
d="M-203 1284h-526v117h526v-117z" />
    <glyph glyph-name="uni0306" unicode="&#x306;" horiz-adv-x="0" 
d="M-207 1481q-19 -145 -81.5 -212t-182.5 -67q-116 0 -176.5 67t-75.5 212h82l4 -15q20 -77 62 -112t114 -35q75 0 113 35.5t61 126.5h80z" />
    <glyph glyph-name="uni0307" unicode="&#x307;" horiz-adv-x="0" 
d="M-377 1243h-176v197h176v-197z" />
    <glyph glyph-name="uni0308" unicode="&#x308;" horiz-adv-x="0" 
d="M-541 1243h-180v197h180v-197zM-211 1243h-180v197h180v-197z" />
    <glyph glyph-name="uni0309" unicode="&#x309;" horiz-adv-x="0" 
d="M-254 1384q0 -40 -19 -66.5t-73 -60.5q-42 -30 -53 -41t-11 -24v-49h-114v55q0 37 21 61t77 58q59 39 59 67q0 22 -26 37t-68 15q-61 0 -84 -29q-12 -15 -12 -70h-113q0 92 54.5 140.5t158.5 48.5q95 0 149 -38.5t54 -103.5z" />
    <glyph glyph-name="uni030A" unicode="&#x30a;" horiz-adv-x="0" 
d="M-258 1339q0 -72 -59 -120t-148 -48q-91 0 -150 48.5t-59 123.5q0 72 60 120t149 48t148 -48.5t59 -123.5zM-348 1339q0 41 -34.5 70t-82.5 29q-47 0 -83 -28.5t-36 -66.5q0 -41 34.5 -69.5t84.5 -28.5q47 0 82 28t35 66z" />
    <glyph glyph-name="uni030B" unicode="&#x30b;" horiz-adv-x="0" 
d="M-342 1487l-219 -289h-113l150 289h182zM-39 1487l-219 -289h-113l150 289h182z" />
    <glyph glyph-name="uni030C" unicode="&#x30c;" horiz-adv-x="0" 
d="M-221 1487l-166 -289h-158l-166 289h136l110 -191l111 191h133z" />
    <glyph glyph-name="uni030F" unicode="&#x30f;" horiz-adv-x="0" 
d="M-258 1198h-113l-219 289h182zM-561 1198h-113l-219 289h182z" />
    <glyph glyph-name="uni0311" unicode="&#x311;" horiz-adv-x="0" 
d="M-207 1202h-82l-4 15q-20 77 -62 112t-114 35q-75 0 -113 -35.5t-61 -126.5h-80q19 145 81.5 212t182.5 67q116 0 176.5 -67t75.5 -212z" />
    <glyph glyph-name="uni0323" unicode="&#x323;" horiz-adv-x="0" 
d="M-377 -369h-176v197h176v-197z" />
    <glyph glyph-name="uni0326" unicode="&#x326;" horiz-adv-x="0" 
d="M-381 -313q0 -265 -168 -265v74q92 0 92 162v20h-94v199h170v-190z" />
    <glyph glyph-name="uni032E" unicode="&#x32e;" horiz-adv-x="0" 
d="M-186 -152q-35 -119 -102 -178t-183 -59q-112 0 -176 59t-96 178h81l5 -14q40 -52 84.5 -79t111.5 -27q72 0 111 28.5t63 91.5h101z" />
    <glyph glyph-name="uni032F" unicode="&#x32f;" horiz-adv-x="0" 
d="M-186 -389h-82l-4 14q-40 52 -85 79.5t-112 27.5q-72 0 -111 -29t-63 -92h-100q35 119 101.5 178t182.5 59q112 0 176.5 -59.5t96.5 -177.5z" />
    <glyph glyph-name="uni0330" unicode="&#x330;" horiz-adv-x="0" 
d="M-180 -152q-30 -223 -170 -223q-28 0 -96 27l-43 18q-69 31 -105 31q-29 0 -47 -20.5t-31 -69.5h-80q15 113 57.5 166t116.5 53q44 0 115 -31l37 -18q56 -27 84 -27q33 0 51 21.5t27 72.5h84z" />
    <glyph glyph-name="uni0331" unicode="&#x331;" horiz-adv-x="0" 
d="M-203 -328h-526v117h526v-117z" />
    <glyph glyph-name="uni0332" unicode="&#x332;" horiz-adv-x="0" 
d="M-203 -328h-526v117h526v-117z" />
    <glyph glyph-name="Alpha" unicode="&#x391;" horiz-adv-x="1120" 
d="M1098 0h-178l-119 428h-484l-127 -428h-167l452 1470h187zM741 606l-180 651l-194 -651h374z" />
    <glyph glyph-name="Beta" unicode="&#x392;" horiz-adv-x="1120" 
d="M1053 438q0 -198 -112 -318t-296 -120h-520v1470h530q154 0 247 -101.5t93 -268.5q0 -106 -38 -179.5t-121 -127.5q118 -58 167.5 -139t49.5 -216zM831 1081q0 113 -60 166t-187 53h-295v-452h293q128 0 188.5 56.5t60.5 176.5zM889 438q0 250 -281 250h-319v-518h348
q120 0 186 70t66 198z" />
    <glyph glyph-name="Gamma" unicode="&#x393;" horiz-adv-x="1026" 
d="M979 1292h-670v-1292h-164v1470h834v-178z" />
    <glyph glyph-name="Delta" unicode="&#x394;" horiz-adv-x="1028" 
d="M1018 0h-1008l434 1438h140zM819 147l-305 1014l-305 -1014h610z" />
    <glyph glyph-name="Epsilon" unicode="&#x395;" horiz-adv-x="1120" 
d="M1034 0h-889v1470h877v-178h-713v-448h658v-178h-658v-488h725v-178z" />
    <glyph glyph-name="Zeta" unicode="&#x396;" horiz-adv-x="1026" 
d="M987 0h-948v168l739 1124h-684v178h893v-174l-741 -1118h741v-178z" />
    <glyph glyph-name="Eta" unicode="&#x397;" horiz-adv-x="1212" 
d="M1085 0h-163v684h-629v-684h-164v1470h164v-608h629v608h163v-1470z" />
    <glyph glyph-name="Theta" unicode="&#x398;" horiz-adv-x="1306" 
d="M1241 733q0 -158 -38.5 -296.5t-111 -245t-185.5 -168.5t-253 -62t-253 62t-185 168.5t-110.5 245t-38.5 296.5q0 219 67 392.5t204 278.5t325 105q167 0 299 -97t206 -274.5t74 -404.5zM1073 735q0 266 -115 431t-299 165q-195 0 -310.5 -162t-115.5 -436
q0 -267 115.5 -430.5t304.5 -163.5t304.5 164t115.5 432zM870 662h-434v147h434v-147z" />
    <glyph glyph-name="Iota" unicode="&#x399;" horiz-adv-x="466" 
d="M315 0h-161v1470h161v-1470z" />
    <glyph glyph-name="Kappa" unicode="&#x39a;" horiz-adv-x="1120" 
d="M1114 0h-211l-422 737l-190 -221v-516h-164v1470h164v-712l586 712h225l-504 -593z" />
    <glyph glyph-name="Lambda" unicode="&#x39b;" horiz-adv-x="1120" 
d="M1098 0h-178l-359 1257l-371 -1257h-167l452 1470h187z" />
    <glyph glyph-name="Mu" unicode="&#x39c;" horiz-adv-x="1398" 
d="M1278 0h-154v868v379l-344 -1247h-159l-340 1245v-282v-963h-158v1470h233l346 -1249l345 1249h231v-1470z" />
    <glyph glyph-name="Nu" unicode="&#x39d;" horiz-adv-x="1212" 
d="M1085 0h-182l-618 1194v-1194h-158v1470h192l609 -1194v1194h157v-1470z" />
    <glyph glyph-name="Xi" unicode="&#x39e;" horiz-adv-x="1212" 
d="M1130 1307h-1048v163h1048v-163zM967 662h-721v147h721v-147zM1130 0h-1048v164h1048v-164z" />
    <glyph glyph-name="Omicron" unicode="&#x39f;" horiz-adv-x="1306" 
d="M1241 733q0 -158 -38.5 -296.5t-111 -245t-185.5 -168.5t-253 -62t-253 62t-185 168.5t-110.5 245t-38.5 296.5q0 219 67 392.5t204 278.5t325 105q167 0 299 -97t206 -274.5t74 -404.5zM1073 735q0 266 -115 431t-299 165q-195 0 -310.5 -162t-115.5 -436
q0 -267 115.5 -430.5t304.5 -163.5t304.5 164t115.5 432z" />
    <glyph glyph-name="Pi" unicode="&#x3a0;" horiz-adv-x="1212" 
d="M1085 0h-163v1292h-629v-1292h-164v1470h956v-1470z" />
    <glyph glyph-name="Rho" unicode="&#x3a1;" horiz-adv-x="1120" 
d="M1044 1055q0 -197 -97.5 -315.5t-260.5 -118.5h-377v-621h-164v1470h541q161 0 259.5 -114t98.5 -301zM877 1049q0 127 -59 189t-181 62h-328v-509h322q246 0 246 258z" />
    <glyph glyph-name="Sigma" unicode="&#x3a3;" horiz-adv-x="1032" 
d="M971 0h-910v168l455 567l-455 568v167h910v-178h-674l446 -557l-446 -557h674v-178z" />
    <glyph glyph-name="Tau" unicode="&#x3a4;" horiz-adv-x="1026" 
d="M1004 1292h-408v-1292h-164v1292h-409v178h981v-178z" />
    <glyph glyph-name="Upsilon" unicode="&#x3a5;" horiz-adv-x="1120" 
d="M1096 1470l-455 -878v-592h-164v592l-454 878h190l346 -706l346 706h191z" />
    <glyph glyph-name="Phi" unicode="&#x3a6;" horiz-adv-x="1277" 
d="M1163 735q0 -172 -127.5 -293t-316.5 -147v-295h-162v295q-189 26 -316.5 147t-127.5 293t127.5 293.5t316.5 147.5v294h162v-294q189 -26 316.5 -147.5t127.5 -293.5zM557 1018q-126 -21 -209.5 -96.5t-83.5 -186.5t83.5 -186t209.5 -96v565zM1012 735
q0 111 -83.5 186.5t-209.5 96.5v-565q126 21 209.5 96t83.5 186z" />
    <glyph glyph-name="Chi" unicode="&#x3a7;" horiz-adv-x="1120" 
d="M1087 0h-200l-324 604l-334 -604h-196l430 754l-404 716h205l305 -563l305 563h195l-403 -716z" />
    <glyph glyph-name="Psi" unicode="&#x3a8;" horiz-adv-x="1249" 
d="M1135 1071q0 -224 -120 -397.5t-310 -208.5v-465h-162v465q-190 35 -310 208.5t-120 397.5v399h151v-399q0 -159 76.5 -285t202.5 -161v845h162v-845q126 34 202 160.5t76 285.5v399h152v-399z" />
    <glyph glyph-name="Omega" unicode="&#x3a9;" horiz-adv-x="1298" 
d="M1237 0h-489v410q121 39 194.5 163.5t73.5 276.5q0 120 -45 224t-130 169.5t-192 65.5t-191.5 -65.5t-128.5 -169.5t-44 -224q0 -153 73 -277t193 -163v-410h-490v178h326v117q-124 84 -195 233t-71 322q0 125 39 240.5t107 203.5t168 140.5t214 52.5q152 0 275 -89.5
t189.5 -235t66.5 -312.5q0 -172 -72.5 -321t-196.5 -234v-117h326v-178z" />
    <glyph glyph-name="alpha" unicode="&#x3b1;" horiz-adv-x="1300" 
d="M1188 35l-133 -70q-65 123 -111 295q-134 -303 -373 -303q-133 0 -239 79.5t-162.5 207t-56.5 274.5q0 156 54.5 290.5t161 220t242.5 85.5q244 0 377 -326q51 215 107 318l133 -70q-58 -109 -93.5 -230.5t-70.5 -287.5q61 -292 164 -483zM889 518q-15 72 -31 128.5
t-43 117.5t-59 101t-79.5 66.5t-105.5 26.5q-96 0 -168.5 -64.5t-107.5 -163t-35 -212.5q0 -164 86 -284.5t225 -120.5q226 0 318 405z" />
    <glyph glyph-name="beta" unicode="&#x3b2;" horiz-adv-x="1005" 
d="M946 457q0 -100 -27 -187t-78 -155t-133 -107t-184 -39q-146 0 -276 62v-502h-148v1561q0 189 104.5 295t289.5 106q181 0 288 -101t107 -272q0 -100 -32.5 -171t-104.5 -128q94 -40 144 -133.5t50 -228.5zM793 438q0 146 -70.5 216.5t-216.5 70.5q-37 0 -64 -8v162
q25 -5 47 -5q120 0 186 60t66 168q0 107 -68 169t-186 62q-126 0 -182.5 -68.5t-56.5 -220.5v-866q122 -49 258 -49q141 0 214 78.5t73 230.5z" />
    <glyph glyph-name="gamma" unicode="&#x3b3;" horiz-adv-x="1073" 
d="M961 1071l-351 -1083v-459h-147v459l-350 1083h155l269 -829l268 829h156z" />
    <glyph glyph-name="delta" unicode="&#x3b4;" horiz-adv-x="944" 
d="M883 440q0 -125 -52 -232.5t-147 -173t-211 -65.5q-117 0 -212.5 65.5t-147.5 173t-52 232.5q0 157 99 278.5t254 168.5q-81 72 -125.5 139.5t-44.5 149.5q0 121 78 207.5t192 86.5q154 0 279 -92l-95 -127q-84 62 -184 62q-53 0 -88 -40t-35 -97q0 -36 13 -67.5
t43.5 -61t52 -46.5t68.5 -47.5t63 -42.5q118 -82 185 -206.5t67 -264.5zM735 440q0 106 -51.5 197t-142.5 145q-138 0 -235 -100.5t-97 -241.5q0 -127 75 -220t189 -93t188 93t74 220z" />
    <glyph glyph-name="epsilon" unicode="&#x3b5;" horiz-adv-x="1030" 
d="M918 59q-170 -139 -345 -139q-124 0 -229.5 56.5t-168 157t-62.5 220.5q0 167 196 236q-157 85 -157 235q0 137 101.5 231.5t242.5 94.5q187 0 381 -137l-72 -101q-115 82 -309 82q-80 0 -138.5 -48.5t-58.5 -121.5q0 -184 369 -184v-125h-57.5t-56.5 -1t-57.5 -3.5
t-52.5 -6t-51 -10t-43 -14.5t-38 -20.5t-27 -27.5t-19 -35t-6 -44q0 -118 93 -198t220 -80q169 0 269 78z" />
    <glyph glyph-name="zeta" unicode="&#x3b6;" horiz-adv-x="878" 
d="M821 -162q0 -124 -75.5 -214.5t-188.5 -90.5v139q54 0 85.5 49.5t31.5 116.5q0 64 -32 111t-85 47h-61q-118 0 -207 79t-132.5 200.5t-43.5 261.5q0 241 113 454.5t309 356.5h-422v125h708v-125h-78q-225 -113 -354 -333t-129 -478q0 -100 23.5 -184.5t78.5 -142.5
t134 -58h61q114 0 189 -93.5t75 -220.5z" />
    <glyph glyph-name="eta" unicode="&#x3b7;" 
d="M825 -410h-147v1069q0 148 -43 215.5t-137 67.5q-113 0 -177.5 -95.5t-64.5 -262.5v-584h-147v1071h139v-158q57 100 123 144.5t157 44.5q140 0 218.5 -98t78.5 -275v-1139z" />
    <glyph glyph-name="theta" unicode="&#x3b8;" horiz-adv-x="972" 
d="M860 719q0 -762 -375 -762q-372 0 -372 762q0 88 3.5 163t13.5 158.5t27 149.5t45.5 128.5t67 103.5t93 66t122.5 25t123.5 -25t93.5 -66t67 -103t46 -128.5t27.5 -150t14 -158.5t3.5 -163zM713 797q0 67 -2 117.5t-8 112t-15.5 106t-26.5 89.5t-40.5 73t-58 45.5
t-77.5 17.5t-77 -17.5t-57 -45.5t-40 -73t-26.5 -89.5t-15 -106t-7.5 -112t-2 -117.5h453zM713 641h-453q1 -76 3.5 -130.5t10 -121t23 -111.5t39.5 -85t61.5 -60t87.5 -20q43 0 77.5 16t58 42.5t40.5 68.5t26.5 83.5t15.5 99.5t8 106t2 112z" />
    <glyph glyph-name="iota" unicode="&#x3b9;" horiz-adv-x="608" 
d="M496 -43q-122 0 -196.5 109t-74.5 256v749h148v-749q0 -86 31 -147.5t92 -61.5v-156z" />
    <glyph glyph-name="kappa" unicode="&#x3ba;" horiz-adv-x="839" 
d="M842 0h-191l-272 541l-123 -135v-406h-147v1071h147v-453l379 453h186l-336 -399z" />
    <glyph glyph-name="lambda" unicode="&#x3bb;" horiz-adv-x="1150" 
d="M1038 0h-155l-240 762l-367 -762h-163l467 971l-25 76q-37 120 -111 200t-176 80v139q149 0 262.5 -105t163.5 -265z" />
    <glyph glyph-name="mu.greek" unicode="&#x3bc;" horiz-adv-x="1159" 
d="M934 0h-148v55q-82 -98 -206 -98q-125 0 -207 98v-526h-148v1542h148v-717q45 -241 207 -241q161 0 206 241v717h148v-1071z" />
    <glyph glyph-name="nu" unicode="&#x3bd;" horiz-adv-x="956" 
d="M901 715q0 -220 -99 -414.5t-276 -323.5l-112 37l-357 1057h156l305 -909q114 108 175 252t61 301q0 178 -41 356h151q37 -160 37 -356z" />
    <glyph glyph-name="xi" unicode="&#x3be;" 
d="M821 -162q0 -124 -75.5 -214.5t-188.5 -90.5v139q54 0 85.5 49.5t31.5 116.5q0 64 -32 111t-85 47h-61q-108 0 -197 62t-137.5 163t-48.5 217q0 115 55 211t149 156q-77 52 -121 130.5t-44 170.5q0 143 110 242h-149v125h708v-125h-307q-94 -21 -154.5 -86.5
t-60.5 -155.5q0 -99 76 -166.5t182 -67.5v-139q-123 0 -210 -86t-87 -209q0 -116 66.5 -201t169.5 -85h61q114 0 189 -93.5t75 -220.5z" />
    <glyph glyph-name="omicron" unicode="&#x3bf;" 
d="M874 537q0 -251 -113 -408.5t-294 -157.5q-180 0 -294 158t-114 408q0 254 114 409.5t300 155.5q177 0 289 -158.5t112 -406.5zM721 537q0 184 -68.5 295.5t-181.5 111.5q-120 0 -189 -109.5t-69 -297.5q0 -186 69 -297t185 -111t185 111t69 297z" />
    <glyph glyph-name="pi" unicode="&#x3c0;" horiz-adv-x="1150" 
d="M1090 913h-103v-913h-147v913h-262v-913h-148v913q-111 0 -161 -55t-50 -172h-158q0 205 109 295t334 90h586v-158z" />
    <glyph glyph-name="rho" unicode="&#x3c1;" horiz-adv-x="1064" 
d="M952 537q0 -151 -48.5 -281t-146 -214.5t-225.5 -84.5q-153 0 -272 109v-537h-147v1008q0 111 28.5 214t80.5 184t133 130t177 49q128 0 225.5 -84t146 -213.5t48.5 -279.5zM805 537q0 109 -28.5 202t-92 156t-152.5 63q-88 0 -151.5 -63t-92 -156t-28.5 -202v-273
q38 -71 112 -111t160 -40q89 0 152.5 63t92 157t28.5 204z" />
    <glyph glyph-name="uni03C2" unicode="&#x3c2;" 
d="M821 -162q0 -124 -75.5 -214.5t-188.5 -90.5v139q54 0 85.5 49.5t31.5 116.5q0 64 -32 111t-85 47h-61q-121 0 -210 82.5t-131 207t-42 269.5t42 269.5t131 207t210 82.5q134 0 228 -100.5t89 -237.5l-131 2q1 74 -54 127t-132 53q-82 0 -137 -61.5t-77 -148.5t-22 -193
q0 -77 13 -146.5t40 -128.5t74 -93.5t109 -34.5h61q114 0 189 -93.5t75 -220.5z" />
    <glyph glyph-name="sigma" unicode="&#x3c3;" horiz-adv-x="1105" 
d="M1051 1036q-122 -41 -265 -57q67 -76 104.5 -190.5t37.5 -251.5q0 -251 -113.5 -408.5t-294.5 -157.5q-180 0 -293.5 158t-113.5 408q0 254 113.5 409.5t299.5 155.5q43 0 74 -8q163 12 401 90zM774 537q0 184 -68.5 295.5t-181.5 111.5q-120 0 -189 -109.5t-69 -297.5
q0 -186 69 -297t185 -111t185 111t69 297z" />
    <glyph glyph-name="tau" unicode="&#x3c4;" horiz-adv-x="825" 
d="M713 920h-228v-598q0 -86 31 -147.5t92 -61.5v-156q-81 0 -144 53t-94.5 135.5t-31.5 176.5v598h-225v155h600v-155z" />
    <glyph glyph-name="upsilon" unicode="&#x3c5;" 
d="M821 512q0 -144 -44.5 -268.5t-136 -205.5t-212.5 -81q-93 0 -166.5 57t-111 147t-37.5 195v715h147v-715q0 -99 44.5 -171t123.5 -72q82 0 139.5 60t82 147.5t24.5 191.5q0 277 -82 559h156q73 -261 73 -559z" />
    <glyph glyph-name="phi" unicode="&#x3c6;" horiz-adv-x="1437" 
d="M1325 537q0 -223 -153.5 -386t-378.5 -190v-432h-148v432q-225 27 -378.5 190t-153.5 386q0 167 80.5 315t220.5 242l78 -115q-109 -73 -170.5 -191t-61.5 -251q0 -160 110.5 -277t274.5 -141v393q0 116 18 218.5t56 191t106.5 140.5t159.5 52q89 0 156.5 -49.5
t106.5 -133.5t58 -183.5t19 -210.5zM1178 537q0 68 -3.5 121t-15 112t-32 98t-56.5 64.5t-86 25.5q-38 0 -67.5 -14.5t-49.5 -37t-34 -59t-22 -71.5t-12.5 -84.5t-5.5 -88.5t-1 -91v-393q164 24 274.5 141t110.5 277z" />
    <glyph glyph-name="chi" unicode="&#x3c7;" horiz-adv-x="1081" 
d="M969 -471h-164l-264 590l-265 -590h-163l346 772l-346 770h163l265 -590l264 590h164l-346 -770z" />
    <glyph glyph-name="psi" unicode="&#x3c8;" horiz-adv-x="1212" 
d="M1100 356q0 -105 -58 -191.5t-152.5 -138t-209.5 -65.5v-432h-148v432q-115 14 -209 65.5t-152 138t-58 191.5v715h147v-715q0 -97 77.5 -159t194.5 -78v1351h148v-1351q117 16 194.5 78t77.5 159v715h148v-715z" />
    <glyph glyph-name="omega" unicode="&#x3c9;" horiz-adv-x="1267" 
d="M1155 553q0 -596 -297 -596q-159 0 -231 160q-68 -160 -217 -160q-297 0 -297 596q0 226 116 518h111q-80 -208 -80 -518v-62t1 -60.5t3 -62t5.5 -57t9.5 -54.5t13.5 -46.5t19 -41.5t25.5 -29t32.5 -20.5t40.5 -6.5q78 0 114.5 58t48.5 163q-12 119 -12 381h148v-5v-82
t1 -81t3 -83.5t5.5 -77.5t9 -75t13.5 -63.5t19 -56.5t25 -40.5t32.5 -28.5t40.5 -9t40.5 6.5t32.5 20.5t25.5 29t19 41.5t13.5 46.5t9.5 54.5t5.5 57t3 62t1 60.5v62q0 310 -80 518h110q117 -294 117 -518z" />
    <glyph glyph-name="uni03D1" unicode="&#x3d1;" horiz-adv-x="1046" 
d="M934 795l-113 2v-441q0 -161 -102 -278t-252 -117t-252 117t-102 278v359h147v-359q0 -100 58.5 -173.5t148.5 -73.5t148.5 73.5t58.5 173.5v451q-508 54 -508 356q0 150 85 259.5t216 109.5q106 0 188 -66t124 -170t42 -225v-151h113v-125zM674 926v145q0 88 -20.5 162
t-69 125t-117.5 51q-82 0 -132 -73.5t-50 -172.5q0 -63 30 -108t86.5 -71t121.5 -39t151 -19z" />
    <glyph glyph-name="uni03D5" unicode="&#x3d5;" horiz-adv-x="1370" 
d="M1257 537q0 -219 -143 -381.5t-356 -190.5l2 -436h-148v436q-213 28 -356 190.5t-143 381.5q0 217 143 379t356 190v364h148v-364q212 -28 354.5 -190t142.5 -379zM1110 537q0 156 -100 274.5t-250 144.5l-2 -841q152 26 252 145.5t100 276.5zM612 956
q-152 -26 -252 -144.5t-100 -274.5q0 -157 100 -276.5t252 -145.5v841z" />
    <glyph glyph-name="uni03D6" unicode="&#x3d6;" horiz-adv-x="1267" 
d="M1155 553q0 -596 -297 -596q-159 0 -231 160q-68 -160 -217 -160q-297 0 -297 596q0 226 116 518h111q-80 -208 -80 -518v-62t1 -60.5t3 -62t5.5 -57t9.5 -54.5t13.5 -46.5t19 -41.5t25.5 -29t32.5 -20.5t40.5 -6.5q78 0 114.5 58t48.5 163q-12 119 -12 381h148v-5v-82
t1 -81t3 -83.5t5.5 -77.5t9 -75t13.5 -63.5t19 -56.5t25 -40.5t32.5 -28.5t40.5 -9t40.5 6.5t32.5 20.5t25.5 29t19 41.5t13.5 46.5t9.5 54.5t5.5 57t3 62t1 60.5v62q0 86 -2 151t-9.5 145.5t-21 139.5t-37.5 119t-57.5 97.5t-83 61t-111.5 23.5q-192 0 -381 -69l-39 100
q206 78 420 78q103 0 184.5 -49t134 -129.5t87 -192t49 -229t14.5 -246.5z" />
    <glyph glyph-name="uni03F1" unicode="&#x3f1;" horiz-adv-x="1040" 
d="M928 537q0 -251 -113.5 -408.5t-294.5 -157.5q-122 0 -217 76q44 -144 139 -194q44 -23 131 -47t115 -35q101 -35 166.5 -111t65.5 -172h-132q0 52 -40 90.5t-101 61.5q-32 11 -128 29.5t-142 43.5q-39 21 -71.5 48t-57.5 62t-44.5 68.5t-33.5 81.5t-24 84.5t-16 93
t-9.5 93.5t-5 99.5t-2 96t-0.5 97.5q0 254 113.5 409.5t299.5 155.5q177 0 289.5 -158.5t112.5 -406.5zM774 537q0 184 -68.5 295.5t-181.5 111.5q-120 0 -189 -109.5t-69 -297.5q0 -186 69 -297t185 -111t185 111t69 297z" />
    <glyph glyph-name="uni03F5" unicode="&#x3f5;" horiz-adv-x="839" 
d="M786 803h-151q-25 72 -69 105.5t-113 33.5q-103 0 -166.5 -88t-75.5 -248h348v-141h-348q9 -163 68.5 -250.5t162.5 -87.5q126 0 185 141h153q-77 -299 -336 -299q-180 0 -286.5 148t-106.5 399q0 268 112.5 427t303.5 159q258 0 319 -299z" />
    <glyph glyph-name="baht" unicode="&#xe3f;" horiz-adv-x="1120" 
d="M1053 438q0 -198 -112 -318t-296 -120h-43v-170h-108v170h-369v1470h369v170h108v-170h53q154 0 247 -101.5t93 -268.5q0 -106 -38 -179.5t-121 -127.5q118 -58 167.5 -139t49.5 -216zM831 1081q0 108 -55.5 161.5t-173.5 57.5v-452q117 5 173 61.5t56 171.5zM494 848
v452h-205v-452h205zM889 438q0 250 -281 250h-6v-518h35q120 0 186 70t66 198zM494 688h-205v-518h205v518z" />
    <glyph glyph-name="Ddotbelow" unicode="&#x1e0c;" horiz-adv-x="1212" 
d="M1133 752q0 -158 -33 -294t-96.5 -238.5t-162.5 -161t-223 -58.5h-483v1470h490q232 0 370 -195.5t138 -522.5zM965 735q0 273 -93.5 419t-267.5 146h-305v-1130h315q163 0 257 151.5t94 413.5zM692 -369h-176v197h176v-197z" />
    <glyph glyph-name="ddotbelow" unicode="&#x1e0d;" 
d="M838 0h-140v154q-47 -100 -106 -142.5t-148 -42.5q-175 0 -280 161.5t-105 430.5q0 243 100 392t263 149q91 0 153 -45t115 -148v561h148v-1470zM688 508q0 211 -60.5 322.5t-174.5 111.5q-240 0 -240 -391q0 -201 61.5 -312.5t171.5 -111.5q112 0 177 100t65 281z
M555 -369h-176v197h176v-197z" />
    <glyph glyph-name="Dlinebelow" unicode="&#x1e0e;" horiz-adv-x="1212" 
d="M1133 752q0 -158 -33 -294t-96.5 -238.5t-162.5 -161t-223 -58.5h-483v1470h490q232 0 370 -195.5t138 -522.5zM965 735q0 273 -93.5 419t-267.5 146h-305v-1130h315q163 0 257 151.5t94 413.5zM868 -328h-526v117h526v-117z" />
    <glyph glyph-name="dlinebelow" unicode="&#x1e0f;" 
d="M838 0h-140v154q-47 -100 -106 -142.5t-148 -42.5q-175 0 -280 161.5t-105 430.5q0 243 100 392t263 149q91 0 153 -45t115 -148v561h148v-1470zM688 508q0 211 -60.5 322.5t-174.5 111.5q-240 0 -240 -391q0 -201 61.5 -312.5t171.5 -111.5q112 0 177 100t65 281z
M731 -328h-526v117h526v-117z" />
    <glyph glyph-name="Hdotbelow" unicode="&#x1e24;" horiz-adv-x="1212" 
d="M1085 0h-163v684h-629v-684h-164v1470h164v-608h629v608h163v-1470zM696 -369h-176v197h176v-197z" />
    <glyph glyph-name="hdotbelow" unicode="&#x1e25;" 
d="M825 0h-147v700q0 128 -40.5 185t-131.5 57q-120 0 -185 -93.5t-65 -264.5v-584h-147v1470h147v-546q64 100 124 139t148 39q140 0 218.5 -98t78.5 -275v-729zM555 -369h-176v197h176v-197z" />
    <glyph glyph-name="Hdieresis" unicode="&#x1e26;" horiz-adv-x="1212" 
d="M1085 0h-163v684h-629v-684h-164v1470h164v-608h629v608h163v-1470zM535 1622h-181v197h181v-197zM864 1622h-180v197h180v-197z" />
    <glyph glyph-name="hdieresis" unicode="&#x1e27;" 
d="M825 0h-147v700q0 128 -40.5 185t-131.5 57q-120 0 -185 -93.5t-65 -264.5v-584h-147v1470h147v-546q64 100 124 139t148 39q140 0 218.5 -98t78.5 -275v-729zM393 1622h-180v197h180v-197zM723 1622h-180v197h180v-197z" />
    <glyph glyph-name="Hbrevebelow" unicode="&#x1e2a;" horiz-adv-x="1212" 
d="M1085 0h-163v684h-629v-684h-164v1470h164v-608h629v608h163v-1470zM887 -152q-35 -119 -102 -178t-183 -59q-112 0 -176 59t-96 178h82l4 -14q40 -52 84.5 -79t111.5 -27q72 0 111 28.5t63 91.5h101z" />
    <glyph glyph-name="hbrevebelow" unicode="&#x1e2b;" 
d="M825 0h-147v700q0 128 -40.5 185t-131.5 57q-120 0 -185 -93.5t-65 -264.5v-584h-147v1470h147v-546q64 100 124 139t148 39q140 0 218.5 -98t78.5 -275v-729zM745 -152q-35 -119 -101.5 -178t-182.5 -59q-112 0 -176.5 59.5t-96.5 177.5h82l4 -14q40 -52 85 -79t112 -27
q72 0 111 28.5t63 91.5h100z" />
    <glyph glyph-name="Idieresisacute" unicode="&#x1e2e;" horiz-adv-x="466" 
d="M315 0h-161v1470h161v-1470zM160 1622h-180v197h180v-197zM489 1622h-180v197h180v-197zM516 2191l-219 -247h-123l150 247h192z" />
    <glyph glyph-name="idieresisacute" unicode="&#x1e2f;" horiz-adv-x="466" 
d="M307 0h-147v1071h147v-1071zM158 1243h-181v197h181v-197zM487 1243h-180v197h180v-197zM514 1825l-219 -248h-123l150 248h192z" />
    <glyph glyph-name="Ldotbelow" unicode="&#x1e36;" 
d="M901 0h-774v1470h164v-1292h610v-178zM602 -369h-176v197h176v-197z" />
    <glyph glyph-name="ldotbelow" unicode="&#x1e37;" horiz-adv-x="372" 
d="M260 0h-147v1470h147v-1470zM274 -369h-176v197h176v-197z" />
    <glyph glyph-name="Ldotbelowmacron" unicode="&#x1e38;" 
d="M901 0h-774v1470h164v-1292h610v-178zM602 -369h-176v197h176v-197zM473 1663h-526v117h526v-117z" />
    <glyph glyph-name="ldotbelowmacron" unicode="&#x1e39;" horiz-adv-x="372" 
d="M260 0h-147v1470h147v-1470zM274 -369h-176v197h176v-197zM451 1663h-527v117h527v-117z" />
    <glyph glyph-name="Mdotbelow" unicode="&#x1e42;" horiz-adv-x="1398" 
d="M1278 0h-154v868v379l-344 -1247h-159l-340 1245v-282v-963h-158v1470h233l346 -1249l345 1249h231v-1470zM788 -369h-176v197h176v-197z" />
    <glyph glyph-name="mdotbelow" unicode="&#x1e43;" horiz-adv-x="1398" 
d="M1292 0h-147v692q0 250 -160 250q-89 0 -150 -83.5t-61 -205.5v-653h-147v741q0 95 -36.5 148t-101.5 53q-106 0 -169.5 -97.5t-63.5 -260.5v-584h-147v1071h139v-158q57 100 121 144.5t151 44.5q82 0 136.5 -40.5t95.5 -133.5q75 102 129.5 138t134.5 36q128 0 202 -97
t74 -264v-741zM788 -369h-176v197h176v-197z" />
    <glyph glyph-name="Ndotaccent" unicode="&#x1e44;" horiz-adv-x="1212" 
d="M1085 0h-182l-618 1194v-1194h-158v1470h192l609 -1194v1194h157v-1470zM696 1622h-176v197h176v-197z" />
    <glyph glyph-name="ndotaccent" unicode="&#x1e45;" 
d="M825 0h-147v659q0 148 -43 215.5t-137 67.5q-113 0 -177.5 -95.5t-64.5 -262.5v-584h-147v1071h139v-158q57 100 123 144.5t157 44.5q140 0 218.5 -98t78.5 -275v-729zM555 1243h-176v197h176v-197z" />
    <glyph glyph-name="Ndotbelow" unicode="&#x1e46;" horiz-adv-x="1212" 
d="M1085 0h-182l-618 1194v-1194h-158v1470h192l609 -1194v1194h157v-1470zM694 -369h-176v197h176v-197z" />
    <glyph glyph-name="ndotbelow" unicode="&#x1e47;" 
d="M825 0h-147v659q0 148 -43 215.5t-137 67.5q-113 0 -177.5 -95.5t-64.5 -262.5v-584h-147v1071h139v-158q57 100 123 144.5t157 44.5q140 0 218.5 -98t78.5 -275v-729zM555 -369h-176v197h176v-197z" />
    <glyph glyph-name="Rdotaccent" unicode="&#x1e58;" horiz-adv-x="1212" 
d="M1149 0h-201q-26 110 -26 369q0 139 -51.5 200.5t-163.5 61.5h-396v-631h-164v1470h560q192 0 293.5 -102t101.5 -295q0 -125 -37 -202.5t-131 -147.5q78 -37 107.5 -94t37.5 -183l8 -266q1 -67 13 -93.5t49 -53.5v-33zM934 1057q0 243 -217 243h-406v-499h377
q126 0 186 62.5t60 193.5zM668 1622h-176v197h176v-197z" />
    <glyph glyph-name="rdotaccent" unicode="&#x1e59;" horiz-adv-x="559" 
d="M557 911h-55q-98 0 -162 -81t-64 -205v-625h-147v1071h139v-182q58 115 115.5 164t134.5 49q18 0 39 -6v-185zM365 1243h-177v197h177v-197z" />
    <glyph glyph-name="Rdotbelow" unicode="&#x1e5a;" horiz-adv-x="1212" 
d="M1149 0h-201q-26 110 -26 369q0 139 -51.5 200.5t-163.5 61.5h-396v-631h-164v1470h560q192 0 293.5 -102t101.5 -295q0 -125 -37 -202.5t-131 -147.5q78 -37 107.5 -94t37.5 -183l8 -266q1 -67 13 -93.5t49 -53.5v-33zM934 1057q0 243 -217 243h-406v-499h377
q126 0 186 62.5t60 193.5zM666 -369h-177v197h177v-197z" />
    <glyph glyph-name="rdotbelow" unicode="&#x1e5b;" horiz-adv-x="559" 
d="M557 911h-55q-98 0 -162 -81t-64 -205v-625h-147v1071h139v-182q58 115 115.5 164t134.5 49q18 0 39 -6v-185zM291 -369h-176v197h176v-197z" />
    <glyph glyph-name="Rdotbelowmacron" unicode="&#x1e5c;" horiz-adv-x="1212" 
d="M1149 0h-201q-26 110 -26 369q0 139 -51.5 200.5t-163.5 61.5h-396v-631h-164v1470h560q192 0 293.5 -102t101.5 -295q0 -125 -37 -202.5t-131 -147.5q78 -37 107.5 -94t37.5 -183l8 -266q1 -67 13 -93.5t49 -53.5v-33zM934 1057q0 243 -217 243h-406v-499h377
q126 0 186 62.5t60 193.5zM666 -369h-177v197h177v-197zM842 1663h-527v117h527v-117z" />
    <glyph glyph-name="rdotbelowmacron" unicode="&#x1e5d;" horiz-adv-x="559" 
d="M557 911h-55q-98 0 -162 -81t-64 -205v-625h-147v1071h139v-182q58 115 115.5 164t134.5 49q18 0 39 -6v-185zM291 -369h-176v197h176v-197zM539 1315h-527v117h527v-117z" />
    <glyph glyph-name="Sdotbelow" unicode="&#x1e62;" horiz-adv-x="1120" 
d="M1040 403q0 -206 -127 -324t-348 -118q-222 0 -352.5 127t-130.5 387h154q0 -170 88 -257t249 -87q147 0 228.5 66.5t81.5 187.5q0 105 -54 159t-202 95l-248 70q-256 71 -256 352q0 200 113 324t317 124q218 0 336.5 -116t118.5 -353h-154q0 146 -81.5 222.5
t-219.5 76.5q-129 0 -200.5 -67t-71.5 -187q0 -78 34.5 -124t106.5 -66l344 -96q135 -38 204.5 -138.5t69.5 -257.5zM647 -369h-176v197h176v-197z" />
    <glyph glyph-name="sdotbelow" unicode="&#x1e63;" horiz-adv-x="839" 
d="M778 322q0 -161 -98.5 -257t-265.5 -96q-172 0 -261.5 90.5t-99.5 284.5h144q8 -114 61.5 -165.5t165.5 -51.5q97 0 152 45t55 123q0 60 -36 91.5t-138 62.5l-172 51q-203 61 -203 264q0 154 92 246t244 92q151 0 237 -87.5t95 -248.5h-144q-5 91 -53 134.5t-145 43.5
q-85 0 -134 -40.5t-49 -110.5q0 -57 31 -85t127 -57l149 -45q133 -40 189.5 -105.5t56.5 -178.5zM504 -369h-176v197h176v-197z" />
    <glyph glyph-name="Tdotbelow" unicode="&#x1e6c;" horiz-adv-x="1026" 
d="M1004 1292h-408v-1292h-164v1292h-409v178h981v-178zM602 -369h-176v197h176v-197z" />
    <glyph glyph-name="tdotbelow" unicode="&#x1e6d;" horiz-adv-x="466" 
d="M432 922h-143v-697q0 -45 20.5 -64.5t69.5 -19.5h51v-141q-33 -4 -58 -7t-33 -4.5t-14 -2t-12 -0.5q-88 0 -130 56t-42 173v707h-118v149h118v299h148v-299h143v-149zM377 -369h-176v197h176v-197z" />
    <glyph glyph-name="Tlinebelow" unicode="&#x1e6e;" horiz-adv-x="1026" 
d="M1004 1292h-408v-1292h-164v1292h-409v178h981v-178zM778 -328h-526v117h526v-117z" />
    <glyph glyph-name="tlinebelow" unicode="&#x1e6f;" horiz-adv-x="466" 
d="M432 922h-143v-697q0 -45 20.5 -64.5t69.5 -19.5h51v-141q-33 -4 -58 -7t-33 -4.5t-14 -2t-12 -0.5q-88 0 -130 56t-42 173v707h-118v149h118v299h148v-299h143v-149zM553 -328h-526v117h526v-117z" />
    <glyph glyph-name="Wgrave" unicode="&#x1e80;" horiz-adv-x="1585" 
d="M1559 1470l-318 -1470h-172l-276 1227l-281 -1227h-172l-313 1470h176l227 -1204l272 1204h179l272 -1204l225 1204h181zM856 1595h-123l-219 248h193z" />
    <glyph glyph-name="wgrave" unicode="&#x1e81;" horiz-adv-x="1212" 
d="M1190 1071l-256 -1071h-152l-180 838l-174 -838h-152l-253 1071h161l170 -850l170 850h166l172 -850l180 850h148zM664 1196h-113l-219 289h182z" />
    <glyph glyph-name="Wacute" unicode="&#x1e82;" horiz-adv-x="1585" 
d="M1559 1470l-318 -1470h-172l-276 1227l-281 -1227h-172l-313 1470h176l227 -1204l272 1204h179l272 -1204l225 1204h181zM1073 1843l-219 -248h-123l150 248h192z" />
    <glyph glyph-name="wacute" unicode="&#x1e83;" horiz-adv-x="1212" 
d="M1190 1071l-256 -1071h-152l-180 838l-174 -838h-152l-253 1071h161l170 -850l170 850h166l172 -850l180 850h148zM881 1485l-219 -289h-113l149 289h183z" />
    <glyph glyph-name="Wdieresis" unicode="&#x1e84;" horiz-adv-x="1585" 
d="M1559 1470l-318 -1470h-172l-276 1227l-281 -1227h-172l-313 1470h176l227 -1204l272 1204h179l272 -1204l225 1204h181zM719 1622h-180v197h180v-197zM1049 1622h-181v197h181v-197z" />
    <glyph glyph-name="wdieresis" unicode="&#x1e85;" horiz-adv-x="1212" 
d="M1190 1071l-256 -1071h-152l-180 838l-174 -838h-152l-253 1071h161l170 -850l170 850h166l172 -850l180 850h148zM530 1243h-180v197h180v-197zM860 1243h-180v197h180v-197z" />
    <glyph glyph-name="Zdotbelow" unicode="&#x1e92;" horiz-adv-x="1026" 
d="M987 0h-948v168l739 1124h-684v178h893v-174l-741 -1118h741v-178zM629 -369h-176v197h176v-197z" />
    <glyph glyph-name="zdotbelow" unicode="&#x1e93;" horiz-adv-x="839" 
d="M788 0h-737v141l531 781h-490v149h682v-147l-526 -774h540v-150zM508 -369h-176v197h176v-197z" />
    <glyph glyph-name="tdieresis" unicode="&#x1e97;" horiz-adv-x="466" 
d="M432 922h-143v-697q0 -45 20.5 -64.5t69.5 -19.5h51v-141q-33 -4 -58 -7t-33 -4.5t-14 -2t-12 -0.5q-88 0 -130 56t-42 173v707h-118v149h118v299h148v-299h143v-149zM141 1522h-180v196h180v-196zM471 1522h-180v196h180v-196z" />
    <glyph glyph-name="Adotbelow" unicode="&#x1ea0;" horiz-adv-x="1120" 
d="M1098 0h-178l-119 428h-484l-127 -428h-167l452 1470h187zM741 606l-180 651l-194 -651h374zM649 -369h-176v197h176v-197z" />
    <glyph glyph-name="adotbelow" unicode="&#x1ea1;" 
d="M891 0q-59 -20 -86 -20q-75 0 -109.5 37.5t-42.5 125.5q-72 -92 -144.5 -133t-166.5 -41q-127 0 -204 86.5t-77 227.5q0 139 69.5 225t197.5 106l243 37q41 6 59.5 35t18.5 88q0 88 -51.5 133t-151.5 45q-101 0 -153.5 -49t-52.5 -158h-136q0 357 353 357
q157 0 246.5 -80t89.5 -219v-617q0 -63 47 -63q10 0 51 8v-131zM645 371v176q-23 -21 -67.5 -33t-174.5 -35q-101 -17 -144.5 -58.5t-43.5 -121.5q0 -86 41.5 -133t116.5 -47q110 0 191 75.5t81 176.5zM545 -369h-176v197h176v-197z" />
    <glyph glyph-name="Ahookabove" unicode="&#x1ea2;" horiz-adv-x="1120" 
d="M1098 0h-178l-119 428h-484l-127 -428h-167l452 1470h187zM741 606l-180 651l-194 -651h374zM782 1784q0 -40 -19 -66.5t-73 -60.5q-41 -29 -52 -40.5t-11 -25.5v-49h-115v55q0 37 21 61t77 58q60 40 60 68q0 22 -26.5 36.5t-68.5 14.5q-60 0 -83 -29q-13 -16 -13 -69
h-112q0 92 54.5 140t158.5 48q95 0 148.5 -38t53.5 -103z" />
    <glyph glyph-name="ahookabove" unicode="&#x1ea3;" 
d="M891 0q-59 -20 -86 -20q-75 0 -109.5 37.5t-42.5 125.5q-72 -92 -144.5 -133t-166.5 -41q-127 0 -204 86.5t-77 227.5q0 139 69.5 225t197.5 106l243 37q41 6 59.5 35t18.5 88q0 88 -51.5 133t-151.5 45q-101 0 -153.5 -49t-52.5 -158h-136q0 357 353 357
q157 0 246.5 -80t89.5 -219v-617q0 -63 47 -63q10 0 51 8v-131zM645 371v176q-23 -21 -67.5 -33t-174.5 -35q-101 -17 -144.5 -58.5t-43.5 -121.5q0 -86 41.5 -133t116.5 -47q110 0 191 75.5t81 176.5zM670 1384q0 -40 -19 -66.5t-73 -60.5q-42 -30 -53 -41t-11 -24v-49
h-115v55q0 37 21 61t78 58q59 39 59 67q0 22 -26 37t-68 15q-61 0 -84 -29q-12 -15 -12 -70h-113q0 92 54.5 140.5t158.5 48.5q95 0 149 -38.5t54 -103.5z" />
    <glyph glyph-name="Acircumflexacute" unicode="&#x1ea4;" horiz-adv-x="1120" 
d="M1098 0h-178l-119 428h-484l-127 -428h-167l452 1470h187zM741 606l-180 651l-194 -651h374zM850 2134l-219 -248h-123l149 248h193zM846 1597h-135l-142 150l-141 -150h-133l197 248h157z" />
    <glyph glyph-name="acircumflexacute" unicode="&#x1ea5;" 
d="M891 0q-59 -20 -86 -20q-75 0 -109.5 37.5t-42.5 125.5q-72 -92 -144.5 -133t-166.5 -41q-127 0 -204 86.5t-77 227.5q0 139 69.5 225t197.5 106l243 37q41 6 59.5 35t18.5 88q0 88 -51.5 133t-151.5 45q-101 0 -153.5 -49t-52.5 -158h-136q0 357 353 357
q157 0 246.5 -80t89.5 -219v-617q0 -63 47 -63q10 0 51 8v-131zM645 371v176q-23 -21 -67.5 -33t-174.5 -35q-101 -17 -144.5 -58.5t-43.5 -121.5q0 -86 41.5 -133t116.5 -47q110 0 191 75.5t81 176.5zM737 1735l-219 -248h-123l150 248h192zM733 1198h-135l-141 150
l-142 -150h-133l197 248h158z" />
    <glyph glyph-name="Acircumflexgrave" unicode="&#x1ea6;" horiz-adv-x="1120" 
d="M1098 0h-178l-119 428h-484l-127 -428h-167l452 1470h187zM741 606l-180 651l-194 -651h374zM633 1886h-123l-219 248h192zM846 1597h-135l-142 150l-141 -150h-133l197 248h157z" />
    <glyph glyph-name="acircumflexgrave" unicode="&#x1ea7;" 
d="M891 0q-59 -20 -86 -20q-75 0 -109.5 37.5t-42.5 125.5q-72 -92 -144.5 -133t-166.5 -41q-127 0 -204 86.5t-77 227.5q0 139 69.5 225t197.5 106l243 37q41 6 59.5 35t18.5 88q0 88 -51.5 133t-151.5 45q-101 0 -153.5 -49t-52.5 -158h-136q0 357 353 357
q157 0 246.5 -80t89.5 -219v-617q0 -63 47 -63q10 0 51 8v-131zM645 371v176q-23 -21 -67.5 -33t-174.5 -35q-101 -17 -144.5 -58.5t-43.5 -121.5q0 -86 41.5 -133t116.5 -47q110 0 191 75.5t81 176.5zM520 1487h-123l-219 248h193zM733 1198h-135l-141 150l-142 -150h-133
l197 248h158z" />
    <glyph glyph-name="Acircumflexhookabove" unicode="&#x1ea8;" horiz-adv-x="1120" 
d="M1098 0h-178l-119 428h-484l-127 -428h-167l452 1470h187zM741 606l-180 651l-194 -651h374zM846 2103q0 -35 -19.5 -59t-72.5 -57q-41 -24 -52.5 -35t-11.5 -23v-43h-115v49q0 34 20 55t77 52q59 36 59 61q0 20 -25.5 32.5t-68.5 12.5q-64 0 -82 -24q-12 -12 -12 -64
h-113q0 83 54.5 126.5t158.5 43.5q93 0 148 -35t55 -92zM846 1597h-135l-142 150l-141 -150h-133l197 248h157z" />
    <glyph glyph-name="acircumflexhookabove" unicode="&#x1ea9;" 
d="M891 0q-59 -20 -86 -20q-75 0 -109.5 37.5t-42.5 125.5q-72 -92 -144.5 -133t-166.5 -41q-127 0 -204 86.5t-77 227.5q0 139 69.5 225t197.5 106l243 37q41 6 59.5 35t18.5 88q0 88 -51.5 133t-151.5 45q-101 0 -153.5 -49t-52.5 -158h-136q0 357 353 357
q157 0 246.5 -80t89.5 -219v-617q0 -63 47 -63q10 0 51 8v-131zM645 371v176q-23 -21 -67.5 -33t-174.5 -35q-101 -17 -144.5 -58.5t-43.5 -121.5q0 -86 41.5 -133t116.5 -47q110 0 191 75.5t81 176.5zM733 1704q0 -35 -19.5 -60t-72.5 -57q-41 -24 -52 -34.5t-11 -22.5v-43
h-115v49q0 34 19.5 54.5t76.5 51.5q59 36 59 62q0 20 -25.5 32.5t-68.5 12.5q-63 0 -82 -25q-12 -12 -12 -63h-113q0 83 54.5 126.5t158.5 43.5q93 0 148 -35t55 -92zM733 1198h-135l-141 150l-142 -150h-133l197 248h158z" />
    <glyph glyph-name="Acircumflextilde" unicode="&#x1eaa;" horiz-adv-x="1120" 
d="M1098 0h-178l-119 428h-484l-127 -428h-167l452 1470h187zM741 606l-180 651l-194 -651h374zM856 2144q-30 -223 -170 -223q-28 0 -96 27l-43 18q-69 31 -105 31q-29 0 -46 -20t-31 -70h-80q15 113 57.5 166t116.5 53q43 0 114 -31l37 -18q56 -27 84 -27q33 0 51 21.5
t27 72.5h84zM846 1597h-135l-142 150l-141 -150h-133l197 248h157z" />
    <glyph glyph-name="acircumflextilde" unicode="&#x1eab;" 
d="M891 0q-59 -20 -86 -20q-75 0 -109.5 37.5t-42.5 125.5q-72 -92 -144.5 -133t-166.5 -41q-127 0 -204 86.5t-77 227.5q0 139 69.5 225t197.5 106l243 37q41 6 59.5 35t18.5 88q0 88 -51.5 133t-151.5 45q-101 0 -153.5 -49t-52.5 -158h-136q0 357 353 357
q157 0 246.5 -80t89.5 -219v-617q0 -63 47 -63q10 0 51 8v-131zM645 371v176q-23 -21 -67.5 -33t-174.5 -35q-101 -17 -144.5 -58.5t-43.5 -121.5q0 -86 41.5 -133t116.5 -47q110 0 191 75.5t81 176.5zM743 1745q-30 -223 -170 -223q-31 0 -96 26l-43 19q-67 30 -104 30
q-29 0 -47 -20.5t-31 -69.5h-80q15 113 57.5 166t116.5 53q47 0 115 -30l37 -19q54 -26 84 -26q32 0 50 21.5t27 72.5h84zM733 1198h-135l-141 150l-142 -150h-133l197 248h158z" />
    <glyph glyph-name="Acircumflexdotbelow" unicode="&#x1eac;" horiz-adv-x="1120" 
d="M1098 0h-178l-119 428h-484l-127 -428h-167l452 1470h187zM741 606l-180 651l-194 -651h374zM844 1597h-135l-142 150l-141 -150h-133l196 248h158zM649 -369h-176v197h176v-197z" />
    <glyph glyph-name="acircumflexdotbelow" unicode="&#x1ead;" 
d="M891 0q-59 -20 -86 -20q-75 0 -109.5 37.5t-42.5 125.5q-72 -92 -144.5 -133t-166.5 -41q-127 0 -204 86.5t-77 227.5q0 139 69.5 225t197.5 106l243 37q41 6 59.5 35t18.5 88q0 88 -51.5 133t-151.5 45q-101 0 -153.5 -49t-52.5 -158h-136q0 357 353 357
q157 0 246.5 -80t89.5 -219v-617q0 -63 47 -63q10 0 51 8v-131zM645 371v176q-23 -21 -67.5 -33t-174.5 -35q-101 -17 -144.5 -58.5t-43.5 -121.5q0 -86 41.5 -133t116.5 -47q110 0 191 75.5t81 176.5zM700 1198h-135l-110 191l-111 -191h-133l166 289h158zM545 -369h-176
v197h176v-197z" />
    <glyph glyph-name="Abreveacute" unicode="&#x1eae;" horiz-adv-x="1120" 
d="M1098 0h-178l-119 428h-484l-127 -428h-167l452 1470h187zM741 606l-180 651l-194 -651h374zM850 2144l-219 -248h-123l149 248h193zM850 1839q-35 -119 -102 -178t-183 -59q-112 0 -176 59t-96 178h82l4 -14q40 -52 84.5 -79.5t111.5 -27.5q72 0 111.5 29t63.5 92h100z
" />
    <glyph glyph-name="abreveacute" unicode="&#x1eaf;" 
d="M891 0q-59 -20 -86 -20q-75 0 -109.5 37.5t-42.5 125.5q-72 -92 -144.5 -133t-166.5 -41q-127 0 -204 86.5t-77 227.5q0 139 69.5 225t197.5 106l243 37q41 6 59.5 35t18.5 88q0 88 -51.5 133t-151.5 45q-101 0 -153.5 -49t-52.5 -158h-136q0 357 353 357
q157 0 246.5 -80t89.5 -219v-617q0 -63 47 -63q10 0 51 8v-131zM645 371v176q-23 -21 -67.5 -33t-174.5 -35q-101 -17 -144.5 -58.5t-43.5 -121.5q0 -86 41.5 -133t116.5 -47q110 0 191 75.5t81 176.5zM737 1745l-219 -248h-123l150 248h192zM737 1440
q-35 -119 -101.5 -178.5t-182.5 -59.5q-112 0 -176.5 59.5t-96.5 178.5h82l4 -15q40 -52 85 -79t112 -27q72 0 111 29t63 92h100z" />
    <glyph glyph-name="Abrevegrave" unicode="&#x1eb0;" horiz-adv-x="1120" 
d="M1098 0h-178l-119 428h-484l-127 -428h-167l452 1470h187zM741 606l-180 651l-194 -651h374zM633 1896h-123l-219 248h192zM850 1839q-35 -119 -102 -178t-183 -59q-112 0 -176 59t-96 178h82l4 -14q40 -52 84.5 -79.5t111.5 -27.5q72 0 111.5 29t63.5 92h100z" />
    <glyph glyph-name="abrevegrave" unicode="&#x1eb1;" 
d="M891 0q-59 -20 -86 -20q-75 0 -109.5 37.5t-42.5 125.5q-72 -92 -144.5 -133t-166.5 -41q-127 0 -204 86.5t-77 227.5q0 139 69.5 225t197.5 106l243 37q41 6 59.5 35t18.5 88q0 88 -51.5 133t-151.5 45q-101 0 -153.5 -49t-52.5 -158h-136q0 357 353 357
q157 0 246.5 -80t89.5 -219v-617q0 -63 47 -63q10 0 51 8v-131zM645 371v176q-23 -21 -67.5 -33t-174.5 -35q-101 -17 -144.5 -58.5t-43.5 -121.5q0 -86 41.5 -133t116.5 -47q110 0 191 75.5t81 176.5zM520 1497h-123l-219 248h193zM737 1440q-35 -119 -101.5 -178.5
t-182.5 -59.5q-112 0 -176.5 59.5t-96.5 178.5h82l4 -15q40 -52 85 -79t112 -27q72 0 111 29t63 92h100z" />
    <glyph glyph-name="Abrevehookabove" unicode="&#x1eb2;" horiz-adv-x="1120" 
d="M1098 0h-178l-119 428h-484l-127 -428h-167l452 1470h187zM741 606l-180 651l-194 -651h374zM778 2036q0 -35 -19.5 -59.5t-72.5 -55.5q-41 -24 -52 -34.5t-11 -22.5v-45h-115v49q0 34 20.5 55.5t77.5 52.5q58 34 58 60q0 20 -26 33.5t-67 13.5q-64 0 -84 -27
q-12 -15 -12 -61h-113q0 82 54.5 125t158.5 43q93 0 148 -35t55 -92zM850 1839q-35 -119 -102 -178t-183 -59q-112 0 -176 59t-96 178h82l4 -14q40 -52 84.5 -79.5t111.5 -27.5q72 0 111.5 29t63.5 92h100z" />
    <glyph glyph-name="abrevehookabove" unicode="&#x1eb3;" 
d="M891 0q-59 -20 -86 -20q-75 0 -109.5 37.5t-42.5 125.5q-72 -92 -144.5 -133t-166.5 -41q-127 0 -204 86.5t-77 227.5q0 139 69.5 225t197.5 106l243 37q41 6 59.5 35t18.5 88q0 88 -51.5 133t-151.5 45q-101 0 -153.5 -49t-52.5 -158h-136q0 357 353 357
q157 0 246.5 -80t89.5 -219v-617q0 -63 47 -63q10 0 51 8v-131zM645 371v176q-23 -21 -67.5 -33t-174.5 -35q-101 -17 -144.5 -58.5t-43.5 -121.5q0 -86 41.5 -133t116.5 -47q110 0 191 75.5t81 176.5zM666 1636q0 -35 -20 -59t-73 -55q-40 -24 -51.5 -35t-11.5 -23v-45
h-115v49q0 34 21 56t78 53q57 34 57 59q0 20 -25.5 33.5t-66.5 13.5q-65 0 -84 -26q-13 -16 -13 -62h-112q0 82 54.5 125t158.5 43q93 0 148 -35t55 -92zM737 1440q-35 -119 -101.5 -178.5t-182.5 -59.5q-112 0 -176.5 59.5t-96.5 178.5h82l4 -15q40 -52 85 -79t112 -27
q72 0 111 29t63 92h100z" />
    <glyph glyph-name="Abrevetilde" unicode="&#x1eb4;" horiz-adv-x="1120" 
d="M1098 0h-178l-119 428h-484l-127 -428h-167l452 1470h187zM741 606l-180 651l-194 -651h374zM856 2152q-30 -223 -170 -223q-28 0 -96 27l-43 18q-69 31 -105 31q-29 0 -46 -20t-31 -70h-80q15 113 57.5 166t116.5 53q43 0 114 -31l37 -18q56 -27 84 -27q33 0 51 21.5
t27 72.5h84zM850 1839q-35 -119 -102 -178t-183 -59q-112 0 -176 59t-96 178h82l4 -14q40 -52 84.5 -79.5t111.5 -27.5q72 0 111.5 29t63.5 92h100z" />
    <glyph glyph-name="abrevetilde" unicode="&#x1eb5;" 
d="M891 0q-59 -20 -86 -20q-75 0 -109.5 37.5t-42.5 125.5q-72 -92 -144.5 -133t-166.5 -41q-127 0 -204 86.5t-77 227.5q0 139 69.5 225t197.5 106l243 37q41 6 59.5 35t18.5 88q0 88 -51.5 133t-151.5 45q-101 0 -153.5 -49t-52.5 -158h-136q0 357 353 357
q157 0 246.5 -80t89.5 -219v-617q0 -63 47 -63q10 0 51 8v-131zM645 371v176q-23 -21 -67.5 -33t-174.5 -35q-101 -17 -144.5 -58.5t-43.5 -121.5q0 -86 41.5 -133t116.5 -47q110 0 191 75.5t81 176.5zM743 1753q-30 -223 -170 -223q-31 0 -96 26l-43 19q-69 31 -104 31
q-29 0 -47 -20.5t-31 -69.5h-80q15 113 57.5 166t116.5 53q44 0 115 -31l37 -18q56 -27 84 -27q32 0 50 21.5t27 72.5h84zM737 1440q-35 -119 -101.5 -178.5t-182.5 -59.5q-112 0 -176.5 59.5t-96.5 178.5h82l4 -15q40 -52 85 -79t112 -27q72 0 111 29t63 92h100z" />
    <glyph glyph-name="Abrevedotbelow" unicode="&#x1eb6;" horiz-adv-x="1120" 
d="M1098 0h-178l-119 428h-484l-127 -428h-167l452 1470h187zM741 606l-180 651l-194 -651h374zM848 1839q-35 -119 -102 -178t-183 -59q-112 0 -176 59t-96 178h82l4 -14q40 -52 84.5 -79.5t111.5 -27.5q72 0 111.5 29t63.5 92h100zM649 -369h-176v197h176v-197z" />
    <glyph glyph-name="abrevedotbelow" unicode="&#x1eb7;" 
d="M891 0q-59 -20 -86 -20q-75 0 -109.5 37.5t-42.5 125.5q-72 -92 -144.5 -133t-166.5 -41q-127 0 -204 86.5t-77 227.5q0 139 69.5 225t197.5 106l243 37q41 6 59.5 35t18.5 88q0 88 -51.5 133t-151.5 45q-101 0 -153.5 -49t-52.5 -158h-136q0 357 353 357
q157 0 246.5 -80t89.5 -219v-617q0 -63 47 -63q10 0 51 8v-131zM645 371v176q-23 -21 -67.5 -33t-174.5 -35q-101 -17 -144.5 -58.5t-43.5 -121.5q0 -86 41.5 -133t116.5 -47q110 0 191 75.5t81 176.5zM715 1481q-19 -145 -81.5 -212t-182.5 -67q-116 0 -176.5 67t-75.5 212
h82l4 -15q20 -77 62 -112t114 -35q75 0 113 35.5t61 126.5h80zM545 -369h-176v197h176v-197z" />
    <glyph glyph-name="Edotbelow" unicode="&#x1eb8;" horiz-adv-x="1120" 
d="M1034 0h-889v1470h877v-178h-713v-448h658v-178h-658v-488h725v-178zM649 -369h-176v197h176v-197z" />
    <glyph glyph-name="edotbelow" unicode="&#x1eb9;" 
d="M866 477h-641q6 -184 69.5 -267t180.5 -83q89 0 155.5 59t76.5 150h147q-29 -173 -130 -270t-253 -97q-187 0 -295 146.5t-108 400.5q0 269 112.5 427.5t302.5 158.5q118 0 198.5 -60t129 -200.5t55.5 -364.5zM713 621q-23 321 -236 321q-106 0 -176 -88.5t-76 -232.5
h488zM555 -369h-176v197h176v-197z" />
    <glyph glyph-name="Ehookabove" unicode="&#x1eba;" horiz-adv-x="1120" 
d="M1034 0h-889v1470h877v-178h-713v-448h658v-178h-658v-488h725v-178zM797 1784q0 -40 -19 -66.5t-73 -60.5q-41 -29 -52.5 -41t-11.5 -25v-49h-115v55q0 37 21 61t78 58q59 39 59 68q0 22 -26 36.5t-68 14.5q-61 0 -84 -29q-12 -15 -12 -69h-113q0 92 54.5 140t158.5 48
q95 0 149 -38t54 -103z" />
    <glyph glyph-name="ehookabove" unicode="&#x1ebb;" 
d="M866 477h-641q6 -184 69.5 -267t180.5 -83q89 0 155.5 59t76.5 150h147q-29 -173 -130 -270t-253 -97q-187 0 -295 146.5t-108 400.5q0 269 112.5 427.5t302.5 158.5q118 0 198.5 -60t129 -200.5t55.5 -364.5zM713 621q-23 321 -236 321q-106 0 -176 -88.5t-76 -232.5
h488zM680 1384q0 -40 -19 -66.5t-73 -60.5q-42 -30 -53 -41t-11 -24v-49h-114v55q0 37 21 61t77 58q59 39 59 67q0 22 -26 37t-68 15q-61 0 -84 -29q-12 -15 -12 -70h-113q0 92 54.5 140.5t158.5 48.5q95 0 149 -38.5t54 -103.5z" />
    <glyph glyph-name="Etilde" unicode="&#x1ebc;" horiz-adv-x="1120" 
d="M1034 0h-889v1470h877v-178h-713v-448h658v-178h-658v-488h725v-178zM870 1839q-30 -223 -170 -223q-31 0 -96 26l-43 19q-69 31 -104 31q-29 0 -47 -20.5t-31 -69.5h-80q15 113 57.5 166t116.5 53q44 0 115 -31l37 -18q56 -27 84 -27q32 0 50 21.5t27 72.5h84z" />
    <glyph glyph-name="etilde" unicode="&#x1ebd;" 
d="M866 477h-641q6 -184 69.5 -267t180.5 -83q89 0 155.5 59t76.5 150h147q-29 -173 -130 -270t-253 -97q-187 0 -295 146.5t-108 400.5q0 269 112.5 427.5t302.5 158.5q118 0 198.5 -60t129 -200.5t55.5 -364.5zM713 621q-23 321 -236 321q-106 0 -176 -88.5t-76 -232.5
h488zM752 1460q-30 -223 -170 -223q-30 0 -97 27l-43 18q-69 31 -104 31q-29 0 -47 -20.5t-31 -69.5h-80q15 113 57.5 166t116.5 53q44 0 115 -31l37 -18q56 -27 84 -27q33 0 51 21.5t27 72.5h84z" />
    <glyph glyph-name="Ecircumflexacute" unicode="&#x1ebe;" horiz-adv-x="1120" 
d="M1034 0h-889v1470h877v-178h-713v-448h658v-178h-658v-488h725v-178zM864 2134l-219 -248h-123l150 248h192zM860 1597h-135l-141 150l-142 -150h-133l197 248h158z" />
    <glyph glyph-name="ecircumflexacute" unicode="&#x1ebf;" 
d="M866 477h-641q6 -184 69.5 -267t180.5 -83q89 0 155.5 59t76.5 150h147q-29 -173 -130 -270t-253 -97q-187 0 -295 146.5t-108 400.5q0 269 112.5 427.5t302.5 158.5q118 0 198.5 -60t129 -200.5t55.5 -364.5zM713 621q-23 321 -236 321q-106 0 -176 -88.5t-76 -232.5
h488zM748 1735l-220 -248h-122l149 248h193zM743 1198h-135l-141 150l-141 -150h-133l196 248h158z" />
    <glyph glyph-name="Ecircumflexgrave" unicode="&#x1ec0;" horiz-adv-x="1120" 
d="M1034 0h-889v1470h877v-178h-713v-448h658v-178h-658v-488h725v-178zM647 1886h-123l-219 248h193zM860 1597h-135l-141 150l-142 -150h-133l197 248h158z" />
    <glyph glyph-name="ecircumflexgrave" unicode="&#x1ec1;" 
d="M866 477h-641q6 -184 69.5 -267t180.5 -83q89 0 155.5 59t76.5 150h147q-29 -173 -130 -270t-253 -97q-187 0 -295 146.5t-108 400.5q0 269 112.5 427.5t302.5 158.5q118 0 198.5 -60t129 -200.5t55.5 -364.5zM713 621q-23 321 -236 321q-106 0 -176 -88.5t-76 -232.5
h488zM530 1487h-122l-220 248h193zM743 1198h-135l-141 150l-141 -150h-133l196 248h158z" />
    <glyph glyph-name="Ecircumflexhookabove" unicode="&#x1ec2;" horiz-adv-x="1120" 
d="M1034 0h-889v1470h877v-178h-713v-448h658v-178h-658v-488h725v-178zM860 2103q0 -35 -19.5 -59t-72.5 -57q-40 -24 -51.5 -35t-11.5 -23v-43h-115v49q0 34 20 55.5t76 51.5q59 36 59 61q0 20 -25.5 32.5t-68.5 12.5q-64 0 -82 -24q-12 -12 -12 -64h-113q0 83 54.5 126.5
t158.5 43.5q93 0 148 -35t55 -92zM860 1597h-135l-141 150l-142 -150h-133l197 248h158z" />
    <glyph glyph-name="ecircumflexhookabove" unicode="&#x1ec3;" 
d="M866 477h-641q6 -184 69.5 -267t180.5 -83q89 0 155.5 59t76.5 150h147q-29 -173 -130 -270t-253 -97q-187 0 -295 146.5t-108 400.5q0 269 112.5 427.5t302.5 158.5q118 0 198.5 -60t129 -200.5t55.5 -364.5zM713 621q-23 321 -236 321q-106 0 -176 -88.5t-76 -232.5
h488zM743 1704q0 -35 -19.5 -60t-72.5 -57q-41 -24 -52 -34.5t-11 -22.5v-43h-115v49q0 34 19.5 54.5t76.5 51.5q60 37 60 62q0 20 -25.5 32.5t-68.5 12.5q-63 0 -82 -25q-13 -13 -13 -63h-112q0 83 54.5 126.5t158.5 43.5q93 0 147.5 -35t54.5 -92zM743 1198h-135l-141 150
l-141 -150h-133l196 248h158z" />
    <glyph glyph-name="Ecircumflextilde" unicode="&#x1ec4;" horiz-adv-x="1120" 
d="M1034 0h-889v1470h877v-178h-713v-448h658v-178h-658v-488h725v-178zM870 2144q-30 -223 -170 -223q-28 0 -96 27l-43 18q-69 31 -104 31q-29 0 -47 -20.5t-31 -69.5h-80q15 113 57.5 166t116.5 53q44 0 115 -31l37 -18q56 -27 84 -27q32 0 50 21.5t27 72.5h84zM860 1597
h-135l-141 150l-142 -150h-133l197 248h158z" />
    <glyph glyph-name="ecircumflextilde" unicode="&#x1ec5;" 
d="M866 477h-641q6 -184 69.5 -267t180.5 -83q89 0 155.5 59t76.5 150h147q-29 -173 -130 -270t-253 -97q-187 0 -295 146.5t-108 400.5q0 269 112.5 427.5t302.5 158.5q118 0 198.5 -60t129 -200.5t55.5 -364.5zM713 621q-23 321 -236 321q-106 0 -176 -88.5t-76 -232.5
h488zM754 1745q-30 -223 -170 -223q-32 0 -97 26l-43 19q-67 30 -104 30q-29 0 -47 -20.5t-31 -69.5h-80q15 113 57.5 166t116.5 53q47 0 115 -30l37 -19q54 -26 84 -26q33 0 51 21.5t27 72.5h84zM743 1198h-135l-141 150l-141 -150h-133l196 248h158z" />
    <glyph glyph-name="Ecircumflexdotbelow" unicode="&#x1ec6;" horiz-adv-x="1120" 
d="M1034 0h-889v1470h877v-178h-713v-448h658v-178h-658v-488h725v-178zM858 1597h-135l-141 150l-142 -150h-133l197 248h158zM649 -369h-176v197h176v-197z" />
    <glyph glyph-name="ecircumflexdotbelow" unicode="&#x1ec7;" 
d="M866 477h-641q6 -184 69.5 -267t180.5 -83q89 0 155.5 59t76.5 150h147q-29 -173 -130 -270t-253 -97q-187 0 -295 146.5t-108 400.5q0 269 112.5 427.5t302.5 158.5q118 0 198.5 -60t129 -200.5t55.5 -364.5zM713 621q-23 321 -236 321q-106 0 -176 -88.5t-76 -232.5
h488zM711 1198h-136l-110 191l-111 -191h-133l166 289h158zM555 -369h-176v197h176v-197z" />
    <glyph glyph-name="Ihookabove" unicode="&#x1ec8;" horiz-adv-x="466" 
d="M315 0h-161v1470h161v-1470zM449 1784q0 -40 -19.5 -66.5t-73.5 -60.5q-41 -29 -52 -40.5t-11 -25.5v-49h-115v55q0 37 21 61t77 58q60 40 60 68q0 22 -26 36.5t-68 14.5q-61 0 -84 -29q-13 -16 -13 -69h-112q0 92 54.5 140t158.5 48q95 0 149 -38t54 -103z" />
    <glyph glyph-name="ihookabove" unicode="&#x1ec9;" horiz-adv-x="466" 
d="M307 0h-147v1071h147v-1071zM446 1384q0 -40 -19 -66.5t-73 -60.5q-41 -29 -52 -40.5t-11 -24.5v-49h-115v55q0 37 21 61t77 58q60 40 60 67q0 22 -26 37t-68 15q-61 0 -84 -29q-13 -16 -13 -70h-112q0 92 54.5 140.5t158.5 48.5q94 0 148 -38.5t54 -103.5z" />
    <glyph glyph-name="Idotbelow" unicode="&#x1eca;" horiz-adv-x="466" 
d="M315 0h-161v1470h161v-1470zM324 -369h-177v197h177v-197z" />
    <glyph glyph-name="idotbelow" unicode="&#x1ecb;" horiz-adv-x="372" 
d="M260 0h-147v1071h147v-1071zM274 1243h-176v197h176v-197zM274 -369h-176v197h176v-197z" />
    <glyph glyph-name="Odotbelow" unicode="&#x1ecc;" horiz-adv-x="1306" 
d="M1241 733q0 -158 -38.5 -296.5t-111 -245t-185.5 -168.5t-253 -62t-253 62t-185 168.5t-110.5 245t-38.5 296.5q0 219 67 392.5t204 278.5t325 105q167 0 299 -97t206 -274.5t74 -404.5zM1073 735q0 266 -115 431t-299 165q-195 0 -310.5 -162t-115.5 -436
q0 -267 115.5 -430.5t304.5 -163.5t304.5 164t115.5 432zM750 -369h-177v197h177v-197z" />
    <glyph glyph-name="odotbelow" unicode="&#x1ecd;" 
d="M874 537q0 -251 -113 -408.5t-294 -157.5q-180 0 -294 158t-114 408q0 254 114 409.5t300 155.5q177 0 289 -158.5t112 -406.5zM721 537q0 184 -68.5 295.5t-181.5 111.5q-120 0 -189 -109.5t-69 -297.5q0 -186 69 -297t185 -111t185 111t69 297zM555 -369h-176v197h176
v-197z" />
    <glyph glyph-name="Ohookabove" unicode="&#x1ece;" horiz-adv-x="1306" 
d="M1241 733q0 -158 -38.5 -296.5t-111 -245t-185.5 -168.5t-253 -62t-253 62t-185 168.5t-110.5 245t-38.5 296.5q0 219 67 392.5t204 278.5t325 105q167 0 299 -97t206 -274.5t74 -404.5zM1073 735q0 266 -115 431t-299 165q-195 0 -310.5 -162t-115.5 -436
q0 -267 115.5 -430.5t304.5 -163.5t304.5 164t115.5 432zM874 1784q0 -40 -19 -66.5t-73 -60.5q-41 -29 -52 -40.5t-11 -25.5v-49h-115v55q0 37 21 61t77 58q60 40 60 68q0 22 -26 36.5t-68 14.5q-61 0 -84 -29q-13 -16 -13 -69h-112q0 92 54.5 140t158.5 48q95 0 148.5 -38
t53.5 -103z" />
    <glyph glyph-name="ohookabove" unicode="&#x1ecf;" 
d="M874 537q0 -251 -113 -408.5t-294 -157.5q-180 0 -294 158t-114 408q0 254 114 409.5t300 155.5q177 0 289 -158.5t112 -406.5zM721 537q0 184 -68.5 295.5t-181.5 111.5q-120 0 -189 -109.5t-69 -297.5q0 -186 69 -297t185 -111t185 111t69 297zM680 1384
q0 -40 -19 -66.5t-73 -60.5q-42 -30 -53 -41t-11 -24v-49h-114v55q0 37 21 61t77 58q59 39 59 67q0 22 -26 37t-68 15q-61 0 -84 -29q-12 -15 -12 -70h-113q0 92 54.5 140.5t158.5 48.5q95 0 149 -38.5t54 -103.5z" />
    <glyph glyph-name="Ocircumflexacute" unicode="&#x1ed0;" horiz-adv-x="1306" 
d="M1241 733q0 -158 -38.5 -296.5t-111 -245t-185.5 -168.5t-253 -62t-253 62t-185 168.5t-110.5 245t-38.5 296.5q0 219 67 392.5t204 278.5t325 105q167 0 299 -97t206 -274.5t74 -404.5zM1073 735q0 266 -115 431t-299 165q-195 0 -310.5 -162t-115.5 -436
q0 -267 115.5 -430.5t304.5 -163.5t304.5 164t115.5 432zM942 2134l-219 -248h-123l150 248h192zM938 1597h-135l-141 150l-142 -150h-133l197 248h157z" />
    <glyph glyph-name="ocircumflexacute" unicode="&#x1ed1;" 
d="M874 537q0 -251 -113 -408.5t-294 -157.5q-180 0 -294 158t-114 408q0 254 114 409.5t300 155.5q177 0 289 -158.5t112 -406.5zM721 537q0 184 -68.5 295.5t-181.5 111.5q-120 0 -189 -109.5t-69 -297.5q0 -186 69 -297t185 -111t185 111t69 297zM748 1735l-220 -248
h-122l149 248h193zM743 1198h-135l-141 150l-141 -150h-133l196 248h158z" />
    <glyph glyph-name="Ocircumflexgrave" unicode="&#x1ed2;" horiz-adv-x="1306" 
d="M1241 733q0 -158 -38.5 -296.5t-111 -245t-185.5 -168.5t-253 -62t-253 62t-185 168.5t-110.5 245t-38.5 296.5q0 219 67 392.5t204 278.5t325 105q167 0 299 -97t206 -274.5t74 -404.5zM1073 735q0 266 -115 431t-299 165q-195 0 -310.5 -162t-115.5 -436
q0 -267 115.5 -430.5t304.5 -163.5t304.5 164t115.5 432zM725 1886h-123l-219 248h192zM938 1597h-135l-141 150l-142 -150h-133l197 248h157z" />
    <glyph glyph-name="ocircumflexgrave" unicode="&#x1ed3;" 
d="M874 537q0 -251 -113 -408.5t-294 -157.5q-180 0 -294 158t-114 408q0 254 114 409.5t300 155.5q177 0 289 -158.5t112 -406.5zM721 537q0 184 -68.5 295.5t-181.5 111.5q-120 0 -189 -109.5t-69 -297.5q0 -186 69 -297t185 -111t185 111t69 297zM530 1487h-122l-220 248
h193zM743 1198h-135l-141 150l-141 -150h-133l196 248h158z" />
    <glyph glyph-name="Ocircumflexhookabove" unicode="&#x1ed4;" horiz-adv-x="1306" 
d="M1241 733q0 -158 -38.5 -296.5t-111 -245t-185.5 -168.5t-253 -62t-253 62t-185 168.5t-110.5 245t-38.5 296.5q0 219 67 392.5t204 278.5t325 105q167 0 299 -97t206 -274.5t74 -404.5zM1073 735q0 266 -115 431t-299 165q-195 0 -310.5 -162t-115.5 -436
q0 -267 115.5 -430.5t304.5 -163.5t304.5 164t115.5 432zM938 2103q0 -35 -19.5 -59t-72.5 -57q-41 -24 -52.5 -35t-11.5 -23v-43h-114v49q0 34 20 55.5t76 51.5q59 36 59 61q0 20 -25.5 32.5t-68.5 12.5q-64 0 -82 -24q-12 -12 -12 -64h-113q0 83 54.5 126.5t158.5 43.5
q93 0 148 -35t55 -92zM938 1597h-135l-141 150l-142 -150h-133l197 248h157z" />
    <glyph glyph-name="ocircumflexhookabove" unicode="&#x1ed5;" 
d="M874 537q0 -251 -113 -408.5t-294 -157.5q-180 0 -294 158t-114 408q0 254 114 409.5t300 155.5q177 0 289 -158.5t112 -406.5zM721 537q0 184 -68.5 295.5t-181.5 111.5q-120 0 -189 -109.5t-69 -297.5q0 -186 69 -297t185 -111t185 111t69 297zM743 1704
q0 -35 -19.5 -60t-72.5 -57q-41 -24 -52 -34.5t-11 -22.5v-43h-115v49q0 34 19.5 54.5t76.5 51.5q60 37 60 62q0 20 -25.5 32.5t-68.5 12.5q-63 0 -82 -25q-13 -13 -13 -63h-112q0 83 54.5 126.5t158.5 43.5q93 0 147.5 -35t54.5 -92zM743 1198h-135l-141 150l-141 -150
h-133l196 248h158z" />
    <glyph glyph-name="Ocircumflextilde" unicode="&#x1ed6;" horiz-adv-x="1306" 
d="M1241 733q0 -158 -38.5 -296.5t-111 -245t-185.5 -168.5t-253 -62t-253 62t-185 168.5t-110.5 245t-38.5 296.5q0 219 67 392.5t204 278.5t325 105q167 0 299 -97t206 -274.5t74 -404.5zM1073 735q0 266 -115 431t-299 165q-195 0 -310.5 -162t-115.5 -436
q0 -267 115.5 -430.5t304.5 -163.5t304.5 164t115.5 432zM948 2144q-30 -223 -170 -223q-28 0 -96 27l-43 18q-69 31 -104 31q-29 0 -47 -20.5t-31 -69.5h-80q15 113 57.5 166t116.5 53q44 0 115 -31l36 -18q56 -27 84 -27q33 0 51 21.5t27 72.5h84zM938 1597h-135l-141 150
l-142 -150h-133l197 248h157z" />
    <glyph glyph-name="ocircumflextilde" unicode="&#x1ed7;" 
d="M874 537q0 -251 -113 -408.5t-294 -157.5q-180 0 -294 158t-114 408q0 254 114 409.5t300 155.5q177 0 289 -158.5t112 -406.5zM721 537q0 184 -68.5 295.5t-181.5 111.5q-120 0 -189 -109.5t-69 -297.5q0 -186 69 -297t185 -111t185 111t69 297zM754 1745
q-30 -223 -170 -223q-32 0 -97 26l-43 19q-67 30 -104 30q-29 0 -47 -20.5t-31 -69.5h-80q15 113 57.5 166t116.5 53q47 0 115 -30l37 -19q54 -26 84 -26q33 0 51 21.5t27 72.5h84zM743 1198h-135l-141 150l-141 -150h-133l196 248h158z" />
    <glyph glyph-name="Ocircumflexdotbelow" unicode="&#x1ed8;" horiz-adv-x="1306" 
d="M1241 733q0 -158 -38.5 -296.5t-111 -245t-185.5 -168.5t-253 -62t-253 62t-185 168.5t-110.5 245t-38.5 296.5q0 219 67 392.5t204 278.5t325 105q167 0 299 -97t206 -274.5t74 -404.5zM1073 735q0 266 -115 431t-299 165q-195 0 -310.5 -162t-115.5 -436
q0 -267 115.5 -430.5t304.5 -163.5t304.5 164t115.5 432zM936 1597h-135l-142 150l-141 -150h-133l197 248h157zM750 -369h-177v197h177v-197z" />
    <glyph glyph-name="ocircumflexdotbelow" unicode="&#x1ed9;" 
d="M874 537q0 -251 -113 -408.5t-294 -157.5q-180 0 -294 158t-114 408q0 254 114 409.5t300 155.5q177 0 289 -158.5t112 -406.5zM721 537q0 184 -68.5 295.5t-181.5 111.5q-120 0 -189 -109.5t-69 -297.5q0 -186 69 -297t185 -111t185 111t69 297zM711 1198h-136l-110 191
l-111 -191h-133l166 289h158zM555 -369h-176v197h176v-197z" />
    <glyph glyph-name="Ohornacute" unicode="&#x1eda;" horiz-adv-x="1306" 
d="M1243 1473q0 -77 -33 -142.5t-90 -97.5q121 -209 121 -500q0 -158 -38.5 -296.5t-111 -245t-185.5 -168.5t-253 -62t-253 62t-185 168.5t-110.5 245t-38.5 296.5q0 219 67 392.5t204 278.5t325 105q248 0 407 -204q40 18 63 64.5t23 103.5h-88v196h176v-196zM1073 735
q0 266 -115 431t-299 165q-195 0 -310.5 -162t-115.5 -436q0 -267 115.5 -430.5t304.5 -163.5t304.5 164t115.5 432zM942 1843l-219 -248h-123l150 248h192z" />
    <glyph glyph-name="ohornacute" unicode="&#x1edb;" horiz-adv-x="993" 
d="M954 1073q0 -79 -36 -146.5t-95 -97.5q51 -130 51 -292q0 -251 -113 -408.5t-294 -157.5q-180 0 -294 158t-114 408q0 254 114 409.5t300 155.5q96 0 176 -51t135 -144q39 20 60.5 65t21.5 101h-88v197h176v-197zM721 537q0 184 -68.5 295.5t-181.5 111.5
q-120 0 -189 -109.5t-69 -297.5q0 -186 69 -297t185 -111t185 111t69 297zM741 1485l-219 -289h-112l149 289h182z" />
    <glyph glyph-name="Ohorngrave" unicode="&#x1edc;" horiz-adv-x="1306" 
d="M1243 1473q0 -77 -33 -142.5t-90 -97.5q121 -209 121 -500q0 -158 -38.5 -296.5t-111 -245t-185.5 -168.5t-253 -62t-253 62t-185 168.5t-110.5 245t-38.5 296.5q0 219 67 392.5t204 278.5t325 105q248 0 407 -204q40 18 63 64.5t23 103.5h-88v196h176v-196zM1073 735
q0 266 -115 431t-299 165q-195 0 -310.5 -162t-115.5 -436q0 -267 115.5 -430.5t304.5 -163.5t304.5 164t115.5 432zM725 1595h-123l-219 248h192z" />
    <glyph glyph-name="ohorngrave" unicode="&#x1edd;" horiz-adv-x="993" 
d="M954 1073q0 -79 -36 -146.5t-95 -97.5q51 -130 51 -292q0 -251 -113 -408.5t-294 -157.5q-180 0 -294 158t-114 408q0 254 114 409.5t300 155.5q96 0 176 -51t135 -144q39 20 60.5 65t21.5 101h-88v197h176v-197zM721 537q0 184 -68.5 295.5t-181.5 111.5
q-120 0 -189 -109.5t-69 -297.5q0 -186 69 -297t185 -111t185 111t69 297zM524 1196h-112l-219 289h182z" />
    <glyph glyph-name="Ohornhookabove" unicode="&#x1ede;" horiz-adv-x="1306" 
d="M1243 1473q0 -77 -33 -142.5t-90 -97.5q121 -209 121 -500q0 -158 -38.5 -296.5t-111 -245t-185.5 -168.5t-253 -62t-253 62t-185 168.5t-110.5 245t-38.5 296.5q0 219 67 392.5t204 278.5t325 105q248 0 407 -204q40 18 63 64.5t23 103.5h-88v196h176v-196zM1073 735
q0 266 -115 431t-299 165q-195 0 -310.5 -162t-115.5 -436q0 -267 115.5 -430.5t304.5 -163.5t304.5 164t115.5 432zM874 1784q0 -40 -19 -66.5t-73 -60.5q-41 -29 -52 -40.5t-11 -25.5v-49h-115v55q0 37 21 61t77 58q60 40 60 68q0 22 -26 36.5t-68 14.5q-61 0 -84 -29
q-13 -16 -13 -69h-112q0 92 54.5 140t158.5 48q95 0 148.5 -38t53.5 -103z" />
    <glyph glyph-name="ohornhookabove" unicode="&#x1edf;" horiz-adv-x="993" 
d="M954 1073q0 -79 -36 -146.5t-95 -97.5q51 -130 51 -292q0 -251 -113 -408.5t-294 -157.5q-180 0 -294 158t-114 408q0 254 114 409.5t300 155.5q96 0 176 -51t135 -144q39 20 60.5 65t21.5 101h-88v197h176v-197zM721 537q0 184 -68.5 295.5t-181.5 111.5
q-120 0 -189 -109.5t-69 -297.5q0 -186 69 -297t185 -111t185 111t69 297zM680 1384q0 -40 -19 -66.5t-73 -60.5q-42 -30 -53 -41t-11 -24v-49h-114v55q0 37 21 61t77 58q59 39 59 67q0 22 -26 37t-68 15q-61 0 -84 -29q-12 -15 -12 -70h-113q0 92 54.5 140.5t158.5 48.5
q95 0 149 -38.5t54 -103.5z" />
    <glyph glyph-name="Ohorntilde" unicode="&#x1ee0;" horiz-adv-x="1306" 
d="M1243 1473q0 -77 -33 -142.5t-90 -97.5q121 -209 121 -500q0 -158 -38.5 -296.5t-111 -245t-185.5 -168.5t-253 -62t-253 62t-185 168.5t-110.5 245t-38.5 296.5q0 219 67 392.5t204 278.5t325 105q248 0 407 -204q40 18 63 64.5t23 103.5h-88v196h176v-196zM1073 735
q0 266 -115 431t-299 165q-195 0 -310.5 -162t-115.5 -436q0 -267 115.5 -430.5t304.5 -163.5t304.5 164t115.5 432zM948 1839q-30 -223 -170 -223q-31 0 -96 26l-43 19q-69 31 -104 31q-29 0 -47 -20.5t-31 -69.5h-80q15 113 57.5 166t116.5 53q44 0 115 -31l36 -18
q56 -27 84 -27q33 0 51 21.5t27 72.5h84z" />
    <glyph glyph-name="ohorntilde" unicode="&#x1ee1;" horiz-adv-x="993" 
d="M954 1073q0 -79 -36 -146.5t-95 -97.5q51 -130 51 -292q0 -251 -113 -408.5t-294 -157.5q-180 0 -294 158t-114 408q0 254 114 409.5t300 155.5q96 0 176 -51t135 -144q39 20 60.5 65t21.5 101h-88v197h176v-197zM721 537q0 184 -68.5 295.5t-181.5 111.5
q-120 0 -189 -109.5t-69 -297.5q0 -186 69 -297t185 -111t185 111t69 297zM752 1460q-30 -223 -170 -223q-30 0 -97 27l-43 18q-69 31 -104 31q-29 0 -47 -20.5t-31 -69.5h-80q15 113 57.5 166t116.5 53q44 0 115 -31l37 -18q56 -27 84 -27q33 0 51 21.5t27 72.5h84z" />
    <glyph glyph-name="Ohorndotbelow" unicode="&#x1ee2;" horiz-adv-x="1306" 
d="M1243 1473q0 -77 -33 -142.5t-90 -97.5q121 -209 121 -500q0 -158 -38.5 -296.5t-111 -245t-185.5 -168.5t-253 -62t-253 62t-185 168.5t-110.5 245t-38.5 296.5q0 219 67 392.5t204 278.5t325 105q248 0 407 -204q40 18 63 64.5t23 103.5h-88v196h176v-196zM1073 735
q0 266 -115 431t-299 165q-195 0 -310.5 -162t-115.5 -436q0 -267 115.5 -430.5t304.5 -163.5t304.5 164t115.5 432zM750 -369h-177v197h177v-197z" />
    <glyph glyph-name="ohorndotbelow" unicode="&#x1ee3;" horiz-adv-x="993" 
d="M954 1073q0 -79 -36 -146.5t-95 -97.5q51 -130 51 -292q0 -251 -113 -408.5t-294 -157.5q-180 0 -294 158t-114 408q0 254 114 409.5t300 155.5q96 0 176 -51t135 -144q39 20 60.5 65t21.5 101h-88v197h176v-197zM721 537q0 184 -68.5 295.5t-181.5 111.5
q-120 0 -189 -109.5t-69 -297.5q0 -186 69 -297t185 -111t185 111t69 297zM555 -369h-176v197h176v-197z" />
    <glyph glyph-name="Udotbelow" unicode="&#x1ee4;" horiz-adv-x="1212" 
d="M1081 516q0 -254 -131 -404.5t-352 -150.5q-214 0 -339.5 142.5t-125.5 385.5v981h164v-925q0 -195 79.5 -300.5t227.5 -105.5q149 0 231.5 105t82.5 297v929h163v-954zM696 -369h-176v197h176v-197z" />
    <glyph glyph-name="udotbelow" unicode="&#x1ee5;" 
d="M821 0h-139v166q-59 -110 -120 -153.5t-159 -43.5q-135 0 -211.5 88t-76.5 244v770h147v-711q0 -233 170 -233q110 0 176 96t66 258v590h147v-1071zM555 -369h-176v197h176v-197z" />
    <glyph glyph-name="Uhookabove" unicode="&#x1ee6;" horiz-adv-x="1212" 
d="M1081 516q0 -254 -131 -404.5t-352 -150.5q-214 0 -339.5 142.5t-125.5 385.5v981h164v-925q0 -195 79.5 -300.5t227.5 -105.5q149 0 231.5 105t82.5 297v929h163v-954zM821 1784q0 -40 -19 -66.5t-73 -60.5q-41 -29 -52 -40.5t-11 -25.5v-49h-115v55q0 37 21 61t77 58
q60 40 60 68q0 22 -26.5 36.5t-68.5 14.5q-61 0 -84 -29q-12 -15 -12 -69h-112q0 92 54 140t158 48q95 0 149 -38t54 -103z" />
    <glyph glyph-name="uhookabove" unicode="&#x1ee7;" 
d="M821 0h-139v166q-59 -110 -120 -153.5t-159 -43.5q-135 0 -211.5 88t-76.5 244v770h147v-711q0 -233 170 -233q110 0 176 96t66 258v590h147v-1071zM680 1384q0 -40 -19 -66.5t-73 -60.5q-42 -30 -53 -41t-11 -24v-49h-114v55q0 37 21 61t77 58q59 39 59 67q0 22 -26 37
t-68 15q-61 0 -84 -29q-12 -15 -12 -70h-113q0 92 54.5 140.5t158.5 48.5q95 0 149 -38.5t54 -103.5z" />
    <glyph glyph-name="Uhornacute" unicode="&#x1ee8;" horiz-adv-x="1335" 
d="M1296 1473q0 -107 -60.5 -186t-154.5 -79v-692q0 -254 -131 -404.5t-352 -150.5q-214 0 -339.5 142.5t-125.5 385.5v981h164v-925q0 -195 79.5 -300.5t227.5 -105.5q149 0 231.5 105t82.5 297v929h163v-174q57 0 92 53t35 124h-88v196h176v-196zM889 1843l-219 -248h-123
l149 248h193z" />
    <glyph glyph-name="uhornacute" unicode="&#x1ee9;" horiz-adv-x="1075" 
d="M1036 1073q0 -107 -60.5 -185.5t-154.5 -78.5v-809h-139v166q-59 -110 -120 -153.5t-159 -43.5q-135 0 -211.5 88t-76.5 244v770h147v-711q0 -233 170 -233q110 0 176 96t66 258v590h147v-174q57 0 92 52.5t35 123.5h-88v197h176v-197zM741 1485l-219 -289h-112l149 289
h182z" />
    <glyph glyph-name="Uhorngrave" unicode="&#x1eea;" horiz-adv-x="1335" 
d="M1296 1473q0 -107 -60.5 -186t-154.5 -79v-692q0 -254 -131 -404.5t-352 -150.5q-214 0 -339.5 142.5t-125.5 385.5v981h164v-925q0 -195 79.5 -300.5t227.5 -105.5q149 0 231.5 105t82.5 297v929h163v-174q57 0 92 53t35 124h-88v196h176v-196zM672 1595h-123l-219 248
h192z" />
    <glyph glyph-name="uhorngrave" unicode="&#x1eeb;" horiz-adv-x="1075" 
d="M1036 1073q0 -107 -60.5 -185.5t-154.5 -78.5v-809h-139v166q-59 -110 -120 -153.5t-159 -43.5q-135 0 -211.5 88t-76.5 244v770h147v-711q0 -233 170 -233q110 0 176 96t66 258v590h147v-174q57 0 92 52.5t35 123.5h-88v197h176v-197zM524 1196h-112l-219 289h182z" />
    <glyph glyph-name="Uhornhookabove" unicode="&#x1eec;" horiz-adv-x="1335" 
d="M1296 1473q0 -107 -60.5 -186t-154.5 -79v-692q0 -254 -131 -404.5t-352 -150.5q-214 0 -339.5 142.5t-125.5 385.5v981h164v-925q0 -195 79.5 -300.5t227.5 -105.5q149 0 231.5 105t82.5 297v929h163v-174q57 0 92 53t35 124h-88v196h176v-196zM821 1784
q0 -40 -19 -66.5t-73 -60.5q-41 -29 -52 -40.5t-11 -25.5v-49h-115v55q0 37 21 61t77 58q60 40 60 68q0 22 -26.5 36.5t-68.5 14.5q-61 0 -84 -29q-12 -15 -12 -69h-112q0 92 54 140t158 48q95 0 149 -38t54 -103z" />
    <glyph glyph-name="uhornhookabove" unicode="&#x1eed;" horiz-adv-x="1075" 
d="M1036 1073q0 -107 -60.5 -185.5t-154.5 -78.5v-809h-139v166q-59 -110 -120 -153.5t-159 -43.5q-135 0 -211.5 88t-76.5 244v770h147v-711q0 -233 170 -233q110 0 176 96t66 258v590h147v-174q57 0 92 52.5t35 123.5h-88v197h176v-197zM680 1384q0 -40 -19 -66.5
t-73 -60.5q-42 -30 -53 -41t-11 -24v-49h-114v55q0 37 21 61t77 58q59 39 59 67q0 22 -26 37t-68 15q-61 0 -84 -29q-12 -15 -12 -70h-113q0 92 54.5 140.5t158.5 48.5q95 0 149 -38.5t54 -103.5z" />
    <glyph glyph-name="Uhorntilde" unicode="&#x1eee;" horiz-adv-x="1335" 
d="M1296 1473q0 -107 -60.5 -186t-154.5 -79v-692q0 -254 -131 -404.5t-352 -150.5q-214 0 -339.5 142.5t-125.5 385.5v981h164v-925q0 -195 79.5 -300.5t227.5 -105.5q149 0 231.5 105t82.5 297v929h163v-174q57 0 92 53t35 124h-88v196h176v-196zM895 1839
q-30 -223 -170 -223q-31 0 -96 26l-43 19q-69 31 -105 31q-29 0 -47 -20.5t-31 -69.5h-79q15 113 57.5 166t116.5 53q43 0 114 -31l37 -18q56 -27 84 -27q33 0 51 21.5t27 72.5h84z" />
    <glyph glyph-name="uhorntilde" unicode="&#x1eef;" horiz-adv-x="1075" 
d="M1036 1073q0 -107 -60.5 -185.5t-154.5 -78.5v-809h-139v166q-59 -110 -120 -153.5t-159 -43.5q-135 0 -211.5 88t-76.5 244v770h147v-711q0 -233 170 -233q110 0 176 96t66 258v590h147v-174q57 0 92 52.5t35 123.5h-88v197h176v-197zM752 1460q-30 -223 -170 -223
q-30 0 -97 27l-43 18q-69 31 -104 31q-29 0 -47 -20.5t-31 -69.5h-80q15 113 57.5 166t116.5 53q44 0 115 -31l37 -18q56 -27 84 -27q33 0 51 21.5t27 72.5h84z" />
    <glyph glyph-name="Uhorndotbelow" unicode="&#x1ef0;" horiz-adv-x="1335" 
d="M1296 1473q0 -107 -60.5 -186t-154.5 -79v-692q0 -254 -131 -404.5t-352 -150.5q-214 0 -339.5 142.5t-125.5 385.5v981h164v-925q0 -195 79.5 -300.5t227.5 -105.5q149 0 231.5 105t82.5 297v929h163v-174q57 0 92 53t35 124h-88v196h176v-196zM696 -369h-176v197h176
v-197z" />
    <glyph glyph-name="uhorndotbelow" unicode="&#x1ef1;" horiz-adv-x="1075" 
d="M1036 1073q0 -107 -60.5 -185.5t-154.5 -78.5v-809h-139v166q-59 -110 -120 -153.5t-159 -43.5q-135 0 -211.5 88t-76.5 244v770h147v-711q0 -233 170 -233q110 0 176 96t66 258v590h147v-174q57 0 92 52.5t35 123.5h-88v197h176v-197zM555 -369h-176v197h176v-197z" />
    <glyph glyph-name="Ygrave" unicode="&#x1ef2;" horiz-adv-x="1120" 
d="M1096 1470l-455 -878v-592h-164v592l-454 878h190l346 -706l346 706h191zM623 1595h-123l-219 248h192z" />
    <glyph glyph-name="ygrave" unicode="&#x1ef3;" horiz-adv-x="839" 
d="M821 1071l-317 -1051q-36 -116 -58 -182t-48 -124t-44 -83t-48.5 -43.5t-58.5 -22t-77 -3.5q-27 0 -59 12l-13 4v164q44 -18 90 -18t68 26.5t51 110.5l37 110l-326 1100h166l236 -878l237 878h164zM477 1196h-112l-220 289h183z" />
    <glyph glyph-name="Ydotbelow" unicode="&#x1ef4;" horiz-adv-x="1120" 
d="M1096 1470l-455 -878v-592h-164v592l-454 878h190l346 -706l346 706h191zM647 -369h-176v197h176v-197z" />
    <glyph glyph-name="ydotbelow" unicode="&#x1ef5;" horiz-adv-x="839" 
d="M821 1071l-317 -1051q-36 -116 -58 -182t-48 -124t-44 -83t-48.5 -43.5t-58.5 -22t-77 -3.5q-27 0 -59 12l-13 4v164q44 -18 90 -18t68 26.5t51 110.5l37 110l-326 1100h166l236 -878l237 878h164zM719 -369h-176v197h176v-197z" />
    <glyph glyph-name="Yhookabove" unicode="&#x1ef6;" horiz-adv-x="1120" 
d="M1096 1470l-455 -878v-592h-164v592l-454 878h190l346 -706l346 706h191zM772 1784q0 -40 -19 -66.5t-73 -60.5q-41 -29 -52.5 -41t-11.5 -25v-49h-114v55q0 37 21 61t77 58q59 39 59 68q0 22 -26 36.5t-68 14.5q-61 0 -84 -29q-12 -15 -12 -69h-113q0 92 54.5 140
t158.5 48q95 0 149 -38t54 -103z" />
    <glyph glyph-name="yhookabove" unicode="&#x1ef7;" horiz-adv-x="839" 
d="M821 1071l-317 -1051q-36 -116 -58 -182t-48 -124t-44 -83t-48.5 -43.5t-58.5 -22t-77 -3.5q-27 0 -59 12l-13 4v164q44 -18 90 -18t68 26.5t51 110.5l37 110l-326 1100h166l236 -878l237 878h164zM633 1384q0 -40 -19 -66.5t-73 -60.5q-42 -30 -53 -41t-11 -24v-49h-115
v55q0 37 21 61t78 58q59 39 59 67q0 22 -26 37t-68 15q-61 0 -84 -29q-12 -15 -12 -70h-113q0 92 54.5 140.5t158.5 48.5q95 0 149 -38.5t54 -103.5z" />
    <glyph glyph-name="Ytilde" unicode="&#x1ef8;" horiz-adv-x="1120" 
d="M1096 1470l-455 -878v-592h-164v592l-454 878h190l346 -706l346 706h191zM846 1839q-30 -223 -170 -223q-31 0 -96 26l-43 19q-69 31 -105 31q-29 0 -47 -20.5t-31 -69.5h-80q15 113 58 166t117 53q43 0 114 -31l37 -18q56 -27 84 -27q33 0 51 21.5t27 72.5h84z" />
    <glyph glyph-name="ytilde" unicode="&#x1ef9;" horiz-adv-x="839" 
d="M821 1071l-317 -1051q-36 -116 -58 -182t-48 -124t-44 -83t-48.5 -43.5t-58.5 -22t-77 -3.5q-27 0 -59 12l-13 4v164q44 -18 90 -18t68 26.5t51 110.5l37 110l-326 1100h166l236 -878l237 878h164zM705 1460q-30 -223 -170 -223q-29 0 -97 27l-43 18q-69 31 -104 31
q-29 0 -47 -20.5t-31 -69.5h-80q15 113 57.5 166t116.5 53q44 0 115 -31l37 -18q56 -27 84 -27q33 0 51 21.5t27 72.5h84z" />
    <glyph glyph-name="uni2010" unicode="&#x2010;" horiz-adv-x="559" 
d="M485 475h-411v184h411v-184z" />
    <glyph glyph-name="uni2011" unicode="&#x2011;" horiz-adv-x="559" 
d="M485 475h-411v184h411v-184z" />
    <glyph glyph-name="endash" unicode="&#x2013;" 
d="M934 492h-934v149h934v-149z" />
    <glyph glyph-name="emdash" unicode="&#x2014;" horiz-adv-x="1679" 
d="M1679 492h-1679v149h1679v-149z" />
    <glyph glyph-name="dblverticalbar" unicode="&#x2016;" horiz-adv-x="980" 
d="M432 -401h-119v1880h119v-1880zM670 -401h-119v1880h119v-1880z" />
    <glyph glyph-name="quoteleft" unicode="&#x2018;" horiz-adv-x="372" 
d="M285 961h-176v202q0 141 40.5 214.5t135.5 107.5v-96q-49 -10 -69.5 -59t-20.5 -150h90v-219z" />
    <glyph glyph-name="quoteright" unicode="&#x2019;" horiz-adv-x="372" 
d="M264 1268q0 -141 -40.5 -214.5t-135.5 -107.5v96q49 10 69.5 59t20.5 150h-90v219h176v-202z" />
    <glyph glyph-name="quotesinglbase" unicode="&#x201a;" horiz-adv-x="372" 
d="M264 16q0 -141 -40.5 -214t-135.5 -107v96q49 10 69.5 59t20.5 150h-90v219h176v-203z" />
    <glyph glyph-name="quotedblleft" unicode="&#x201c;" horiz-adv-x="559" 
d="M516 961h-174v202q0 141 39.5 214.5t134.5 107.5v-96q-49 -10 -68.5 -58t-19.5 -151h88v-219zM238 961h-175v202q0 140 40.5 214t134.5 108v-96q-49 -10 -68.5 -58.5t-19.5 -150.5h88v-219z" />
    <glyph glyph-name="quotedblright" unicode="&#x201d;" horiz-adv-x="559" 
d="M217 1268q0 -141 -40 -214.5t-134 -107.5v96q49 10 68.5 58.5t19.5 150.5h-88v219h174v-202zM496 1268q0 -141 -40 -214.5t-134 -107.5v96q49 10 68.5 58t19.5 151h-88v219h174v-202z" />
    <glyph glyph-name="quotedblbase" unicode="&#x201e;" horiz-adv-x="559" 
d="M217 16q0 -141 -40 -214t-134 -107v96q49 10 68.5 58.5t19.5 150.5h-88v219h174v-203zM496 16q0 -141 -39.5 -214t-134.5 -107v96q49 10 68.5 58t19.5 151h-88v219h174v-203z" />
    <glyph glyph-name="dagger" unicode="&#x2020;" 
d="M862 881h-315v-1207h-158v1207h-317v157h317v432h158v-432h315v-157z" />
    <glyph glyph-name="daggerdbl" unicode="&#x2021;" 
d="M862 88h-315v-414h-158v414h-317v158h317v651h-317v158h317v415h158v-415h315v-158h-315v-651h315v-158z" />
    <glyph glyph-name="bullet" unicode="&#x2022;" horiz-adv-x="587" 
d="M559 735q0 -132 -78 -226.5t-188 -94.5q-109 0 -185.5 93.5t-76.5 225.5q0 137 77 231.5t189 94.5q107 0 184.5 -96t77.5 -228z" />
    <glyph glyph-name="ellipsis" unicode="&#x2026;" horiz-adv-x="1679" 
d="M367 0h-174v219h174v-219zM926 0h-174v219h174v-219zM1487 0h-174v219h174v-219z" />
    <glyph glyph-name="perthousand" unicode="&#x2030;" horiz-adv-x="1679" 
d="M913 1440l-665 -1479h-92l665 1479h92zM520 1038q0 -180 -67 -280.5t-187 -100.5q-121 0 -187.5 100.5t-66.5 282.5q0 183 66.5 283t189.5 100q119 0 185.5 -102t66.5 -283zM403 1040q0 134 -34.5 204.5t-100.5 70.5q-139 0 -139 -275q0 -274 137 -274t137 274zM1067 369
q0 -181 -67 -282t-187 -101q-121 0 -187.5 100.5t-66.5 282.5q0 184 66.5 283.5t189.5 99.5q118 0 185 -101.5t67 -281.5zM950 371q0 132 -34.5 202t-100.5 70q-139 0 -139 -274q0 -275 137 -275t137 277zM1669 369q0 -181 -67 -282t-187 -101q-121 0 -187.5 100.5
t-66.5 282.5q0 184 66.5 283.5t189.5 99.5q118 0 185 -101.5t67 -281.5zM1552 371q0 132 -34.5 202t-100.5 70q-139 0 -139 -274q0 -275 137 -275t137 277z" />
    <glyph glyph-name="permyriad" unicode="&#x2031;" horiz-adv-x="2281" 
d="M913 1440l-665 -1479h-92l665 1479h92zM520 1038q0 -180 -67 -280.5t-187 -100.5q-121 0 -187.5 100.5t-66.5 282.5q0 183 66.5 283t189.5 100q119 0 185.5 -102t66.5 -283zM403 1040q0 134 -34.5 204.5t-100.5 70.5q-139 0 -139 -275q0 -274 137 -274t137 274zM1067 369
q0 -181 -67 -282t-187 -101q-121 0 -187.5 100.5t-66.5 282.5q0 184 66.5 283.5t189.5 99.5q118 0 185 -101.5t67 -281.5zM950 371q0 132 -34.5 202t-100.5 70q-139 0 -139 -274q0 -275 137 -275t137 277zM1669 369q0 -181 -67 -282t-187 -101q-121 0 -187.5 100.5
t-66.5 282.5q0 184 66.5 283.5t189.5 99.5q118 0 185 -101.5t67 -281.5zM1552 371q0 132 -34.5 202t-100.5 70q-139 0 -139 -274q0 -275 137 -275t137 277zM2271 369q0 -181 -67 -282t-187 -101q-121 0 -187.5 100.5t-66.5 282.5q0 184 66.5 283.5t189.5 99.5
q118 0 185 -101.5t67 -281.5zM2154 371q0 132 -34.5 202t-100.5 70q-139 0 -139 -274q0 -275 137 -275t137 277z" />
    <glyph glyph-name="guilsinglleft" unicode="&#x2039;" horiz-adv-x="559" 
d="M412 221l-265 252v189l265 251v-180l-176 -166l176 -166v-180z" />
    <glyph glyph-name="guilsinglright" unicode="&#x203a;" horiz-adv-x="559" 
d="M412 473l-265 -252v180l177 166l-177 166v180l265 -251v-189z" />
    <glyph glyph-name="referencemark" unicode="&#x203b;" horiz-adv-x="980" 
d="M801 289l-84 -84l-225 223l-226 -225l-84 84l226 227l-226 225l84 84l226 -225l225 223l84 -84l-226 -223zM580 862q0 -37 -25.5 -62.5t-62.5 -25.5t-63 25.5t-26 62.5t26 62.5t63 25.5t62.5 -25.5t25.5 -62.5zM580 164q0 -37 -25.5 -62.5t-62.5 -25.5t-63 25.5t-26 62.5
t26 62.5t63 25.5t62.5 -25.5t25.5 -62.5zM231 514q0 -37 -25.5 -62.5t-62.5 -25.5t-62.5 25.5t-25.5 62.5q0 36 26 62t62 26t62 -26t26 -62zM928 514q0 -37 -25.5 -62.5t-62.5 -25.5t-62.5 25.5t-25.5 62.5q0 36 26 62t62 26t62 -26t26 -62z" />
    <glyph glyph-name="interrobang" unicode="&#x203d;" 
d="M535 0h-164v209h164v-209zM825 1090q0 -95 -30.5 -162t-126.5 -178q-96 -109 -121 -174t-25 -201h-147q0 163 28 237l-30 496v207q-131 -55 -131 -305h-148q0 133 19.5 203.5t68.5 134.5q75 96 191 127v118h162v-110q131 -22 210.5 -128.5t79.5 -264.5zM668 1087
q0 90 -35.5 151t-100.5 83l3 -213l-23 -317l20 24q91 113 113.5 157.5t22.5 114.5z" />
    <glyph glyph-name="uni203F" unicode="&#x203f;" horiz-adv-x="1110" 
d="M1053 -186q0 -105 -126 -171.5t-372 -66.5t-372 66.5t-126 171.5h156q0 -56 73.5 -69t268.5 -13t268.5 13t73.5 69h156z" />
    <glyph glyph-name="uni2040" unicode="&#x2040;" horiz-adv-x="1110" 
d="M1053 1233h-156q0 56 -73.5 69t-268.5 13t-268.5 -13t-73.5 -69h-156q0 104 126 170.5t372 66.5t372 -66.5t126 -170.5z" />
    <glyph glyph-name="fraction" unicode="&#x2044;" horiz-adv-x="280" 
d="M559 1440l-741 -1491h-97l742 1491h96z" />
    <glyph glyph-name="quillbracketleft" unicode="&#x2045;" horiz-adv-x="645" 
d="M532 -391q-110 0 -204.5 38.5t-154.5 113.5t-60 171v361q0 73 38.5 138.5t102.5 107.5q-65 42 -103 107t-38 138v361q0 96 60 171t154.5 113.5t204.5 38.5v-155q-112 0 -192 -42.5t-80 -125.5v-361q0 -83 80 -125.5t192 -42.5v-155q-112 0 -192 -42.5t-80 -125.5v-361
q0 -83 80 -125.5t192 -42.5v-155z" />
    <glyph glyph-name="quillbracketright" unicode="&#x2046;" horiz-adv-x="645" 
d="M532 -68q0 -96 -60 -171t-154.5 -113.5t-204.5 -38.5v155q112 0 192 42.5t80 125.5v361q0 83 -80 125.5t-192 42.5v155q112 0 192 42.5t80 125.5v361q0 83 -80 125.5t-192 42.5v155q110 0 204.5 -38.5t154.5 -113.5t60 -171v-361q0 -73 -38 -138t-103 -107
q64 -42 102.5 -107.5t38.5 -138.5v-361z" />
    <glyph glyph-name="discount" unicode="&#x2052;" 
d="M272 1282q0 -46 -32 -78.5t-78 -32.5q-45 0 -78 33t-33 78t33 78t78 33q46 0 78 -32.5t32 -78.5zM883 188q0 -45 -33 -77.5t-78 -32.5q-46 0 -78 32t-32 78t32 78.5t78 32.5q45 0 78 -33t33 -78zM901 1470l-696 -1470h-172l696 1470h172z" />
    <glyph glyph-name="uni2054" unicode="&#x2054;" horiz-adv-x="1110" 
d="M1053 -424h-156q0 56 -73.5 69t-268.5 13t-268.5 -13t-73.5 -69h-156q0 105 126 171.5t372 66.5t372 -66.5t126 -171.5z" />
    <glyph glyph-name="colonmonetary" unicode="&#x20a1;" horiz-adv-x="1212" 
d="M1143 541q-30 -172 -69.5 -266t-108.5 -166q-128 -134 -312 -146v-133h-94v133q-225 25 -355 231t-130 539q0 328 130 533.5t355 236.5v137h94v-131q194 -5 321 -131t156 -350h-157q-66 297 -320 303v-1192q127 8 209.5 103.5t122.5 298.5h158zM559 145v1178
q-151 -34 -234 -190t-83 -406q0 -251 83 -402t234 -180z" />
    <glyph glyph-name="lira" unicode="&#x20a4;" 
d="M905 66q-60 -54 -108 -76.5t-103 -22.5q-27 0 -173.5 46t-176.5 46q-86 0 -201 -82l-82 142q205 179 205 379q0 16 -2 24h-209v129h178l-61 125h-117v129h68q-25 82 -25 152q0 183 112.5 298t291.5 115q177 0 274.5 -121.5t97.5 -314.5v-30h-147v18q0 129 -65 210
t-170 81q-98 0 -167 -74.5t-69 -181.5q0 -65 33 -152h334v-129h-281l47 -125h234v-129h-217v-4q0 -105 -50 -200t-161 -193q128 84 229 84q30 0 148 -36t135 -36q68 0 129 64z" />
    <glyph glyph-name="naira" unicode="&#x20a6;" horiz-adv-x="1212" 
d="M1167 571h-82v-571h-182l-295 571h-323v-571h-158v571h-82v109h82v258h-82v109h82v423h192l216 -423h393v423h157v-423h82v-109h-82v-258h82v-109zM360 1047l-75 147v-147h75zM551 680l-133 258h-133v-258h266zM928 680v258h-338l133 -258h205zM928 571h-150l150 -295
v295z" />
    <glyph glyph-name="won" unicode="&#x20a9;" horiz-adv-x="1585" 
d="M1559 571h-195l-123 -571h-172l-129 571h-297l-131 -571h-172l-121 571h-192v109h168l-56 258h-112v109h90l-90 423h176l80 -423h323l96 423h179l96 -423h321l80 423h181l-93 -423h93v-109h-115l-55 -258h170v-109zM582 938h-279l49 -258h172zM500 571h-127l57 -305z
M1278 938h-277l58 -258h172zM1210 571h-127l70 -305zM915 680l-57 258h-131l-59 -258h247zM834 1047l-41 180l-41 -180h82z" />
    <glyph glyph-name="dong" unicode="&#x20ab;" horiz-adv-x="1011" 
d="M899 1251h-125v-1030h-119v129q-39 -84 -89.5 -119.5t-127.5 -35.5q-148 0 -236.5 137t-88.5 366q0 206 84.5 332.5t222.5 126.5q77 0 131 -38.5t96 -125.5v258h-196v99h196v120h127v-120h125v-99zM899 -156h-786v156h786v-156zM647 651q0 180 -52 275.5t-149 95.5
q-204 0 -204 -334q0 -170 52 -265t146 -95q96 0 151.5 84.5t55.5 238.5z" />
    <glyph glyph-name="Euro" unicode="&#x20ac;" horiz-adv-x="1044" 
d="M1014 1341l-66 -167q-66 98 -128 138t-148 40q-132 0 -204.5 -104t-94.5 -324h475l-51 -127h-432v-129h378l-53 -127h-319q20 -221 97.5 -322.5t219.5 -101.5q74 0 131 23.5t115 78.5v-178q-73 -37 -126 -51.5t-122 -14.5q-221 0 -349.5 143t-148.5 423h-188l51 127h131
v55q0 51 2 74h-184l51 127h139q43 571 469 571q116 0 196 -34.5t159 -119.5z" />
    <glyph glyph-name="peso" unicode="&#x20b1;" horiz-adv-x="1120" 
d="M1044 1055q0 -197 -97.5 -315.5t-260.5 -118.5h-377v-218h252v-92h-252v-311h-164v311h-73v92h73v1067h541q161 0 259.5 -114t98.5 -301zM877 1049q0 127 -59 189t-181 62h-328v-509h322q246 0 246 258z" />
    <glyph glyph-name="centigrade" unicode="&#x2103;" horiz-adv-x="1988" 
d="M582 1141q0 -127 -71 -213t-175 -86t-175 86t-71 213q0 129 71.5 214t178.5 85q101 0 171.5 -86.5t70.5 -212.5zM1763 541q-30 -172 -69.5 -266t-108.5 -166q-142 -148 -348 -148q-249 0 -396 208.5t-147 563.5q0 356 152.5 566t410.5 210q200 0 332.5 -126.5
t161.5 -354.5h-158q-36 158 -118.5 230.5t-212.5 72.5q-187 0 -293.5 -160.5t-106.5 -443.5q0 -280 102 -434t287 -154q137 0 225.5 95t129.5 307h157zM500 1141q0 82 -50 146.5t-114 64.5q-65 0 -114.5 -64t-49.5 -147t49.5 -147t114.5 -64t114.5 64t49.5 147z" />
    <glyph glyph-name="l.script" unicode="&#x2113;" horiz-adv-x="823" 
d="M762 147q-32 -81 -103.5 -129.5t-158.5 -48.5q-110 0 -186 81t-76 196v131l-80 -90l-97 82q55 66 177 192v615q0 120 69.5 207t175.5 87q108 0 178 -87t70 -207q0 -75 -20 -149t-49 -133.5t-78.5 -128t-92.5 -117.5t-106 -116v-286q0 -51 41 -85t98 -34q84 0 140 59z
M573 1176q0 56 -25 96.5t-69 40.5t-69 -40.5t-25 -96.5v-449q89 112 138.5 220.5t49.5 228.5z" />
    <glyph glyph-name="numero" unicode="&#x2116;" horiz-adv-x="1769" 
d="M1690 717q0 -177 -77.5 -275t-215.5 -98t-214.5 98t-76.5 273q0 182 76.5 279.5t218.5 97.5q135 0 212 -99t77 -276zM1690 0h-586v160h586v-160zM1567 717q0 122 -44.5 190t-123.5 68q-83 0 -126.5 -66.5t-43.5 -191.5q0 -122 43.5 -189t124.5 -67t125.5 67t44.5 189z
M944 0h-182l-516 1194v-1194h-158v1470h193l505 -1194v1194h158v-1470z" />
    <glyph glyph-name="published" unicode="&#x2117;" horiz-adv-x="1236" 
d="M1196 674q0 -139 -42.5 -268t-116.5 -227.5t-183.5 -158t-235.5 -59.5q-167 0 -301 101t-205 263.5t-71 348.5t71 348t205 263t301 101q126 0 235.5 -59t183.5 -157.5t116.5 -227.5t42.5 -268zM1114 674q0 122 -35.5 236t-99 201.5t-157.5 140.5t-204 53q-145 0 -260 -90
t-175 -233.5t-60 -307.5t60 -307.5t175 -233.5t260 -90q110 0 204 53t157.5 140.5t99 201.5t35.5 236zM928 844q0 -107 -59.5 -172.5t-157.5 -65.5h-213v-330h-111v797h324q97 0 157 -63t60 -166zM813 842q0 125 -131 125h-184v-256h180q135 0 135 131z" />
    <glyph glyph-name="weierstrass" unicode="&#x2118;" horiz-adv-x="1150" 
d="M1038 555q0 -78 -4 -144t-14.5 -137t-31 -125.5t-50.5 -99t-76.5 -68.5t-105.5 -24q-85 0 -147 61.5t-74 151.5l118 14q3 -32 33.5 -51.5t69.5 -19.5q25 0 44.5 10t33.5 32t24 44.5t16 61t9.5 66.5t5 76t2 75t0.5 77q0 42 -0.5 64.5t-2 63t-5 63.5t-9.5 55t-16 50
t-24 36.5t-33.5 26.5t-44.5 8q-26 0 -55.5 -31.5t-62.5 -94.5t-61.5 -127t-64.5 -161.5t-59 -163t-56 -164.5q86 -226 86 -436q0 -97 -61 -167.5t-152 -70.5q-74 0 -115.5 71t-41.5 167q0 53 125 430q-35 90 -54.5 145.5t-37 137.5t-17.5 153q0 150 63 290.5t173 252.5
l86 -86q-87 -88 -131 -207t-44 -250q0 -100 37 -213q33 92 62 166t65 156t72 142.5t75.5 111.5t82.5 77.5t86 26.5q78 0 135 -45t88 -122.5t45 -165.5t14 -189zM381 -256q0 71 -72 252q-32 -55 -47 -83t-31 -76.5t-16 -92.5q0 -27 1.5 -45.5t6.5 -39.5t17 -31.5t30 -10.5
q48 0 79.5 37.5t31.5 89.5z" />
    <glyph glyph-name="recipe" unicode="&#x211e;" horiz-adv-x="1212" 
d="M1290 444l-207 -161l4 -103q1 -67 13 -93.5t49 -53.5v-33h-201q-9 36 -20 160l-150 -119l-59 74l205 159l-2 95q0 139 -51.5 200.5t-163.5 61.5h-396v-631h-164v1470h560q192 0 293.5 -102t101.5 -295q0 -125 -37 -202.5t-131 -147.5q78 -37 107.5 -94t37.5 -183l2 -47
l152 119zM934 1057q0 243 -217 243h-406v-499h377q126 0 186 62.5t60 193.5z" />
    <glyph glyph-name="servicemark" unicode="&#x2120;" horiz-adv-x="1710" 
d="M717 895q0 -113 -80 -177.5t-219 -64.5q-141 0 -223.5 71t-81.5 218h110q-1 -92 51 -138t148 -46q87 0 134.5 33t47.5 94q0 54 -31.5 80.5t-119.5 48.5l-152 37q-162 40 -162 194q0 109 71.5 177.5t199.5 68.5q140 0 214.5 -65.5t71.5 -198.5h-110q3 78 -44.5 118.5
t-131.5 40.5q-75 0 -116.5 -34t-41.5 -95q0 -74 80 -94l211 -51q174 -41 174 -217zM1597 1470v-796h-110v469v149l-197 -618h-110l-193 616v-98v-518h-115v796h158l207 -645l205 645h155z" />
    <glyph glyph-name="trademark" unicode="&#x2122;" horiz-adv-x="1679" 
d="M729 1470v-110h-250v-686h-117v686h-249v110h616zM1567 1470v-796h-111v469v149l-196 -618h-111l-193 616v-98v-518h-114v796h157l207 -645l205 645h156z" />
    <glyph glyph-name="ohm" unicode="&#x2126;" horiz-adv-x="1298" 
d="M1237 0h-489v410q121 39 194.5 163.5t73.5 276.5q0 120 -45 224t-130 169.5t-192 65.5t-191.5 -65.5t-128.5 -169.5t-44 -224q0 -153 73 -277t193 -163v-410h-490v178h326v117q-124 84 -195 233t-71 322q0 125 39 240.5t107 203.5t168 140.5t214 52.5q152 0 275 -89.5
t189.5 -235t66.5 -312.5q0 -172 -72.5 -321t-196.5 -234v-117h326v-178z" />
    <glyph glyph-name="uni2127" unicode="&#x2127;" horiz-adv-x="1298" 
d="M1237 1292h-326v-116q124 -84 195.5 -233.5t71.5 -321.5q0 -167 -66 -312.5t-188.5 -235t-274.5 -89.5q-114 0 -214 52.5t-168.5 140.5t-108 203.5t-39.5 240.5q0 172 72 321t196 234v116h-326v178h490v-409q-121 -39 -194.5 -163.5t-73.5 -276.5q0 -120 44.5 -224
t129.5 -169.5t192 -65.5t191.5 65.5t129 169.5t44.5 224q0 153 -73 277t-193 163v409h489v-178z" />
    <glyph glyph-name="estimated" unicode="&#x212e;" horiz-adv-x="1695" 
d="M1583 662v-19h-1184q-7 0 -12.5 -6t-5.5 -12v-365q0 -4 4 -12q88 -100 209.5 -154.5t253.5 -54.5q138 0 260 57t209 160h113q-104 -120 -257 -188t-325 -68q-195 0 -363.5 85.5t-270 238.5t-101.5 338q0 139 60 262.5t160 210.5t234.5 137.5t280.5 50.5t280.5 -50.5
t234.5 -137.5t160 -210.5t60 -262.5zM1315 700v363q0 4 -4 12q-88 100 -209.5 154.5t-253.5 54.5t-253.5 -54.5t-209.5 -154.5q-4 -8 -4 -12v-363q0 -8 5.5 -13t12.5 -5h897q8 0 13.5 5.5t5.5 12.5z" />
    <glyph glyph-name="uni2190" unicode="&#x2190;" horiz-adv-x="2048" 
d="M1823 453h-1465l301 -363l-90 -78l-415 500l415 500l90 -78l-301 -363h1465v-118z" />
    <glyph glyph-name="uni2191" unicode="&#x2191;" horiz-adv-x="1447" 
d="M1225 967l-78 -90l-363 301v-1465h-118v1465l-363 -301l-78 90l500 415z" />
    <glyph glyph-name="uni2192" unicode="&#x2192;" horiz-adv-x="2048" 
d="M1894 512l-415 -500l-90 78l301 363h-1465v118h1465l-301 363l90 78z" />
    <glyph glyph-name="uni2193" unicode="&#x2193;" horiz-adv-x="1447" 
d="M1225 57l-500 -415l-500 415l78 90l363 -301v1465h118v-1465l363 301z" />
    <glyph glyph-name="partialdiff" unicode="&#x2202;" horiz-adv-x="829" 
d="M805 735q0 -117 -17 -226t-54.5 -208t-91.5 -173t-134 -117.5t-176 -43.5q-90 0 -161.5 55.5t-108.5 144t-37 189.5q0 122 48 227.5t137.5 170.5t199.5 65q130 0 247 -57q-1 85 -6.5 158t-18.5 150t-37 136.5t-59 107.5t-87 73.5t-117 25.5q-83 0 -209 -59l-49 108
q91 41 258 41q96 0 176 -43.5t134 -117.5t91.5 -173t54.5 -208t17 -226zM657 659q-118 70 -247 70q-78 0 -133.5 -55.5t-80 -138t-24.5 -179.5q0 -58 8 -108t25 -94.5t49.5 -70.5t77.5 -26q62 0 112 23t84.5 66.5t59 98t39 125t21.5 139.5t9 150z" />
    <glyph glyph-name="summation" unicode="&#x2211;" horiz-adv-x="1198" 
d="M1030 -252h-860v148l229 749l-229 748v147h860v-147h-706l229 -748l-229 -749h706v-148z" />
    <glyph glyph-name="minus" unicode="&#x2212;" horiz-adv-x="980" 
d="M868 453h-755v118h755v-118z" />
    <glyph glyph-name="minusplus" unicode="&#x2213;" horiz-adv-x="980" 
d="M868 334h-319v-320h-119v320h-317v119h317v317h119v-317h319v-119zM868 905h-755v119h755v-119z" />
    <glyph glyph-name="fraction.alt" unicode="&#x2215;" horiz-adv-x="0" 
d="M420 1440l-742 -1491h-96l742 1491h96z" />
    <glyph glyph-name="asterisk.math" unicode="&#x2217;" horiz-adv-x="849" 
d="M737 553l-219 -84l135 -225l-98 -84l-129 231l-133 -231l-98 84l135 225l-217 84l41 135l211 -94v270h120v-270l211 94z" />
    <glyph glyph-name="radical" unicode="&#x221a;" horiz-adv-x="921" 
d="M852 1772l-295 -1887l-371 985l-41 -45l-65 62l139 147l303 -801l244 1551z" />
    <glyph glyph-name="infinity" unicode="&#x221e;" horiz-adv-x="1521" 
d="M1460 537q0 -169 -99.5 -293.5t-250.5 -124.5q-50 0 -93.5 17t-75 42t-62 67t-51 79.5t-46.5 91.5q-30 -52 -57 -91.5t-62.5 -80t-72 -66.5t-82.5 -42.5t-96 -16.5q-151 0 -251 124.5t-100 293.5q0 109 44 203.5t125.5 153t181.5 58.5q50 0 93.5 -17t74.5 -42t61.5 -67
t51 -79t46.5 -92q38 66 73 113.5t80.5 92t100.5 68t117 23.5q100 0 181.5 -58.5t125 -153t43.5 -203.5zM700 586q-57 105 -123 162t-165 57q-115 0 -196 -78t-81 -190q0 -141 67 -206t210 -65q24 0 47 9t41 20.5t40.5 37.5t36 43t37 56.5t34 58t35.5 64.5q11 21 17 31z
M1386 537q0 139 -66.5 203.5t-209.5 64.5q-33 0 -64.5 -16t-57 -42t-53 -66t-49.5 -79t-50 -89q-10 -19 -15 -28q57 -105 123.5 -162t165.5 -57q114 0 195 78.5t81 192.5z" />
    </font>
</defs>
</svg>
