<svg width="128" height="128" viewBox="0 0 128 128" fill="none" xmlns="http://www.w3.org/2000/svg">
<path d="M63.9998 0.289978C28.8698 0.289978 0.289785 28.87 0.279785 64C0.289785 99.13 28.8698 127.71 63.9998 127.71C99.1298 127.71 127.71 99.12 127.71 64C127.71 28.87 99.1298 0.289978 63.9998 0.289978ZM89.1998 85.25C82.9598 83.4 75.7998 82.16 67.6098 81.87V67.61H91.7898C91.5298 74.23 90.5798 80.06 89.1998 85.25ZM38.7498 42.74C45.0098 44.6 52.1798 45.85 60.3898 46.14V60.39H36.1598C36.4098 53.76 37.3598 47.93 38.7498 42.74ZM36.2198 67.61H60.3898V81.86C52.2198 82.15 45.0798 83.38 38.8398 85.23C37.4398 80.04 36.4798 74.22 36.2198 67.61ZM91.7898 60.39H67.6098V46.13C75.7798 45.84 82.9198 44.61 89.1598 42.76C90.5598 47.96 91.5298 53.78 91.7898 60.39ZM120.37 60.39H99.0698C98.8098 52.86 97.7198 46.22 96.1098 40.34C101.84 37.99 106.63 35.15 110.6 32.17C116.18 40.31 119.7 49.96 120.37 60.39ZM106.14 26.48C102.75 28.99 98.6998 31.41 93.8598 33.44C89.5598 22.2 83.3198 14.38 77.7598 9.20998C88.9098 12.01 98.7098 18.16 106.14 26.48ZM86.9198 35.88C81.3398 37.52 74.9498 38.63 67.6098 38.91V10.3C73.0398 14.18 81.5598 22.1 86.9198 35.88ZM60.3898 10.22V38.91C53.0098 38.63 46.5698 37.5 40.9598 35.84C46.3298 21.94 54.9198 14.06 60.3898 10.22ZM50.2398 9.20998C44.6898 14.38 38.4498 22.2 34.1498 33.44C29.3098 31.41 25.2598 28.99 21.8698 26.48C29.2898 18.16 39.0998 12.01 50.2398 9.20998ZM17.4098 32.17C21.3798 35.14 26.1798 37.99 31.8998 40.33C30.2898 46.21 29.1998 52.85 28.9398 60.38H7.63978C8.29978 49.96 11.8298 40.31 17.4098 32.17ZM28.9398 67.61C29.1998 75.14 30.2998 81.78 31.8998 87.67C26.1698 90.01 21.3798 92.86 17.4098 95.83C11.8298 87.69 8.29979 78.04 7.62979 67.61H28.9398ZM21.8798 101.52C25.2598 99.01 29.3098 96.6 34.1598 94.56C38.4598 105.79 44.6898 113.62 50.2498 118.79C39.0998 115.99 29.2898 109.84 21.8798 101.52ZM41.0798 92.12C46.6598 90.48 53.0498 89.37 60.3798 89.09V117.71C54.9698 113.83 46.4498 105.9 41.0798 92.12ZM67.6098 117.77V89.09C74.9798 89.37 81.3998 90.49 86.9898 92.14C81.6298 106.04 73.0798 113.93 67.6098 117.77ZM77.7698 118.79C83.3198 113.62 89.5598 105.8 93.8598 94.56C98.6998 96.59 102.75 99.01 106.13 101.52C98.7098 109.84 88.9098 115.99 77.7698 118.79ZM110.6 95.83C106.63 92.86 101.83 90.01 96.1098 87.67C97.7198 81.78 98.8098 75.15 99.0698 67.61H120.37C119.71 78.04 116.18 87.69 110.6 95.83Z" fill="white"/>
</svg>
