<?xml version="1.0" standalone="no"?>
<!DOCTYPE svg PUBLIC "-//W3C//DTD SVG 1.1//EN" "http://www.w3.org/Graphics/SVG/1.1/DTD/svg11.dtd" >
<svg xmlns="http://www.w3.org/2000/svg" xmlns:xlink="http://www.w3.org/1999/xlink" version="1.1">
<metadata>
Created by FontForge 20170731 at Tue Mar 30 12:33:47 2021
 By Aleksey,,,
Nope.
</metadata>
<defs>
<font id="BaddMonoRegular" horiz-adv-x="1224" >
  <font-face 
    font-family="Badd Mono"
    font-weight="400"
    font-stretch="normal"
    units-per-em="2048"
    panose-1="0 0 0 0 0 0 0 0 0 0"
    ascent="1638"
    descent="-410"
    x-height="1432"
    cap-height="1434"
    bbox="4 -410 1221 1901"
    underline-thickness="102"
    underline-position="-307"
    unicode-range="U+000A-F03C"
  />
<missing-glyph 
d="M248 1434h874v-1434h-874v1434zM305 1393l379 -633l381 633h-760zM659 717l-368 614v-1231zM686 674l-379 -631h758zM711 717l370 -621v1239z" />
    <glyph glyph-name=".notdef" 
d="M248 1434h874v-1434h-874v1434zM305 1393l379 -633l381 633h-760zM659 717l-368 614v-1231zM686 674l-379 -631h758zM711 717l370 -621v1239z" />
    <glyph glyph-name=".null" 
 />
    <glyph glyph-name=".null" 
 />
    <glyph glyph-name="nonmarkingreturn" 
 />
    <glyph glyph-name="controlLF" unicode="&#xa;" 
 />
    <glyph glyph-name="controlCR" unicode="&#xd;" 
 />
    <glyph glyph-name="space" unicode=" " 
 />
    <glyph glyph-name="exclam" unicode="!" 
d="M527 18q-28 29 -28 76q0 48 28 79t84 31q58 0 86 -31q29 -32 29 -79q0 -45 -29 -76q-29 -30 -86 -30q-55 0 -84 30zM700 1432v-970h-183v970h183z" />
    <glyph glyph-name="quotedbl" unicode="&#x22;" 
d="M534 1106h-150v534h150v-534zM840 1106h-149v534h149v-534z" />
    <glyph glyph-name="numbersign" unicode="#" 
d="M620 0l79 404h-260l-79 -404h-141l79 404h-235v135h261l68 348h-254v137h280l81 410h141l-81 -410h260l81 410h141l-81 -410h202v-137h-229l-68 -348h223v-135h-248l-79 -404h-141zM533 887l-68 -348h260l68 348h-260z" />
    <glyph glyph-name="dollar" unicode="$" 
d="M1044 525q27 -66 27 -154q0 -85 -27 -153q-28 -69 -77 -117q-50 -49 -119 -78q-70 -30 -156 -39v-189h-147v188q-71 7 -147 36q-70 27 -125 80q-52 51 -86 132q-33 80 -33 191v161h182v-161q0 -81 25 -137q24 -54 63 -87q38 -32 88 -46q51 -14 100 -14q66 0 115 16
q51 15 87 45q34 28 54 73t20 97q1 88 -66 154q-63 62 -211 111q-94 29 -166 66t-126 89q-52 51 -81 119q-29 69 -29 154q0 84 25 150q26 69 71 117q48 52 111 80q64 29 146 40v217h146v-217q166 -23 257 -139q91 -117 93 -318v-112h-181v112q0 65 -17 122q-17 58 -47 96
q-31 39 -76 62q-46 23 -103 23q-119 0 -181 -62q-60 -60 -62 -168q0 -49 16 -87q14 -38 50 -70q38 -34 87 -59q52 -26 130 -52q89 -29 166 -68q72 -37 125 -88q52 -51 79 -116z" />
    <glyph glyph-name="percent" unicode="%" 
d="M52 1100v76q0 54 17 107q15 47 51 89q31 37 82 60q48 22 113 22q67 0 115 -22q51 -23 82 -60q36 -42 51 -89q17 -53 17 -107v-76q0 -55 -17 -106q-16 -48 -51 -88t-82 -61q-48 -22 -113 -22q-66 0 -114 22q-49 22 -83 61q-35 40 -51 88q-17 51 -17 106zM188 1176v-76
q0 -32 7 -59q8 -29 23 -50q16 -22 39 -35q25 -14 60 -14q34 0 59 14q23 13 38 35q16 24 23 50q7 27 7 59v76q0 32 -7 59q-8 29 -23 52q-14 21 -39 35q-23 13 -60 13q-36 0 -59 -13q-25 -14 -39 -35t-22 -52q-7 -27 -7 -59zM959 1206l-558 -1021l-110 61l559 1021zM644 256
v77q0 55 17 106q16 47 51 89q33 39 82 61q48 22 114 22t114 -22q51 -23 83 -61q34 -40 50 -89q18 -54 18 -106v-77q0 -52 -18 -106q-17 -50 -50 -88q-33 -37 -83 -60q-48 -22 -112 -22q-67 0 -115 22q-50 23 -83 60q-35 40 -51 88q-17 51 -17 106zM780 333v-77q0 -32 7 -59
t23 -51q13 -20 40 -35q23 -13 60 -13q35 0 58 13q25 14 39 35t22 51q7 27 7 59v77q0 32 -7 59q-8 30 -22 51q-13 20 -40 35q-25 14 -59 14q-35 0 -60 -14t-39 -35t-22 -51q-7 -27 -7 -59z" />
    <glyph glyph-name="ampersand" unicode="&#x26;" 
d="M108 210q-30 72 -30 156q0 69 19 123q19 55 56 104q39 53 84 93q50 44 110 86q-67 91 -105 169q-39 79 -39 167q0 85 25 148q26 66 71 108q48 45 112 67q63 22 145 22q70 0 127 -24q55 -23 97 -67q42 -43 62 -97q21 -55 21 -116q0 -51 -15 -95q-14 -42 -42 -80
q-27 -38 -65 -71q-44 -39 -80 -66l-93 -79l302 -396q35 64 54 137q20 75 21 162h165q0 -126 -36 -234q-35 -106 -105 -194l178 -234h-218l-81 109q-74 -62 -161 -95t-184 -33q-99 0 -176 28t-134 80q-55 51 -85 122zM398 146q48 -19 105 -19q69 0 135 26q67 27 121 73
l-318 424l-28 -24q-51 -42 -79 -78q-32 -42 -47 -73q-16 -33 -22 -62q-5 -24 -5 -47q0 -51 16 -93q14 -41 46 -76q29 -32 76 -51zM397 1184q-11 -36 -11 -74q0 -54 25 -113t68 -121l116 91q32 23 50 43q18 21 30 46q12 26 16 47t4 46q0 29 -9 58q-8 26 -28 49q-18 21 -44 35
q-25 13 -58 13q-40 0 -74 -16q-34 -18 -53 -42q-22 -28 -32 -62z" />
    <glyph glyph-name="quotesingle" unicode="'" 
d="M687 1106h-149v534h149v-534z" />
    <glyph glyph-name="parenleft" unicode="(" 
d="M481 618q0 -281 101.5 -527.5t282.5 -402.5l-84 -98q-202 174 -316 447t-114 581q0 313 116.5 587.5t322.5 447.5l83 -98q-184 -155 -288 -403.5t-104 -533.5z" />
    <glyph glyph-name="parenright" unicode=")" 
d="M435 1653q206 -173 322 -447.5t116 -587.5q0 -309 -113.5 -581.5t-315.5 -446.5l-84 98q181 156 282.5 402.5t101.5 527.5q0 284 -104.5 533t-288.5 404z" />
    <glyph glyph-name="asterisk" unicode="*" 
d="M1078 766l-357 -105l234 -341l-124 -84l-219 319l-218 -319l-124 84l234 341l-357 105l42 144l349 -103v385h149v-385l349 103z" />
    <glyph glyph-name="plus" unicode="+" 
d="M703 1187v-418h401v-182h-401v-444h-182v444h-400v182h400v418h182z" />
    <glyph glyph-name="comma" unicode="," 
d="M621 -328l-145 36l128 518l145 -36z" />
    <glyph glyph-name="hyphen" unicode="-" 
d="M989 692v-149h-753v149h753z" />
    <glyph glyph-name="period" unicode="." 
d="M478 63q-9 26 -9 53q0 30 9 56q8 24 27 44t44 30q28 11 62 11q35 0 63 -11q27 -10 45 -30q20 -22 28 -44q9 -25 9 -56q0 -28 -9 -53t-28 -44t-45 -29t-63 -10q-36 0 -62 10q-25 10 -44 29q-18 18 -27 44z" />
    <glyph glyph-name="slash" unicode="/" 
d="M993 1557l-598 -1557h-163l598 1557h163z" />
    <glyph glyph-name="zero" unicode="0" 
d="M1077 554q0 -135 -32 -243q-31 -106 -90 -178t-145 -110q-84 -37 -196 -37t-196 37q-86 38 -146 110q-61 73 -92 178q-32 108 -32 243v336q0 135 32 243q31 104 91 178t145 111q87 38 196 38t196 -38q86 -38 146 -111q60 -74 91 -178q32 -108 32 -243v-336zM331 930v-339
l559 428q-16 142 -84 217q-67 74 -194 74q-143 0 -212 -97t-69 -283zM893 516v329l-557 -427q16 -137 86 -211q69 -73 192 -73q145 0 212 98t67 284z" />
    <glyph glyph-name="one" unicode="1" 
d="M891 1443v-1433h-182v1201l-375 -143v167l542 208h15z" />
    <glyph glyph-name="two" unicode="2" 
d="M376 149h720v-149h-940v131l470 522q74 82 106 124q41 53 67 100q28 51 37 86q11 42 11 85q0 49 -18 100q-16 46 -50 81q-33 34 -80 54q-50 21 -105 21q-72 0 -125 -21t-88 -59q-36 -39 -52 -92q-17 -56 -17 -121v-131h-183v131q0 91 31 171q25 63 66 112q8 10 26 28
q60 60 145 96q83 35 197 35q101 0 182 -30q83 -31 138 -83q56 -53 86 -126t30 -158q0 -61 -22 -127q-21 -64 -58 -124q-32 -53 -86 -120q-58 -70 -103 -119z" />
    <glyph glyph-name="three" unicode="3" 
d="M1055 498q12 -50 12 -99q0 -99 -35 -178t-95 -132q-59 -52 -144 -81q-81 -28 -180 -28t-178 26q-83 27 -144 78q-60 50 -97 125q-17 35 -26 75q-10 41 -10 93v182h182v-182q0 -57 19 -102q19 -46 55 -79q35 -32 86 -50t113 -18q64 0 112 16q49 16 86 50q33 31 54 83
q20 51 20 118q0 65 -23 116q-22 48 -62 81q-41 34 -96 48q-55 16 -125 16h-130v148h130q69 0 122 18q52 18 89 52t54 77q19 47 19 100q0 125 -64 188q-66 64 -187 64q-57 0 -106 -17q-46 -16 -82 -50q-34 -32 -52 -78q-19 -46 -19 -98v-181h-183v178q0 81 32 154
q32 72 90 126q28 25 61 46q32 20 78 38q80 31 181 31q95 0 176 -26q79 -25 137 -77t89 -127t31 -175q0 -43 -13 -86q-14 -47 -39 -86q-26 -41 -69 -79q-42 -38 -99 -61q68 -22 116 -59q45 -35 75 -82q25 -40 39 -96z" />
    <glyph glyph-name="four" unicode="4" 
d="M930 495h200v-149h-200v-333h-182v333h-654v108l642 993h194v-952zM748 495v710l-29 -55l-423 -655h452z" />
    <glyph glyph-name="five" unicode="5" 
d="M1034 653q29 -86 29 -197q0 -103 -27 -190q-27 -88 -83 -151q-56 -64 -141 -100q-82 -35 -199 -35q-87 0 -165 24q-77 24 -138 74q-62 51 -100 124q-1 1 -2.5 4t-2.5 5.5t-2 4.5q-11 22 -24 65q-18 65 -18 132v145h174v-149q0 -58 17 -108q24 -68 73 -110q73 -63 188 -63
q65 0 116 23q49 23 84 66q35 44 51 103q17 62 17 134q0 68 -19 125q-19 56 -56 101q-36 44 -89 68t-122 24q-46 0 -79 -6q-31 -6 -59 -18q-27 -12 -50 -29q-28 -21 -48 -38l-145 37l71 715h736v-177h-582l-40 -382q39 22 101 43q62 19 137 19q97 0 178 -35q79 -34 134 -97
q55 -62 85 -151z" />
    <glyph glyph-name="six" unicode="6" 
d="M1042 639q23 -81 23 -172q0 -102 -28 -189q-29 -89 -84 -155q-55 -65 -139 -105q-82 -39 -193 -39q-76 0 -142 23q-64 22 -116 62q-48 37 -89 92q-38 51 -64 114q-24 57 -38 127q-13 64 -13 132v85q0 91 13 198q12 99 42 189q31 93 79 170q49 78 127 138q75 57 182 91
q108 34 246 34h15v-164h-15q-90 0 -162 -18q-69 -17 -126 -52q-56 -34 -93 -77t-64 -98q-27 -56 -40 -111q-12 -52 -17 -118q26 30 59 56q37 28 72 46q33 16 84 30q41 11 94 11q108 0 185 -40q79 -41 128 -108q50 -68 74 -152zM869 327q17 62 17 131q0 65 -16 123
q-17 61 -48 105q-34 48 -82 74q-51 28 -115 28q-45 0 -89 -15q-46 -16 -81 -41q-38 -28 -66 -64q-28 -37 -45 -83v-61q0 -96 22 -168q23 -76 61 -124q40 -51 89 -76q50 -26 105 -26q61 0 113 25q49 24 84 68q34 43 51 104z" />
    <glyph glyph-name="seven" unicode="7" 
d="M128 1447h969v-102l-594 -1332h-191l592 1275h-776v159z" />
    <glyph glyph-name="eight" unicode="8" 
d="M1051 499q17 -54 17 -113q0 -96 -36 -173q-37 -78 -97 -128q-61 -51 -144 -78q-86 -28 -178 -28q-97 0 -179 27q-84 28 -145 78q-60 50 -97 128q-36 76 -36 174q0 58 17 114q16 52 48 98q31 44 76 80q46 36 100 60q-51 26 -86 56q-36 30 -65 74q-25 37 -41 89
q-15 48 -15 102q0 94 31 166q32 74 88 124q57 51 133 77q75 26 168 26q94 0 169 -26q77 -27 135 -77q55 -47 89 -124q33 -73 33 -166q-1 -108 -58 -191q-58 -85 -153 -131q53 -23 100 -59q45 -35 77 -80q32 -46 49 -99zM390 955q16 -43 50 -77q33 -33 75 -49q47 -18 97 -18
q48 0 97 18q43 16 76 49q32 32 50 77t18 101q0 52 -19 99q-18 44 -50 78q-33 35 -76 52q-45 18 -98 18q-51 0 -96 -17q-45 -19 -75 -50q-34 -36 -49 -78q-17 -48 -17 -102q0 -58 17 -101zM866 279q20 49 20 111q0 59 -20 110q-19 48 -57 86q-37 37 -87 56q-52 20 -111 20
q-61 0 -112 -20q-49 -20 -86 -56q-33 -33 -54 -86q-19 -48 -19 -110q0 -64 19 -111q20 -51 54 -82q36 -33 87 -51t113 -18q61 0 111 18t86 51q37 34 56 82z" />
    <glyph glyph-name="nine" unicode="9" 
d="M1052 1016q11 -74 11 -141v-66q0 -92 -9 -188q-9 -93 -35 -186q-24 -84 -73 -168q-48 -81 -123 -139q-77 -59 -184 -93q-110 -35 -257 -35h-19v163h19q95 0 171 17q73 16 129 49q58 34 91 74q38 45 59 94q24 53 34 110q11 61 14 117q-23 -28 -54 -55q-33 -28 -69 -46
q-37 -19 -85 -31q-43 -11 -102 -11q-106 0 -184 42t-127 109q-50 68 -74 154t-24 172q0 104 28 192q28 89 84 157q55 67 139 108q79 39 193 39q83 0 150 -23q64 -22 117 -64q51 -41 87 -96q39 -61 60 -120q23 -65 33 -135zM882 840v59q0 97 -22 170q-23 77 -60 127
q-38 52 -88 79q-51 28 -106 28q-63 0 -113 -26q-48 -25 -83 -70q-33 -44 -52 -107q-17 -58 -17 -132q0 -69 15 -124q14 -57 48 -107q32 -49 81 -77q50 -29 115 -29q44 0 90 16q43 15 80 43q38 28 66 66q30 40 46 84z" />
    <glyph glyph-name="colon" unicode=":" 
d="M478 925q-9 25 -9 54t9 55t27 45q19 20 44 30q28 11 62 11q35 0 63 -11q27 -11 45 -30q20 -21 28 -45q9 -25 9 -55q0 -29 -9 -54t-28 -44t-45 -29t-63 -10q-36 0 -62 10q-25 10 -44 29q-18 18 -27 44zM478 63q-9 26 -9 53q0 30 9 56q8 24 27 44t44 30q28 11 62 11
q35 0 63 -11q27 -10 45 -30q20 -22 28 -44q9 -25 9 -56q0 -28 -9 -53t-28 -44t-45 -29t-63 -10q-36 0 -62 10q-25 10 -44 29q-18 18 -27 44z" />
    <glyph glyph-name="semicolon" unicode=";" 
d="M769 1043q9 -26 9 -55q0 -28 -9 -54t-27 -44t-46 -29q-26 -10 -62 -10t-62 10t-45 29q-18 18 -27 44t-9 54q0 30 9 55t27 45t45 30q26 10 62 10t62 -10q29 -11 46 -30q18 -20 27 -45zM720 190l-128 -518l-146 36l129 518z" />
    <glyph glyph-name="less" unicode="&#x3c;" 
d="M453 246l-387 386l106 106l281 281l106 -106l-206 -206h805v-150h-805l206 -205z" />
    <glyph glyph-name="equal" unicode="=" 
d="M1052 885v-159h-879v159h879zM1052 475v-158h-879v158h879z" />
    <glyph glyph-name="greater" unicode="&#x3e;" 
d="M1052 738l106 -106l-386 -386l-106 106l206 205h-806v150h806l-206 206l106 106z" />
    <glyph glyph-name="question" unicode="?" 
d="M596 204q57 0 85 -31q29 -32 29 -79q0 -45 -29 -76q-29 -30 -85 -30t-85 30q-28 29 -28 76q0 48 28 79t85 31zM1007 1236q29 -70 29 -157q0 -68 -25 -134q-24 -62 -63 -118q-43 -61 -86 -104q-42 -42 -94 -89q-27 -26 -46 -55q-17 -26 -24 -52q-9 -32 -10 -56
q-2 -40 -2 -69h-182q2 70 6 117q4 41 21 82q18 39 45 69q32 36 79 78q22 23 68 71q40 41 64 76q33 47 48 84q19 47 19 94q0 107 -62 164q-60 56 -178 56q-50 0 -90 -11q-46 -13 -78 -35t-54 -62q-21 -37 -21 -88v-217h-182v217q2 84 34 149q14 28 40 61q26 31 51 51
q60 48 133 70q78 24 167 24q102 0 178 -25q77 -25 132 -74t83 -117z" />
    <glyph glyph-name="at" unicode="@" 
d="M1122 1043q32 -122 27 -271q-3 -81 -19 -161q-17 -85 -47 -149t-83 -109q-50 -42 -123 -42q-60 0 -100 31q-39 30 -56 88q-35 -56 -85 -87q-52 -32 -112 -32q-49 0 -84 25q-34 24 -57 72q-22 45 -31 110q-8 60 -2 141q9 109 36 198q26 85 71 149q44 62 102 95t128 33
q66 0 110 -26q43 -25 69 -62l-44 -496q-3 -39 2 -66q4 -22 14 -39q8 -14 24 -19q15 -5 29 -5q37 0 65 28t46 76q19 51 29 112q9 58 11 135q4 120 -21 225q-24 99 -75 168q-52 70 -125 106t-168 36q-99 0 -182 -47q-82 -46 -142 -130q-61 -85 -95 -200q-33 -112 -38 -254
q-5 -135 19 -238q24 -106 76 -177q53 -73 133 -110q82 -38 191 -38q34 0 61 4q33 5 60 13q34 10 56 20q27 12 48 27l31 -115q-28 -21 -56 -33q-34 -15 -66 -23q-39 -10 -70 -14q-32 -4 -67 -4q-147 0 -248 50q-102 50 -169 143q-67 92 -95 218q-29 126 -24 277q5 109 24 197
q21 96 57 180t87 153q55 74 113 120q66 52 139 78q75 27 160 27q119 0 213 -47q97 -48 158 -133q64 -88 95 -208zM713 562l38 438q-26 13 -57 13q-53 0 -91 -25t-65 -71q-26 -45 -43 -112t-24 -146q-5 -102 16 -156q21 -56 69 -56q50 0 88 26q39 27 69 89z" />
    <glyph glyph-name="A" unicode="A" 
d="M966 0l-113 371h-478l-116 -371h-182l463 1434h153l454 -1434h-181zM616 1152l-192 -622h381z" />
    <glyph glyph-name="A" unicode="&#xc4;" 
d="M966 0l-113 371h-478l-116 -371h-182l463 1434h153l454 -1434h-181zM616 1152l-192 -622h381z" />
    <glyph glyph-name="A" unicode="&#xc3;" 
d="M966 0l-113 371h-478l-116 -371h-182l463 1434h153l454 -1434h-181zM616 1152l-192 -622h381z" />
    <glyph glyph-name="A" unicode="&#xc2;" 
d="M966 0l-113 371h-478l-116 -371h-182l463 1434h153l454 -1434h-181zM616 1152l-192 -622h381z" />
    <glyph glyph-name="A" unicode="&#xc1;" 
d="M966 0l-113 371h-478l-116 -371h-182l463 1434h153l454 -1434h-181zM616 1152l-192 -622h381z" />
    <glyph glyph-name="A" unicode="&#xc0;" 
d="M966 0l-113 371h-478l-116 -371h-182l463 1434h153l454 -1434h-181zM616 1152l-192 -622h381z" />
    <glyph glyph-name="B" unicode="B" 
d="M819 754h260v-754h-933v1434h426q90 -2 174 -24q86 -23 150 -68q68 -48 106 -118q39 -73 38 -172q-2 -57 -18 -103q-15 -44 -47 -83q-30 -38 -71 -65q-44 -29 -85 -47zM329 1278v-456h254q53 2 101 16q43 13 87 45q37 27 62 71q24 42 24 99q0 59 -23 102q-22 41 -62 69
q-38 26 -90 40q-47 12 -104 14h-249zM894 155v516h-565v-516h565z" />
    <glyph glyph-name="C" unicode="C" 
d="M1110 879h-183v67q0 86 -26 158q-1 2 -2.5 5.5t-1.5 5.5q-21 54 -58 98q-37 43 -89 67t-125 24q-65 0 -115 -21q-47 -20 -85 -58q-35 -35 -60 -85q-24 -48 -39 -102t-21 -111q-7 -67 -7 -110v-201q0 -44 7 -110q6 -57 21 -111q17 -61 38 -103q25 -49 60 -86
q35 -36 86 -58q50 -21 115 -21q71 0 125 23q53 23 89 63q37 42 58 97q0 2 1.5 5.5t2.5 5.5q26 72 26 157v81h183v-80q0 -71 -18 -139v-1q-11 -41 -34 -91q-40 -84 -100 -143t-145 -92q-84 -33 -188 -33q-90 0 -161 25q-75 27 -129 69q-57 45 -97 104q-41 61 -68 131
q-28 72 -41 149q-12 71 -14 158v199q2 87 14 158q13 77 41 149q27 70 68 131t97 105q54 42 129 69q73 26 161 26q108 0 192 -33q83 -33 146 -94q59 -58 98 -145q5 -12 19 -51q0 -2 2 -6.5t2 -6.5q26 -87 26 -176v-62z" />
    <glyph glyph-name="C" unicode="&#xc7;" 
d="M1110 879h-183v67q0 86 -26 158q-1 2 -2.5 5.5t-1.5 5.5q-21 54 -58 98q-37 43 -89 67t-125 24q-65 0 -115 -21q-47 -20 -85 -58q-35 -35 -60 -85q-24 -48 -39 -102t-21 -111q-7 -67 -7 -110v-201q0 -44 7 -110q6 -57 21 -111q17 -61 38 -103q25 -49 60 -86
q35 -36 86 -58q50 -21 115 -21q71 0 125 23q53 23 89 63q37 42 58 97q0 2 1.5 5.5t2.5 5.5q26 72 26 157v81h183v-80q0 -71 -18 -139v-1q-11 -41 -34 -91q-40 -84 -100 -143t-145 -92q-84 -33 -188 -33q-90 0 -161 25q-75 27 -129 69q-57 45 -97 104q-41 61 -68 131
q-28 72 -41 149q-12 71 -14 158v199q2 87 14 158q13 77 41 149q27 70 68 131t97 105q54 42 129 69q73 26 161 26q108 0 192 -33q83 -33 146 -94q59 -58 98 -145q5 -12 19 -51q0 -2 2 -6.5t2 -6.5q26 -87 26 -176v-62z" />
    <glyph glyph-name="D" unicode="D" 
d="M129 0v1434h332q147 -1 268 -51q115 -47 198 -136q80 -86 124 -209q42 -119 44 -269v-105q-2 -151 -44 -270q-44 -122 -124 -208q-83 -89 -198 -136q-118 -49 -268 -50h-332zM461 1284h-146v-1135h146q119 2 201 41q87 42 140 108q56 69 83 163q26 91 28 203v107
q-2 111 -28 202q-27 92 -83 162q-55 69 -140 108t-201 41z" />
    <glyph glyph-name="E" unicode="E" 
d="M953 817v-154h-599v-508h698v-155h-880v1434h872v-156h-690v-461h599z" />
    <glyph glyph-name="E" unicode="&#xcb;" 
d="M953 817v-154h-599v-508h698v-155h-880v1434h872v-156h-690v-461h599z" />
    <glyph glyph-name="E" unicode="&#xca;" 
d="M953 817v-154h-599v-508h698v-155h-880v1434h872v-156h-690v-461h599z" />
    <glyph glyph-name="E" unicode="&#xc9;" 
d="M953 817v-154h-599v-508h698v-155h-880v1434h872v-156h-690v-461h599z" />
    <glyph glyph-name="E" unicode="&#xc8;" 
d="M953 817v-154h-599v-508h698v-155h-880v1434h872v-156h-690v-461h599z" />
    <glyph glyph-name="F" unicode="F" 
d="M953 633h-597v-633h-184v1434h880v-156h-696v-490h597v-155z" />
    <glyph glyph-name="G" unicode="G" 
d="M645 713h468v-714h-179v45q-24 -12 -29 -14q-118 -51 -257 -50q-88 1 -163 27q-76 26 -134 72q-59 47 -103 107q-41 56 -74 135q-32 77 -46 151q-14 77 -16 160v167q2 86 14 159q13 75 41 152q26 70 69 135q41 62 99 109q53 43 131 72q73 27 163 27q102 0 185 -31
q85 -32 148 -89q60 -55 101 -139q23 -50 34 -97v-1q14 -61 14 -119v-98h-181v81q0 88 -33 166v1q-23 53 -60 90q-39 39 -88 59q-51 21 -119 21q-67 0 -115 -22q-51 -23 -88 -60q-38 -38 -62 -87q-26 -54 -40 -105q-15 -50 -23 -112q-7 -53 -7 -110v-169q2 -58 10 -111
q10 -64 26 -113q18 -56 45 -105q25 -45 67 -86q39 -37 90 -60q49 -21 116 -23q37 -2 78 3q42 5 79 16t72 32q33 20 56 53v321h-289v154z" />
    <glyph glyph-name="H" unicode="H" 
d="M1078 1434v-1434h-172v663h-588v-663h-171v1434h171v-617h588v617h172z" />
    <glyph glyph-name="I" unicode="I" 
d="M179 1275v159h867v-159h-344v-1117h344v-158h-867v158h336v1117h-336z" />
    <glyph glyph-name="I" unicode="&#xcf;" 
d="M179 1275v159h867v-159h-344v-1117h344v-158h-867v158h336v1117h-336z" />
    <glyph glyph-name="I" unicode="&#xce;" 
d="M179 1275v159h867v-159h-344v-1117h344v-158h-867v158h336v1117h-336z" />
    <glyph glyph-name="I" unicode="&#xcd;" 
d="M179 1275v159h867v-159h-344v-1117h344v-158h-867v158h336v1117h-336z" />
    <glyph glyph-name="I" unicode="&#xcc;" 
d="M179 1275v159h867v-159h-344v-1117h344v-158h-867v158h336v1117h-336z" />
    <glyph glyph-name="J" unicode="J" 
d="M893 1433h186v-998q-1 -98 -38 -183q-36 -83 -98 -144q-60 -59 -146 -94q-83 -34 -184 -34q-99 0 -182 30t-143 87q-44 41 -74 92q-10 16 -23 45q-16 34 -27 74q-18 65 -18 144v130h185v-168q3 -61 24 -112q21 -52 57 -89q35 -36 88 -58q51 -21 113 -21q66 0 117 24
t87 66q35 41 55 96q20 54 21 115v998z" />
    <glyph glyph-name="K" unicode="K" 
d="M458 768l433 666h222l-535 -807l501 -627h-221l-421 527l-139 173v-700h-186v1434h186v-485z" />
    <glyph glyph-name="L" unicode="L" 
d="M353 1434v-1279h701v-155h-883v1434h182z" />
    <glyph glyph-name="M" unicode="M" 
d="M144 1434h225l234 -717l252 717h226v-1434h-177v572l15 599l-265 -772h-105l-243 751l15 -578v-572h-177v1434z" />
    <glyph glyph-name="N" unicode="N" 
d="M1077 1434v-1434h-186l-556 1071l-3 -1071h-184v1434h185l557 -1070l2 1070h185z" />
    <glyph glyph-name="N" unicode="&#xd1;" 
d="M1077 1434v-1434h-186l-556 1071l-3 -1071h-184v1434h185l557 -1070l2 1070h185z" />
    <glyph glyph-name="O" unicode="O" 
d="M1112 633q-2 -81 -13 -155q-11 -75 -38 -151q-25 -72 -66 -136q-40 -63 -95 -110t-126 -74q-72 -27 -160 -27t-160 27q-73 27 -127 74q-53 46 -95 111q-43 67 -67 136q-26 74 -39 151q-11 65 -13 154v164q2 81 13 155q11 75 38 151q25 72 66 136q43 67 95 112
q54 47 127 74q75 28 160 28t160 -28q73 -27 127 -74q53 -46 95 -111q41 -64 66 -136q28 -82 39 -152q11 -76 13 -155v-164zM932 633v166q-2 58 -7 107q-7 62 -20 110q-17 60 -38 104q-26 54 -59 88q-36 38 -84 60q-47 22 -112 22q-62 0 -111 -23q-48 -23 -84 -60
q-33 -34 -59 -88q-21 -44 -38 -104q-15 -54 -21 -110q-5 -49 -7 -106v-166q2 -57 7 -106q6 -58 21 -111q16 -58 39 -105q26 -54 59 -88q36 -37 84 -60q49 -23 112 -23q64 0 113 23t83 60q36 39 58 88q23 52 38 104q11 41 19 111q5 49 7 107z" />
    <glyph glyph-name="O" unicode="&#xd6;" 
d="M1112 633q-2 -81 -13 -155q-11 -75 -38 -151q-25 -72 -66 -136q-40 -63 -95 -110t-126 -74q-72 -27 -160 -27t-160 27q-73 27 -127 74q-53 46 -95 111q-43 67 -67 136q-26 74 -39 151q-11 65 -13 154v164q2 81 13 155q11 75 38 151q25 72 66 136q43 67 95 112
q54 47 127 74q75 28 160 28t160 -28q73 -27 127 -74q53 -46 95 -111q41 -64 66 -136q28 -82 39 -152q11 -76 13 -155v-164zM932 633v166q-2 58 -7 107q-7 62 -20 110q-17 60 -38 104q-26 54 -59 88q-36 38 -84 60q-47 22 -112 22q-62 0 -111 -23q-48 -23 -84 -60
q-33 -34 -59 -88q-21 -44 -38 -104q-15 -54 -21 -110q-5 -49 -7 -106v-166q2 -57 7 -106q6 -58 21 -111q16 -58 39 -105q26 -54 59 -88q36 -37 84 -60q49 -23 112 -23q64 0 113 23t83 60q36 39 58 88q23 52 38 104q11 41 19 111q5 49 7 107z" />
    <glyph glyph-name="O" unicode="&#xd5;" 
d="M1112 633q-2 -81 -13 -155q-11 -75 -38 -151q-25 -72 -66 -136q-40 -63 -95 -110t-126 -74q-72 -27 -160 -27t-160 27q-73 27 -127 74q-53 46 -95 111q-43 67 -67 136q-26 74 -39 151q-11 65 -13 154v164q2 81 13 155q11 75 38 151q25 72 66 136q43 67 95 112
q54 47 127 74q75 28 160 28t160 -28q73 -27 127 -74q53 -46 95 -111q41 -64 66 -136q28 -82 39 -152q11 -76 13 -155v-164zM932 633v166q-2 58 -7 107q-7 62 -20 110q-17 60 -38 104q-26 54 -59 88q-36 38 -84 60q-47 22 -112 22q-62 0 -111 -23q-48 -23 -84 -60
q-33 -34 -59 -88q-21 -44 -38 -104q-15 -54 -21 -110q-5 -49 -7 -106v-166q2 -57 7 -106q6 -58 21 -111q16 -58 39 -105q26 -54 59 -88q36 -37 84 -60q49 -23 112 -23q64 0 113 23t83 60q36 39 58 88q23 52 38 104q11 41 19 111q5 49 7 107z" />
    <glyph glyph-name="O" unicode="&#xd4;" 
d="M1112 633q-2 -81 -13 -155q-11 -75 -38 -151q-25 -72 -66 -136q-40 -63 -95 -110t-126 -74q-72 -27 -160 -27t-160 27q-73 27 -127 74q-53 46 -95 111q-43 67 -67 136q-26 74 -39 151q-11 65 -13 154v164q2 81 13 155q11 75 38 151q25 72 66 136q43 67 95 112
q54 47 127 74q75 28 160 28t160 -28q73 -27 127 -74q53 -46 95 -111q41 -64 66 -136q28 -82 39 -152q11 -76 13 -155v-164zM932 633v166q-2 58 -7 107q-7 62 -20 110q-17 60 -38 104q-26 54 -59 88q-36 38 -84 60q-47 22 -112 22q-62 0 -111 -23q-48 -23 -84 -60
q-33 -34 -59 -88q-21 -44 -38 -104q-15 -54 -21 -110q-5 -49 -7 -106v-166q2 -57 7 -106q6 -58 21 -111q16 -58 39 -105q26 -54 59 -88q36 -37 84 -60q49 -23 112 -23q64 0 113 23t83 60q36 39 58 88q23 52 38 104q11 41 19 111q5 49 7 107z" />
    <glyph glyph-name="O" unicode="&#xd3;" 
d="M1112 633q-2 -81 -13 -155q-11 -75 -38 -151q-25 -72 -66 -136q-40 -63 -95 -110t-126 -74q-72 -27 -160 -27t-160 27q-73 27 -127 74q-53 46 -95 111q-43 67 -67 136q-26 74 -39 151q-11 65 -13 154v164q2 81 13 155q11 75 38 151q25 72 66 136q43 67 95 112
q54 47 127 74q75 28 160 28t160 -28q73 -27 127 -74q53 -46 95 -111q41 -64 66 -136q28 -82 39 -152q11 -76 13 -155v-164zM932 633v166q-2 58 -7 107q-7 62 -20 110q-17 60 -38 104q-26 54 -59 88q-36 38 -84 60q-47 22 -112 22q-62 0 -111 -23q-48 -23 -84 -60
q-33 -34 -59 -88q-21 -44 -38 -104q-15 -54 -21 -110q-5 -49 -7 -106v-166q2 -57 7 -106q6 -58 21 -111q16 -58 39 -105q26 -54 59 -88q36 -37 84 -60q49 -23 112 -23q64 0 113 23t83 60q36 39 58 88q23 52 38 104q11 41 19 111q5 49 7 107z" />
    <glyph glyph-name="O" unicode="&#xd2;" 
d="M1112 633q-2 -81 -13 -155q-11 -75 -38 -151q-25 -72 -66 -136q-40 -63 -95 -110t-126 -74q-72 -27 -160 -27t-160 27q-73 27 -127 74q-53 46 -95 111q-43 67 -67 136q-26 74 -39 151q-11 65 -13 154v164q2 81 13 155q11 75 38 151q25 72 66 136q43 67 95 112
q54 47 127 74q75 28 160 28t160 -28q73 -27 127 -74q53 -46 95 -111q41 -64 66 -136q28 -82 39 -152q11 -76 13 -155v-164zM932 633v166q-2 58 -7 107q-7 62 -20 110q-17 60 -38 104q-26 54 -59 88q-36 38 -84 60q-47 22 -112 22q-62 0 -111 -23q-48 -23 -84 -60
q-33 -34 -59 -88q-21 -44 -38 -104q-15 -54 -21 -110q-5 -49 -7 -106v-166q2 -57 7 -106q6 -58 21 -111q16 -58 39 -105q26 -54 59 -88q36 -37 84 -60q49 -23 112 -23q64 0 113 23t83 60q36 39 58 88q23 52 38 104q11 41 19 111q5 49 7 107z" />
    <glyph glyph-name="P" unicode="P" 
d="M325 575v-575h-182v1434h464q94 -1 183 -31q86 -29 151 -83q66 -55 103 -134q38 -81 38 -183q0 -101 -38 -182q-37 -79 -103 -134q-63 -53 -151 -82q-85 -28 -183 -30h-282zM325 1284v-559h282q67 2 117 20q54 20 92 55q41 37 62 86q22 50 22 115q0 67 -22 118
q-22 52 -61 88q-40 37 -93 56q-54 19 -117 21h-282z" />
    <glyph glyph-name="Q" unicode="Q" 
d="M1099 478q-11 -75 -38 -151q-18 -52 -43 -97l94 -95l-106 -105l-77 77q-14 -14 -29 -26q-55 -47 -126 -74q-72 -27 -160 -27t-160 27q-73 27 -127 74q-53 46 -95 111q-43 67 -67 136q-26 74 -39 151q-11 65 -13 154v164q2 81 13 155q11 75 38 151q25 72 66 136
q43 67 95 112q54 47 127 74q75 28 160 28t160 -28q73 -27 127 -74q53 -46 95 -111q41 -64 66 -136q28 -82 39 -152q11 -76 13 -155v-164q-2 -81 -13 -155zM726 522l162 -163q10 26 18 56q11 41 19 111q5 49 7 107v166q-2 58 -7 107q-7 62 -20 110q-17 60 -38 104
q-26 54 -59 88q-36 38 -84 60q-47 22 -112 22q-62 0 -111 -23q-48 -23 -84 -60q-33 -34 -59 -88q-21 -44 -38 -104q-15 -54 -21 -110q-5 -49 -7 -106v-166q2 -57 7 -106q6 -58 21 -111q16 -58 39 -105q26 -54 59 -88q36 -37 84 -60q49 -23 112 -23q64 0 113 23t83 60l1 1
l-191 192z" />
    <glyph glyph-name="R" unicode="R" 
d="M859 667h224v-667h-181v583h-580v-583h-181v1434h421q99 -1 189 -29q88 -27 155 -80q66 -53 104 -133q38 -82 38 -189q0 -68 -20 -128q-18 -55 -56 -105q-41 -52 -84 -84q-9 -7 -29 -19zM322 1284v-550h245q59 1 115 20t95 52t64 85q24 49 24 114q0 69 -23 121
q-24 53 -63 87q-40 34 -96 52q-54 17 -121 19h-240z" />
    <glyph glyph-name="S" unicode="S" 
d="M1092 480q18 -52 18 -116q0 -98 -43 -169q-42 -70 -111 -119q-68 -48 -153 -72t-171 -24q-100 0 -188 29q-92 30 -163 85q-74 57 -118 136q-44 78 -48 170v13v169h186v-137q0 -59 19 -112q9 -25 17 -39q28 -52 71 -88q44 -36 100 -54q57 -18 124 -18q55 0 104 13
q52 14 92 42q41 29 66 71q26 44 26 102q0 66 -30 111q-29 43 -77 76q-44 30 -104 52q-51 19 -109 37q-71 22 -154 59q-76 34 -143 85q-64 49 -105 119t-41 161t41 165q40 73 107 123q69 52 149 76q89 27 169 27q94 0 180 -31q82 -30 153 -88q67 -55 108 -136q41 -80 42 -178
v-141h-187v106q0 66 -20 122q-6 18 -10 26q-22 49 -61 87q-40 38 -89 57q-52 20 -116 20q-53 0 -102 -15q-52 -16 -89 -44q-40 -31 -62 -73q-23 -44 -23 -100q1 -61 32 -105q29 -42 77 -73q44 -28 101 -49q37 -13 103 -34q48 -15 107 -38q53 -21 105 -49q47 -26 93 -62
q42 -34 76 -78q32 -43 51 -97z" />
    <glyph glyph-name="T" unicode="T" 
d="M1144 1434v-156h-443v-1278h-177v1278h-443v156h1063z" />
    <glyph glyph-name="U" unicode="U" 
d="M1079 1433l2 -971q-1 -98 -37 -188q-34 -87 -96 -153t-148 -104q-84 -37 -188 -37q-106 0 -190 37q-86 38 -147 103t-95 153q-34 89 -36 189l2 971h173l4 -971q1 -64 21 -123q20 -60 55 -104q38 -47 89 -73q56 -28 124 -28q70 0 123 27q54 28 89 73q38 49 55 105
q19 60 20 123l3 971h177z" />
    <glyph glyph-name="U" unicode="&#xdc;" 
d="M1079 1433l2 -971q-1 -98 -37 -188q-34 -87 -96 -153t-148 -104q-84 -37 -188 -37q-106 0 -190 37q-86 38 -147 103t-95 153q-34 89 -36 189l2 971h173l4 -971q1 -64 21 -123q20 -60 55 -104q38 -47 89 -73q56 -28 124 -28q70 0 123 27q54 28 89 73q38 49 55 105
q19 60 20 123l3 971h177z" />
    <glyph glyph-name="U" unicode="&#xdb;" 
d="M1079 1433l2 -971q-1 -98 -37 -188q-34 -87 -96 -153t-148 -104q-84 -37 -188 -37q-106 0 -190 37q-86 38 -147 103t-95 153q-34 89 -36 189l2 971h173l4 -971q1 -64 21 -123q20 -60 55 -104q38 -47 89 -73q56 -28 124 -28q70 0 123 27q54 28 89 73q38 49 55 105
q19 60 20 123l3 971h177z" />
    <glyph glyph-name="U" unicode="&#xda;" 
d="M1079 1433l2 -971q-1 -98 -37 -188q-34 -87 -96 -153t-148 -104q-84 -37 -188 -37q-106 0 -190 37q-86 38 -147 103t-95 153q-34 89 -36 189l2 971h173l4 -971q1 -64 21 -123q20 -60 55 -104q38 -47 89 -73q56 -28 124 -28q70 0 123 27q54 28 89 73q38 49 55 105
q19 60 20 123l3 971h177z" />
    <glyph glyph-name="U" unicode="&#xd9;" 
d="M1079 1433l2 -971q-1 -98 -37 -188q-34 -87 -96 -153t-148 -104q-84 -37 -188 -37q-106 0 -190 37q-86 38 -147 103t-95 153q-34 89 -36 189l2 971h173l4 -971q1 -64 21 -123q20 -60 55 -104q38 -47 89 -73q56 -28 124 -28q70 0 123 27q54 28 89 73q38 49 55 105
q19 60 20 123l3 971h177z" />
    <glyph glyph-name="V" unicode="V" 
d="M276 1434l335 -1141l339 1141h194l-452 -1434h-158l-453 1434h195z" />
    <glyph glyph-name="W" unicode="W" 
d="M692 1434l185 -1046l109 1046h172l-174 -1434h-186l-184 1080l-186 -1080h-187l-175 1434h174l109 -1046l184 1046h159z" />
    <glyph glyph-name="X" unicode="X" 
d="M305 1434l305 -563l310 563h214l-416 -711l426 -723h-213l-317 573l-318 -573h-215l427 723l-417 711h214z" />
    <glyph glyph-name="Y" unicode="Y" 
d="M286 1434l326 -720l327 720h207l-446 -899l-3 -535h-169l-3 535l-446 899h207z" />
    <glyph glyph-name="Y" unicode="&#xdd;" 
d="M286 1434l326 -720l327 720h207l-446 -899l-3 -535h-169l-3 535l-446 899h207z" />
    <glyph glyph-name="Z" unicode="Z" 
d="M1061 1295l-716 -1140h742v-155h-948l-2 142l714 1136h-701v156h909z" />
    <glyph glyph-name="backslash" unicode="\" 
d="M395 1557l599 -1557h-165l-598 1557h164z" />
    <glyph glyph-name="a" unicode="a" 
d="M966 0l-113 371h-478l-116 -371h-182l463 1434h153l454 -1434h-181zM616 1152l-192 -622h381z" />
    <glyph glyph-name="a" unicode="&#xe5;" 
d="M966 0l-113 371h-478l-116 -371h-182l463 1434h153l454 -1434h-181zM616 1152l-192 -622h381z" />
    <glyph glyph-name="a" unicode="&#xe4;" 
d="M966 0l-113 371h-478l-116 -371h-182l463 1434h153l454 -1434h-181zM616 1152l-192 -622h381z" />
    <glyph glyph-name="a" unicode="&#xe3;" 
d="M966 0l-113 371h-478l-116 -371h-182l463 1434h153l454 -1434h-181zM616 1152l-192 -622h381z" />
    <glyph glyph-name="a" unicode="&#xe2;" 
d="M966 0l-113 371h-478l-116 -371h-182l463 1434h153l454 -1434h-181zM616 1152l-192 -622h381z" />
    <glyph glyph-name="a" unicode="&#xe1;" 
d="M966 0l-113 371h-478l-116 -371h-182l463 1434h153l454 -1434h-181zM616 1152l-192 -622h381z" />
    <glyph glyph-name="a" unicode="&#xe0;" 
d="M966 0l-113 371h-478l-116 -371h-182l463 1434h153l454 -1434h-181zM616 1152l-192 -622h381z" />
    <glyph glyph-name="b" unicode="b" 
d="M819 754h260v-754h-933v1434h426q90 -2 174 -24q86 -23 150 -68q68 -48 106 -118q39 -73 38 -172q-2 -57 -18 -103q-15 -44 -47 -83q-30 -38 -71 -65q-44 -29 -85 -47zM329 1278v-456h254q53 2 101 16q43 13 87 45q37 27 62 71q24 42 24 99q0 59 -23 102q-22 41 -62 69
q-38 26 -90 40q-47 12 -104 14h-249zM894 155v516h-565v-516h565z" />
    <glyph glyph-name="c" unicode="c" 
d="M1110 879h-183v67q0 86 -26 158q-1 2 -2.5 5.5t-1.5 5.5q-21 54 -58 98q-37 43 -89 67t-125 24q-65 0 -115 -21q-47 -20 -85 -58q-35 -35 -60 -85q-24 -48 -39 -102t-21 -111q-7 -67 -7 -110v-201q0 -44 7 -110q6 -57 21 -111q17 -61 38 -103q25 -49 60 -86
q35 -36 86 -58q50 -21 115 -21q71 0 125 23q53 23 89 63q37 42 58 97q0 2 1.5 5.5t2.5 5.5q26 72 26 157v81h183v-80q0 -71 -18 -139v-1q-11 -41 -34 -91q-40 -84 -100 -143t-145 -92q-84 -33 -188 -33q-90 0 -161 25q-75 27 -129 69q-57 45 -97 104q-41 61 -68 131
q-28 72 -41 149q-12 71 -14 158v199q2 87 14 158q13 77 41 149q27 70 68 131t97 105q54 42 129 69q73 26 161 26q108 0 192 -33q83 -33 146 -94q59 -58 98 -145q5 -12 19 -51q0 -2 2 -6.5t2 -6.5q26 -87 26 -176v-62z" />
    <glyph glyph-name="c" unicode="&#xe7;" 
d="M1110 879h-183v67q0 86 -26 158q-1 2 -2.5 5.5t-1.5 5.5q-21 54 -58 98q-37 43 -89 67t-125 24q-65 0 -115 -21q-47 -20 -85 -58q-35 -35 -60 -85q-24 -48 -39 -102t-21 -111q-7 -67 -7 -110v-201q0 -44 7 -110q6 -57 21 -111q17 -61 38 -103q25 -49 60 -86
q35 -36 86 -58q50 -21 115 -21q71 0 125 23q53 23 89 63q37 42 58 97q0 2 1.5 5.5t2.5 5.5q26 72 26 157v81h183v-80q0 -71 -18 -139v-1q-11 -41 -34 -91q-40 -84 -100 -143t-145 -92q-84 -33 -188 -33q-90 0 -161 25q-75 27 -129 69q-57 45 -97 104q-41 61 -68 131
q-28 72 -41 149q-12 71 -14 158v199q2 87 14 158q13 77 41 149q27 70 68 131t97 105q54 42 129 69q73 26 161 26q108 0 192 -33q83 -33 146 -94q59 -58 98 -145q5 -12 19 -51q0 -2 2 -6.5t2 -6.5q26 -87 26 -176v-62z" />
    <glyph glyph-name="d" unicode="d" 
d="M129 0v1434h332q147 -1 268 -51q115 -47 198 -136q80 -86 124 -209q42 -119 44 -269v-105q-2 -151 -44 -270q-44 -122 -124 -208q-83 -89 -198 -136q-118 -49 -268 -50h-332zM461 1284h-146v-1135h146q119 2 201 41q87 42 140 108q56 69 83 163q26 91 28 203v107
q-2 111 -28 202q-27 92 -83 162q-55 69 -140 108t-201 41z" />
    <glyph glyph-name="e" unicode="e" 
d="M953 817v-154h-599v-508h698v-155h-880v1434h872v-156h-690v-461h599z" />
    <glyph glyph-name="e" unicode="&#xeb;" 
d="M953 817v-154h-599v-508h698v-155h-880v1434h872v-156h-690v-461h599z" />
    <glyph glyph-name="e" unicode="&#xea;" 
d="M953 817v-154h-599v-508h698v-155h-880v1434h872v-156h-690v-461h599z" />
    <glyph glyph-name="e" unicode="&#xe9;" 
d="M953 817v-154h-599v-508h698v-155h-880v1434h872v-156h-690v-461h599z" />
    <glyph glyph-name="e" unicode="&#xe8;" 
d="M953 817v-154h-599v-508h698v-155h-880v1434h872v-156h-690v-461h599z" />
    <glyph glyph-name="f" unicode="f" 
d="M953 633h-597v-633h-184v1434h880v-156h-696v-490h597v-155z" />
    <glyph glyph-name="g" unicode="g" 
d="M645 713h468v-714h-179v45q-24 -12 -29 -14q-118 -51 -257 -50q-88 1 -163 27q-76 26 -134 72q-59 47 -103 107q-41 56 -74 135q-32 77 -46 151q-14 77 -16 160v167q2 86 14 159q13 75 41 152q26 70 69 135q41 62 99 109q53 43 131 72q73 27 163 27q102 0 185 -31
q85 -32 148 -89q60 -55 101 -139q23 -50 34 -97v-1q14 -61 14 -119v-98h-181v81q0 88 -33 166v1q-23 53 -60 90q-39 39 -88 59q-51 21 -119 21q-67 0 -115 -22q-51 -23 -88 -60q-38 -38 -62 -87q-26 -54 -40 -105q-15 -50 -23 -112q-7 -53 -7 -110v-169q2 -58 10 -111
q10 -64 26 -113q18 -56 45 -105q25 -45 67 -86q39 -37 90 -60q49 -21 116 -23q37 -2 78 3q42 5 79 16t72 32q33 20 56 53v321h-289v154z" />
    <glyph glyph-name="h" unicode="h" 
d="M1078 1434v-1434h-172v663h-588v-663h-171v1434h171v-617h588v617h172z" />
    <glyph glyph-name="i" unicode="i" 
d="M179 1275v159h867v-159h-344v-1117h344v-158h-867v158h336v1117h-336z" />
    <glyph glyph-name="i" unicode="&#xef;" 
d="M179 1275v159h867v-159h-344v-1117h344v-158h-867v158h336v1117h-336z" />
    <glyph glyph-name="i" unicode="&#xee;" 
d="M179 1275v159h867v-159h-344v-1117h344v-158h-867v158h336v1117h-336z" />
    <glyph glyph-name="i" unicode="&#xed;" 
d="M179 1275v159h867v-159h-344v-1117h344v-158h-867v158h336v1117h-336z" />
    <glyph glyph-name="i" unicode="&#xec;" 
d="M179 1275v159h867v-159h-344v-1117h344v-158h-867v158h336v1117h-336z" />
    <glyph glyph-name="j" unicode="j" 
d="M893 1433h186v-998q-1 -98 -38 -183q-36 -83 -98 -144q-60 -59 -146 -94q-83 -34 -184 -34q-99 0 -182 30t-143 87q-44 41 -74 92q-10 16 -23 45q-16 34 -27 74q-18 65 -18 144v109h185v-147q3 -61 24 -112q21 -52 57 -89q35 -36 88 -58q51 -21 113 -21q66 0 117 24
t87 66q35 41 55 96q20 54 21 115v998z" />
    <glyph glyph-name="k" unicode="k" 
d="M458 768l433 666h222l-535 -807l501 -627h-221l-421 527l-139 173v-700h-186v1434h186v-485z" />
    <glyph glyph-name="l" unicode="l" 
d="M353 1434v-1279h701v-155h-883v1434h182z" />
    <glyph glyph-name="m" unicode="m" 
d="M144 1434h225l234 -717l252 717h226v-1434h-177v572l15 599l-265 -772h-105l-243 751l15 -578v-572h-177v1434z" />
    <glyph glyph-name="n" unicode="n" 
d="M1077 0h-186l-556 1071l-3 -1071h-184v1434h185l557 -1070l2 1070h185v-1434z" />
    <glyph glyph-name="n" unicode="&#xf1;" 
d="M1077 0h-186l-556 1071l-3 -1071h-184v1434h185l557 -1070l2 1070h185v-1434z" />
    <glyph glyph-name="o" unicode="o" 
d="M1112 634q-2 -81 -13 -155q-11 -75 -38 -151q-25 -72 -66 -136q-40 -63 -95 -110q-57 -49 -126 -75q-72 -27 -160 -27t-160 27q-71 27 -127 75q-55 47 -95 110q-42 66 -67 137q-26 74 -39 151q-11 65 -13 154v164q2 81 13 155q11 75 38 151q25 72 66 136q42 65 95 111
q56 48 127 75q72 27 160 27t160 -27q73 -27 127 -74q53 -46 95 -111q41 -64 66 -136q28 -82 39 -152q11 -76 13 -155v-164zM932 634v166q-2 57 -7 106q-7 64 -20 111q-17 60 -38 104q-26 54 -59 88q-36 37 -84 60q-47 22 -112 22q-62 0 -111 -23q-48 -22 -84 -60
q-33 -34 -59 -88q-21 -44 -38 -104q-15 -53 -21 -111q-5 -49 -7 -105v-166q2 -57 7 -106q6 -58 21 -111q16 -58 39 -105q26 -54 59 -88q38 -39 84 -61q47 -22 112 -22q66 0 113 22t83 61t58 88q23 52 38 104q11 41 19 111q5 49 7 107z" />
    <glyph glyph-name="o" unicode="&#xf8;" 
d="M1112 634q-2 -81 -13 -155q-11 -75 -38 -151q-25 -72 -66 -136q-40 -63 -95 -110q-57 -49 -126 -75q-72 -27 -160 -27t-160 27q-71 27 -127 75q-55 47 -95 110q-42 66 -67 137q-26 74 -39 151q-11 65 -13 154v164q2 81 13 155q11 75 38 151q25 72 66 136q42 65 95 111
q56 48 127 75q72 27 160 27t160 -27q73 -27 127 -74q53 -46 95 -111q41 -64 66 -136q28 -82 39 -152q11 -76 13 -155v-164zM932 634v166q-2 57 -7 106q-7 64 -20 111q-17 60 -38 104q-26 54 -59 88q-36 37 -84 60q-47 22 -112 22q-62 0 -111 -23q-48 -22 -84 -60
q-33 -34 -59 -88q-21 -44 -38 -104q-15 -53 -21 -111q-5 -49 -7 -105v-166q2 -57 7 -106q6 -58 21 -111q16 -58 39 -105q26 -54 59 -88q38 -39 84 -61q47 -22 112 -22q66 0 113 22t83 61t58 88q23 52 38 104q11 41 19 111q5 49 7 107z" />
    <glyph glyph-name="o" unicode="&#xf6;" 
d="M1112 634q-2 -81 -13 -155q-11 -75 -38 -151q-25 -72 -66 -136q-40 -63 -95 -110q-57 -49 -126 -75q-72 -27 -160 -27t-160 27q-71 27 -127 75q-55 47 -95 110q-42 66 -67 137q-26 74 -39 151q-11 65 -13 154v164q2 81 13 155q11 75 38 151q25 72 66 136q42 65 95 111
q56 48 127 75q72 27 160 27t160 -27q73 -27 127 -74q53 -46 95 -111q41 -64 66 -136q28 -82 39 -152q11 -76 13 -155v-164zM932 634v166q-2 57 -7 106q-7 64 -20 111q-17 60 -38 104q-26 54 -59 88q-36 37 -84 60q-47 22 -112 22q-62 0 -111 -23q-48 -22 -84 -60
q-33 -34 -59 -88q-21 -44 -38 -104q-15 -53 -21 -111q-5 -49 -7 -105v-166q2 -57 7 -106q6 -58 21 -111q16 -58 39 -105q26 -54 59 -88q38 -39 84 -61q47 -22 112 -22q66 0 113 22t83 61t58 88q23 52 38 104q11 41 19 111q5 49 7 107z" />
    <glyph glyph-name="o" unicode="&#xf5;" 
d="M1112 634q-2 -81 -13 -155q-11 -75 -38 -151q-25 -72 -66 -136q-40 -63 -95 -110q-57 -49 -126 -75q-72 -27 -160 -27t-160 27q-71 27 -127 75q-55 47 -95 110q-42 66 -67 137q-26 74 -39 151q-11 65 -13 154v164q2 81 13 155q11 75 38 151q25 72 66 136q42 65 95 111
q56 48 127 75q72 27 160 27t160 -27q73 -27 127 -74q53 -46 95 -111q41 -64 66 -136q28 -82 39 -152q11 -76 13 -155v-164zM932 634v166q-2 57 -7 106q-7 64 -20 111q-17 60 -38 104q-26 54 -59 88q-36 37 -84 60q-47 22 -112 22q-62 0 -111 -23q-48 -22 -84 -60
q-33 -34 -59 -88q-21 -44 -38 -104q-15 -53 -21 -111q-5 -49 -7 -105v-166q2 -57 7 -106q6 -58 21 -111q16 -58 39 -105q26 -54 59 -88q38 -39 84 -61q47 -22 112 -22q66 0 113 22t83 61t58 88q23 52 38 104q11 41 19 111q5 49 7 107z" />
    <glyph glyph-name="o" unicode="&#xf4;" 
d="M1112 634q-2 -81 -13 -155q-11 -75 -38 -151q-25 -72 -66 -136q-40 -63 -95 -110q-57 -49 -126 -75q-72 -27 -160 -27t-160 27q-71 27 -127 75q-55 47 -95 110q-42 66 -67 137q-26 74 -39 151q-11 65 -13 154v164q2 81 13 155q11 75 38 151q25 72 66 136q42 65 95 111
q56 48 127 75q72 27 160 27t160 -27q73 -27 127 -74q53 -46 95 -111q41 -64 66 -136q28 -82 39 -152q11 -76 13 -155v-164zM932 634v166q-2 57 -7 106q-7 64 -20 111q-17 60 -38 104q-26 54 -59 88q-36 37 -84 60q-47 22 -112 22q-62 0 -111 -23q-48 -22 -84 -60
q-33 -34 -59 -88q-21 -44 -38 -104q-15 -53 -21 -111q-5 -49 -7 -105v-166q2 -57 7 -106q6 -58 21 -111q16 -58 39 -105q26 -54 59 -88q38 -39 84 -61q47 -22 112 -22q66 0 113 22t83 61t58 88q23 52 38 104q11 41 19 111q5 49 7 107z" />
    <glyph glyph-name="o" unicode="&#xf3;" 
d="M1112 634q-2 -81 -13 -155q-11 -75 -38 -151q-25 -72 -66 -136q-40 -63 -95 -110q-57 -49 -126 -75q-72 -27 -160 -27t-160 27q-71 27 -127 75q-55 47 -95 110q-42 66 -67 137q-26 74 -39 151q-11 65 -13 154v164q2 81 13 155q11 75 38 151q25 72 66 136q42 65 95 111
q56 48 127 75q72 27 160 27t160 -27q73 -27 127 -74q53 -46 95 -111q41 -64 66 -136q28 -82 39 -152q11 -76 13 -155v-164zM932 634v166q-2 57 -7 106q-7 64 -20 111q-17 60 -38 104q-26 54 -59 88q-36 37 -84 60q-47 22 -112 22q-62 0 -111 -23q-48 -22 -84 -60
q-33 -34 -59 -88q-21 -44 -38 -104q-15 -53 -21 -111q-5 -49 -7 -105v-166q2 -57 7 -106q6 -58 21 -111q16 -58 39 -105q26 -54 59 -88q38 -39 84 -61q47 -22 112 -22q66 0 113 22t83 61t58 88q23 52 38 104q11 41 19 111q5 49 7 107z" />
    <glyph glyph-name="o" unicode="&#xf2;" 
d="M1112 634q-2 -81 -13 -155q-11 -75 -38 -151q-25 -72 -66 -136q-40 -63 -95 -110q-57 -49 -126 -75q-72 -27 -160 -27t-160 27q-71 27 -127 75q-55 47 -95 110q-42 66 -67 137q-26 74 -39 151q-11 65 -13 154v164q2 81 13 155q11 75 38 151q25 72 66 136q42 65 95 111
q56 48 127 75q72 27 160 27t160 -27q73 -27 127 -74q53 -46 95 -111q41 -64 66 -136q28 -82 39 -152q11 -76 13 -155v-164zM932 634v166q-2 57 -7 106q-7 64 -20 111q-17 60 -38 104q-26 54 -59 88q-36 37 -84 60q-47 22 -112 22q-62 0 -111 -23q-48 -22 -84 -60
q-33 -34 -59 -88q-21 -44 -38 -104q-15 -53 -21 -111q-5 -49 -7 -105v-166q2 -57 7 -106q6 -58 21 -111q16 -58 39 -105q26 -54 59 -88q38 -39 84 -61q47 -22 112 -22q66 0 113 22t83 61t58 88q23 52 38 104q11 41 19 111q5 49 7 107z" />
    <glyph glyph-name="p" unicode="p" 
d="M607 575h-282v-575h-182v1434h464q94 -1 183 -31q86 -29 151 -83q66 -55 103 -134q38 -81 38 -183q0 -101 -38 -182q-37 -79 -103 -134q-63 -53 -151 -82q-85 -28 -183 -30zM325 1284v-559h282q67 2 117 20q54 20 92 55q41 37 62 86q22 50 22 115q0 67 -22 118
q-22 52 -61 88q-40 37 -93 56q-54 19 -117 21h-282z" />
    <glyph glyph-name="q" unicode="q" 
d="M1099 479q-11 -75 -38 -151q-19 -55 -43 -98l94 -94l-106 -106l-77 78q-14 -14 -29 -26q-57 -49 -126 -75q-72 -27 -160 -27t-160 27q-71 27 -127 75q-55 47 -95 110q-42 66 -67 137q-26 74 -39 151q-11 65 -13 154v164q2 81 13 155q11 75 38 151q25 72 66 136
q42 65 95 111q56 48 127 75q72 27 160 27t160 -27q73 -27 127 -74q53 -46 95 -111q41 -64 66 -136q28 -82 39 -152q11 -76 13 -155v-164q-2 -81 -13 -155zM726 523l162 -163q10 26 18 56q11 41 19 111q5 49 7 107v166q-2 57 -7 106q-7 64 -20 111q-17 60 -38 104
q-26 54 -59 88q-36 37 -84 60q-47 22 -112 22q-62 0 -111 -23q-48 -22 -84 -60q-33 -34 -59 -88q-21 -44 -38 -104q-15 -53 -21 -111q-5 -49 -7 -105v-166q2 -57 7 -106q6 -58 21 -111q16 -58 39 -105q26 -54 59 -88q38 -39 84 -61q47 -22 112 -22q66 0 113 22t83 61l1 1
l-191 192z" />
    <glyph glyph-name="r" unicode="r" 
d="M859 667h224v-667h-181v583h-580v-583h-181v1434h421q99 -1 189 -29q88 -27 155 -80q66 -53 104 -133q38 -82 38 -189q0 -68 -20 -128q-18 -55 -56 -105q-41 -52 -84 -84q-9 -7 -29 -19zM322 1284v-549h245q63 2 115 19q56 19 95 52t64 85q24 49 24 114q0 69 -23 121
q-24 53 -63 87q-40 34 -96 52q-54 17 -121 19h-240z" />
    <glyph glyph-name="s" unicode="s" 
d="M1092 480q18 -52 18 -117q0 -97 -43 -168q-43 -72 -111 -120t-153 -72t-171 -24q-96 0 -188 30t-163 85q-74 57 -118 136q-44 78 -48 170v12v170h186v-137q0 -59 19 -112q9 -25 17 -39q28 -52 71 -88q44 -36 100 -54q57 -18 124 -18q55 0 104 13q54 14 92 41q41 29 66 71
q26 44 26 102q0 66 -30 111t-77 77q-41 28 -104 51q-69 25 -109 38q-71 22 -154 59q-76 34 -143 85q-65 50 -105 118q-41 70 -41 161q0 92 41 166q40 73 107 123q69 52 149 76q86 26 169 26q94 0 180 -31q84 -31 153 -87q67 -55 108 -136q41 -80 42 -178v-141h-187v105
q0 67 -20 123q-6 18 -10 26q-22 49 -61 87q-38 37 -89 56q-52 20 -116 20q-56 0 -102 -14q-50 -15 -89 -45q-41 -32 -62 -72q-23 -44 -23 -101q1 -61 32 -105q28 -40 77 -72q44 -28 101 -49q58 -21 103 -35q48 -15 107 -38t105 -48q47 -26 93 -62q40 -32 76 -79
q33 -44 51 -96z" />
    <glyph glyph-name="t" unicode="t" 
d="M81 1439h1063v-156h-443v-1278h-177v1278h-443v156z" />
    <glyph glyph-name="u" unicode="u" 
d="M1079 1432l2 -970q-1 -99 -37 -189q-34 -87 -96 -153q-60 -64 -148 -103q-87 -38 -188 -38q-103 0 -190 38q-88 39 -147 102q-60 65 -95 154q-34 89 -36 189l2 970h173l4 -970q2 -66 21 -124q20 -60 55 -104q38 -48 89 -73q54 -27 124 -27t123 27q54 28 89 73
q38 49 55 104q19 60 20 124l3 970h177z" />
    <glyph glyph-name="u" unicode="&#xfc;" 
d="M1079 1432l2 -970q-1 -99 -37 -189q-34 -87 -96 -153q-60 -64 -148 -103q-87 -38 -188 -38q-103 0 -190 38q-88 39 -147 102q-60 65 -95 154q-34 89 -36 189l2 970h173l4 -970q2 -66 21 -124q20 -60 55 -104q38 -48 89 -73q54 -27 124 -27t123 27q54 28 89 73
q38 49 55 104q19 60 20 124l3 970h177z" />
    <glyph glyph-name="u" unicode="&#xfb;" 
d="M1079 1432l2 -970q-1 -99 -37 -189q-34 -87 -96 -153q-60 -64 -148 -103q-87 -38 -188 -38q-103 0 -190 38q-88 39 -147 102q-60 65 -95 154q-34 89 -36 189l2 970h173l4 -970q2 -66 21 -124q20 -60 55 -104q38 -48 89 -73q54 -27 124 -27t123 27q54 28 89 73
q38 49 55 104q19 60 20 124l3 970h177z" />
    <glyph glyph-name="u" unicode="&#xfa;" 
d="M1079 1432l2 -970q-1 -99 -37 -189q-34 -87 -96 -153q-60 -64 -148 -103q-87 -38 -188 -38q-103 0 -190 38q-88 39 -147 102q-60 65 -95 154q-34 89 -36 189l2 970h173l4 -970q2 -66 21 -124q20 -60 55 -104q38 -48 89 -73q54 -27 124 -27t123 27q54 28 89 73
q38 49 55 104q19 60 20 124l3 970h177z" />
    <glyph glyph-name="u" unicode="&#xf9;" 
d="M1079 1432l2 -970q-1 -99 -37 -189q-34 -87 -96 -153q-60 -64 -148 -103q-87 -38 -188 -38q-103 0 -190 38q-88 39 -147 102q-60 65 -95 154q-34 89 -36 189l2 970h173l4 -970q2 -66 21 -124q20 -60 55 -104q38 -48 89 -73q54 -27 124 -27t123 27q54 28 89 73
q38 49 55 104q19 60 20 124l3 970h177z" />
    <glyph glyph-name="v" unicode="v" 
d="M950 1439h194l-452 -1434h-158l-453 1434h195l335 -1141z" />
    <glyph glyph-name="w" unicode="w" 
d="M986 1439h172l-174 -1434h-186l-184 1080l-186 -1080h-187l-175 1434h174l109 -1046l184 1046h159l185 -1046z" />
    <glyph glyph-name="x" unicode="x" 
d="M718 728l426 -723h-213l-317 573l-318 -573h-215l427 723l-417 711h214l305 -563l310 563h214z" />
    <glyph glyph-name="y" unicode="y" 
d="M286 1434l326 -720l327 720h207l-446 -899l-3 -535h-169l-3 535l-446 899h207z" />
    <glyph glyph-name="y" unicode="&#xff;" 
d="M286 1434l326 -720l327 720h207l-446 -899l-3 -535h-169l-3 535l-446 899h207z" />
    <glyph glyph-name="y" unicode="&#xfd;" 
d="M286 1434l326 -720l327 720h207l-446 -899l-3 -535h-169l-3 535l-446 899h207z" />
    <glyph glyph-name="z" unicode="z" 
d="M1061 1295l-716 -1140h742v-155h-948l-2 142l714 1136h-701v156h909z" />
    <glyph glyph-name="nonbreakingspace" unicode="&#xa0;" 
 />
    <glyph glyph-name="yen" unicode="&#xa5;" 
d="M249 1434l363 -667l364 667h208l-414 -709h313v-119h-382l-1 -2v-165h383v-118h-383v-321h-182v321h-374v118h374v167h-374v119h311l-415 709h209z" />
    <glyph glyph-name="softhyphen" unicode="&#xad;" 
 />
    <glyph glyph-name="Aring" unicode="&#xc5;" 
d="M966 0l-113 371h-478l-116 -371h-182l463 1434h153l454 -1434h-181zM431 1628q-16 35 -16 77q0 44 16 79q17 36 44 62q28 27 64 41q35 14 78 14t77 -14q35 -15 63 -41q26 -24 43 -62q16 -38 16 -79q0 -39 -16 -77q-16 -36 -43 -61t-63 -39q-37 -14 -77 -14q-39 0 -78 14
q-37 13 -64 39q-28 27 -44 61zM616 1152l-192 -622h381zM543 1783q-31 -31 -31 -78q0 -22 9 -40q11 -22 22 -33q14 -14 33 -22t41 -8q21 0 40 8q17 7 32 22q13 13 21 32t8 41q0 47 -29 78q-29 30 -72 30q-44 0 -74 -30z" />
    <glyph glyph-name="AE" unicode="&#xc6;" 
d="M1185 0h-523l-1 348h-305l-121 -348h-195l551 1434h571v-150h-332l2 -464h298v-148h-298l1 -523h352v-149zM659 1214l-243 -695h245z" />
    <glyph glyph-name="Oslash" unicode="&#xd8;" 
d="M1100 797v-163q-2 -82 -13 -156q-11 -75 -38 -151q-26 -76 -65 -136q-40 -63 -95 -110q-54 -47 -127 -74q-72 -27 -160 -27t-159 27q-74 28 -127 74l-102 -173h-140l158 266q-36 53 -58 103q-25 59 -41 114q-16 58 -24 121q-8 66 -8 122v163q2 81 13 155q11 69 39 151
q26 75 66 137q42 65 95 111q57 49 126 75q72 27 160 27q101 0 178 -34t135 -92l98 165h139l-158 -268q31 -53 48 -98q19 -49 33 -106t20 -111q5 -51 7 -112zM280 634q2 -80 12 -145q12 -78 40 -145l491 830q-35 51 -92 84q-55 32 -131 32q-64 0 -111 -22q-46 -22 -84 -61
q-33 -34 -59 -88q-21 -44 -38 -104q-15 -54 -21 -110q-5 -49 -7 -106v-165zM920 799q-2 69 -8 121q-7 59 -26 124l-484 -817q37 -42 86 -64q51 -23 114 -23q64 0 113 23t83 60q38 41 59 88q21 46 37 104q13 47 20 111q4 36 6 108v165z" />
    <glyph glyph-name="germandbls" unicode="&#xdf;" 
d="M335 1070v-1070h-181v1070q0 108 29 197q28 85 81 146q51 58 122 90q69 31 155 31q72 0 138 -20q65 -20 112 -61q50 -44 76 -104q27 -63 27 -148q0 -79 -19 -130q-18 -49 -44 -94q-10 -18 -42 -79q-20 -38 -20 -87q0 -45 23 -82q24 -39 55 -71q28 -29 73 -69
q43 -38 73 -75q35 -43 56 -89q22 -48 22 -114q0 -85 -25 -145q-26 -62 -71 -104q-43 -40 -108 -62q-60 -20 -137 -20q-48 0 -84 5q-41 6 -83 15t-73 22q-39 16 -53 28l41 153q13 -8 44 -24q22 -12 57 -25q24 -9 65 -18q37 -8 67 -8q48 0 80 13q35 14 55 37q22 25 32 56
q11 33 11 68q0 47 -23 85q-23 39 -55 72q-21 22 -73 68q-40 35 -73 76q-34 41 -56 92q-23 52 -23 118q0 39 10 70q12 37 25 62q16 31 33 56t33 56q14 26 25 60q10 30 10 69q0 48 -15 86q-14 36 -39 62q-23 24 -55 38q-30 13 -62 13q-97 0 -156 -81t-60 -234z" />
    <glyph glyph-name="quoteleft" unicode="&#x2018;" 
d="M476 1624l145 36l128 -518l-145 -36z" />
    <glyph glyph-name="quoteright" unicode="&#x2019;" 
d="M621 1106l-145 36l128 518l145 -36z" />
    <glyph glyph-name="quotedblleft" unicode="&#x201c;" 
d="M913 1142l-146 -36l-128 518l145 36zM586 1142l-146 -36l-128 518l145 36z" />
    <glyph glyph-name="quotedblright" unicode="&#x201d;" 
d="M586 1624l-129 -518l-145 36l128 518zM913 1624l-129 -518l-145 36l128 518z" />
    <glyph glyph-name="Euro" unicode="&#x20ac;" 
d="M1038 155v276h183v-431h-995v433h-222v149h222v147h-222v149h225q2 32 12 96q14 79 40 148q28 72 68 132q41 61 97 105q54 42 129 69q71 25 161 25q108 0 192 -33q85 -33 146 -93q59 -57 98 -145q37 -82 49 -188h-182q-9 63 -31 122q-21 54 -58 98q-36 42 -89 66
q-55 25 -125 25q-62 0 -114 -22q-50 -21 -86 -57q-35 -35 -60 -85q-24 -48 -39 -102t-21 -111q-2 -16 -4 -50h403v-149h-405v-147h405v-149h-405v-278h628z" />
    <glyph glyph-name="nine.alt1" unicode="&#xf00d;" 
d="M1052 1016q11 -74 11 -142v-874h-700v162h516v461q-21 -27 -53 -54q-33 -28 -69 -46q-37 -19 -85 -31q-46 -12 -102 -12q-106 0 -184 42q-77 41 -127 110q-50 68 -74 154t-24 172q0 104 28 192q28 89 84 157q53 65 139 107q81 40 193 40q83 0 150 -23q64 -22 117 -64
q51 -41 87 -96q37 -57 59 -120q24 -70 34 -135zM882 840v59q0 97 -22 170q-23 77 -60 127q-38 52 -88 79q-51 28 -106 28q-63 0 -113 -26q-48 -25 -83 -70q-33 -44 -52 -107q-17 -58 -17 -132q0 -69 15 -124q15 -59 48 -108q33 -48 81 -76q50 -29 115 -29q46 0 90 15
q40 14 80 44q38 28 66 66q30 40 46 84z" />
    <glyph glyph-name="six.alt1" unicode="&#xf00e;" 
d="M1065 492v-492h-906v615q0 91 13 198q12 99 42 189q31 93 79 170q49 78 127 138q75 57 182 91q108 34 246 34h15v-164h-15q-86 0 -162 -19q-76 -21 -126 -51q-56 -34 -93 -77t-64 -98q-27 -56 -40 -111q-12 -52 -17 -118q26 30 59 56q33 25 72 45q37 18 84 31
q41 11 94 11q106 0 185 -41q80 -42 128 -107q50 -68 74 -152q20 -70 23 -148zM886 151v308q0 58 -16 122q-15 59 -48 106q-34 48 -82 74q-51 28 -115 28q-45 0 -89 -15q-46 -16 -81 -41q-38 -28 -66 -64q-28 -37 -45 -83v-435h542z" />
    <glyph glyph-name="exclam.alt1" unicode="&#xf011;" 
d="M668 788v-323h-186v323q0 104 69 181q22 24 22.5 56t-19.5 57l-11 14q-61 75 -61 171v168h186v-168q0 -31 19 -55l11 -13q64 -78 61.5 -178t-69.5 -175q-22 -25 -22 -58zM578 204q57 0 85 -31q29 -32 29 -79q0 -45 -29 -76q-29 -30 -85 -30t-84 30q-28 29 -28 76
q0 48 28 79t84 31z" />
    <glyph glyph-name="exclam.alt2" unicode="&#xf013;" 
d="M720 1117l82 -101l-69 -77q-108 -120 -108 -283v-194h-185v194q0 202 120 364q-120 162 -120 364v48h185v-48q0 -150 95 -267zM535 204q58 0 86 -31q29 -32 29 -79q0 -45 -29 -76q-29 -30 -86 -30q-55 0 -84 30q-28 29 -28 76q0 48 28 79t84 31z" />
    <glyph glyph-name="ampersand.alt1" unicode="&#xf015;" 
d="M1128 663v-663l-1031 1q-1 358 -1 366q0 4 0.5 11.5t0.5 10.5q3 55 19 100q20 57 55 105q37 51 85 93q54 48 109 86q-67 91 -105 169q-38 77 -38 167q0 85 25 148q26 66 71 108q48 45 111 67t146 22q70 0 127 -24q55 -23 97 -67q42 -43 62 -97q21 -56 21 -116
q0 -52 -15 -95q-14 -42 -42 -80q-27 -38 -65 -71t-81 -66l-91 -78l376 -498v401h164zM416 1185q-11 -36 -11 -74q0 -56 24 -113q25 -58 69 -122l115 92q35 24 51 43q18 21 30 46q10 22 15 47q5 27 5 46q0 30 -9 58q-8 26 -28 49q-17 20 -44 34q-26 14 -58 14q-40 0 -74 -16
q-34 -18 -53 -42q-22 -28 -32 -62zM279 148h559l-379 502l-27 -23q-49 -40 -79 -79q-33 -43 -47 -72q-16 -33 -22 -62q-5 -24 -5 -47v-219z" />
    <glyph glyph-name="d.alt1" unicode="&#xf01f;" 
d="M1052 1038q41 -116 43 -269v-769h-966v1434h332q151 -2 268 -51q118 -50 198 -136q82 -88 125 -209zM913 149v622q-2 111 -28 202q-27 92 -83 162q-55 69 -140 108t-201 41h-146v-1135h598z" />
    <glyph glyph-name="o.alt1" unicode="&#xf022;" 
d="M113 1434h999v-1434h-999v1434zM293 162h639v1109h-639v-1109z" />
    <glyph glyph-name="q.alt1" unicode="&#xf023;" 
d="M1099 953q11 -76 13 -155v-798h-999v798q2 81 13 155q11 75 38 151q25 72 66 136q4 6 12.5 17.5t9.5 13.5q29 38 41 50q5 5 32 30q56 48 127 75q14 6 21 8q61 19 139 19t139 -19q7 -2 21 -8q70 -26 127 -74q28 -25 33 -31q26 -27 42 -50q4 -5 10.5 -15t9.5 -15
q41 -64 66 -136q28 -82 39 -152zM726 492l206 -206v514q-2 57 -7 106q-7 64 -20 111q-17 60 -38 104q-26 54 -59 88q-36 37 -84 60q-1 1 -3 1t-3 1q-48 20 -106 20t-104 -20q-1 -1 -3.5 -2t-3.5 -1q-48 -22 -84 -60q-33 -34 -59 -88q-21 -44 -38 -104q-15 -53 -21 -111
q-5 -39 -6 -76v-667h551l-224 224z" />
    <glyph glyph-name="u.alt1" unicode="&#xf024;" 
d="M902 1432h179v-1433h-179v80q-48 -37 -102 -62q-87 -38 -188 -38q-103 0 -190 38q-88 39 -147 102q-60 65 -95 154q-34 89 -36 189l2 970h173l4 -970q2 -66 21 -124q20 -60 55 -104q38 -48 89 -73q54 -27 124 -27t123 27q54 28 89 73q38 49 55 104q19 60 20 124l3 890v80
z" />
    <glyph glyph-name="u.alt2" unicode="&#xf025;" 
d="M903 1439h177v-1434h-935v1434h177v-1279h581v1279z" />
    <glyph glyph-name="c.alt1" unicode="&#xf02b;" 
d="M1110 880h-183v67q0 85 -26 157q0 2 -1.5 6t-2.5 6q-21 54 -58 98q-36 42 -89 66q-55 25 -125 25q-63 0 -115 -22q-49 -21 -85 -57q-35 -35 -60 -85q-24 -48 -39 -102t-21 -111q-7 -66 -7 -110v-663h628v405h184v-560h-995v816q2 87 14 158q13 75 41 148q28 72 68 132
q41 61 97 105q54 42 129 69q71 25 161 25q108 0 192 -33q85 -33 146 -93q59 -57 98 -145q17 -37 33 -100v-1q16 -69 16 -132v-69z" />
    <glyph glyph-name="g.alt1" unicode="&#xf02c;" 
d="M645 714h468v-714h-1001v799q2 87 14 160q13 75 41 152q26 70 69 135q26 39 61 74q19 19 38 34q55 45 131 73q71 26 163 26q102 0 185 -31q87 -32 148 -88q39 -34 70 -83q18 -27 31 -56q18 -38 31 -86q17 -66 17 -133v-96h-181v81q0 88 -33 166v1q-23 52 -60 90
q-39 39 -88 59q-51 21 -119 21q-67 0 -115 -22q-50 -22 -88 -60t-62 -87q-26 -54 -40 -105q-15 -50 -23 -112q-3 -21 -5 -65v-690h638v403h-290v154z" />
    <glyph glyph-name="a.alt1" unicode="&#xf02d;" 
d="M1099 953q11 -76 13 -155v-798h-180v371h-639v-371h-180v798q2 81 13 155q11 75 38 151q25 72 66 136q4 6 12.5 17.5t9.5 13.5q29 38 41 50q5 5 32 30q56 48 127 75q14 6 21 8q61 19 139 19t139 -19q7 -2 21 -8q70 -26 127 -74q28 -25 33 -31q26 -27 42 -50
q4 -5 10.5 -15t9.5 -15q41 -64 66 -136q28 -82 39 -152zM293 530h639v269q-2 58 -7 107q-7 64 -20 111q-17 60 -38 104q-26 54 -59 88q-36 37 -84 60q-1 1 -3 1t-3 1q-48 20 -106 20t-104 -20q-1 -1 -3.5 -2t-3.5 -1q-48 -22 -84 -60q-33 -34 -59 -88q-21 -44 -38 -104
q-15 -53 -21 -111q-5 -39 -6 -76v-299z" />
    <glyph glyph-name="three.alt1" unicode="&#xf02e;" 
d="M1055 499q12 -49 12 -99v-400h-909v560h182v-411h543v260q0 42 -9 72q-1 3 -12 31q-23 49 -62 81q-41 34 -96 48q-61 16 -125 16h-130v147h130q71 0 122 19q53 18 89 51q34 31 54 78q19 48 19 100q0 125 -64 188q-66 64 -187 64q-54 0 -106 -18q-48 -17 -82 -49t-52 -78
q-19 -44 -19 -102v-177h-183v177q0 82 32 155q33 73 88 124l2 2q56 52 139 84q80 31 181 31q95 0 176 -26q79 -25 137 -77t89 -127t31 -175q0 -43 -13 -86q-14 -47 -39 -86q-26 -41 -69 -79q-44 -40 -99 -62q68 -22 116 -59q47 -36 75 -81l3 -6q25 -43 36 -90z" />
    <glyph glyph-name="five.alt1" unicode="&#xf030;" 
d="M1056 560q7 -46 7 -103v-457h-902v560h175v-398h543v337q-5 46 -17 81q-19 56 -56 101q-35 42 -89 67q-55 25 -122 25q-46 0 -79 -6q-28 -5 -59 -19q-30 -13 -50 -28q-21 -16 -48 -39l-145 38l71 715h736v-178h-582l-40 -382q49 28 101 44q58 18 137 18q100 0 178 -34
q73 -31 126 -89l8 -8q15 -17 26 -33q19 -28 23 -36q9 -17 19 -40q14 -32 17 -42q11 -32 20 -82q0 -2 1 -6t1 -6z" />
    <glyph glyph-name="j.alt1" unicode="&#xf031;" 
d="M893 1434h186v-1434l-933 1v561h184v-406h563v1278z" />
    <glyph glyph-name="x.alt1" unicode="&#xf032;" 
d="M765 642l379 -642h-213l-317 573l-318 -573h-215l379 642h-224v150h232l-377 642h214l305 -563l310 563h214l-376 -642h231v-150h-224z" />
    <glyph glyph-name="A.alt1" unicode="&#xf033;" 
d="M1099 953q11 -76 13 -155v-798h-180v371h-639v-371h-180v798q2 81 13 155q11 75 38 151q25 72 66 136q4 6 12.5 17.5t9.5 13.5q29 38 41 50q5 5 32 30q56 48 127 75q14 6 21 8q61 19 139 19t139 -19q7 -2 21 -8q70 -26 127 -74q28 -25 33 -31q26 -27 42 -50
q4 -5 10.5 -15t9.5 -15q41 -64 66 -136q28 -82 39 -152zM293 530h639v269q-2 58 -7 107q-7 64 -20 111q-17 60 -38 104q-26 54 -59 88q-36 37 -84 60q-1 1 -3 1t-3 1q-48 20 -106 20t-104 -20q-1 -1 -3.5 -2t-3.5 -1q-48 -22 -84 -60q-33 -34 -59 -88q-21 -44 -38 -104
q-15 -53 -21 -111q-5 -39 -6 -76v-299z" />
    <glyph glyph-name="C.alt1" unicode="&#xf034;" 
d="M1110 880h-183v67q0 85 -26 157q0 2 -1.5 6t-2.5 6q-21 54 -58 98q-36 42 -89 66q-55 25 -125 25q-63 0 -115 -22q-49 -21 -85 -57q-35 -35 -60 -85q-24 -48 -39 -102t-21 -111q-7 -66 -7 -110v-663h628v405h184v-560h-995v816q2 87 14 158q13 75 41 148q28 72 68 132
q41 61 97 105q54 42 129 69q71 25 161 25q108 0 192 -33q85 -33 146 -93q59 -57 98 -145q17 -37 33 -100v-1q16 -69 16 -132v-69z" />
    <glyph glyph-name="D.alt1" unicode="&#xf035;" 
d="M1052 1038q41 -116 43 -269v-769h-966v1434h332q151 -2 268 -51q118 -50 198 -136q82 -88 125 -209zM913 149v622q-2 111 -28 202q-27 92 -83 162q-55 69 -140 108t-201 41h-146v-1135h598z" />
    <glyph glyph-name="G.alt1" unicode="&#xf036;" 
d="M645 714h468v-714h-1001v799q2 87 14 160q13 75 41 152q26 70 69 135q26 39 61 74q19 19 38 34q55 45 131 73q71 26 163 26q102 0 185 -31q87 -32 148 -88q39 -34 70 -83q18 -27 31 -56q18 -38 31 -86q17 -66 17 -133v-96h-181v81q0 88 -33 166v1q-23 52 -60 90
q-39 39 -88 59q-51 21 -119 21q-67 0 -115 -22q-50 -22 -88 -60t-62 -87q-26 -54 -40 -105q-15 -50 -23 -112q-3 -21 -5 -65v-690h638v403h-290v154z" />
    <glyph glyph-name="J.alt1" unicode="&#xf037;" 
d="M893 1434h186v-1434l-933 1v582h184v-427h563v1278z" />
    <glyph glyph-name="O.alt1" unicode="&#xf038;" 
d="M113 1434h999v-1434h-999v1434zM293 162h639v1109h-639v-1109z" />
    <glyph glyph-name="Q.alt1" unicode="&#xf039;" 
d="M1099 953q11 -76 13 -155v-798h-999v798q2 81 13 155q11 75 38 151q25 72 66 136q4 6 12.5 17.5t9.5 13.5q29 38 41 50q5 5 32 30q56 48 127 75q14 6 21 8q61 19 139 19t139 -19q7 -2 21 -8q70 -26 127 -74q28 -25 33 -31q26 -27 42 -50q4 -5 10.5 -15t9.5 -15
q41 -64 66 -136q28 -82 39 -152zM726 492l206 -206v514q-2 57 -7 106q-7 64 -20 111q-17 60 -38 104q-26 54 -59 88q-36 37 -84 60q-1 1 -3 1t-3 1q-48 20 -106 20t-104 -20q-1 -1 -3.5 -2t-3.5 -1q-48 -22 -84 -60q-33 -34 -59 -88q-21 -44 -38 -104q-15 -53 -21 -111
q-5 -39 -6 -76v-667h551l-224 224z" />
    <glyph glyph-name="U.alt1" unicode="&#xf03a;" 
d="M902 1433h179v-1434h-179v80q-48 -37 -102 -62q-84 -37 -188 -37q-106 0 -190 37q-86 38 -147 103t-95 153q-34 89 -36 189l2 971h173l4 -971q1 -64 21 -123q20 -60 55 -104q38 -47 89 -73q56 -28 124 -28q70 0 123 27q54 28 89 73q38 49 55 105q19 60 20 123l3 890v81z
" />
    <glyph glyph-name="U.alt2" unicode="&#xf03b;" 
d="M903 1434h177v-1434h-935v1434h177v-1279h581v1279z" />
    <glyph glyph-name="X.alt1" unicode="&#xf03c;" 
d="M765 642l379 -642h-213l-317 573l-318 -573h-215l379 642h-224v150h232l-377 642h214l305 -563l310 563h214l-376 -642h231v-150h-224z" />
  </font>
</defs>
</svg>
