<svg width="359" height="106" viewBox="0 0 359 106" fill="none" xmlns="http://www.w3.org/2000/svg">
<path d="M213.316 4.12446C203.886 4.41366 192.792 4.41366 181.975 4.99207C171.159 5.57048 160.065 6.43809 149.248 7.01649C146.197 7.3057 142.869 7.3057 139.818 7.5949C139.541 7.5949 139.263 7.5949 138.986 7.5949C137.322 7.5949 136.212 7.01649 136.212 6.14888C136.212 5.28127 136.767 4.41366 138.708 4.41366C143.978 4.12446 148.971 3.83525 154.24 3.54605C162.838 2.96764 171.159 2.10003 179.757 1.81083C192.238 1.52163 204.718 1.23242 217.199 1.23242C226.907 1.23242 236.337 1.52163 246.044 2.10003C253.255 2.38924 260.466 2.96764 267.677 3.83525C276.553 4.70286 285.428 5.85968 294.303 7.3057C307.061 9.33012 319.542 12.2222 331.468 17.4278C335.906 19.4522 340.066 21.7659 344.504 24.0795C347.555 25.8147 350.051 28.1284 352.547 30.7312C356.985 35.6476 358.649 43.1669 355.321 50.1078C352.547 55.8919 347.832 60.23 342.84 63.9896C335.074 69.7737 326.476 73.8225 317.601 77.5822C300.96 84.523 283.486 88.8611 265.736 92.3316C245.766 96.3804 225.52 98.9832 205.273 101.008C192.792 102.164 180.311 103.032 167.553 103.61C153.131 104.189 138.708 104.767 124.009 104.767C110.419 104.767 96.8283 104.189 83.2381 103.032C73.2534 102.164 63.546 101.008 53.8387 99.2724C41.0805 96.9588 28.3223 93.1992 16.6735 87.1259C12.2359 85.1015 8.35294 82.2094 5.30206 78.739C-0.522333 71.5089 0.0323714 63.7004 5.02471 57.0487C9.46235 51.2646 15.2867 47.2158 21.6658 43.7453C32.4826 37.3829 44.4087 33.334 56.3349 30.1528C73.5307 25.2363 90.7266 22.3443 108.2 19.7415C123.731 17.717 139.541 15.9818 155.072 15.1142C168.663 14.2466 182.253 13.9574 195.843 14.2466C203.886 14.5358 211.652 14.5358 219.695 15.1142C234.95 15.9818 249.927 17.4278 264.904 20.3199C273.224 21.7659 281.268 23.2119 289.311 25.8147C293.748 27.2607 297.909 28.7068 301.792 31.3096C303.456 32.4664 304.01 33.334 303.456 34.2016C302.901 35.0692 301.792 35.0692 300.405 33.9124C293.748 29.5744 286.537 27.8392 279.049 26.1039C268.232 23.5011 257.138 21.7659 246.044 20.3199C238.001 19.4522 229.957 18.8738 221.914 18.2954C215.535 17.717 208.879 17.4278 202.5 17.4278C195.288 17.1386 188.077 17.1386 180.866 17.4278C170.881 17.717 160.619 18.0062 150.357 18.5846C135.935 19.4522 121.79 20.8983 107.368 23.2119C97.383 24.9471 87.3983 26.3931 77.691 28.4176C63.2687 31.3096 49.1237 35.0692 35.5335 40.5641C27.2129 44.0346 19.1697 48.3726 11.9585 54.4459C10.0171 56.1811 8.35294 57.9163 6.96618 60.2299C3.3606 65.4356 3.08325 71.2197 7.52088 76.7146C10.0171 79.8958 13.3453 82.2094 16.9509 83.9446C24.7167 88.2827 32.7599 90.8855 41.0805 93.1992C52.7293 96.3804 64.6555 98.1156 76.5816 99.2724C88.2304 100.429 100.157 101.297 111.805 101.297C119.016 101.297 126.505 101.586 133.716 101.586C143.701 101.297 153.963 101.297 163.948 100.718C178.093 99.8508 192.515 98.9832 206.66 97.5372C228.848 95.5128 250.759 92.3315 272.392 87.4151C288.756 83.9446 304.565 79.3174 320.097 72.6657C328.14 69.1953 335.906 65.1464 342.84 59.3623C346.445 56.4703 349.774 52.9999 351.715 48.6618C353.934 43.7453 353.656 39.1181 350.606 34.4908C348.109 31.0204 344.781 28.4176 341.176 26.1039C333.687 21.4767 325.367 18.2954 317.046 15.6926C307.616 12.8006 297.909 11.0653 287.924 9.33012C271.56 6.72729 255.196 5.57048 238.555 4.70286C231.067 4.70286 223.024 4.41366 213.316 4.12446Z" fill="#E5594D" stroke="#E5594D" stroke-width="2"/>
</svg>
