<svg width="48" height="48" viewBox="0 0 48 48" fill="none" xmlns="http://www.w3.org/2000/svg">
<path d="M32 20V13.3684C31.9939 11.4159 31.1491 9.54502 29.6501 8.16439C28.1511 6.78376 26.1198 6.00564 24 6V6C21.8802 6.00564 19.8489 6.78376 18.3499 8.16439C16.8509 9.54502 16.0061 11.4159 16 13.3684V20" stroke="#E5594D" stroke-width="3" stroke-miterlimit="10"/>
<path d="M38 20H10V43H38V20Z" stroke="#E5594D" stroke-width="3" stroke-miterlimit="10"/>
<path d="M24 34C26.2091 34 28 32.2091 28 30C28 27.7909 26.2091 26 24 26C21.7909 26 20 27.7909 20 30C20 32.2091 21.7909 34 24 34Z" stroke="#E5594D" stroke-width="3" stroke-miterlimit="10"/>
<path d="M24 34V38" stroke="#E5594D" stroke-width="3" stroke-miterlimit="10"/>
</svg>
